<svg xmlns="http://www.w3.org/2000/svg" xmlns:xlink="http://www.w3.org/1999/xlink" width="1024" zoomAndPan="magnify" viewBox="0 0 768 767.999994" height="1024" preserveAspectRatio="xMidYMid meet" version="1.0"><defs><clipPath id="4960c4da22"><path d="M 313 0 L 662 0 L 662 248 L 313 248 Z M 313 0 " clip-rule="nonzero"/></clipPath><clipPath id="b8a3be5f58"><path d="M 362.921875 -29.722656 L 662.015625 41.695312 L 612.890625 247.414062 L 313.800781 175.992188 Z M 362.921875 -29.722656 " clip-rule="nonzero"/></clipPath><clipPath id="0b517d9f7b"><path d="M 260 180 L 273 180 L 273 198 L 260 198 Z M 260 180 " clip-rule="nonzero"/></clipPath><clipPath id="4281f86d71"><path d="M 49.921875 -29.722656 L 349.015625 41.695312 L 299.890625 247.414062 L 0.800781 175.992188 Z M 49.921875 -29.722656 " clip-rule="nonzero"/></clipPath><clipPath id="75ef66efab"><path d="M 348.71875 41.625 L 49.628906 -29.792969 L 0.503906 175.921875 L 299.59375 247.34375 Z M 348.71875 41.625 " clip-rule="nonzero"/></clipPath><clipPath id="248f6b9550"><path d="M 348.71875 41.625 L 49.628906 -29.792969 L 0.503906 175.921875 L 299.59375 247.34375 Z M 348.71875 41.625 " clip-rule="nonzero"/></clipPath><clipPath id="6f7ffdea20"><path d="M 239 195 L 267 195 L 267 237 L 239 237 Z M 239 195 " clip-rule="nonzero"/></clipPath><clipPath id="67ae398d95"><path d="M 49.921875 -29.722656 L 349.015625 41.695312 L 299.890625 247.414062 L 0.800781 175.992188 Z M 49.921875 -29.722656 " clip-rule="nonzero"/></clipPath><clipPath id="0af0f70e76"><path d="M 348.71875 41.625 L 49.628906 -29.792969 L 0.503906 175.921875 L 299.59375 247.34375 Z M 348.71875 41.625 " clip-rule="nonzero"/></clipPath><clipPath id="7223f00a77"><path d="M 348.71875 41.625 L 49.628906 -29.792969 L 0.503906 175.921875 L 299.59375 247.34375 Z M 348.71875 41.625 " clip-rule="nonzero"/></clipPath><clipPath id="c0b179204e"><path d="M 91 78 L 265 78 L 265 148 L 91 148 Z M 91 78 " clip-rule="nonzero"/></clipPath><clipPath id="301360d15b"><path d="M 49.921875 -29.722656 L 349.015625 41.695312 L 299.890625 247.414062 L 0.800781 175.992188 Z M 49.921875 -29.722656 " clip-rule="nonzero"/></clipPath><clipPath id="e7c6db5d6b"><path d="M 348.71875 41.625 L 49.628906 -29.792969 L 0.503906 175.921875 L 299.59375 247.34375 Z M 348.71875 41.625 " clip-rule="nonzero"/></clipPath><clipPath id="473caa9087"><path d="M 348.71875 41.625 L 49.628906 -29.792969 L 0.503906 175.921875 L 299.59375 247.34375 Z M 348.71875 41.625 " clip-rule="nonzero"/></clipPath><clipPath id="ef5603f9a6"><path d="M 35 7 L 332 7 L 332 134 L 35 134 Z M 35 7 " clip-rule="nonzero"/></clipPath><clipPath id="e423a94ada"><path d="M 49.921875 -29.722656 L 349.015625 41.695312 L 299.890625 247.414062 L 0.800781 175.992188 Z M 49.921875 -29.722656 " clip-rule="nonzero"/></clipPath><clipPath id="0f00cc8a1f"><path d="M 348.71875 41.625 L 49.628906 -29.792969 L 0.503906 175.921875 L 299.59375 247.34375 Z M 348.71875 41.625 " clip-rule="nonzero"/></clipPath><clipPath id="68077b868a"><path d="M 348.71875 41.625 L 49.628906 -29.792969 L 0.503906 175.921875 L 299.59375 247.34375 Z M 348.71875 41.625 " clip-rule="nonzero"/></clipPath><clipPath id="e54d923719"><path d="M 34 6 L 334 6 L 334 238 L 34 238 Z M 34 6 " clip-rule="nonzero"/></clipPath><clipPath id="618347feb0"><path d="M 49.921875 -29.722656 L 349.015625 41.695312 L 299.890625 247.414062 L 0.800781 175.992188 Z M 49.921875 -29.722656 " clip-rule="nonzero"/></clipPath><clipPath id="5b7615c30e"><path d="M 348.71875 41.625 L 49.628906 -29.792969 L 0.503906 175.921875 L 299.59375 247.34375 Z M 348.71875 41.625 " clip-rule="nonzero"/></clipPath><clipPath id="aded98b1fb"><path d="M 348.71875 41.625 L 49.628906 -29.792969 L 0.503906 175.921875 L 299.59375 247.34375 Z M 348.71875 41.625 " clip-rule="nonzero"/></clipPath><clipPath id="a17f81aeb4"><rect x="0" width="349" y="0" height="248"/></clipPath></defs><g clip-path="url(#4960c4da22)"><g clip-path="url(#b8a3be5f58)"><g transform="matrix(1, 0, 0, 1, 313, -0.000000000000057351)"><g clip-path="url(#a17f81aeb4)"><g clip-path="url(#0b517d9f7b)"><g clip-path="url(#4281f86d71)"><g clip-path="url(#75ef66efab)"><g clip-path="url(#248f6b9550)"><path fill="#ffb41f" d="M 260.859375 195.769531 C 260.859375 195.769531 257.976562 178.066406 268 180.285156 C 278.023438 182.503906 266.5 197.117188 266.5 197.117188 Z M 260.859375 195.769531 " fill-opacity="1" fill-rule="nonzero"/></g></g></g></g><g clip-path="url(#6f7ffdea20)"><g clip-path="url(#67ae398d95)"><g clip-path="url(#0af0f70e76)"><g clip-path="url(#7223f00a77)"><path fill="#ffb41f" d="M 266.5 197.117188 L 266.597656 236.082031 C 266.597656 236.082031 251.292969 234.882812 239.695312 229.65625 L 260.859375 195.769531 Z M 266.5 197.117188 " fill-opacity="1" fill-rule="nonzero"/></g></g></g></g><g clip-path="url(#c0b179204e)"><g clip-path="url(#301360d15b)"><g clip-path="url(#e7c6db5d6b)"><g clip-path="url(#473caa9087)"><path fill="#141414" d="M 94.71875 78.867188 L 91.4375 92.613281 C 87.683594 108.320312 122.5 130.097656 169.191406 141.25 C 215.886719 152.398438 256.785156 148.699219 260.535156 132.992188 L 264.28125 117.300781 L 168.621094 133.550781 Z M 94.71875 78.867188 " fill-opacity="1" fill-rule="nonzero"/></g></g></g></g><g clip-path="url(#ef5603f9a6)"><g clip-path="url(#e423a94ada)"><g clip-path="url(#0f00cc8a1f)"><g clip-path="url(#68077b868a)"><path fill="#1c1c1c" d="M 35.917969 35.351562 L 94.71875 78.867188 L 100.570312 83.195312 L 168.621094 133.550781 L 255.289062 118.828125 L 264.28125 117.300781 L 331.378906 105.90625 L 198.675781 7.699219 Z M 35.917969 35.351562 " fill-opacity="1" fill-rule="nonzero"/></g></g></g></g><g clip-path="url(#e54d923719)"><g clip-path="url(#618347feb0)"><g clip-path="url(#5b7615c30e)"><g clip-path="url(#aded98b1fb)"><path fill="#000000" d="M 35.429688 33.753906 C 54.023438 30.59375 72.617188 27.4375 91.210938 24.277344 C 120.390625 19.320312 149.570312 14.363281 178.75 9.402344 C 183.210938 8.644531 187.671875 7.886719 192.136719 7.128906 C 194.050781 6.804688 196.074219 6.238281 198.015625 6.128906 C 199.570312 6.042969 200.417969 6.929688 201.625 7.820312 C 204.320312 9.816406 207.015625 11.808594 209.710938 13.804688 C 232.449219 30.632812 255.191406 47.460938 277.929688 64.289062 C 295.800781 77.515625 314.164062 90.273438 331.628906 104.027344 C 331.921875 104.261719 332.234375 104.476562 332.535156 104.699219 C 333.492188 105.40625 333.039062 107.304688 331.867188 107.503906 C 316.363281 110.136719 300.859375 112.769531 285.359375 115.402344 C 280.820312 134.410156 276.28125 153.421875 271.742188 172.429688 C 271.199219 174.695312 270.660156 176.960938 270.117188 179.226562 C 277.574219 182.464844 271.789062 192.816406 268.175781 197.660156 C 268.207031 210.449219 268.238281 223.238281 268.273438 236.023438 C 268.273438 236.847656 267.582031 237.824219 266.65625 237.75 C 257.199219 236.984375 247.59375 234.921875 238.890625 231.121094 C 238.089844 230.769531 237.785156 229.5625 238.230469 228.851562 C 245.195312 217.699219 252.160156 206.546875 259.125 195.394531 C 258.242188 189.132812 258.949219 177.847656 266.867188 178.425781 C 271.371094 159.566406 275.875 140.703125 280.378906 121.84375 C 280.84375 119.898438 281.308594 117.957031 281.773438 116.011719 C 276.398438 116.925781 271.027344 117.835938 265.65625 118.75 C 264.609375 123.136719 263.5625 127.519531 262.515625 131.90625 C 261.519531 136.074219 259.519531 139.203125 255.964844 141.707031 C 250.726562 145.390625 244.097656 146.980469 237.871094 148 C 228.761719 149.488281 219.441406 149.597656 210.238281 149.097656 C 186.742188 147.820312 163.214844 142.683594 141.140625 134.574219 C 125.207031 128.71875 107.171875 121.121094 95.648438 108.109375 C 92.015625 104.011719 88.757812 98.753906 89.648438 93.054688 C 90.355469 88.515625 91.71875 84.003906 92.832031 79.53125 C 74.121094 65.6875 55.414062 51.84375 36.707031 38 C 36.058594 37.519531 35.410156 37.039062 34.761719 36.558594 C 34.136719 36.097656 34.046875 35.488281 34.261719 34.960938 C 34.308594 34.386719 34.664062 33.882812 35.429688 33.753906 Z M 264.921875 234.265625 C 264.890625 222.324219 264.863281 210.378906 264.832031 198.433594 C 263.769531 198.179688 262.703125 197.925781 261.640625 197.671875 C 255.144531 208.078125 248.644531 218.480469 242.148438 228.882812 C 249.328125 231.789062 257.207031 233.507812 264.921875 234.265625 Z M 262.351562 194.410156 C 263.511719 194.6875 264.675781 194.964844 265.835938 195.242188 C 268.425781 191.726562 273.703125 183.234375 267.613281 181.910156 C 261.570312 180.59375 261.792969 189.738281 262.351562 194.410156 Z M 93.203125 92.410156 C 92.273438 96.515625 93.753906 100.128906 96.164062 103.464844 C 100.1875 109.042969 106.082031 113.3125 111.835938 116.945312 C 119.488281 121.773438 127.707031 125.691406 136.089844 129.078125 C 157.027344 137.535156 179.554688 142.988281 202.027344 145.148438 C 211.171875 146.03125 220.421875 146.351562 229.59375 145.632812 C 236.574219 145.082031 243.871094 144.035156 250.289062 141.085938 C 254.574219 139.117188 257.996094 136.347656 259.132812 131.660156 C 260.125 127.5625 261.097656 123.460938 262.074219 119.359375 C 235.347656 123.898438 208.621094 128.4375 181.898438 132.976562 C 180.128906 133.277344 178.355469 133.613281 176.578125 133.941406 C 174.199219 134.410156 171.800781 134.894531 169.425781 135.097656 C 168.625 135.164062 167.886719 134.933594 167.191406 134.554688 C 165.867188 133.871094 164.660156 132.679688 163.519531 131.839844 C 150.828125 122.445312 138.132812 113.054688 125.441406 103.660156 C 115.5625 96.351562 105.683594 89.042969 95.808594 81.734375 C 95.789062 81.71875 95.773438 81.707031 95.757812 81.695312 C 94.894531 85.261719 94.015625 88.828125 93.203125 92.410156 Z M 142.695312 112.304688 C 151.476562 118.800781 160.257812 125.300781 169.039062 131.800781 C 192.527344 127.808594 216.011719 123.820312 239.5 119.832031 C 257.574219 116.757812 275.652344 113.6875 293.730469 110.617188 C 304.910156 108.71875 316.085938 106.820312 327.265625 104.921875 C 315.5625 96.261719 303.855469 87.597656 292.152344 78.9375 C 260.523438 77 228.898438 75.0625 197.269531 73.125 C 192.75 72.847656 188.226562 72.570312 183.707031 72.296875 C 181.574219 72.164062 181.441406 68.824219 183.589844 68.957031 C 215.429688 70.90625 247.273438 72.855469 279.113281 74.808594 C 281.824219 74.972656 284.535156 75.140625 287.242188 75.304688 C 286.582031 74.816406 285.917969 74.324219 285.253906 73.835938 C 261.476562 56.238281 237.695312 38.640625 213.917969 21.042969 C 208.695312 17.179688 203.476562 13.316406 198.257812 9.453125 C 180.175781 12.523438 162.09375 15.597656 144.007812 18.667969 C 114.84375 23.625 85.679688 28.578125 56.515625 33.535156 C 51.019531 34.46875 45.523438 35.402344 40.03125 36.335938 C 57.851562 49.523438 75.671875 62.707031 93.492188 75.894531 C 109.890625 88.03125 126.292969 100.167969 142.695312 112.304688 Z M 142.695312 112.304688 " fill-opacity="1" fill-rule="nonzero"/></g></g></g></g></g></g></g></g></svg>