<svg xmlns="http://www.w3.org/2000/svg" xmlns:xlink="http://www.w3.org/1999/xlink" width="1024" zoomAndPan="magnify" viewBox="0 0 768 767.999994" height="1024" preserveAspectRatio="xMidYMid meet" version="1.0"><defs><clipPath id="6327454dd9"><path d="M 264.457031 418.203125 L 652.957031 418.203125 L 652.957031 641.703125 L 264.457031 641.703125 Z M 264.457031 418.203125 " clip-rule="nonzero"/></clipPath><clipPath id="dbee889ac7"><path d="M 0.457031 3 L 387 3 L 387 223.703125 L 0.457031 223.703125 Z M 0.457031 3 " clip-rule="nonzero"/></clipPath><clipPath id="ac0d95c927"><rect x="0" width="389" y="0" height="224"/></clipPath></defs><g clip-path="url(#6327454dd9)"><g transform="matrix(1, 0, 0, 1, 264, 418)"><g clip-path="url(#ac0d95c927)"><g clip-path="url(#dbee889ac7)"><path fill="#151419" d="M 0.90625 36.59375 C 1.605469 53.664062 8.339844 70.929688 14.351562 86.722656 C 14.59375 87.355469 14.835938 87.984375 15.082031 88.613281 C 21.441406 105.007812 29.15625 121.085938 39.578125 135.3125 C 50.152344 149.753906 62.589844 161.949219 75.199219 174.578125 C 84.542969 183.941406 94.410156 192.816406 104.941406 200.835938 C 112.277344 206.417969 118.707031 212.457031 125.742188 218.230469 C 129.664062 221.453125 133.722656 223.648438 139.015625 222.925781 C 145.527344 222.03125 151.375 215.726562 156.257812 212.074219 C 164.890625 205.617188 173.585938 199.257812 182.199219 192.78125 C 196.3125 182.171875 210.292969 171.3125 223.570312 159.664062 C 249.203125 137.171875 263.929688 111.523438 273.46875 78.894531 C 276.355469 69.03125 280.078125 57.691406 282.402344 46.613281 C 283.769531 55.285156 286.414062 63.449219 291.171875 71.472656 C 292.4375 73.601562 293.792969 75.667969 295.246094 77.675781 C 305.1875 91.386719 324.730469 108.863281 342.097656 111.390625 C 343.175781 111.546875 344.007812 111.273438 344.652344 110.351562 C 352.058594 99.78125 352.695312 85.320312 349.410156 71.691406 C 350.261719 71.628906 351.085938 71.601562 351.960938 71.503906 C 358.796875 70.742188 380.375 70.964844 384.714844 65.101562 C 388.933594 59.386719 382.089844 47.582031 379.605469 42.140625 C 374.414062 30.761719 366.917969 21.480469 355.101562 16.71875 C 342.488281 11.636719 327.566406 11.742188 314.273438 12.925781 C 310.96875 13.21875 307.507812 13.410156 304.082031 13.726562 C 303.800781 13.152344 303.484375 12.582031 303.136719 12.019531 C 297.6875 3.289062 286.519531 0.246094 278 6.355469 C 273.757812 9.398438 270.164062 13.988281 268.511719 19.050781 C 264.273438 20.777344 260.039062 23.269531 257.097656 24.609375 C 248.65625 28.457031 240.390625 33.222656 231.5 35.929688 C 193.746094 47.421875 150.484375 49.890625 111.339844 46.582031 C 91.710938 44.921875 72.21875 41.015625 53.828125 33.84375 C 41.808594 29.15625 29.742188 19.003906 16.789062 17.289062 C 4.183594 15.617188 0.457031 25.664062 0.90625 36.59375 " fill-opacity="1" fill-rule="nonzero"/></g><path fill="#efcf18" d="M 292.847656 21.59375 C 292.535156 21.285156 292.21875 21 291.898438 20.707031 C 291.621094 20.449219 291.351562 20.183594 291.070312 19.9375 C 291.089844 19.867188 291.105469 19.789062 291.121094 19.714844 C 291.25 19.242188 291.355469 18.761719 291.457031 18.28125 C 291.554688 17.839844 291.640625 17.398438 291.71875 16.953125 C 291.785156 16.597656 291.839844 16.238281 291.894531 15.878906 C 292.152344 14.089844 292.273438 12.277344 292.195312 10.46875 C 292.179688 10.097656 292.152344 9.308594 292.070312 8.398438 C 294.90625 9.382812 297.476562 11.332031 299.300781 14.261719 C 299.308594 14.273438 299.308594 14.28125 299.3125 14.289062 C 299.871094 15.191406 300.316406 16.128906 300.660156 17.085938 C 300.738281 17.308594 300.765625 17.535156 300.835938 17.757812 C 301 18.289062 301.148438 18.824219 301.25 19.367188 C 301.34375 19.84375 301.390625 20.316406 301.4375 20.800781 C 301.507812 21.527344 301.5625 22.25 301.53125 22.980469 C 301.398438 25.820312 300.515625 28.617188 298.964844 31.050781 C 297.789062 27.503906 295.496094 24.253906 292.847656 21.59375 Z M 283.960938 34.082031 C 284.082031 33.941406 284.207031 33.804688 284.320312 33.664062 C 284.4375 33.519531 284.578125 33.375 284.6875 33.230469 C 284.851562 33.019531 284.972656 32.773438 285.128906 32.554688 C 285.339844 32.257812 285.53125 31.945312 285.730469 31.640625 C 285.851562 31.453125 285.980469 31.269531 286.097656 31.074219 C 286.4375 30.527344 286.792969 29.996094 287.105469 29.429688 C 287.617188 28.5 288.113281 27.554688 288.578125 26.601562 C 288.597656 26.570312 288.613281 26.535156 288.632812 26.5 C 288.746094 26.265625 288.84375 26.019531 288.953125 25.777344 C 289.160156 25.3125 289.375 24.855469 289.570312 24.378906 C 291.542969 26.367188 293.003906 28.582031 294.339844 30.917969 C 294.96875 32.015625 295.582031 33.136719 296.1875 34.28125 C 295.769531 34.667969 295.378906 35.082031 294.917969 35.425781 C 294.917969 35.429688 294.910156 35.433594 294.90625 35.433594 C 294.605469 35.613281 294.289062 35.765625 293.972656 35.925781 C 293.652344 36.089844 293.332031 36.242188 293.003906 36.382812 C 292.148438 36.75 291.265625 37.054688 290.359375 37.277344 C 289.636719 37.457031 288.902344 37.578125 288.164062 37.664062 C 287.917969 37.691406 287.667969 37.714844 287.421875 37.730469 C 287.125 37.75 286.832031 37.769531 286.535156 37.773438 C 285.660156 37.792969 284.785156 37.746094 283.921875 37.628906 C 283.914062 37.628906 283.910156 37.628906 283.898438 37.628906 C 283.046875 37.511719 282.207031 37.328125 281.394531 37.078125 C 281.183594 37.011719 280.976562 36.949219 280.773438 36.878906 C 280.972656 36.753906 281.164062 36.617188 281.355469 36.480469 C 282.324219 35.78125 283.203125 34.960938 283.960938 34.082031 Z M 272.515625 28.527344 C 272.074219 27.148438 271.957031 25.757812 272.011719 24.375 C 272.046875 23.367188 272.167969 22.367188 272.421875 21.382812 C 272.78125 20 273.347656 18.664062 274.042969 17.390625 C 274.171875 17.160156 274.273438 16.925781 274.410156 16.703125 C 274.878906 16.886719 275.355469 17.058594 275.84375 17.199219 C 277.320312 17.625 278.839844 17.925781 280.308594 18.480469 C 280.554688 18.570312 280.78125 18.703125 281.027344 18.808594 C 282.085938 19.242188 283.113281 19.730469 284.105469 20.296875 C 284.476562 20.511719 284.828125 20.753906 285.191406 20.984375 C 285.667969 21.285156 286.15625 21.554688 286.609375 21.882812 C 286.636719 21.902344 286.667969 21.917969 286.695312 21.933594 C 286.492188 22.445312 286.273438 22.953125 286.046875 23.464844 C 285.734375 24.152344 285.402344 24.835938 285.019531 25.519531 C 285.011719 25.53125 285.003906 25.542969 284.996094 25.554688 C 284.878906 25.765625 284.734375 25.953125 284.601562 26.15625 C 284.554688 26.226562 284.511719 26.292969 284.464844 26.363281 C 284.222656 26.710938 283.980469 27.050781 283.71875 27.371094 C 283.03125 28.226562 282.320312 29.050781 281.667969 29.945312 C 281.640625 29.988281 281.601562 30.03125 281.574219 30.078125 C 281.503906 30.171875 281.425781 30.261719 281.359375 30.363281 C 280.566406 31.5625 279.53125 32.582031 278.351562 33.386719 C 277.753906 33.796875 277.125 34.160156 276.449219 34.4375 C 274.699219 32.964844 273.308594 31.007812 272.515625 28.527344 Z M 288.109375 16.835938 C 288.039062 17.261719 288 17.585938 288.039062 17.609375 C 287.8125 17.453125 287.566406 17.300781 287.328125 17.144531 C 284.242188 15.121094 280.546875 13.382812 277.039062 13.183594 C 277.804688 12.332031 278.605469 11.523438 279.449219 10.824219 C 282.238281 8.523438 285.460938 7.578125 288.589844 7.734375 C 288.679688 8.78125 288.816406 9.757812 288.8125 10.273438 C 288.796875 11.582031 288.734375 12.890625 288.589844 14.191406 C 288.5625 14.429688 288.261719 15.90625 288.109375 16.835938 Z M 346.214844 61.597656 C 347.351562 56.292969 347.226562 50.4375 346.085938 44.644531 C 357.574219 48.855469 368.132812 54.742188 379.320312 59.707031 C 379.277344 59.875 379.226562 60.039062 379.140625 60.179688 C 378.070312 61.902344 372.664062 62.578125 370.828125 62.992188 C 363.246094 64.679688 355.492188 65.582031 347.71875 65.714844 C 347.46875 65.722656 347.222656 65.742188 346.972656 65.742188 C 346.546875 65.75 346.132812 65.75 345.714844 65.75 C 345.476562 65.75 345.238281 65.753906 344.996094 65.753906 C 345.132812 65.382812 345.289062 65.027344 345.414062 64.648438 C 345.730469 63.660156 345.992188 62.636719 346.214844 61.597656 Z M 303.097656 48.253906 C 301.089844 46.382812 299.085938 44.3125 297.214844 42.097656 C 296.660156 41.441406 296.121094 40.777344 295.59375 40.097656 C 295.742188 40.023438 295.882812 39.941406 296.027344 39.867188 C 296.410156 39.671875 296.792969 39.484375 297.160156 39.265625 C 298.519531 38.246094 299.730469 37.074219 300.808594 35.804688 C 306.203125 36.15625 311.574219 36.617188 316.925781 37.539062 C 317.980469 37.722656 319.019531 37.925781 320.066406 38.117188 C 321.46875 38.378906 322.867188 38.636719 324.261719 38.917969 C 324.273438 38.917969 324.285156 38.921875 324.300781 38.925781 C 325.96875 39.257812 327.632812 39.609375 329.292969 39.980469 C 330.710938 40.296875 332.128906 40.644531 333.542969 40.992188 C 336.46875 41.707031 339.386719 42.460938 342.300781 43.3125 C 343.160156 47.328125 343.34375 51.207031 343.300781 55.117188 C 343.285156 56.347656 343.25 57.585938 343.203125 58.828125 C 343.121094 61.089844 343.019531 63.386719 342.960938 65.742188 C 342.644531 65.738281 342.324219 65.738281 342.003906 65.730469 C 336.277344 65.613281 330.84375 64.996094 325.261719 62.492188 C 324.132812 61.988281 323.003906 61.390625 321.871094 60.824219 C 320.265625 60.023438 318.691406 59.171875 317.109375 58.261719 C 312.160156 55.40625 307.378906 52.101562 303.304688 48.4375 C 303.234375 48.378906 303.164062 48.316406 303.097656 48.253906 Z M 331.90625 18.097656 C 332.960938 18.15625 334.011719 18.175781 335.070312 18.269531 C 357.964844 20.304688 371.832031 32.777344 378.207031 54.660156 C 378.417969 55.378906 378.933594 56.585938 379.210938 57.75 C 369.703125 49.617188 357.492188 43.210938 344.589844 38.820312 C 342.03125 30.765625 337.570312 23.292969 331.90625 18.097656 Z M 326.265625 34.03125 C 324.628906 33.726562 322.988281 33.449219 321.339844 33.207031 C 320.101562 33.027344 318.863281 32.832031 317.617188 32.691406 C 317.445312 32.667969 317.277344 32.664062 317.109375 32.640625 C 313.875 32.277344 310.632812 31.976562 307.390625 31.75 C 306.148438 31.667969 304.90625 31.613281 303.660156 31.546875 C 304.722656 29.484375 305.460938 27.28125 305.800781 25.019531 C 305.902344 24.363281 305.96875 23.707031 306.003906 23.046875 C 306.058594 21.949219 306.003906 20.855469 305.867188 19.757812 C 305.839844 19.515625 305.8125 19.28125 305.773438 19.042969 C 306.878906 18.964844 307.984375 18.902344 309.089844 18.804688 C 315.492188 18.226562 321.890625 17.796875 328.300781 17.917969 C 333.25 24.109375 337.820312 30.023438 340.617188 37.527344 C 335.90625 36.09375 331.109375 34.9375 326.265625 34.03125 Z M 344.230469 92.320312 C 335.542969 89.246094 327.691406 84.648438 321.128906 78.386719 C 320.394531 77.6875 320.867188 69.585938 320.914062 68.246094 C 320.933594 67.738281 320.988281 67.222656 321.035156 66.714844 C 328.289062 70.039062 335.46875 71.765625 343.53125 71.882812 C 343.933594 73.914062 344.273438 75.957031 344.492188 78.015625 C 345.019531 82.921875 345.015625 87.878906 344.503906 92.789062 C 344.535156 92.609375 344.464844 92.40625 344.230469 92.320312 Z M 344.003906 93.125 C 344.261719 93.171875 344.441406 93.023438 344.496094 92.839844 C 344.460938 93.179688 344.445312 93.523438 344.402344 93.867188 C 344.046875 96.847656 343.65625 106.703125 339.699219 106.273438 C 335.230469 105.785156 330.144531 102.722656 326.496094 100.265625 C 324.460938 98.898438 322.503906 97.421875 320.578125 95.90625 C 320.664062 91.691406 320.835938 87.425781 320.992188 83.140625 C 327.824219 88.339844 335.460938 91.617188 344.003906 93.125 Z M 291.425781 44.136719 C 293.339844 47.636719 295.402344 51.050781 297.425781 54.34375 C 302.585938 62.730469 308.445312 70.710938 315.167969 77.910156 C 315.148438 82.96875 315.824219 88.09375 316.894531 92.933594 C 316.15625 92.332031 315.410156 91.734375 314.667969 91.128906 C 308.363281 85.996094 302.796875 80.023438 298.179688 73.324219 C 292.238281 64.699219 289.144531 54.800781 287.652344 44.511719 C 287.554688 43.832031 287.421875 43.058594 287.273438 42.230469 C 288.152344 42.1875 289.023438 42.078125 289.894531 41.925781 C 290.390625 42.671875 290.886719 43.421875 291.425781 44.136719 Z M 315.5 72.183594 C 311.976562 67.601562 308.824219 62.765625 305.863281 57.792969 C 307.960938 59.289062 310.105469 60.710938 312.277344 62.035156 C 313.664062 62.882812 315.027344 63.648438 316.386719 64.382812 C 316.097656 66.984375 315.804688 69.582031 315.5 72.183594 Z M 7.09375 29.535156 C 11.574219 40.132812 16.535156 50.527344 22.015625 60.640625 C 19.042969 62.773438 15.972656 64.710938 12.847656 66.554688 C 9.210938 56.003906 6.171875 44.917969 6.449219 34.34375 C 6.5 32.46875 6.730469 30.890625 7.09375 29.535156 Z M 44.191406 96.386719 C 39.148438 99.40625 33.9375 102.101562 28.640625 104.617188 C 26.773438 101.082031 24.96875 97.511719 23.324219 93.867188 C 21.472656 89.769531 19.773438 85.601562 18.230469 81.378906 C 17.144531 78.40625 15.992188 75.332031 14.847656 72.191406 C 18.199219 70.054688 21.472656 67.796875 24.59375 65.351562 C 30.585938 76.03125 37.136719 86.386719 44.191406 96.386719 Z M 82.496094 56.609375 C 80.644531 53.453125 78.949219 50.238281 77.300781 47.007812 C 83.171875 48.386719 89.101562 49.511719 95.066406 50.394531 C 92.128906 54.347656 89.082031 58.230469 85.800781 61.976562 C 84.710938 60.179688 83.554688 58.421875 82.496094 56.609375 Z M 82.460938 65.683594 C 77.441406 71.089844 72 76.269531 65.957031 81.171875 C 60.261719 85.792969 54.316406 90.03125 48.171875 93.921875 C 40.976562 83.796875 34.28125 73.300781 28.183594 62.4375 C 32.269531 59.019531 36.128906 55.425781 39.699219 51.789062 C 43.617188 47.796875 47.566406 43.433594 51.449219 38.851562 C 53.296875 39.625 55.136719 40.421875 57.046875 41.105469 C 61.449219 42.6875 65.929688 44.023438 70.433594 45.25 C 73.082031 49.957031 75.753906 54.585938 78.355469 59.027344 C 79.679688 61.273438 81.09375 63.464844 82.460938 65.683594 Z M 25.710938 57.882812 C 19.894531 47.15625 14.679688 36.078125 10.011719 24.726562 C 13.363281 22.207031 18.78125 23.285156 25.03125 26.226562 C 32.433594 29.707031 39.539062 33.523438 46.902344 36.894531 C 45.125 39.144531 43.300781 41.363281 41.34375 43.488281 C 36.3125 48.949219 31.117188 53.679688 25.710938 57.882812 Z M 98.039062 156.683594 C 91.296875 160.578125 84.4375 164.285156 77.542969 167.941406 C 74.4375 165.175781 71.34375 162.40625 68.324219 159.554688 C 64.914062 156.328125 61.589844 153.011719 58.460938 149.511719 C 56.878906 147.746094 55.367188 145.890625 53.878906 144.003906 C 60.59375 140.5 67.191406 136.765625 73.566406 132.6875 C 81.332031 141.085938 89.492188 149.101562 98.039062 156.683594 Z M 69.78125 128.550781 C 63.414062 132.367188 56.867188 135.832031 50.21875 139.117188 C 46.625 134.160156 43.238281 129.019531 39.984375 123.960938 C 36.664062 118.804688 33.5 113.542969 30.535156 108.171875 C 35.960938 105.542969 41.304688 102.734375 46.46875 99.589844 C 53.730469 109.648438 61.515625 119.324219 69.78125 128.550781 Z M 250.636719 53.027344 C 256.714844 58.910156 263.265625 64.289062 270.164062 69.191406 C 268.34375 76.066406 266.335938 82.886719 264.03125 89.613281 C 261.332031 97.480469 258.171875 104.746094 254.554688 111.5625 C 246.390625 106.320312 238.800781 100.355469 231.769531 93.722656 C 239.160156 80.824219 245.578125 67.128906 250.636719 53.027344 Z M 134.519531 184.808594 C 126.554688 189.300781 118.3125 193.359375 109.878906 197.109375 C 102.675781 190.960938 95.703125 184.539062 88.773438 178.089844 C 86.363281 175.84375 83.898438 173.660156 81.433594 171.464844 C 88.316406 167.761719 95.15625 163.996094 101.878906 160.019531 C 112.246094 168.9375 123.136719 177.222656 134.519531 184.808594 Z M 209.78125 126.363281 C 216.722656 117.550781 223.273438 107.992188 229.28125 97.9375 C 236.546875 104.417969 244.359375 110.113281 252.71875 114.898438 C 246.070312 126.644531 237.988281 137.039062 228.445312 146.796875 C 220.792969 141.75 213.296875 136.460938 206.09375 130.804688 C 207.320312 129.320312 208.59375 127.875 209.78125 126.363281 Z M 162.136719 201.265625 C 151.195312 210.210938 138.550781 218.878906 126.097656 209.96875 C 122.035156 207.0625 118.121094 203.964844 114.265625 200.796875 C 122.835938 197.023438 131.210938 192.761719 139.308594 187.984375 C 146.714844 192.734375 154.351562 197.132812 162.136719 201.265625 Z M 171.710938 165.195312 C 177.953125 169.945312 184.40625 174.441406 190.96875 178.828125 C 184.964844 183.480469 178.90625 188.058594 172.804688 192.585938 C 170.160156 194.546875 167.332031 196.949219 164.367188 199.417969 C 157.007812 195.136719 149.773438 190.65625 142.738281 185.90625 C 152.867188 179.707031 162.546875 172.753906 171.710938 165.195312 Z M 203.347656 134.105469 C 210.640625 139.578125 218.1875 144.640625 225.902344 149.335938 C 221.527344 153.652344 216.875 157.859375 211.910156 162.011719 C 205.488281 167.394531 198.949219 172.632812 192.339844 177.773438 C 186.054688 173.164062 179.867188 168.382812 173.847656 163.378906 C 184.496094 154.40625 194.367188 144.582031 203.347656 134.105469 Z M 201.976562 67.867188 C 209.363281 77.609375 217.351562 86.816406 226.089844 95.023438 C 220.21875 105.453125 213.457031 115.59375 205.527344 125.394531 C 204.707031 126.40625 203.835938 127.347656 203.007812 128.34375 C 194.640625 121.59375 186.589844 114.464844 179.03125 106.832031 C 177.746094 105.539062 176.496094 104.226562 175.25 102.914062 C 185.042969 92.359375 194.28125 80.542969 201.976562 67.867188 Z M 77.570312 130.066406 C 89.117188 122.398438 100.03125 113.921875 110.082031 104.941406 C 112.34375 107.769531 114.582031 110.617188 116.921875 113.378906 C 122.691406 120.199219 128.644531 126.691406 134.785156 132.886719 C 124.289062 140.601562 113.359375 147.664062 102.140625 154.277344 C 93.5625 146.59375 85.378906 138.503906 77.570312 130.066406 Z M 156.519531 115.269531 C 150.667969 120.546875 144.597656 125.5 138.371094 130.21875 C 132.609375 124.183594 127.054688 118.023438 121.734375 111.78125 C 118.941406 108.5 116.253906 105.132812 113.570312 101.761719 C 123.464844 92.648438 133.214844 82.40625 142.191406 71.375 C 150.148438 82.667969 159.039062 93.394531 168.683594 103.433594 C 164.839844 107.46875 160.792969 111.417969 156.519531 115.269531 Z M 50.4375 97.085938 C 56.136719 93.425781 61.664062 89.472656 66.992188 85.203125 C 72.96875 80.40625 78.945312 75.074219 84.699219 69.316406 C 91.621094 80.296875 99.054688 90.957031 107.042969 101.191406 C 96.46875 110.597656 85.40625 118.8125 73.859375 126.035156 C 65.554688 116.796875 57.742188 107.132812 50.4375 97.085938 Z M 110.558594 98.011719 C 102.527344 87.664062 95.082031 76.882812 88.144531 65.773438 C 92.550781 61.152344 96.714844 56.226562 100.664062 51.144531 C 110.609375 52.382812 120.628906 53.054688 130.625 53.285156 C 133.226562 57.75 135.925781 62.175781 138.824219 66.5 C 130.5 77.546875 121.265625 88.078125 110.558594 98.011719 Z M 252.285156 48.292969 C 254.242188 42.4375 255.875 36.507812 257.304688 30.550781 C 260.648438 29.09375 264.046875 27.640625 267.585938 26.238281 C 267.730469 28.046875 268.171875 29.855469 268.96875 31.613281 C 270.773438 35.59375 273.746094 38.445312 277.257812 40.191406 C 276.464844 43.550781 275.445312 46.914062 274.796875 49.882812 C 273.660156 55.085938 272.421875 60.269531 271.109375 65.433594 C 264.441406 60.144531 258.136719 54.445312 252.285156 48.292969 Z M 170.367188 160.46875 C 160.289062 151.898438 150.648438 142.828125 141.496094 133.433594 C 149.597656 127.203125 157.417969 120.609375 164.820312 113.523438 C 167.152344 111.292969 169.460938 108.960938 171.761719 106.585938 C 180.664062 115.570312 190.175781 123.96875 200.15625 131.679688 C 190.953125 142.246094 181.007812 151.839844 170.367188 160.46875 Z M 172.179688 99.621094 C 162.527344 89.101562 153.9375 78.03125 146.097656 66.464844 C 149.523438 62.046875 152.753906 57.480469 155.855469 52.839844 C 167.007812 52.222656 178.085938 51.066406 189.132812 49.488281 C 192.160156 54.113281 195.253906 58.710938 198.515625 63.199219 C 191.210938 76.113281 182.511719 88.234375 172.179688 99.621094 Z M 137.683594 53.328125 C 141.199219 53.328125 144.707031 53.273438 148.199219 53.160156 C 146.382812 55.886719 144.566406 58.617188 142.65625 61.285156 C 140.957031 58.667969 139.320312 55.996094 137.683594 53.328125 Z M 105.925781 157.585938 C 116.972656 150.902344 127.722656 143.777344 138.023438 136.078125 C 147.585938 145.476562 157.574219 154.207031 168.015625 162.363281 C 158.546875 169.847656 148.585938 176.652344 138.160156 182.75 C 126.945312 174.933594 116.183594 166.535156 105.925781 157.585938 Z M 242.417969 36.941406 C 245.144531 35.828125 247.863281 34.671875 250.582031 33.480469 C 249.6875 36.800781 248.789062 40.113281 247.789062 43.382812 C 245.9375 41.292969 244.175781 39.121094 242.417969 36.941406 Z M 228.515625 90.578125 C 219.96875 82.109375 212.160156 72.777344 204.839844 62.949219 C 208.058594 57.257812 210.902344 51.394531 213.378906 45.417969 C 215.21875 45.0625 217.054688 44.730469 218.894531 44.359375 C 225.59375 43.015625 231.730469 41.078125 237.671875 38.828125 C 240.386719 42.179688 243.175781 45.460938 246.152344 48.570312 C 241.457031 63.042969 235.730469 77.0625 228.515625 90.578125 Z M 201.300781 58.117188 C 203.277344 54.375 205.070312 50.53125 206.808594 46.648438 C 202.796875 47.367188 198.785156 48.03125 194.773438 48.652344 C 196.921875 51.828125 199.070312 55.007812 201.300781 58.117188 " fill-opacity="1" fill-rule="nonzero"/><path fill="#fffaf2" d="M 277.039062 13.183594 C 276.0625 14.261719 275.160156 15.433594 274.410156 16.703125 C 274.878906 16.886719 275.355469 17.058594 275.84375 17.199219 C 277.320312 17.625 278.839844 17.925781 280.308594 18.480469 C 280.554688 18.570312 280.78125 18.703125 281.027344 18.808594 C 282.085938 19.242188 283.113281 19.730469 284.105469 20.296875 C 284.476562 20.511719 284.828125 20.753906 285.191406 20.984375 C 285.667969 21.285156 286.15625 21.554688 286.609375 21.882812 C 286.636719 21.902344 286.667969 21.917969 286.695312 21.933594 C 286.492188 22.445312 286.273438 22.953125 286.046875 23.464844 C 285.734375 24.152344 285.402344 24.835938 285.019531 25.519531 C 285.011719 25.53125 285.003906 25.542969 284.996094 25.554688 C 284.878906 25.765625 284.734375 25.953125 284.601562 26.15625 C 284.554688 26.226562 284.511719 26.292969 284.464844 26.363281 C 284.222656 26.710938 283.980469 27.050781 283.71875 27.371094 C 283.03125 28.226562 282.320312 29.050781 281.667969 29.945312 C 281.640625 29.988281 281.601562 30.03125 281.574219 30.078125 C 281.503906 30.171875 281.425781 30.261719 281.359375 30.363281 C 280.566406 31.5625 279.53125 32.582031 278.351562 33.386719 C 277.753906 33.796875 277.125 34.160156 276.449219 34.4375 C 276.976562 34.882812 277.542969 35.277344 278.132812 35.632812 C 278.867188 36.078125 279.636719 36.46875 280.445312 36.773438 C 280.554688 36.816406 280.664062 36.839844 280.773438 36.878906 C 280.972656 36.753906 281.164062 36.617188 281.355469 36.480469 C 282.324219 35.78125 283.203125 34.960938 283.960938 34.082031 C 284.082031 33.941406 284.207031 33.804688 284.320312 33.664062 C 284.4375 33.519531 284.578125 33.375 284.6875 33.230469 C 284.851562 33.019531 284.972656 32.773438 285.128906 32.554688 C 285.339844 32.257812 285.53125 31.945312 285.730469 31.640625 C 285.851562 31.453125 285.980469 31.269531 286.097656 31.074219 C 286.4375 30.527344 286.792969 29.996094 287.105469 29.429688 C 287.617188 28.5 288.113281 27.554688 288.578125 26.601562 C 288.597656 26.570312 288.613281 26.535156 288.632812 26.5 C 288.746094 26.265625 288.84375 26.019531 288.953125 25.777344 C 289.160156 25.3125 289.375 24.855469 289.570312 24.378906 C 291.542969 26.367188 293.003906 28.582031 294.339844 30.917969 C 294.96875 32.015625 295.582031 33.136719 296.1875 34.28125 C 297.179688 33.359375 298.082031 32.363281 298.8125 31.25 C 298.859375 31.179688 298.921875 31.121094 298.964844 31.050781 C 297.789062 27.503906 295.496094 24.253906 292.847656 21.59375 C 292.535156 21.285156 292.21875 21 291.898438 20.707031 C 291.621094 20.449219 291.351562 20.183594 291.070312 19.9375 C 291.089844 19.867188 291.105469 19.789062 291.121094 19.714844 C 291.25 19.242188 291.355469 18.761719 291.457031 18.28125 C 291.554688 17.839844 291.640625 17.398438 291.71875 16.953125 C 291.785156 16.597656 291.839844 16.238281 291.894531 15.878906 C 292.152344 14.089844 292.273438 12.277344 292.195312 10.46875 C 292.179688 10.097656 292.152344 9.308594 292.070312 8.398438 C 290.941406 8.007812 289.777344 7.796875 288.589844 7.734375 C 288.679688 8.78125 288.816406 9.757812 288.8125 10.273438 C 288.796875 11.582031 288.734375 12.890625 288.589844 14.191406 C 288.5625 14.429688 288.261719 15.90625 288.109375 16.835938 C 288.039062 17.261719 288 17.585938 288.039062 17.609375 C 287.8125 17.453125 287.566406 17.300781 287.328125 17.144531 C 284.242188 15.121094 280.546875 13.382812 277.039062 13.183594 Z M 342.960938 65.742188 C 343.636719 65.75 344.3125 65.757812 344.996094 65.753906 C 345.132812 65.382812 345.289062 65.027344 345.414062 64.648438 C 345.730469 63.660156 345.992188 62.636719 346.214844 61.597656 C 347.351562 56.292969 347.226562 50.4375 346.085938 44.644531 C 357.574219 48.855469 368.132812 54.742188 379.320312 59.707031 C 379.460938 59.148438 379.386719 58.460938 379.210938 57.75 C 369.703125 49.617188 357.492188 43.210938 344.589844 38.820312 C 342.03125 30.765625 337.570312 23.292969 331.90625 18.097656 C 330.703125 18.03125 329.5 17.941406 328.300781 17.917969 C 333.25 24.109375 337.820312 30.023438 340.617188 37.527344 C 335.90625 36.09375 331.109375 34.9375 326.265625 34.03125 C 324.628906 33.726562 322.988281 33.449219 321.339844 33.207031 C 320.101562 33.027344 318.863281 32.832031 317.617188 32.691406 C 317.445312 32.667969 317.277344 32.664062 317.109375 32.640625 C 313.875 32.277344 310.632812 31.976562 307.390625 31.75 C 306.148438 31.667969 304.90625 31.613281 303.660156 31.546875 C 302.886719 33.058594 301.925781 34.488281 300.808594 35.804688 C 306.203125 36.15625 311.574219 36.617188 316.925781 37.539062 C 317.980469 37.722656 319.019531 37.925781 320.066406 38.117188 C 321.46875 38.378906 322.867188 38.636719 324.261719 38.917969 C 324.273438 38.917969 324.285156 38.921875 324.300781 38.925781 C 325.96875 39.257812 327.632812 39.609375 329.292969 39.980469 C 330.710938 40.296875 332.128906 40.644531 333.542969 40.992188 C 336.46875 41.707031 339.386719 42.460938 342.300781 43.3125 C 343.160156 47.328125 343.34375 51.207031 343.300781 55.117188 C 343.285156 56.347656 343.25 57.585938 343.203125 58.828125 C 343.121094 61.089844 343.019531 63.386719 342.960938 65.742188 Z M 291.425781 44.136719 C 293.339844 47.636719 295.402344 51.050781 297.425781 54.34375 C 302.585938 62.730469 308.445312 70.710938 315.167969 77.910156 C 315.148438 82.96875 315.824219 88.09375 316.894531 92.933594 C 318.117188 93.933594 319.339844 94.933594 320.578125 95.90625 C 320.664062 91.691406 320.835938 87.425781 320.992188 83.140625 C 327.824219 88.339844 335.460938 91.617188 344.003906 93.125 C 344.261719 93.171875 344.441406 93.023438 344.496094 92.839844 C 344.5 92.820312 344.5 92.804688 344.503906 92.789062 C 344.535156 92.609375 344.464844 92.40625 344.230469 92.320312 C 335.542969 89.246094 327.691406 84.648438 321.128906 78.386719 C 320.394531 77.6875 320.867188 69.585938 320.914062 68.246094 C 320.933594 67.738281 320.988281 67.222656 321.035156 66.714844 C 319.496094 66.007812 317.945312 65.234375 316.386719 64.382812 C 316.097656 66.984375 315.804688 69.582031 315.5 72.183594 C 311.976562 67.601562 308.824219 62.765625 305.863281 57.792969 C 300.433594 53.917969 295.402344 49.445312 291.425781 44.136719 Z M 73.859375 126.035156 C 85.40625 118.8125 96.46875 110.597656 107.042969 101.191406 C 99.054688 90.957031 91.621094 80.296875 84.699219 69.316406 C 78.945312 75.074219 72.96875 80.40625 66.992188 85.203125 C 61.664062 89.472656 56.136719 93.425781 50.4375 97.085938 C 57.742188 107.132812 65.554688 116.796875 73.859375 126.035156 Z M 102.140625 154.277344 C 113.359375 147.664062 124.289062 140.601562 134.785156 132.886719 C 128.644531 126.691406 122.691406 120.199219 116.921875 113.378906 C 114.582031 110.617188 112.34375 107.769531 110.082031 104.941406 C 100.03125 113.921875 89.117188 122.398438 77.570312 130.066406 C 85.378906 138.503906 93.5625 146.59375 102.140625 154.277344 Z M 138.160156 182.75 C 148.585938 176.652344 158.546875 169.847656 168.015625 162.363281 C 157.574219 154.207031 147.585938 145.476562 138.023438 136.078125 C 127.722656 143.777344 116.972656 150.902344 105.925781 157.585938 C 116.183594 166.535156 126.945312 174.933594 138.160156 182.75 Z M 200.15625 131.679688 C 190.175781 123.96875 180.664062 115.570312 171.761719 106.585938 C 169.460938 108.960938 167.152344 111.292969 164.820312 113.523438 C 157.417969 120.609375 149.597656 127.203125 141.496094 133.433594 C 150.648438 142.828125 160.289062 151.898438 170.367188 160.46875 C 181.007812 151.839844 190.953125 142.246094 200.15625 131.679688 Z M 205.527344 125.394531 C 213.457031 115.59375 220.21875 105.453125 226.089844 95.023438 C 217.351562 86.816406 209.363281 77.609375 201.976562 67.867188 C 194.28125 80.542969 185.042969 92.359375 175.25 102.914062 C 176.496094 104.226562 177.746094 105.539062 179.03125 106.832031 C 186.589844 114.464844 194.640625 121.59375 203.007812 128.34375 C 203.835938 127.347656 204.707031 126.40625 205.527344 125.394531 Z M 142.191406 71.375 C 133.214844 82.40625 123.464844 92.648438 113.570312 101.761719 C 116.253906 105.132812 118.941406 108.5 121.734375 111.78125 C 127.054688 118.023438 132.609375 124.183594 138.371094 130.21875 C 144.597656 125.5 150.667969 120.546875 156.519531 115.269531 C 160.792969 111.417969 164.839844 107.46875 168.683594 103.433594 C 159.039062 93.394531 150.148438 82.667969 142.191406 71.375 Z M 7.09375 29.535156 C 7.691406 27.292969 8.683594 25.722656 10.011719 24.726562 C 14.679688 36.078125 19.894531 47.15625 25.710938 57.882812 C 31.117188 53.679688 36.3125 48.949219 41.34375 43.488281 C 43.300781 41.363281 45.125 39.144531 46.902344 36.894531 C 48.398438 37.578125 49.925781 38.214844 51.449219 38.851562 C 47.566406 43.433594 43.617188 47.796875 39.699219 51.789062 C 36.128906 55.425781 32.269531 59.019531 28.183594 62.4375 C 34.28125 73.300781 40.976562 83.796875 48.171875 93.921875 C 54.316406 90.03125 60.261719 85.792969 65.957031 81.171875 C 72 76.269531 77.441406 71.089844 82.460938 65.683594 C 81.09375 63.464844 79.679688 61.273438 78.355469 59.027344 C 75.753906 54.585938 73.082031 49.957031 70.433594 45.25 C 72.714844 45.875 75 46.472656 77.300781 47.007812 C 78.949219 50.238281 80.644531 53.453125 82.496094 56.609375 C 83.554688 58.421875 84.710938 60.179688 85.800781 61.976562 C 89.082031 58.230469 92.128906 54.347656 95.066406 50.394531 C 96.929688 50.671875 98.796875 50.910156 100.664062 51.144531 C 96.714844 56.226562 92.550781 61.152344 88.144531 65.773438 C 95.082031 76.882812 102.527344 87.664062 110.558594 98.011719 C 121.265625 88.078125 130.5 77.546875 138.824219 66.5 C 135.925781 62.175781 133.226562 57.75 130.625 53.285156 C 130.964844 53.289062 131.3125 53.3125 131.652344 53.316406 C 133.671875 53.355469 135.675781 53.328125 137.683594 53.328125 C 139.320312 55.996094 140.957031 58.667969 142.65625 61.285156 C 144.566406 58.617188 146.382812 55.886719 148.199219 53.160156 C 150.753906 53.074219 153.308594 52.984375 155.855469 52.839844 C 152.753906 57.480469 149.523438 62.046875 146.097656 66.464844 C 153.9375 78.03125 162.527344 89.101562 172.179688 99.621094 C 182.511719 88.234375 191.210938 76.113281 198.515625 63.199219 C 195.253906 58.710938 192.160156 54.113281 189.132812 49.488281 C 191.011719 49.222656 192.894531 48.941406 194.773438 48.652344 C 196.921875 51.828125 199.070312 55.007812 201.300781 58.117188 C 203.277344 54.375 205.070312 50.53125 206.808594 46.648438 C 209 46.257812 211.1875 45.835938 213.378906 45.417969 C 210.902344 51.394531 208.058594 57.257812 204.839844 62.949219 C 212.160156 72.777344 219.96875 82.109375 228.515625 90.578125 C 235.730469 77.0625 241.457031 63.042969 246.152344 48.570312 C 243.175781 45.460938 240.386719 42.179688 237.671875 38.828125 C 239.269531 38.226562 240.84375 37.585938 242.417969 36.941406 C 244.175781 39.121094 245.9375 41.292969 247.789062 43.382812 C 248.789062 40.113281 249.6875 36.800781 250.582031 33.480469 C 252.804688 32.515625 255.042969 31.535156 257.304688 30.550781 C 255.875 36.507812 254.242188 42.4375 252.285156 48.292969 C 258.136719 54.445312 264.441406 60.144531 271.109375 65.433594 C 270.792969 66.683594 270.492188 67.941406 270.164062 69.191406 C 263.265625 64.289062 256.714844 58.910156 250.636719 53.027344 C 245.578125 67.128906 239.160156 80.824219 231.769531 93.722656 C 238.800781 100.355469 246.390625 106.320312 254.554688 111.5625 C 253.953125 112.6875 253.339844 113.796875 252.71875 114.898438 C 244.359375 110.113281 236.546875 104.417969 229.28125 97.9375 C 223.273438 107.992188 216.722656 117.550781 209.78125 126.363281 C 208.59375 127.875 207.320312 129.320312 206.09375 130.804688 C 213.296875 136.460938 220.792969 141.75 228.445312 146.796875 C 227.609375 147.648438 226.757812 148.496094 225.902344 149.335938 C 218.1875 144.640625 210.640625 139.578125 203.347656 134.105469 C 194.367188 144.582031 184.496094 154.40625 173.847656 163.378906 C 179.867188 168.382812 186.054688 173.164062 192.339844 177.773438 C 191.886719 178.125 191.421875 178.476562 190.96875 178.828125 C 184.40625 174.441406 177.953125 169.945312 171.710938 165.195312 C 162.546875 172.753906 152.867188 179.707031 142.738281 185.90625 C 149.773438 190.65625 157.007812 195.136719 164.367188 199.417969 C 163.628906 200.035156 162.886719 200.648438 162.136719 201.265625 C 154.351562 197.132812 146.714844 192.734375 139.308594 187.984375 C 131.210938 192.761719 122.835938 197.023438 114.265625 200.796875 C 112.789062 199.585938 111.332031 198.351562 109.878906 197.109375 C 118.3125 193.359375 126.554688 189.300781 134.519531 184.808594 C 123.136719 177.222656 112.246094 168.9375 101.878906 160.019531 C 95.15625 163.996094 88.316406 167.761719 81.433594 171.464844 C 80.128906 170.296875 78.847656 169.105469 77.542969 167.941406 C 84.4375 164.285156 91.296875 160.578125 98.039062 156.683594 C 89.492188 149.101562 81.332031 141.085938 73.566406 132.6875 C 67.191406 136.765625 60.59375 140.5 53.878906 144.003906 C 52.625 142.410156 51.414062 140.769531 50.21875 139.117188 C 56.867188 135.832031 63.414062 132.367188 69.78125 128.550781 C 61.515625 119.324219 53.730469 109.648438 46.46875 99.589844 C 41.304688 102.734375 35.960938 105.542969 30.535156 108.171875 C 29.886719 106.996094 29.265625 105.804688 28.640625 104.617188 C 33.9375 102.101562 39.148438 99.40625 44.191406 96.386719 C 37.136719 86.386719 30.585938 76.03125 24.59375 65.351562 C 21.472656 67.796875 18.199219 70.054688 14.847656 72.191406 C 14.171875 70.335938 13.5 68.457031 12.847656 66.554688 C 15.972656 64.710938 19.042969 62.773438 22.015625 60.640625 C 16.535156 50.527344 11.574219 40.132812 7.09375 29.535156 " fill-opacity="1" fill-rule="nonzero"/></g></g></g></svg>