<svg xmlns="http://www.w3.org/2000/svg" xmlns:xlink="http://www.w3.org/1999/xlink" width="1024" zoomAndPan="magnify" viewBox="0 0 768 767.999994" height="1024" preserveAspectRatio="xMidYMid meet" version="1.0"><defs><clipPath id="8e53e9dbaa"><path d="M 425 10 L 619 10 L 619 221 L 425 221 Z M 425 10 " clip-rule="nonzero"/></clipPath><clipPath id="a6d7f072ee"><path d="M 553.320312 -43.570312 L 666.253906 155.359375 L 498.632812 250.519531 L 385.699219 51.589844 Z M 553.320312 -43.570312 " clip-rule="nonzero"/></clipPath><clipPath id="6df44acabc"><path d="M 553.320312 -43.570312 L 666.253906 155.359375 L 498.632812 250.519531 L 385.699219 51.589844 Z M 553.320312 -43.570312 " clip-rule="nonzero"/></clipPath><clipPath id="ab2e8ba814"><path d="M 553.320312 -43.570312 L 666.253906 155.359375 L 498.632812 250.519531 L 385.699219 51.589844 Z M 553.320312 -43.570312 " clip-rule="nonzero"/></clipPath><clipPath id="589878e941"><path d="M 556 17 L 619 17 L 619 154 L 556 154 Z M 556 17 " clip-rule="nonzero"/></clipPath><clipPath id="8e02ae2212"><path d="M 553.320312 -43.570312 L 666.253906 155.359375 L 498.632812 250.519531 L 385.699219 51.589844 Z M 553.320312 -43.570312 " clip-rule="nonzero"/></clipPath><clipPath id="8eebe9d326"><path d="M 553.320312 -43.570312 L 666.253906 155.359375 L 498.632812 250.519531 L 385.699219 51.589844 Z M 553.320312 -43.570312 " clip-rule="nonzero"/></clipPath><clipPath id="bf643da306"><path d="M 553.320312 -43.570312 L 666.253906 155.359375 L 498.632812 250.519531 L 385.699219 51.589844 Z M 553.320312 -43.570312 " clip-rule="nonzero"/></clipPath><clipPath id="13af343945"><path d="M 425 10 L 587 10 L 587 221 L 425 221 Z M 425 10 " clip-rule="nonzero"/></clipPath><clipPath id="91c7b813a0"><path d="M 553.320312 -43.570312 L 666.253906 155.359375 L 498.632812 250.519531 L 385.699219 51.589844 Z M 553.320312 -43.570312 " clip-rule="nonzero"/></clipPath><clipPath id="a794aa0efa"><path d="M 553.320312 -43.570312 L 666.253906 155.359375 L 498.632812 250.519531 L 385.699219 51.589844 Z M 553.320312 -43.570312 " clip-rule="nonzero"/></clipPath><clipPath id="f0db98f118"><path d="M 553.320312 -43.570312 L 666.253906 155.359375 L 498.632812 250.519531 L 385.699219 51.589844 Z M 553.320312 -43.570312 " clip-rule="nonzero"/></clipPath><clipPath id="ea4330e09a"><path d="M 448 8 L 620 8 L 620 209 L 448 209 Z M 448 8 " clip-rule="nonzero"/></clipPath><clipPath id="25c4579ba7"><path d="M 553.320312 -43.570312 L 666.253906 155.359375 L 498.632812 250.519531 L 385.699219 51.589844 Z M 553.320312 -43.570312 " clip-rule="nonzero"/></clipPath><clipPath id="ba58ca33f7"><path d="M 553.320312 -43.570312 L 666.253906 155.359375 L 498.632812 250.519531 L 385.699219 51.589844 Z M 553.320312 -43.570312 " clip-rule="nonzero"/></clipPath><clipPath id="97113479ef"><path d="M 553.320312 -43.570312 L 666.253906 155.359375 L 498.632812 250.519531 L 385.699219 51.589844 Z M 553.320312 -43.570312 " clip-rule="nonzero"/></clipPath><clipPath id="5d0b80eb52"><path d="M 390 23 L 552 23 L 552 246 L 390 246 Z M 390 23 " clip-rule="nonzero"/></clipPath><clipPath id="65e41f14df"><path d="M 553.320312 -43.570312 L 666.253906 155.359375 L 498.632812 250.519531 L 385.699219 51.589844 Z M 553.320312 -43.570312 " clip-rule="nonzero"/></clipPath><clipPath id="73114ee28d"><path d="M 553.320312 -43.570312 L 666.253906 155.359375 L 498.632812 250.519531 L 385.699219 51.589844 Z M 553.320312 -43.570312 " clip-rule="nonzero"/></clipPath><clipPath id="178ebcd6cc"><path d="M 553.320312 -43.570312 L 666.253906 155.359375 L 498.632812 250.519531 L 385.699219 51.589844 Z M 553.320312 -43.570312 " clip-rule="nonzero"/></clipPath><clipPath id="04eabdc041"><path d="M 436 23 L 552 23 L 552 221 L 436 221 Z M 436 23 " clip-rule="nonzero"/></clipPath><clipPath id="740fbf3897"><path d="M 553.320312 -43.570312 L 666.253906 155.359375 L 498.632812 250.519531 L 385.699219 51.589844 Z M 553.320312 -43.570312 " clip-rule="nonzero"/></clipPath><clipPath id="a5eedce9a9"><path d="M 553.320312 -43.570312 L 666.253906 155.359375 L 498.632812 250.519531 L 385.699219 51.589844 Z M 553.320312 -43.570312 " clip-rule="nonzero"/></clipPath><clipPath id="c9e8f4f555"><path d="M 553.320312 -43.570312 L 666.253906 155.359375 L 498.632812 250.519531 L 385.699219 51.589844 Z M 553.320312 -43.570312 " clip-rule="nonzero"/></clipPath><clipPath id="9fba4669e3"><path d="M 390 40 L 517 40 L 517 246 L 390 246 Z M 390 40 " clip-rule="nonzero"/></clipPath><clipPath id="9e459f43f3"><path d="M 553.320312 -43.570312 L 666.253906 155.359375 L 498.632812 250.519531 L 385.699219 51.589844 Z M 553.320312 -43.570312 " clip-rule="nonzero"/></clipPath><clipPath id="9bbfcd4c94"><path d="M 553.320312 -43.570312 L 666.253906 155.359375 L 498.632812 250.519531 L 385.699219 51.589844 Z M 553.320312 -43.570312 " clip-rule="nonzero"/></clipPath><clipPath id="07c20ece9a"><path d="M 553.320312 -43.570312 L 666.253906 155.359375 L 498.632812 250.519531 L 385.699219 51.589844 Z M 553.320312 -43.570312 " clip-rule="nonzero"/></clipPath><clipPath id="d743346af4"><path d="M 447 50 L 528 50 L 528 186 L 447 186 Z M 447 50 " clip-rule="nonzero"/></clipPath><clipPath id="d0b10f45bc"><path d="M 553.320312 -43.570312 L 666.253906 155.359375 L 498.632812 250.519531 L 385.699219 51.589844 Z M 553.320312 -43.570312 " clip-rule="nonzero"/></clipPath><clipPath id="d8dc01eacc"><path d="M 553.320312 -43.570312 L 666.253906 155.359375 L 498.632812 250.519531 L 385.699219 51.589844 Z M 553.320312 -43.570312 " clip-rule="nonzero"/></clipPath><clipPath id="434b9f40e5"><path d="M 553.320312 -43.570312 L 666.253906 155.359375 L 498.632812 250.519531 L 385.699219 51.589844 Z M 553.320312 -43.570312 " clip-rule="nonzero"/></clipPath><clipPath id="21f43068e4"><path d="M 389 22 L 553 22 L 553 247 L 389 247 Z M 389 22 " clip-rule="nonzero"/></clipPath><clipPath id="f6074e29b5"><path d="M 553.320312 -43.570312 L 666.253906 155.359375 L 498.632812 250.519531 L 385.699219 51.589844 Z M 553.320312 -43.570312 " clip-rule="nonzero"/></clipPath><clipPath id="4c1c3d1ed8"><path d="M 553.320312 -43.570312 L 666.253906 155.359375 L 498.632812 250.519531 L 385.699219 51.589844 Z M 553.320312 -43.570312 " clip-rule="nonzero"/></clipPath><clipPath id="5110716a5d"><path d="M 553.320312 -43.570312 L 666.253906 155.359375 L 498.632812 250.519531 L 385.699219 51.589844 Z M 553.320312 -43.570312 " clip-rule="nonzero"/></clipPath><clipPath id="144cbb0a66"><path d="M 469 147 L 531 147 L 531 221 L 469 221 Z M 469 147 " clip-rule="nonzero"/></clipPath><clipPath id="09b82ea6f2"><path d="M 553.320312 -43.570312 L 666.253906 155.359375 L 498.632812 250.519531 L 385.699219 51.589844 Z M 553.320312 -43.570312 " clip-rule="nonzero"/></clipPath><clipPath id="dfd3621939"><path d="M 553.320312 -43.570312 L 666.253906 155.359375 L 498.632812 250.519531 L 385.699219 51.589844 Z M 553.320312 -43.570312 " clip-rule="nonzero"/></clipPath><clipPath id="182ab62eb0"><path d="M 553.320312 -43.570312 L 666.253906 155.359375 L 498.632812 250.519531 L 385.699219 51.589844 Z M 553.320312 -43.570312 " clip-rule="nonzero"/></clipPath><clipPath id="d106cff0a5"><path d="M 472 150 L 527 150 L 527 218 L 472 218 Z M 472 150 " clip-rule="nonzero"/></clipPath><clipPath id="9808fcb701"><path d="M 553.320312 -43.570312 L 666.253906 155.359375 L 498.632812 250.519531 L 385.699219 51.589844 Z M 553.320312 -43.570312 " clip-rule="nonzero"/></clipPath><clipPath id="761cd3b4a3"><path d="M 553.320312 -43.570312 L 666.253906 155.359375 L 498.632812 250.519531 L 385.699219 51.589844 Z M 553.320312 -43.570312 " clip-rule="nonzero"/></clipPath><clipPath id="37f77daa4f"><path d="M 553.320312 -43.570312 L 666.253906 155.359375 L 498.632812 250.519531 L 385.699219 51.589844 Z M 553.320312 -43.570312 " clip-rule="nonzero"/></clipPath><clipPath id="dcd82d79ff"><path d="M 469 146 L 531 146 L 531 222 L 469 222 Z M 469 146 " clip-rule="nonzero"/></clipPath><clipPath id="290e0f0fe6"><path d="M 553.320312 -43.570312 L 666.253906 155.359375 L 498.632812 250.519531 L 385.699219 51.589844 Z M 553.320312 -43.570312 " clip-rule="nonzero"/></clipPath><clipPath id="db8450a21f"><path d="M 553.320312 -43.570312 L 666.253906 155.359375 L 498.632812 250.519531 L 385.699219 51.589844 Z M 553.320312 -43.570312 " clip-rule="nonzero"/></clipPath><clipPath id="bc52443fe1"><path d="M 553.320312 -43.570312 L 666.253906 155.359375 L 498.632812 250.519531 L 385.699219 51.589844 Z M 553.320312 -43.570312 " clip-rule="nonzero"/></clipPath></defs><g clip-path="url(#8e53e9dbaa)"><g clip-path="url(#a6d7f072ee)"><g clip-path="url(#6df44acabc)"><g clip-path="url(#ab2e8ba814)"><path fill="#876fb0" d="M 425.886719 42.726562 C 425.886719 42.726562 482.03125 6.398438 527.011719 10.417969 C 571.988281 14.4375 607.796875 46.503906 604.90625 53.414062 C 604.90625 53.414062 607.210938 53.597656 608.832031 56.453125 C 610.457031 59.3125 609.429688 61.386719 609.429688 61.386719 C 616.847656 62.445312 626.03125 109.625 606.425781 150.308594 C 586.824219 190.992188 526.855469 220.578125 526.855469 220.578125 L 481.699219 128.628906 Z M 425.886719 42.726562 " fill-opacity="1" fill-rule="evenodd"/></g></g></g></g><g clip-path="url(#589878e941)"><g clip-path="url(#8e02ae2212)"><g clip-path="url(#8eebe9d326)"><g clip-path="url(#bf643da306)"><path fill="#d4c1ee" d="M 556.332031 17.03125 C 586.460938 27.902344 607.128906 48.097656 604.90625 53.414062 C 604.90625 53.414062 607.210938 53.597656 608.832031 56.453125 C 610.457031 59.3125 609.429688 61.386719 609.429688 61.386719 C 616.847656 62.445312 626.03125 109.625 606.425781 150.308594 C 605.941406 151.320312 605.421875 152.320312 604.886719 153.316406 C 604.773438 151.925781 605.066406 150.25 605.867188 148.234375 C 614.78125 125.761719 616.945312 90.019531 613.453125 84.359375 C 609.957031 78.695312 602.546875 95.550781 602.546875 95.550781 C 602.546875 95.550781 605.945312 76.339844 603.28125 62.839844 C 600.617188 49.34375 559.589844 39.71875 559.589844 39.71875 C 579.003906 38.144531 599.515625 49.359375 590.003906 39.449219 C 580.636719 29.699219 557.066406 17.414062 556.332031 17.03125 Z M 556.332031 17.03125 " fill-opacity="1" fill-rule="evenodd"/></g></g></g></g><g clip-path="url(#13af343945)"><g clip-path="url(#91c7b813a0)"><g clip-path="url(#a794aa0efa)"><g clip-path="url(#f0db98f118)"><path fill="#64498b" d="M 425.886719 42.726562 C 425.886719 42.726562 471.660156 13.113281 513.65625 10.320312 L 513.335938 11.488281 C 513.335938 11.488281 467.253906 21.464844 476.0625 50.578125 C 484.867188 79.691406 520.179688 115.484375 531.714844 148.613281 C 543.25 181.734375 559.316406 198.386719 586.761719 177.386719 C 561.527344 203.46875 526.855469 220.582031 526.855469 220.582031 L 481.699219 128.628906 L 425.890625 42.726562 Z M 425.886719 42.726562 " fill-opacity="1" fill-rule="evenodd"/></g></g></g></g><g clip-path="url(#ea4330e09a)"><g clip-path="url(#25c4579ba7)"><g clip-path="url(#ba58ca33f7)"><g clip-path="url(#97113479ef)"><path fill="#57291d" d="M 448.414062 28.933594 C 468.996094 18.851562 499.933594 6.859375 526.976562 9.277344 C 546.15625 10.988281 563.679688 17.753906 577.300781 25.523438 C 585.972656 30.464844 593.070312 35.816406 598.015625 40.535156 C 603.15625 45.4375 606.0625 49.808594 606.136719 52.53125 L 606.140625 52.617188 C 607.160156 53.035156 608.605469 53.953125 609.734375 55.941406 C 610.863281 57.933594 610.910156 59.644531 610.746094 60.734375 L 610.820312 60.78125 C 613.117188 62.238281 615.382812 66.976562 616.957031 73.902344 C 618.476562 80.566406 619.429688 89.402344 619.234375 99.382812 C 618.921875 115.0625 615.75 133.574219 607.390625 150.921875 C 595.601562 175.382812 569.453125 195.800781 550.246094 208.308594 C 550.144531 208.109375 550.042969 207.914062 549.933594 207.71875 L 549.097656 206.25 C 568.101562 193.871094 593.878906 173.738281 605.464844 149.695312 C 613.671875 132.664062 616.785156 114.480469 617.09375 99.078125 C 617.285156 89.332031 616.351562 80.707031 614.875 74.203125 C 613.625 68.714844 612.058594 64.851562 610.519531 63.25 C 607.554688 116.238281 571.890625 134.019531 571.890625 134.019531 C 596.523438 121.070312 614.230469 68.0625 607.929688 56.96875 C 601.628906 45.871094 549.425781 34.105469 523.296875 48.421875 C 523.296875 48.421875 556.84375 26.910156 603.863281 51.523438 C 603.277344 49.382812 600.761719 46.058594 596.691406 42.171875 C 591.863281 37.570312 584.9375 32.34375 576.46875 27.515625 C 563.085938 19.886719 545.875 13.242188 527.042969 11.558594 C 500.460938 9.183594 469.960938 21 449.59375 30.972656 L 448.757812 29.503906 C 448.648438 29.308594 448.535156 29.121094 448.414062 28.933594 Z M 500.75 118.980469 L 499.746094 117.214844 L 583.78125 70.675781 Z M 454.179688 36.976562 C 478.027344 22.785156 536.355469 3.679688 579.710938 35.886719 C 520.855469 -1.125 455.390625 38.609375 455.203125 38.71875 Z M 461.484375 49.933594 C 475.234375 40.621094 518.765625 20.230469 558.339844 33.820312 C 504.953125 22.429688 462.707031 51.550781 462.582031 51.632812 Z M 468.796875 62.886719 C 475.886719 57.617188 499.992188 42.109375 526.792969 40.019531 C 492.296875 47.738281 470.019531 64.496094 469.953125 64.542969 Z M 477.292969 77.753906 C 487.007812 71.453125 530.914062 47.277344 570.246094 54.609375 C 522.210938 50.679688 478.496094 79.382812 478.367188 79.464844 Z M 486.574219 94.257812 C 500.457031 83.15625 546.476562 53.589844 595.875 63.8125 C 572.273438 118.480469 513.101562 140.132812 512.933594 140.195312 L 513.710938 142.058594 C 530.359375 135.828125 579.332031 111.46875 595.875 63.8125 C 536.835938 56.058594 487.917969 95.765625 487.777344 95.882812 Z M 494.113281 107.605469 C 501.421875 101.226562 541.15625 71.121094 566.332031 68.871094 C 533.269531 75.851562 495.476562 109.085938 495.367188 109.183594 Z M 546.292969 199.234375 C 570.703125 186.03125 617.003906 145.738281 611.570312 92 C 613.183594 161.507812 545.511719 197.359375 545.320312 197.460938 Z M 538.910156 186.324219 C 553.953125 179.285156 593.773438 152.359375 602.390625 111.414062 C 584.804688 163.09375 538.148438 184.445312 538.015625 184.507812 Z M 531.535156 173.402344 C 539.691406 170.015625 565.363281 157.265625 580.898438 135.324219 C 556.589844 160.988281 530.78125 171.527344 530.707031 171.558594 Z M 523.125 158.488281 C 533.515625 153.375 576.777344 128.0625 590.640625 90.535156 C 569.394531 133.796875 522.34375 156.621094 522.207031 156.6875 Z M 506.113281 128.746094 C 515.339844 125.738281 561.550781 107.046875 576.386719 86.582031 C 553.449219 111.394531 505.539062 126.816406 505.402344 126.859375 Z M 506.113281 128.746094 " fill-opacity="1" fill-rule="nonzero"/></g></g></g></g><g clip-path="url(#5d0b80eb52)"><g clip-path="url(#65e41f14df)"><g clip-path="url(#73114ee28d)"><g clip-path="url(#178ebcd6cc)"><path fill="#876fb0" d="M 449.015625 29.355469 L 550.191406 207.574219 C 553.050781 212.613281 552.292969 219.941406 547.359375 221.300781 C 532.078125 225.5 518.597656 233.117188 506.960938 244.234375 C 503.261719 247.769531 496.585938 244.667969 493.722656 239.628906 L 392.550781 61.410156 C 389.6875 56.371094 390.402344 48.90625 395.378906 47.683594 C 409.707031 44.171875 423.257812 36.847656 435.777344 24.75 C 439.460938 21.195312 446.15625 24.316406 449.015625 29.355469 Z M 449.015625 29.355469 " fill-opacity="1" fill-rule="evenodd"/></g></g></g></g><g clip-path="url(#04eabdc041)"><g clip-path="url(#740fbf3897)"><g clip-path="url(#a5eedce9a9)"><g clip-path="url(#c9e8f4f555)"><path fill="#64498b" d="M 449.015625 29.355469 L 550.191406 207.574219 C 552.839844 212.238281 552.386719 218.863281 548.394531 220.898438 L 547.515625 220.003906 C 556.757812 217.738281 527.71875 175.84375 508.777344 146.71875 C 489.832031 117.589844 457.046875 54.09375 449.773438 38.777344 C 442.5 23.464844 436.71875 25.011719 436.71875 25.011719 C 436.71875 25.011719 436.671875 24.664062 436.597656 24.097656 C 440.382812 21.644531 446.355469 24.667969 449.015625 29.355469 Z M 449.015625 29.355469 " fill-opacity="1" fill-rule="evenodd"/></g></g></g></g><g clip-path="url(#9fba4669e3)"><g clip-path="url(#9e459f43f3)"><g clip-path="url(#9bbfcd4c94)"><g clip-path="url(#07c20ece9a)"><path fill="#64498b" d="M 516.527344 236.1875 C 513.210938 238.628906 510.023438 241.308594 506.960938 244.234375 C 503.261719 247.769531 496.585938 244.667969 493.722656 239.628906 L 392.550781 61.410156 C 389.6875 56.371094 390.402344 48.90625 395.378906 47.683594 C 401.808594 46.109375 408.082031 43.761719 414.179688 40.566406 L 415.371094 41.265625 C 415.371094 41.265625 401.558594 50.660156 397.628906 51.339844 C 393.699219 52.019531 428.238281 109.511719 448.113281 140.335938 C 467.984375 171.160156 497.664062 246.039062 512.960938 237.433594 C 514.296875 236.679688 515.480469 236.289062 516.527344 236.1875 Z M 516.527344 236.1875 " fill-opacity="1" fill-rule="evenodd"/></g></g></g></g><g clip-path="url(#d743346af4)"><g clip-path="url(#d0b10f45bc)"><g clip-path="url(#d8dc01eacc)"><g clip-path="url(#434b9f40e5)"><path fill="#d4c1ee" d="M 447.277344 53.042969 C 447.121094 47.710938 447.050781 44.074219 473.929688 94.085938 C 500.804688 144.101562 525.992188 181.113281 527.695312 185.421875 C 529.394531 189.730469 496.175781 138.984375 489.480469 129.769531 C 482.789062 120.554688 447.457031 59.128906 447.277344 53.042969 Z M 447.277344 53.042969 " fill-opacity="1" fill-rule="evenodd"/></g></g></g></g><g clip-path="url(#21f43068e4)"><g clip-path="url(#f6074e29b5)"><g clip-path="url(#4c1c3d1ed8)"><g clip-path="url(#5110716a5d)"><path fill="#57291d" d="M 449.917969 28.84375 L 551.09375 207.058594 C 551.523438 207.820312 551.882812 208.636719 552.167969 209.488281 C 552.953125 211.828125 553.136719 214.355469 552.675781 216.554688 C 552.203125 218.824219 551.050781 220.757812 549.183594 221.816406 C 548.75 222.0625 548.269531 222.265625 547.734375 222.410156 C 540.167969 224.492188 533.046875 227.417969 526.375 231.199219 C 519.71875 234.972656 513.5 239.613281 507.726562 245.128906 C 507.335938 245.5 506.917969 245.8125 506.476562 246.0625 C 504.605469 247.125 502.351562 247.121094 500.152344 246.363281 C 498.023438 245.625 495.941406 244.171875 494.339844 242.296875 C 493.765625 241.628906 493.253906 240.90625 492.820312 240.140625 L 391.648438 61.925781 C 391.160156 61.066406 390.769531 60.144531 390.46875 59.183594 C 389.753906 56.894531 389.605469 54.433594 390.0625 52.296875 C 390.539062 50.085938 391.65625 48.207031 393.460938 47.183594 C 393.929688 46.917969 394.453125 46.707031 395.027344 46.566406 C 402.117188 44.828125 409.011719 42.148438 415.679688 38.410156 C 422.351562 34.667969 428.808594 29.855469 435.011719 23.863281 C 435.414062 23.472656 435.839844 23.160156 436.277344 22.90625 C 438.136719 21.855469 440.378906 21.855469 442.5625 22.609375 C 444.679688 23.335938 446.753906 24.78125 448.355469 26.640625 C 448.949219 27.332031 449.480469 28.070312 449.917969 28.84375 Z M 450.019531 33.222656 C 450.007812 33.207031 445.832031 26.628906 430.429688 39.292969 C 427.796875 41.457031 411.191406 53.449219 399.4375 54.597656 C 399.476562 54.585938 413.234375 50.816406 429.210938 37.679688 C 438.863281 29.742188 444.535156 28.601562 447.617188 29.074219 C 447.378906 28.730469 447.125 28.398438 446.855469 28.085938 C 445.539062 26.558594 443.847656 25.378906 442.121094 24.785156 C 440.46875 24.214844 438.796875 24.199219 437.449219 24.964844 C 437.121094 25.152344 436.820312 25.375 436.546875 25.640625 C 430.230469 31.742188 423.648438 36.644531 416.835938 40.464844 C 410.015625 44.289062 402.96875 47.027344 395.730469 48.804688 C 395.335938 48.902344 394.96875 49.050781 394.628906 49.242188 C 393.328125 49.980469 392.511719 51.378906 392.15625 53.042969 C 391.785156 54.78125 391.910156 56.800781 392.496094 58.683594 C 392.734375 59.449219 393.054688 60.199219 393.453125 60.898438 L 397.0625 67.257812 C 398.214844 64.367188 402.078125 60.058594 413.90625 55.816406 C 433.375 48.832031 443.660156 38.949219 443.691406 38.917969 C 436.683594 48.425781 417.875 56.539062 414.664062 57.691406 C 395.898438 64.425781 399.40625 71.382812 399.414062 71.398438 L 405.171875 81.546875 C 406.328125 78.660156 410.191406 74.351562 422.015625 70.105469 C 441.484375 63.121094 451.773438 53.238281 451.804688 53.210938 C 444.796875 62.714844 425.984375 70.828125 422.777344 71.980469 C 404.011719 78.714844 407.515625 85.671875 407.523438 85.6875 L 413.285156 95.835938 C 414.4375 92.949219 418.300781 88.640625 430.128906 84.394531 C 449.597656 77.410156 459.882812 67.527344 459.914062 67.5 C 452.90625 77.003906 434.097656 85.117188 430.890625 86.269531 C 412.121094 93.003906 415.628906 99.960938 415.636719 99.976562 L 421.398438 110.128906 C 422.550781 107.238281 426.414062 102.929688 438.242188 98.6875 C 457.710938 91.699219 467.996094 81.820312 468.027344 81.789062 C 461.019531 91.296875 442.210938 99.410156 439 100.5625 C 420.234375 107.292969 423.742188 114.253906 423.75 114.269531 L 429.511719 124.417969 C 430.664062 121.53125 434.527344 117.21875 446.351562 112.976562 C 465.820312 105.992188 476.109375 96.109375 476.140625 96.082031 C 469.132812 105.585938 450.324219 113.699219 447.113281 114.851562 C 428.347656 121.585938 431.855469 128.542969 431.859375 128.558594 L 437.621094 138.707031 C 438.773438 135.820312 442.640625 131.511719 454.464844 127.265625 C 473.933594 120.28125 484.222656 110.398438 484.25 110.371094 C 477.242188 119.875 458.433594 127.988281 455.226562 129.140625 C 436.457031 135.875 439.964844 142.832031 439.972656 142.847656 L 444.027344 149.992188 C 444.039062 150.007812 448.214844 156.585938 463.617188 143.921875 C 466.25 141.757812 482.855469 129.765625 494.613281 128.621094 C 494.570312 128.632812 480.8125 132.398438 464.835938 145.535156 C 455.132812 153.515625 449.449219 154.625 446.378906 154.136719 L 452.140625 164.285156 C 452.152344 164.296875 456.328125 170.875 471.730469 158.210938 C 474.363281 156.046875 490.96875 144.054688 502.722656 142.910156 C 502.683594 142.921875 488.925781 146.6875 472.949219 159.824219 C 463.242188 167.804688 457.5625 168.914062 454.492188 168.425781 L 460.253906 178.574219 C 460.265625 178.585938 464.441406 185.164062 479.84375 172.503906 C 482.476562 170.335938 499.082031 158.34375 510.835938 157.199219 C 510.796875 157.210938 497.039062 160.980469 481.0625 174.117188 C 471.355469 182.097656 465.675781 183.207031 462.605469 182.714844 L 468.367188 192.863281 C 468.378906 192.878906 472.554688 199.457031 487.957031 186.792969 C 490.589844 184.625 507.195312 172.632812 518.949219 171.488281 C 518.910156 171.5 505.152344 175.269531 489.175781 188.40625 C 479.46875 196.386719 473.789062 197.496094 470.71875 197.003906 L 476.480469 207.152344 C 476.492188 207.167969 480.667969 213.746094 496.066406 201.082031 C 498.703125 198.917969 515.308594 186.925781 527.0625 185.777344 C 527.023438 185.789062 513.265625 189.558594 497.289062 202.695312 C 487.582031 210.675781 481.902344 211.785156 478.832031 211.292969 L 484.59375 221.441406 C 484.601562 221.457031 488.78125 228.035156 504.179688 215.371094 C 506.8125 213.207031 523.421875 201.214844 535.175781 200.066406 C 535.132812 200.078125 521.378906 203.847656 505.398438 216.984375 C 495.695312 224.964844 490.015625 226.074219 486.945312 225.582031 L 492.707031 235.730469 C 492.714844 235.746094 496.890625 242.324219 512.292969 229.660156 C 514.925781 227.496094 531.53125 215.503906 543.289062 214.359375 C 543.246094 214.371094 529.488281 218.136719 513.511719 231.273438 C 503.855469 239.214844 498.1875 240.351562 495.105469 239.878906 C 495.335938 240.214844 495.582031 240.542969 495.847656 240.851562 C 497.167969 242.394531 498.867188 243.585938 500.597656 244.183594 C 502.257812 244.757812 503.941406 244.773438 505.304688 244 C 505.621094 243.824219 505.917969 243.601562 506.195312 243.335938 C 512.0625 237.734375 518.402344 233.007812 525.210938 229.144531 C 532.011719 225.289062 539.273438 222.304688 546.984375 220.1875 C 547.347656 220.085938 547.691406 219.941406 548.015625 219.757812 C 549.375 218.984375 550.222656 217.535156 550.582031 215.816406 C 550.957031 214.023438 550.804688 211.957031 550.160156 210.039062 C 549.9375 209.371094 549.644531 208.714844 549.289062 208.082031 L 545.664062 201.695312 C 544.511719 204.585938 540.644531 208.894531 528.820312 213.136719 C 509.351562 220.125 499.0625 230.003906 499.03125 230.035156 C 506.039062 220.527344 524.851562 212.414062 528.058594 211.261719 C 546.804688 204.539062 543.328125 197.589844 543.3125 197.554688 L 537.550781 187.40625 C 536.398438 190.292969 532.535156 194.605469 520.707031 198.847656 C 501.238281 205.832031 490.949219 215.714844 490.921875 215.742188 C 497.929688 206.238281 516.738281 198.125 519.945312 196.972656 C 538.691406 190.246094 535.214844 183.300781 535.199219 183.265625 L 529.4375 173.117188 C 528.285156 176.003906 524.421875 180.3125 512.59375 184.558594 C 493.125 191.542969 482.839844 201.425781 482.808594 201.453125 C 489.816406 191.949219 508.625 183.835938 511.835938 182.683594 C 530.578125 175.957031 527.101562 169.007812 527.085938 168.976562 L 521.324219 158.828125 C 520.171875 161.714844 516.308594 166.023438 504.480469 170.269531 C 485.011719 177.253906 474.726562 187.136719 474.695312 187.164062 C 481.703125 177.660156 500.511719 169.542969 503.722656 168.394531 C 522.464844 161.667969 518.988281 154.71875 518.972656 154.6875 L 513.210938 144.535156 C 512.058594 147.425781 508.195312 151.734375 496.371094 155.976562 C 476.902344 162.964844 466.613281 172.84375 466.582031 172.875 C 473.589844 163.367188 492.402344 155.253906 495.609375 154.105469 C 514.355469 147.378906 510.878906 140.429688 510.863281 140.394531 L 505.101562 130.246094 C 503.949219 133.136719 500.082031 137.445312 488.257812 141.6875 C 468.789062 148.671875 458.5 158.554688 458.472656 158.585938 C 465.480469 149.078125 484.289062 140.964844 487.496094 139.8125 C 506.242188 133.089844 502.765625 126.140625 502.75 126.105469 L 498.691406 118.960938 C 498.683594 118.945312 494.507812 112.367188 479.105469 125.03125 C 476.472656 127.195312 459.867188 139.191406 448.109375 140.335938 C 448.152344 140.324219 461.910156 136.554688 477.886719 123.417969 C 487.589844 115.4375 493.273438 114.328125 496.34375 114.820312 L 490.582031 104.671875 C 490.570312 104.65625 486.394531 98.078125 470.992188 110.742188 C 468.359375 112.90625 451.753906 124.898438 440 126.046875 C 440.039062 126.035156 453.796875 122.265625 469.773438 109.128906 C 479.480469 101.148438 485.160156 100.039062 488.230469 100.53125 L 482.46875 90.382812 C 482.457031 90.367188 478.28125 83.789062 462.878906 96.453125 C 460.246094 98.617188 443.640625 110.609375 431.886719 111.753906 C 431.925781 111.742188 445.683594 107.976562 461.660156 94.839844 C 471.367188 86.859375 477.046875 85.75 480.117188 86.238281 L 474.355469 76.089844 C 474.34375 76.078125 470.167969 69.5 454.769531 82.160156 C 452.136719 84.328125 435.527344 96.320312 423.773438 97.464844 C 423.8125 97.453125 437.570312 93.683594 453.546875 80.546875 C 463.253906 72.570312 468.933594 71.457031 472.003906 71.949219 L 466.242188 61.800781 C 466.234375 61.785156 462.054688 55.210938 446.65625 67.871094 C 444.023438 70.039062 427.414062 82.03125 415.660156 83.175781 C 415.703125 83.164062 429.460938 79.394531 445.4375 66.257812 C 455.140625 58.277344 460.824219 57.167969 463.894531 57.660156 L 458.132812 47.511719 C 458.121094 47.496094 453.945312 40.917969 438.542969 53.582031 C 435.910156 55.746094 419.304688 67.738281 407.550781 68.886719 C 407.589844 68.875 421.347656 65.105469 437.324219 51.96875 C 447.027344 43.988281 452.710938 42.878906 455.78125 43.371094 Z M 450.019531 33.222656 " fill-opacity="1" fill-rule="nonzero"/></g></g></g></g><g clip-path="url(#144cbb0a66)"><g clip-path="url(#09b82ea6f2)"><g clip-path="url(#dfd3621939)"><g clip-path="url(#182ab62eb0)"><path fill="#d6b4ab" d="M 501.1875 150.144531 L 529.527344 200.066406 C 529.75 200.457031 529.917969 200.871094 530.03125 201.308594 C 530.148438 201.75 530.207031 202.207031 530.210938 202.679688 C 530.214844 203.152344 530.167969 203.628906 530.0625 204.117188 C 529.957031 204.605469 529.796875 205.09375 529.585938 205.574219 C 529.375 206.058594 529.113281 206.53125 528.800781 206.996094 C 528.492188 207.457031 528.140625 207.898438 527.742188 208.320312 C 527.347656 208.742188 526.914062 209.136719 526.449219 209.5 C 525.980469 209.867188 525.488281 210.199219 524.964844 210.492188 L 509.710938 219.15625 C 509.191406 219.449219 508.652344 219.703125 508.097656 219.917969 C 507.546875 220.132812 506.984375 220.300781 506.421875 220.425781 C 505.855469 220.550781 505.296875 220.625 504.738281 220.65625 C 504.183594 220.683594 503.644531 220.667969 503.121094 220.601562 C 502.597656 220.535156 502.097656 220.421875 501.625 220.261719 C 501.152344 220.101562 500.714844 219.898438 500.3125 219.652344 C 499.90625 219.40625 499.546875 219.121094 499.226562 218.796875 C 498.910156 218.472656 498.640625 218.117188 498.417969 217.726562 L 470.078125 167.804688 C 469.859375 167.417969 469.691406 167.003906 469.574219 166.5625 C 469.460938 166.125 469.398438 165.667969 469.394531 165.195312 C 469.390625 164.722656 469.441406 164.242188 469.546875 163.753906 C 469.652344 163.265625 469.808594 162.78125 470.019531 162.296875 C 470.234375 161.8125 470.492188 161.339844 470.804688 160.878906 C 471.113281 160.417969 471.46875 159.972656 471.863281 159.550781 C 472.257812 159.128906 472.691406 158.738281 473.160156 158.371094 C 473.625 158.003906 474.121094 157.675781 474.640625 157.378906 L 489.898438 148.71875 C 490.417969 148.421875 490.953125 148.167969 491.507812 147.953125 C 492.0625 147.742188 492.621094 147.570312 493.1875 147.449219 C 493.75 147.324219 494.3125 147.246094 494.867188 147.21875 C 495.421875 147.1875 495.960938 147.207031 496.484375 147.273438 C 497.011719 147.339844 497.507812 147.453125 497.980469 147.613281 C 498.453125 147.769531 498.894531 147.972656 499.296875 148.21875 C 499.699219 148.464844 500.058594 148.753906 500.378906 149.074219 C 500.695312 149.398438 500.964844 149.757812 501.1875 150.144531 Z M 501.1875 150.144531 " fill-opacity="1" fill-rule="evenodd"/></g></g></g></g><g clip-path="url(#d106cff0a5)"><g clip-path="url(#9808fcb701)"><g clip-path="url(#761cd3b4a3)"><g clip-path="url(#37f77daa4f)"><path fill="#57291d" d="M 499.425781 153.800781 L 500.160156 155.09375 C 500.328125 155.390625 500.777344 155.320312 500.84375 154.984375 C 500.863281 154.894531 500.847656 154.804688 500.804688 154.726562 C 500.335938 153.898438 499.917969 153.050781 499.285156 152.335938 C 499.195312 152.234375 499.0625 152.191406 498.933594 152.21875 C 498.652344 152.277344 498.542969 152.613281 498.730469 152.828125 C 499 153.128906 499.226562 153.449219 499.425781 153.800781 Z M 497.09375 151.546875 C 497.371094 151.683594 497.679688 151.457031 497.628906 151.152344 C 497.609375 151.035156 497.539062 150.941406 497.433594 150.886719 C 496.972656 150.644531 496.476562 150.453125 495.96875 150.328125 C 495.644531 150.25 495.386719 150.609375 495.574219 150.894531 C 495.625 150.972656 495.703125 151.027344 495.792969 151.050781 C 496.238281 151.15625 496.6875 151.332031 497.09375 151.546875 Z M 493.71875 150.910156 C 494.074219 150.867188 494.167969 150.402344 493.859375 150.222656 C 493.785156 150.179688 493.714844 150.167969 493.628906 150.175781 C 493.105469 150.238281 492.601562 150.359375 492.105469 150.542969 C 491.980469 150.589844 491.894531 150.695312 491.871094 150.824219 C 491.824219 151.109375 492.097656 151.335938 492.367188 151.238281 C 492.8125 151.074219 493.25 150.96875 493.71875 150.910156 Z M 490.453125 152.242188 C 490.75 152.074219 490.679688 151.625 490.34375 151.554688 C 490.257812 151.539062 490.164062 151.550781 490.085938 151.597656 L 488.796875 152.328125 C 488.5 152.496094 488.574219 152.945312 488.90625 153.015625 C 488.996094 153.03125 489.085938 153.019531 489.164062 152.972656 Z M 487.230469 154.070312 C 487.527344 153.902344 487.457031 153.453125 487.121094 153.386719 C 487.035156 153.367188 486.945312 153.382812 486.863281 153.425781 L 485.574219 154.15625 C 485.28125 154.324219 485.351562 154.773438 485.683594 154.84375 C 485.773438 154.863281 485.863281 154.847656 485.941406 154.804688 Z M 484.007812 155.898438 C 484.304688 155.730469 484.234375 155.28125 483.902344 155.214844 C 483.8125 155.195312 483.722656 155.210938 483.644531 155.253906 L 482.355469 155.988281 C 482.058594 156.15625 482.128906 156.605469 482.460938 156.671875 C 482.550781 156.691406 482.640625 156.675781 482.71875 156.632812 Z M 480.785156 157.730469 C 481.082031 157.5625 481.011719 157.113281 480.679688 157.042969 C 480.589844 157.027344 480.5 157.039062 480.421875 157.085938 L 479.132812 157.816406 C 478.835938 157.984375 478.90625 158.433594 479.238281 158.503906 C 479.328125 158.519531 479.417969 158.507812 479.496094 158.460938 Z M 477.566406 159.558594 C 477.859375 159.390625 477.789062 158.941406 477.457031 158.871094 C 477.367188 158.855469 477.277344 158.867188 477.199219 158.914062 L 475.90625 159.648438 C 475.65625 159.792969 475.660156 160.15625 475.921875 160.296875 C 476.035156 160.355469 476.164062 160.355469 476.277344 160.289062 Z M 474.691406 161.628906 C 474.785156 161.507812 474.800781 161.34375 474.722656 161.210938 C 474.597656 160.984375 474.277344 160.957031 474.113281 161.160156 C 473.789062 161.554688 473.492188 162.015625 473.273438 162.484375 C 473.125 162.808594 473.46875 163.136719 473.785156 162.96875 C 473.855469 162.929688 473.910156 162.875 473.945312 162.800781 C 474.160156 162.367188 474.382812 162.003906 474.691406 161.628906 Z M 473.394531 164.808594 C 473.40625 164.652344 473.324219 164.511719 473.1875 164.441406 C 472.949219 164.328125 472.679688 164.484375 472.65625 164.746094 C 472.609375 165.269531 472.625 165.789062 472.703125 166.3125 C 472.757812 166.652344 473.199219 166.742188 473.382812 166.449219 C 473.433594 166.371094 473.449219 166.289062 473.4375 166.199219 C 473.367188 165.734375 473.351562 165.277344 473.394531 164.808594 Z M 474.117188 168.164062 C 473.949219 167.867188 473.5 167.9375 473.433594 168.273438 C 473.414062 168.359375 473.429688 168.449219 473.472656 168.53125 L 474.207031 169.820312 C 474.375 170.117188 474.824219 170.046875 474.890625 169.710938 C 474.910156 169.625 474.894531 169.53125 474.851562 169.453125 Z M 475.949219 171.390625 C 475.78125 171.09375 475.332031 171.164062 475.265625 171.5 C 475.246094 171.585938 475.261719 171.675781 475.304688 171.757812 L 476.039062 173.046875 C 476.207031 173.34375 476.65625 173.273438 476.722656 172.9375 C 476.742188 172.851562 476.726562 172.757812 476.683594 172.679688 Z M 477.78125 174.617188 C 477.613281 174.320312 477.164062 174.390625 477.09375 174.722656 C 477.078125 174.8125 477.09375 174.902344 477.136719 174.984375 L 477.871094 176.273438 C 478.039062 176.570312 478.484375 176.5 478.554688 176.164062 C 478.574219 176.078125 478.558594 175.984375 478.515625 175.90625 Z M 479.613281 177.84375 C 479.445312 177.546875 478.996094 177.617188 478.925781 177.949219 C 478.910156 178.039062 478.921875 178.128906 478.96875 178.207031 L 479.699219 179.5 C 479.871094 179.796875 480.316406 179.726562 480.386719 179.390625 C 480.40625 179.304688 480.390625 179.210938 480.34375 179.132812 Z M 481.445312 181.070312 C 481.277344 180.773438 480.828125 180.84375 480.757812 181.175781 C 480.742188 181.265625 480.753906 181.355469 480.800781 181.433594 L 481.53125 182.726562 C 481.699219 183.023438 482.148438 182.953125 482.21875 182.617188 C 482.234375 182.53125 482.222656 182.4375 482.175781 182.359375 Z M 483.277344 184.296875 C 483.109375 184 482.660156 184.070312 482.589844 184.402344 C 482.574219 184.492188 482.585938 184.582031 482.632812 184.660156 L 483.363281 185.953125 C 483.53125 186.25 483.980469 186.179688 484.050781 185.84375 C 484.066406 185.757812 484.054688 185.664062 484.007812 185.585938 Z M 485.109375 187.523438 C 484.9375 187.226562 484.492188 187.296875 484.421875 187.628906 C 484.402344 187.71875 484.417969 187.808594 484.464844 187.886719 L 485.195312 189.179688 C 485.363281 189.476562 485.8125 189.40625 485.882812 189.070312 C 485.898438 188.984375 485.886719 188.890625 485.839844 188.8125 Z M 486.9375 190.75 C 486.769531 190.453125 486.324219 190.523438 486.253906 190.855469 C 486.234375 190.945312 486.25 191.035156 486.292969 191.113281 L 487.027344 192.40625 C 487.195312 192.703125 487.644531 192.632812 487.714844 192.296875 C 487.730469 192.210938 487.714844 192.117188 487.671875 192.039062 Z M 488.769531 193.976562 C 488.601562 193.679688 488.152344 193.75 488.085938 194.082031 C 488.066406 194.171875 488.082031 194.261719 488.125 194.339844 L 488.859375 195.632812 C 489.027344 195.929688 489.476562 195.859375 489.542969 195.523438 C 489.5625 195.4375 489.546875 195.34375 489.503906 195.265625 Z M 490.601562 197.203125 C 490.433594 196.90625 489.984375 196.976562 489.917969 197.308594 C 489.898438 197.398438 489.914062 197.488281 489.957031 197.566406 L 490.691406 198.859375 C 490.859375 199.15625 491.308594 199.085938 491.375 198.75 C 491.394531 198.664062 491.378906 198.570312 491.335938 198.492188 Z M 492.433594 200.429688 C 492.265625 200.132812 491.816406 200.203125 491.75 200.535156 C 491.730469 200.625 491.746094 200.714844 491.789062 200.792969 L 492.523438 202.085938 C 492.691406 202.382812 493.140625 202.3125 493.207031 201.976562 C 493.226562 201.890625 493.210938 201.796875 493.167969 201.71875 Z M 494.265625 203.65625 C 494.097656 203.359375 493.648438 203.429688 493.582031 203.761719 C 493.5625 203.851562 493.578125 203.941406 493.621094 204.019531 L 494.355469 205.3125 C 494.523438 205.609375 494.972656 205.539062 495.039062 205.203125 C 495.058594 205.117188 495.042969 205.023438 495 204.945312 Z M 496.097656 206.882812 C 495.929688 206.585938 495.480469 206.65625 495.414062 206.988281 C 495.394531 207.078125 495.410156 207.167969 495.453125 207.246094 L 496.1875 208.539062 C 496.355469 208.835938 496.804688 208.765625 496.871094 208.429688 C 496.890625 208.34375 496.875 208.25 496.832031 208.171875 Z M 497.929688 210.109375 C 497.761719 209.8125 497.3125 209.882812 497.242188 210.214844 C 497.226562 210.304688 497.242188 210.394531 497.285156 210.472656 L 498.019531 211.765625 C 498.1875 212.0625 498.632812 211.992188 498.703125 211.65625 C 498.722656 211.570312 498.707031 211.476562 498.664062 211.398438 Z M 499.761719 213.335938 C 499.59375 213.039062 499.144531 213.109375 499.074219 213.441406 C 499.058594 213.53125 499.070312 213.621094 499.117188 213.699219 C 499.363281 214.136719 499.605469 214.597656 499.898438 215.007812 C 500.089844 215.265625 500.492188 215.183594 500.5625 214.871094 C 500.585938 214.765625 500.5625 214.664062 500.5 214.574219 C 500.222656 214.191406 499.988281 213.734375 499.761719 213.335938 Z M 501.996094 216.019531 C 501.707031 215.828125 501.335938 216.105469 501.4375 216.4375 C 501.460938 216.519531 501.515625 216.589844 501.585938 216.636719 C 502.019531 216.929688 502.496094 217.164062 502.988281 217.34375 C 503.097656 217.382812 503.214844 217.371094 503.3125 217.308594 C 503.570312 217.140625 503.527344 216.753906 503.238281 216.644531 C 502.804688 216.488281 502.378906 216.277344 501.996094 216.019531 Z M 505.289062 216.996094 C 505.046875 217 504.871094 217.230469 504.9375 217.464844 C 504.980469 217.628906 505.128906 217.742188 505.296875 217.738281 C 505.847656 217.722656 506.320312 217.671875 506.855469 217.53125 C 507.1875 217.441406 507.230469 216.992188 506.917969 216.839844 C 506.839844 216.800781 506.753906 216.792969 506.664062 216.8125 C 506.191406 216.9375 505.777344 216.980469 505.289062 216.996094 Z M 508.597656 215.945312 C 508.300781 216.113281 508.371094 216.5625 508.707031 216.628906 C 508.792969 216.648438 508.886719 216.632812 508.964844 216.589844 L 510.253906 215.855469 C 510.550781 215.6875 510.480469 215.242188 510.144531 215.171875 C 510.054688 215.152344 509.964844 215.167969 509.886719 215.210938 Z M 511.820312 214.113281 C 511.523438 214.28125 511.59375 214.730469 511.929688 214.800781 C 512.015625 214.820312 512.109375 214.804688 512.1875 214.761719 L 513.476562 214.027344 C 513.773438 213.859375 513.699219 213.410156 513.367188 213.34375 C 513.277344 213.324219 513.1875 213.339844 513.109375 213.382812 Z M 515.042969 212.285156 C 514.746094 212.453125 514.816406 212.902344 515.152344 212.972656 C 515.238281 212.988281 515.332031 212.976562 515.410156 212.929688 L 516.699219 212.199219 C 516.992188 212.03125 516.921875 211.582031 516.589844 211.511719 C 516.5 211.496094 516.410156 211.507812 516.332031 211.554688 Z M 518.265625 210.457031 C 517.96875 210.625 518.039062 211.074219 518.371094 211.140625 C 518.460938 211.160156 518.550781 211.144531 518.628906 211.101562 L 519.917969 210.371094 C 520.214844 210.203125 520.144531 209.753906 519.8125 209.683594 C 519.722656 209.664062 519.632812 209.679688 519.554688 209.722656 Z M 521.488281 208.625 C 521.191406 208.796875 521.261719 209.242188 521.59375 209.3125 C 521.683594 209.332031 521.773438 209.316406 521.851562 209.273438 L 523.140625 208.539062 C 523.4375 208.371094 523.367188 207.921875 523.035156 207.855469 C 522.945312 207.835938 522.855469 207.851562 522.777344 207.894531 Z M 524.511719 206.683594 C 524.386719 206.808594 524.367188 207 524.460938 207.148438 C 524.589844 207.347656 524.867188 207.378906 525.035156 207.210938 C 525.410156 206.839844 525.734375 206.433594 526.007812 205.984375 C 526.179688 205.707031 525.933594 205.359375 525.613281 205.425781 C 525.515625 205.449219 525.429688 205.507812 525.375 205.59375 C 525.128906 205.996094 524.84375 206.355469 524.511719 206.683594 Z M 526.128906 203.65625 C 526.070312 203.972656 526.410156 204.210938 526.6875 204.042969 C 526.777344 203.988281 526.835938 203.902344 526.855469 203.796875 C 526.957031 203.28125 526.992188 202.757812 526.96875 202.234375 C 526.960938 202.023438 526.777344 201.863281 526.566406 201.882812 C 526.367188 201.898438 526.21875 202.070312 526.230469 202.269531 C 526.25 202.734375 526.21875 203.199219 526.128906 203.65625 Z M 525.757812 200.246094 C 525.890625 200.550781 526.332031 200.535156 526.445312 200.222656 C 526.476562 200.128906 526.472656 200.035156 526.4375 199.945312 C 526.230469 199.480469 525.964844 199.046875 525.714844 198.605469 C 525.546875 198.308594 525.097656 198.378906 525.03125 198.714844 C 525.011719 198.800781 525.027344 198.894531 525.070312 198.972656 C 525.308594 199.386719 525.566406 199.804688 525.757812 200.242188 Z M 523.972656 197.035156 C 524.140625 197.332031 524.589844 197.261719 524.65625 196.929688 C 524.675781 196.839844 524.660156 196.75 524.617188 196.671875 L 523.882812 195.378906 C 523.714844 195.082031 523.265625 195.152344 523.199219 195.488281 C 523.179688 195.574219 523.195312 195.667969 523.238281 195.746094 Z M 522.140625 193.808594 C 522.308594 194.105469 522.757812 194.035156 522.824219 193.703125 C 522.84375 193.613281 522.828125 193.523438 522.785156 193.445312 L 522.050781 192.152344 C 521.882812 191.855469 521.433594 191.925781 521.367188 192.261719 C 521.347656 192.347656 521.363281 192.441406 521.40625 192.519531 Z M 520.308594 190.582031 C 520.476562 190.878906 520.925781 190.808594 520.992188 190.476562 C 521.011719 190.386719 520.996094 190.296875 520.953125 190.21875 L 520.21875 188.925781 C 520.050781 188.628906 519.601562 188.699219 519.535156 189.035156 C 519.515625 189.121094 519.53125 189.214844 519.574219 189.292969 Z M 518.476562 187.355469 C 518.644531 187.652344 519.09375 187.582031 519.164062 187.25 C 519.179688 187.160156 519.164062 187.070312 519.121094 186.992188 L 518.386719 185.699219 C 518.21875 185.402344 517.773438 185.472656 517.703125 185.808594 C 517.683594 185.894531 517.699219 185.988281 517.746094 186.066406 Z M 516.644531 184.128906 C 516.8125 184.425781 517.261719 184.355469 517.332031 184.023438 C 517.347656 183.933594 517.335938 183.84375 517.289062 183.765625 L 516.558594 182.472656 C 516.386719 182.175781 515.941406 182.246094 515.871094 182.582031 C 515.855469 182.671875 515.867188 182.761719 515.914062 182.839844 Z M 514.8125 180.902344 C 514.980469 181.199219 515.429688 181.128906 515.5 180.796875 C 515.515625 180.707031 515.503906 180.617188 515.457031 180.539062 L 514.726562 179.246094 C 514.558594 178.949219 514.109375 179.019531 514.039062 179.355469 C 514.023438 179.445312 514.035156 179.535156 514.082031 179.613281 Z M 512.980469 177.675781 C 513.148438 177.972656 513.597656 177.902344 513.667969 177.570312 C 513.683594 177.480469 513.671875 177.390625 513.625 177.3125 L 512.894531 176.019531 C 512.726562 175.722656 512.277344 175.792969 512.207031 176.128906 C 512.191406 176.21875 512.203125 176.308594 512.25 176.386719 Z M 511.148438 174.449219 C 511.320312 174.746094 511.765625 174.675781 511.835938 174.34375 C 511.855469 174.253906 511.839844 174.164062 511.792969 174.085938 L 511.0625 172.792969 C 510.894531 172.496094 510.445312 172.566406 510.375 172.902344 C 510.359375 172.992188 510.371094 173.082031 510.417969 173.160156 Z M 509.320312 171.222656 C 509.488281 171.519531 509.933594 171.449219 510.003906 171.117188 C 510.023438 171.027344 510.007812 170.9375 509.960938 170.859375 L 509.230469 169.566406 C 509.0625 169.269531 508.613281 169.339844 508.546875 169.675781 C 508.527344 169.765625 508.542969 169.855469 508.585938 169.933594 Z M 507.488281 167.996094 C 507.65625 168.292969 508.105469 168.222656 508.171875 167.890625 C 508.191406 167.800781 508.175781 167.710938 508.132812 167.632812 L 507.398438 166.339844 C 507.230469 166.042969 506.78125 166.113281 506.714844 166.449219 C 506.695312 166.539062 506.710938 166.628906 506.753906 166.707031 Z M 505.65625 164.769531 C 505.824219 165.066406 506.273438 164.996094 506.339844 164.664062 C 506.359375 164.574219 506.34375 164.484375 506.300781 164.40625 L 505.566406 163.113281 C 505.398438 162.816406 504.949219 162.886719 504.882812 163.222656 C 504.863281 163.3125 504.878906 163.402344 504.921875 163.480469 Z M 503.824219 161.542969 C 503.992188 161.839844 504.441406 161.769531 504.507812 161.4375 C 504.527344 161.347656 504.511719 161.257812 504.46875 161.179688 L 503.734375 159.886719 C 503.566406 159.589844 503.117188 159.660156 503.050781 159.996094 C 503.03125 160.085938 503.046875 160.175781 503.089844 160.253906 Z M 501.992188 158.316406 C 502.160156 158.613281 502.609375 158.542969 502.675781 158.210938 C 502.695312 158.121094 502.679688 158.03125 502.636719 157.953125 L 501.902344 156.660156 C 501.734375 156.363281 501.285156 156.433594 501.21875 156.769531 C 501.199219 156.859375 501.214844 156.949219 501.257812 157.027344 Z M 501.992188 158.316406 " fill-opacity="1" fill-rule="nonzero"/></g></g></g></g><g clip-path="url(#dcd82d79ff)"><g clip-path="url(#290e0f0fe6)"><g clip-path="url(#db8450a21f)"><g clip-path="url(#bc52443fe1)"><path fill="#57291d" d="M 503.230469 151.644531 L 529.289062 197.546875 C 530.667969 199.976562 530.929688 202.75 530.242188 205.261719 C 529.550781 207.769531 527.90625 210.019531 525.480469 211.398438 L 510.222656 220.058594 C 507.792969 221.4375 505.023438 221.695312 502.515625 221.003906 C 500.003906 220.308594 497.757812 218.660156 496.375 216.230469 L 470.316406 170.328125 C 468.9375 167.894531 468.675781 165.121094 469.367188 162.613281 C 470.054688 160.101562 471.699219 157.855469 474.128906 156.476562 L 489.382812 147.816406 C 491.8125 146.4375 494.582031 146.175781 497.09375 146.871094 C 499.601562 147.566406 501.847656 149.210938 503.230469 151.644531 Z M 527.484375 198.570312 L 501.425781 152.667969 C 500.328125 150.734375 498.539062 149.425781 496.542969 148.871094 C 494.546875 148.320312 492.339844 148.527344 490.410156 149.621094 L 475.152344 158.28125 C 473.222656 159.378906 471.917969 161.167969 471.367188 163.164062 C 470.816406 165.164062 471.027344 167.371094 472.121094 169.300781 L 498.183594 215.207031 C 499.277344 217.136719 501.066406 218.449219 503.066406 219 C 505.0625 219.550781 507.265625 219.347656 509.199219 218.25 L 524.453125 209.589844 C 526.382812 208.492188 527.691406 206.707031 528.238281 204.707031 C 528.789062 202.710938 528.582031 200.503906 527.484375 198.570312 Z M 527.484375 198.570312 " fill-opacity="1" fill-rule="nonzero"/></g></g></g></g></svg>