<svg xmlns="http://www.w3.org/2000/svg" xmlns:xlink="http://www.w3.org/1999/xlink" width="1024" zoomAndPan="magnify" viewBox="0 0 768 767.999994" height="1024" preserveAspectRatio="xMidYMid meet" version="1.0"><defs><clipPath id="3e4ce509eb"><path d="M 348 0 L 674 0 L 674 228 L 348 228 Z M 348 0 " clip-rule="nonzero"/></clipPath><clipPath id="61fc9d9f67"><path d="M 499.894531 -96.957031 L 673.3125 76.460938 L 522.167969 227.605469 L 348.75 54.1875 Z M 499.894531 -96.957031 " clip-rule="nonzero"/></clipPath><clipPath id="480e571fea"><path d="M 8 0 L 306 0 L 306 188 L 8 188 Z M 8 0 " clip-rule="nonzero"/></clipPath><clipPath id="7ec3ba3421"><path d="M 151.894531 -96.957031 L 325.3125 76.460938 L 174.167969 227.605469 L 0.75 54.1875 Z M 151.894531 -96.957031 " clip-rule="nonzero"/></clipPath><clipPath id="570fa81ce4"><path d="M 325.351562 76.503906 L 151.933594 -96.914062 L 0.792969 54.230469 L 174.210938 227.648438 Z M 325.351562 76.503906 " clip-rule="nonzero"/></clipPath><clipPath id="870a6a9f07"><path d="M 325.351562 76.503906 L 151.933594 -96.914062 L 0.792969 54.230469 L 174.210938 227.648438 Z M 325.351562 76.503906 " clip-rule="nonzero"/></clipPath><clipPath id="c78962a666"><path d="M 8 0 L 305 0 L 305 188 L 8 188 Z M 8 0 " clip-rule="nonzero"/></clipPath><clipPath id="e6284663b1"><path d="M 151.894531 -96.957031 L 325.3125 76.460938 L 174.167969 227.605469 L 0.75 54.1875 Z M 151.894531 -96.957031 " clip-rule="nonzero"/></clipPath><clipPath id="3fdcfc731d"><path d="M 325.351562 76.503906 L 151.933594 -96.914062 L 0.792969 54.230469 L 174.210938 227.648438 Z M 325.351562 76.503906 " clip-rule="nonzero"/></clipPath><clipPath id="916f60f67c"><path d="M 325.351562 76.503906 L 151.933594 -96.914062 L 0.792969 54.230469 L 174.210938 227.648438 Z M 325.351562 76.503906 " clip-rule="nonzero"/></clipPath><clipPath id="d7b194a343"><path d="M 225 32 L 298 32 L 298 65 L 225 65 Z M 225 32 " clip-rule="nonzero"/></clipPath><clipPath id="b28b1b94ba"><path d="M 151.894531 -96.957031 L 325.3125 76.460938 L 174.167969 227.605469 L 0.75 54.1875 Z M 151.894531 -96.957031 " clip-rule="nonzero"/></clipPath><clipPath id="567125b096"><path d="M 325.351562 76.503906 L 151.933594 -96.914062 L 0.792969 54.230469 L 174.210938 227.648438 Z M 325.351562 76.503906 " clip-rule="nonzero"/></clipPath><clipPath id="43e665ce30"><path d="M 325.351562 76.503906 L 151.933594 -96.914062 L 0.792969 54.230469 L 174.210938 227.648438 Z M 325.351562 76.503906 " clip-rule="nonzero"/></clipPath><clipPath id="dba7e552f9"><path d="M 195 14 L 216 14 L 216 27 L 195 27 Z M 195 14 " clip-rule="nonzero"/></clipPath><clipPath id="6f96b629a3"><path d="M 151.894531 -96.957031 L 325.3125 76.460938 L 174.167969 227.605469 L 0.75 54.1875 Z M 151.894531 -96.957031 " clip-rule="nonzero"/></clipPath><clipPath id="b4fd188985"><path d="M 325.351562 76.503906 L 151.933594 -96.914062 L 0.792969 54.230469 L 174.210938 227.648438 Z M 325.351562 76.503906 " clip-rule="nonzero"/></clipPath><clipPath id="a97eef7354"><path d="M 325.351562 76.503906 L 151.933594 -96.914062 L 0.792969 54.230469 L 174.210938 227.648438 Z M 325.351562 76.503906 " clip-rule="nonzero"/></clipPath><clipPath id="0ffefad078"><path d="M 109 0 L 184 0 L 184 14 L 109 14 Z M 109 0 " clip-rule="nonzero"/></clipPath><clipPath id="6382402ae3"><path d="M 151.894531 -96.957031 L 325.3125 76.460938 L 174.167969 227.605469 L 0.75 54.1875 Z M 151.894531 -96.957031 " clip-rule="nonzero"/></clipPath><clipPath id="919eba18f9"><path d="M 325.351562 76.503906 L 151.933594 -96.914062 L 0.792969 54.230469 L 174.210938 227.648438 Z M 325.351562 76.503906 " clip-rule="nonzero"/></clipPath><clipPath id="5a957475b0"><path d="M 325.351562 76.503906 L 151.933594 -96.914062 L 0.792969 54.230469 L 174.210938 227.648438 Z M 325.351562 76.503906 " clip-rule="nonzero"/></clipPath><clipPath id="f4f6670a6d"><path d="M 163 57 L 227 57 L 227 179 L 163 179 Z M 163 57 " clip-rule="nonzero"/></clipPath><clipPath id="e74ec948b5"><path d="M 151.894531 -96.957031 L 325.3125 76.460938 L 174.167969 227.605469 L 0.75 54.1875 Z M 151.894531 -96.957031 " clip-rule="nonzero"/></clipPath><clipPath id="e2d23d8af2"><path d="M 325.351562 76.503906 L 151.933594 -96.914062 L 0.792969 54.230469 L 174.210938 227.648438 Z M 325.351562 76.503906 " clip-rule="nonzero"/></clipPath><clipPath id="66cb673607"><path d="M 325.351562 76.503906 L 151.933594 -96.914062 L 0.792969 54.230469 L 174.210938 227.648438 Z M 325.351562 76.503906 " clip-rule="nonzero"/></clipPath><clipPath id="4c3bdc951d"><path d="M 185 37 L 203 37 L 203 49 L 185 49 Z M 185 37 " clip-rule="nonzero"/></clipPath><clipPath id="270fcf69ac"><path d="M 151.894531 -96.957031 L 325.3125 76.460938 L 174.167969 227.605469 L 0.75 54.1875 Z M 151.894531 -96.957031 " clip-rule="nonzero"/></clipPath><clipPath id="e466382a8e"><path d="M 325.351562 76.503906 L 151.933594 -96.914062 L 0.792969 54.230469 L 174.210938 227.648438 Z M 325.351562 76.503906 " clip-rule="nonzero"/></clipPath><clipPath id="db412fefe5"><path d="M 325.351562 76.503906 L 151.933594 -96.914062 L 0.792969 54.230469 L 174.210938 227.648438 Z M 325.351562 76.503906 " clip-rule="nonzero"/></clipPath><clipPath id="e74d5f6d2c"><path d="M 101 51 L 194 51 L 194 145 L 101 145 Z M 101 51 " clip-rule="nonzero"/></clipPath><clipPath id="f806dedd66"><path d="M 151.894531 -96.957031 L 325.3125 76.460938 L 174.167969 227.605469 L 0.75 54.1875 Z M 151.894531 -96.957031 " clip-rule="nonzero"/></clipPath><clipPath id="40e301429e"><path d="M 325.351562 76.503906 L 151.933594 -96.914062 L 0.792969 54.230469 L 174.210938 227.648438 Z M 325.351562 76.503906 " clip-rule="nonzero"/></clipPath><clipPath id="affb6803a4"><path d="M 325.351562 76.503906 L 151.933594 -96.914062 L 0.792969 54.230469 L 174.210938 227.648438 Z M 325.351562 76.503906 " clip-rule="nonzero"/></clipPath><clipPath id="59715fe5ef"><path d="M 67 29 L 180 29 L 180 89 L 67 89 Z M 67 29 " clip-rule="nonzero"/></clipPath><clipPath id="046afdf409"><path d="M 151.894531 -96.957031 L 325.3125 76.460938 L 174.167969 227.605469 L 0.75 54.1875 Z M 151.894531 -96.957031 " clip-rule="nonzero"/></clipPath><clipPath id="dae14e5125"><path d="M 325.351562 76.503906 L 151.933594 -96.914062 L 0.792969 54.230469 L 174.210938 227.648438 Z M 325.351562 76.503906 " clip-rule="nonzero"/></clipPath><clipPath id="3666898acd"><path d="M 325.351562 76.503906 L 151.933594 -96.914062 L 0.792969 54.230469 L 174.210938 227.648438 Z M 325.351562 76.503906 " clip-rule="nonzero"/></clipPath><clipPath id="9a15937d1a"><path d="M 16 49 L 96 49 L 96 99 L 16 99 Z M 16 49 " clip-rule="nonzero"/></clipPath><clipPath id="328e623b82"><path d="M 151.894531 -96.957031 L 325.3125 76.460938 L 174.167969 227.605469 L 0.75 54.1875 Z M 151.894531 -96.957031 " clip-rule="nonzero"/></clipPath><clipPath id="091ca656d3"><path d="M 325.351562 76.503906 L 151.933594 -96.914062 L 0.792969 54.230469 L 174.210938 227.648438 Z M 325.351562 76.503906 " clip-rule="nonzero"/></clipPath><clipPath id="26065fe9a9"><path d="M 325.351562 76.503906 L 151.933594 -96.914062 L 0.792969 54.230469 L 174.210938 227.648438 Z M 325.351562 76.503906 " clip-rule="nonzero"/></clipPath><clipPath id="2c4cbdb279"><rect x="0" width="326" y="0" height="228"/></clipPath></defs><g clip-path="url(#3e4ce509eb)"><g clip-path="url(#61fc9d9f67)"><g transform="matrix(1, 0, 0, 1, 348, -0.000000000000057351)"><g clip-path="url(#2c4cbdb279)"><g clip-path="url(#480e571fea)"><g clip-path="url(#7ec3ba3421)"><g clip-path="url(#570fa81ce4)"><g clip-path="url(#870a6a9f07)"><path fill="#000000" d="M 9.488281 54.28125 C 11.496094 61.558594 16.050781 67.847656 20.964844 73.476562 C 31.78125 85.191406 46.214844 93.042969 61.277344 97.871094 C 70.5 100.8125 79.964844 103.210938 89.457031 105.164062 C 93.585938 106.003906 97.691406 106.933594 101.882812 107.414062 C 102.71875 107.535156 103.707031 107.566406 104.246094 108.285156 C 113.535156 117.511719 123.03125 126.527344 133.035156 134.976562 C 149.75 149.238281 167.152344 162.75 185.78125 174.4375 C 191.980469 178.300781 198.300781 181.988281 204.859375 185.253906 C 206.925781 186.242188 209.019531 187.324219 211.296875 187.863281 C 213.003906 188.195312 214.558594 187.296875 215.699219 186.097656 C 216.296875 184.664062 217.460938 183.253906 218.058594 181.820312 C 219.617188 177.988281 221.410156 174.695312 223.023438 170.863281 C 224.667969 167 226.074219 162.960938 227.628906 159.070312 C 228.886719 155.835938 229.960938 152.722656 231.097656 149.132812 C 231.871094 144.761719 232.796875 140.417969 233.246094 135.957031 C 234.527344 125.929688 234.222656 115.75 232.601562 105.75 C 231.21875 97.785156 229.089844 89.90625 225.640625 82.570312 C 224.804688 81.3125 224.203125 79.753906 223.632812 78.40625 C 223.332031 77.75 223.003906 77.058594 222.703125 76.339844 C 222.464844 75.863281 222.195312 75.414062 221.984375 74.964844 C 220.726562 72.507812 219.527344 69.992188 218.027344 67.65625 C 215.183594 63.195312 211.796875 59.089844 209.070312 54.566406 C 208.558594 54.058594 208.019531 53.519531 207.511719 53.011719 C 208.648438 50.972656 209.933594 49.027344 211.042969 46.964844 C 211.820312 45.527344 212.027344 43.402344 210.648438 42.261719 C 208.195312 40.164062 205.140625 38.90625 202.5625 36.988281 C 203.132812 35.820312 203.667969 34.683594 204.238281 33.515625 C 207.472656 34.535156 210.824219 35.375 214.207031 34.929688 C 214.898438 34.960938 215.796875 34.542969 216.273438 35.199219 C 219.449219 38.734375 223.464844 41.25 227.269531 44.039062 C 236.132812 50.152344 245.238281 55.90625 254.820312 60.878906 C 263.296875 65.226562 272.070312 69.210938 281.355469 71.492188 C 286.804688 72.691406 292.761719 73.445312 298.089844 71.410156 C 302.011719 69.945312 305.035156 66.144531 305.003906 61.863281 C 305.058594 57.195312 301.945312 53.242188 298.589844 50.304688 C 291.128906 43.921875 282.027344 39.847656 272.953125 36.398438 C 264.089844 33.101562 254.957031 30.667969 245.792969 28.390625 C 238.304688 26.707031 230.761719 25.027344 223.125 23.976562 C 222.703125 19.246094 218.71875 15.917969 215.15625 13.253906 C 209.792969 9.566406 203.386719 6.75 196.769531 7.015625 C 194.941406 6.984375 193.324219 8.0625 192.097656 9.347656 C 184.730469 4.253906 177.003906 -0.359375 169.308594 -4.945312 C 160.589844 -10.191406 151.546875 -14.984375 142.351562 -19.269531 C 134.238281 -22.957031 125.792969 -26.257812 116.929688 -27.398438 C 113.574219 -27.761719 110.042969 -27.640625 106.898438 -26.238281 C 103.515625 -24.710938 101.183594 -21.179688 101.335938 -17.4375 C 101.277344 -12.226562 104.605469 -7.765625 108.289062 -4.378906 C 114.28125 1.132812 121.585938 5.027344 128.984375 8.238281 C 137.28125 11.863281 146.054688 14.355469 154.855469 16.515625 C 162.164062 18.253906 169.558594 19.605469 177.015625 20.539062 C 180.90625 21.019531 184.890625 21.230469 188.8125 20.605469 C 190.609375 24.558594 193.84375 27.554688 197.351562 29.921875 C 196.839844 30.96875 196.304688 32.046875 195.792969 33.09375 C 192.828125 31.566406 189.925781 29.855469 186.75 28.777344 C 185.253906 28.296875 183.335938 28.054688 182.167969 29.34375 C 180.882812 30.808594 180.226562 32.664062 179.417969 34.371094 C 170.554688 29.996094 161.238281 26.367188 151.507812 24.355469 C 134.050781 20.425781 115.457031 21.285156 98.515625 27.082031 C 85.042969 31.746094 72.5625 39.195312 61.96875 48.769531 C 48.015625 46.367188 34.09375 43.515625 20.019531 42.070312 C 17.175781 41.800781 13.882812 41.796875 11.667969 43.953125 C 8.613281 46.40625 8.527344 50.808594 9.488281 54.28125 Z M 9.488281 54.28125 " fill-opacity="1" fill-rule="nonzero"/></g></g></g></g><g clip-path="url(#c78962a666)"><g clip-path="url(#e6284663b1)"><g clip-path="url(#3fdcfc731d)"><g clip-path="url(#916f60f67c)"><path fill="#000000" d="M 11.636719 43.921875 C 13.820312 41.738281 17.117188 41.738281 19.960938 42.011719 C 34.0625 43.484375 47.957031 46.308594 61.910156 48.710938 C 72.472656 39.164062 84.984375 31.6875 98.457031 27.023438 C 115.429688 21.253906 133.992188 20.363281 151.449219 24.296875 C 161.179688 26.308594 170.464844 29.964844 179.359375 34.3125 C 180.195312 32.574219 180.851562 30.71875 182.109375 29.285156 C 183.246094 27.964844 185.191406 28.238281 186.691406 28.71875 C 189.863281 29.796875 192.769531 31.503906 195.765625 33.0625 C 196.273438 32.015625 196.8125 30.9375 197.320312 29.890625 C 193.785156 27.492188 190.550781 24.496094 188.78125 20.574219 C 184.859375 21.199219 180.90625 20.960938 176.984375 20.507812 C 169.53125 19.574219 162.132812 18.226562 154.828125 16.484375 C 146.023438 14.324219 137.25 11.832031 128.953125 8.207031 C 121.527344 5.027344 114.25 1.101562 108.257812 -4.410156 C 104.574219 -7.792969 101.25 -12.257812 101.304688 -17.46875 C 101.152344 -21.210938 103.488281 -24.742188 106.871094 -26.265625 C 109.984375 -27.640625 113.546875 -27.789062 116.898438 -27.429688 C 125.792969 -26.257812 134.207031 -22.929688 142.324219 -19.300781 C 151.578125 -15.015625 160.5625 -10.21875 169.308594 -5.003906 C 177.003906 -0.421875 184.730469 4.195312 192.097656 9.289062 C 193.324219 8 194.882812 6.925781 196.769531 6.957031 C 203.386719 6.691406 209.792969 9.507812 215.15625 13.191406 C 218.71875 15.859375 222.671875 19.15625 223.09375 23.886719 C 230.730469 24.9375 238.246094 26.589844 245.761719 28.300781 C 254.925781 30.578125 264.058594 33.011719 272.921875 36.308594 C 282.027344 39.785156 291.101562 43.832031 298.558594 50.214844 C 301.945312 53.121094 305.03125 57.105469 304.972656 61.773438 C 304.976562 66.027344 301.953125 69.828125 298.0625 71.320312 C 292.703125 73.386719 286.804688 72.632812 281.324219 71.402344 C 272.042969 69.121094 263.296875 65.164062 254.792969 60.789062 C 245.269531 55.816406 236.132812 50.03125 227.238281 43.949219 C 223.464844 41.191406 219.421875 38.644531 216.246094 35.109375 C 215.765625 34.453125 214.867188 34.808594 214.207031 34.808594 C 210.796875 35.226562 207.414062 34.417969 204.238281 33.398438 C 203.699219 34.535156 203.132812 35.703125 202.5625 36.871094 C 205.140625 38.785156 208.195312 40.046875 210.648438 42.144531 C 212.058594 43.3125 211.847656 45.378906 211.042969 46.84375 C 209.933594 48.910156 208.648438 50.855469 207.511719 52.890625 C 208.019531 53.398438 208.558594 53.9375 209.070312 54.449219 C 211.796875 58.96875 215.183594 63.074219 218.027344 67.535156 C 219.527344 69.871094 220.726562 72.386719 221.984375 74.84375 C 222.226562 75.324219 222.496094 75.773438 222.703125 76.222656 C 223.035156 76.910156 223.332031 77.570312 223.632812 78.289062 C 224.203125 79.636719 224.800781 81.191406 225.640625 82.449219 C 229.089844 89.789062 231.21875 97.664062 232.570312 105.597656 C 234.164062 115.570312 234.496094 125.78125 233.214844 135.808594 C 232.738281 140.238281 231.871094 144.582031 231.066406 148.980469 C 229.929688 152.574219 228.855469 155.6875 227.597656 158.917969 C 226.074219 162.839844 224.667969 166.882812 223.023438 170.742188 C 221.378906 174.546875 219.613281 177.867188 218.058594 181.699219 C 217.433594 183.164062 216.324219 184.574219 215.699219 185.980469 C 214.558594 187.175781 212.972656 188.042969 211.296875 187.742188 C 209.019531 187.261719 206.953125 186.152344 204.859375 185.136719 C 198.300781 181.867188 192.011719 178.152344 185.78125 174.316406 C 167.179688 162.601562 149.75 149.117188 133.035156 134.855469 C 123.03125 126.40625 113.535156 117.390625 104.246094 108.164062 C 103.648438 107.445312 102.71875 107.414062 101.882812 107.292969 C 97.691406 106.8125 93.585938 105.882812 89.457031 105.042969 C 79.964844 103.089844 70.53125 100.660156 61.277344 97.75 C 46.214844 92.921875 31.78125 85.070312 20.964844 73.359375 C 16.050781 67.726562 11.496094 61.4375 9.488281 54.160156 C 8.527344 50.808594 8.613281 46.40625 11.636719 43.921875 Z M 170.511719 5.054688 C 165.835938 2.058594 160.957031 -0.546875 156.164062 -3.246094 C 147.6875 -7.949219 139.09375 -12.535156 129.988281 -15.835938 C 124.507812 -17.902344 118.789062 -19.734375 112.890625 -19.707031 C 111.394531 -19.648438 109.027344 -19.378906 109.058594 -17.433594 C 109.09375 -14.109375 111.90625 -11.710938 114.15625 -9.585938 C 121.703125 -3.292969 130.867188 0.78125 140.058594 4.050781 C 154.042969 8.699219 168.566406 11.851562 183.269531 13.144531 C 179.164062 10.179688 174.761719 7.753906 170.511719 5.054688 Z M 250.742188 49.621094 C 259.609375 54.773438 268.863281 59.359375 278.625 62.539062 C 283.085938 63.828125 287.699219 65.027344 292.371094 64.792969 C 294.074219 64.644531 296.203125 64.316406 297.097656 62.640625 C 297.578125 61.140625 296.617188 59.644531 295.597656 58.566406 C 292.964844 55.75 289.90625 53.355469 286.644531 51.40625 C 277.628906 46.222656 267.777344 42.652344 257.804688 39.742188 C 247.085938 36.683594 236.183594 33.921875 225.046875 32.601562 C 233.3125 38.710938 241.910156 44.375 250.742188 49.621094 Z M 215.671875 25.679688 C 213.125 20.976562 208.300781 18.011719 203.421875 16.179688 C 200.996094 15.3125 198.300781 14.230469 195.695312 15.277344 C 195.875 16.117188 195.996094 17.015625 196.414062 17.792969 C 199.949219 22.40625 205.132812 25.792969 210.882812 26.8125 C 212.558594 27.113281 214.382812 26.90625 215.671875 25.679688 Z M 202.746094 46.03125 C 197.265625 42.945312 191.726562 39.859375 186.035156 37.160156 C 185.796875 37.699219 185.585938 38.265625 185.378906 38.777344 C 190.050781 42.910156 195.414062 46.417969 201.101562 48.933594 C 201.699219 47.976562 202.238281 47.019531 202.746094 46.03125 Z M 163.34375 149.304688 C 170.980469 155.265625 178.976562 160.691406 187.125 165.964844 C 194.640625 170.726562 202.339844 175.3125 210.453125 179.058594 C 219.039062 164.304688 224.570312 147.628906 225.9375 130.566406 C 227.335938 114.070312 224.453125 97.0625 216.839844 82.265625 C 213.300781 74.960938 208.808594 68.128906 203.925781 61.691406 C 202.695312 60.101562 201.46875 58.515625 200.027344 57.078125 C 200.839844 64.652344 200.90625 72.378906 199.472656 79.863281 C 196.578125 96.597656 189.128906 112.132812 180.277344 126.4375 C 175.128906 134.460938 169.476562 142.089844 163.34375 149.304688 Z M 101.664062 94.269531 C 117.152344 110.777344 133.957031 126.023438 151.511719 140.285156 C 153.335938 141.8125 155.253906 143.3125 157.230469 144.691406 C 169.769531 129.695312 180.867188 113.144531 187.503906 94.644531 C 192.496094 81.207031 194.945312 66.238281 191.222656 52.164062 C 183.320312 50.421875 175.054688 51.074219 167.210938 52.75 C 150.988281 56.570312 136.140625 64.949219 122.941406 74.96875 C 115.371094 80.804688 108.160156 87.179688 101.664062 94.269531 Z M 146.761719 51.75 C 155.082031 48.042969 163.824219 44.992188 172.925781 43.917969 C 175.140625 43.621094 177.417969 43.621094 179.664062 43.414062 C 172.175781 39.097656 164.03125 35.980469 155.824219 33.460938 C 147.410156 31.152344 138.726562 29.648438 129.984375 29.703125 C 115.972656 29.9375 101.839844 32.742188 89.390625 39.261719 C 81.609375 43.210938 74.335938 48.207031 67.871094 54.074219 C 76.800781 65.992188 86.296875 77.527344 96.421875 88.429688 C 111.085938 73.648438 127.664062 60.363281 146.761719 51.75 Z M 20.808594 60.335938 C 26.441406 69.261719 34.707031 76.269531 43.722656 81.574219 C 56.273438 89.15625 70.675781 92.726562 84.75 96.207031 C 88.164062 97.046875 91.578125 97.828125 95.050781 98.488281 C 82.796875 85.636719 71.414062 71.917969 60.746094 57.722656 C 60.328125 57.0625 59.726562 56.523438 58.921875 56.433594 C 51.671875 54.992188 44.425781 53.550781 37.121094 52.347656 C 30.355469 51.269531 23.585938 49.945312 16.699219 49.703125 C 16.941406 53.597656 18.859375 57.070312 20.808594 60.335938 Z M 20.808594 60.335938 " fill-opacity="1" fill-rule="nonzero"/></g></g></g></g><g clip-path="url(#d7b194a343)"><g clip-path="url(#b28b1b94ba)"><g clip-path="url(#567125b096)"><g clip-path="url(#43e665ce30)"><path fill="#2796cf" d="M 297.128906 62.667969 C 297.605469 61.171875 296.648438 59.675781 295.628906 58.597656 C 292.992188 55.78125 289.9375 53.382812 286.671875 51.4375 C 277.660156 46.25 267.804688 42.683594 257.835938 39.773438 C 247.085938 36.683594 236.183594 33.921875 225.046875 32.601562 C 233.28125 38.742188 241.878906 44.40625 250.742188 49.621094 C 259.609375 54.773438 268.863281 59.359375 278.625 62.539062 C 283.085938 63.828125 287.699219 65.027344 292.371094 64.792969 C 294.074219 64.644531 296.203125 64.316406 297.128906 62.667969 Z M 297.128906 62.667969 " fill-opacity="1" fill-rule="nonzero"/></g></g></g></g><g clip-path="url(#dba7e552f9)"><g clip-path="url(#6f96b629a3)"><g clip-path="url(#b4fd188985)"><g clip-path="url(#a97eef7354)"><path fill="#2796cf" d="M 215.671875 25.679688 C 213.125 20.976562 208.300781 18.011719 203.421875 16.179688 C 200.996094 15.3125 198.300781 14.230469 195.695312 15.277344 C 195.875 16.117188 195.996094 17.015625 196.414062 17.792969 C 199.949219 22.40625 205.132812 25.792969 210.882812 26.8125 C 212.558594 27.113281 214.382812 26.90625 215.671875 25.679688 Z M 215.671875 25.679688 " fill-opacity="1" fill-rule="nonzero"/></g></g></g></g><g clip-path="url(#0ffefad078)"><g clip-path="url(#6382402ae3)"><g clip-path="url(#919eba18f9)"><g clip-path="url(#5a957475b0)"><path fill="#2796cf" d="M 183.296875 13.117188 C 179.226562 10.179688 174.792969 7.78125 170.570312 5.054688 C 165.898438 2.058594 161.015625 -0.546875 156.222656 -3.246094 C 147.75 -7.949219 139.152344 -12.535156 130.050781 -15.835938 C 124.570312 -17.902344 118.847656 -19.734375 112.953125 -19.707031 C 111.453125 -19.648438 109.089844 -19.378906 109.121094 -17.433594 C 109.152344 -14.109375 111.96875 -11.710938 114.214844 -9.585938 C 121.761719 -3.292969 130.925781 0.78125 140.121094 4.050781 C 154.042969 8.699219 168.566406 11.851562 183.296875 13.117188 Z M 183.296875 13.117188 " fill-opacity="1" fill-rule="nonzero"/></g></g></g></g><g clip-path="url(#f4f6670a6d)"><g clip-path="url(#e74ec948b5)"><g clip-path="url(#e2d23d8af2)"><g clip-path="url(#66cb673607)"><path fill="#2796cf" d="M 203.863281 61.691406 C 202.636719 60.101562 201.40625 58.515625 199.96875 57.078125 C 200.78125 64.652344 200.847656 72.378906 199.414062 79.863281 C 196.515625 96.597656 189.070312 112.132812 180.214844 126.4375 C 175.128906 134.398438 169.476562 142.03125 163.34375 149.246094 C 170.980469 155.207031 178.976562 160.628906 187.125 165.902344 C 194.640625 170.667969 202.339844 175.253906 210.453125 179 C 219.039062 164.246094 224.570312 147.570312 225.9375 130.503906 C 227.335938 114.007812 224.453125 97 216.839844 82.207031 C 213.300781 74.960938 208.808594 68.128906 203.863281 61.691406 Z M 203.863281 61.691406 " fill-opacity="1" fill-rule="nonzero"/></g></g></g></g><g clip-path="url(#4c3bdc951d)"><g clip-path="url(#270fcf69ac)"><g clip-path="url(#e466382a8e)"><g clip-path="url(#db412fefe5)"><path fill="#078141" d="M 202.746094 46.03125 C 197.265625 42.945312 191.726562 39.859375 186.035156 37.160156 C 185.796875 37.699219 185.585938 38.265625 185.378906 38.777344 C 190.050781 42.910156 195.414062 46.417969 201.101562 48.933594 C 201.699219 47.976562 202.238281 47.019531 202.746094 46.03125 Z M 202.746094 46.03125 " fill-opacity="1" fill-rule="nonzero"/></g></g></g></g><g clip-path="url(#e74d5f6d2c)"><g clip-path="url(#f806dedd66)"><g clip-path="url(#40e301429e)"><g clip-path="url(#affb6803a4)"><path fill="#078141" d="M 187.503906 94.644531 C 192.496094 81.207031 194.945312 66.238281 191.222656 52.164062 C 183.320312 50.421875 175.054688 51.074219 167.210938 52.75 C 150.988281 56.570312 136.140625 64.949219 122.941406 74.96875 C 115.339844 80.835938 108.128906 87.207031 101.605469 94.269531 C 117.09375 110.777344 133.898438 126.023438 151.449219 140.285156 C 153.277344 141.8125 155.195312 143.3125 157.171875 144.691406 C 169.738281 129.667969 180.835938 113.117188 187.503906 94.644531 Z M 187.503906 94.644531 " fill-opacity="1" fill-rule="nonzero"/></g></g></g></g><g clip-path="url(#59715fe5ef)"><g clip-path="url(#046afdf409)"><g clip-path="url(#dae14e5125)"><g clip-path="url(#3666898acd)"><path fill="#d2343d" d="M 179.691406 43.382812 C 172.203125 39.070312 164.058594 35.949219 155.855469 33.429688 C 147.441406 31.121094 138.757812 29.621094 130.015625 29.675781 C 116 29.90625 101.871094 32.714844 89.417969 39.234375 C 81.636719 43.179688 74.363281 48.175781 67.902344 54.042969 C 76.828125 65.964844 86.328125 77.496094 96.453125 88.398438 C 111.113281 73.558594 127.664062 60.242188 146.761719 51.628906 C 155.082031 47.921875 163.824219 44.871094 172.925781 43.800781 C 175.203125 43.621094 177.445312 43.652344 179.691406 43.382812 Z M 179.691406 43.382812 " fill-opacity="1" fill-rule="nonzero"/></g></g></g></g><g clip-path="url(#9a15937d1a)"><g clip-path="url(#328e623b82)"><g clip-path="url(#091ca656d3)"><g clip-path="url(#26065fe9a9)"><path fill="#fbab08" d="M 95.050781 98.488281 C 82.796875 85.636719 71.414062 71.917969 60.746094 57.722656 C 60.328125 57.0625 59.726562 56.523438 58.921875 56.433594 C 51.671875 54.992188 44.425781 53.550781 37.121094 52.347656 C 30.355469 51.269531 23.585938 49.945312 16.699219 49.703125 C 16.972656 53.566406 18.890625 57.039062 20.835938 60.304688 C 26.472656 69.230469 34.738281 76.242188 43.753906 81.542969 C 56.304688 89.125 70.707031 92.695312 84.78125 96.175781 C 88.195312 97.019531 91.605469 97.796875 95.050781 98.488281 Z M 95.050781 98.488281 " fill-opacity="1" fill-rule="nonzero"/></g></g></g></g></g></g></g></g></svg>