<svg xmlns="http://www.w3.org/2000/svg" xmlns:xlink="http://www.w3.org/1999/xlink" width="1024" zoomAndPan="magnify" viewBox="0 0 768 767.999994" height="1024" preserveAspectRatio="xMidYMid meet" version="1.0"><defs><clipPath id="e7d9440e7d"><path d="M 457 4 L 511 4 L 511 195.75 L 457 195.75 Z M 457 4 " clip-rule="nonzero"/></clipPath></defs><path fill="#353535" d="M 133.976562 104.453125 C 133.976562 104.453125 124.917969 107.640625 126.644531 129.707031 C 129.167969 160.824219 159.738281 164.8125 159.738281 164.8125 C 159.738281 164.8125 193.96875 171.363281 226.445312 170.578125 C 258.917969 169.796875 293.054688 164.8125 293.054688 164.8125 L 293.054688 146.1875 L 286.28125 93.757812 Z M 133.976562 104.453125 " fill-opacity="1" fill-rule="nonzero"/><path fill="#727272" d="M 133.976562 104.453125 C 133.976562 104.453125 132.023438 105.140625 130.109375 108.078125 C 161.753906 106.582031 286.28125 93.757812 286.28125 93.757812 L 245.175781 96.644531 Z M 133.976562 104.453125 " fill-opacity="0.7" fill-rule="nonzero"/><path fill="#2e2e2e" d="M 132.878906 148.320312 C 142.542969 162.570312 159.738281 164.808594 159.738281 164.808594 C 159.738281 164.808594 193.96875 171.359375 226.445312 170.574219 C 258.917969 169.792969 293.054688 164.808594 293.054688 164.808594 L 293.054688 146.1875 L 286.28125 93.757812 L 280.066406 96.359375 C 280.066406 96.359375 255.539062 116.730469 224.320312 127.367188 C 182.902344 141.476562 131.960938 146.964844 132.878906 148.320312 Z M 132.878906 148.320312 " fill-opacity="1" fill-rule="nonzero"/><path fill="#333333" d="M 432.738281 5.238281 C 331.226562 7.574219 277.523438 93.871094 277.523438 93.871094 L 275.246094 159.140625 C 275.246094 159.140625 281.445312 187.484375 429.96875 191.632812 C 611.671875 195.742188 598.257812 170.394531 598.257812 170.394531 C 598.257812 170.394531 594.875 128.371094 564.59375 74.738281 C 547.320312 48.835938 528.589844 16.328125 432.738281 5.238281 Z M 432.738281 5.238281 " fill-opacity="1" fill-rule="nonzero"/><path fill="#2e2e2e" d="M 502.871094 191.574219 C 607.734375 188.300781 598.257812 170.390625 598.257812 170.390625 C 598.257812 170.390625 594.875 128.367188 564.59375 74.738281 C 549.371094 51.910156 533.019531 23.957031 463.753906 10.046875 C 489.679688 46.980469 507.203125 95.613281 502.871094 191.574219 Z M 502.871094 191.574219 " fill-opacity="1" fill-rule="nonzero"/><path fill="#353535" d="M 432.738281 5.238281 C 331.226562 7.574219 277.523438 93.871094 277.523438 93.871094 C 277.523438 93.871094 266.273438 104.398438 266.273438 123.921875 C 266.273438 143.445312 275.246094 159.140625 275.246094 159.140625 C 275.246094 159.140625 279.316406 177.75 359.867188 187.015625 C 361.175781 117.007812 454.988281 8.554688 454.988281 8.554688 Z M 432.738281 5.238281 " fill-opacity="1" fill-rule="nonzero"/><path fill="#727272" d="M 432.738281 5.238281 C 331.226562 7.574219 277.523438 93.871094 277.523438 93.871094 C 277.523438 93.871094 321.15625 40.632812 370.117188 22.667969 C 419.074219 4.707031 432.738281 5.238281 432.738281 5.238281 Z M 432.738281 5.238281 " fill-opacity="0.7" fill-rule="nonzero"/><path stroke-linecap="butt" transform="matrix(0.138659, 0, 0, 0.138527, 126.424905, 0.698595)" fill="none" stroke-linejoin="miter" d="M 1683.566076 1344.990967 C 1693.003544 839.616471 2369.571391 56.7118 2369.571391 56.7118 " stroke="#2b2a2a" stroke-width="3" stroke-opacity="1" stroke-miterlimit="10"/><g clip-path="url(#e7d9440e7d)"><path stroke-linecap="butt" transform="matrix(0.138659, 0, 0, 0.138527, 126.424905, 0.698595)" fill="none" stroke-linejoin="miter" d="M 2714.8982 1377.89868 C 2799.328323 551.004264 2432.78834 67.511846 2432.78834 67.511846 " stroke="#3f3d3d" stroke-width="3" stroke-opacity="1" stroke-miterlimit="10"/></g><path fill="#3c3c3c" d="M 460.695312 1.253906 C 455.1875 0.0078125 450.277344 0.945312 449.726562 3.359375 C 449.726562 3.359375 448.664062 5.667969 449.867188 7.601562 C 451.066406 9.539062 465.992188 12.238281 467.527344 11.386719 C 469.0625 10.539062 469.667969 7.890625 469.667969 7.890625 C 470.21875 5.476562 466.199219 2.5 460.695312 1.253906 Z M 460.695312 1.253906 " fill-opacity="1" fill-rule="nonzero"/><path fill="#2e2e2e" d="M 457.292969 10.269531 C 457.292969 10.269531 466.390625 12.1875 467.527344 11.386719 C 469.058594 10.539062 469.667969 7.890625 469.667969 7.890625 C 470.246094 4.125 462.492188 1.738281 462.492188 1.738281 C 462.492188 1.738281 458.125 2.378906 456.53125 4.4375 C 454.933594 6.492188 457.292969 10.269531 457.292969 10.269531 Z M 457.292969 10.269531 " fill-opacity="1" fill-rule="nonzero"/><path fill="#282828" d="M 364.085938 46.964844 C 364.085938 47.242188 364.058594 47.515625 364.007812 47.789062 C 363.953125 48.058594 363.871094 48.324219 363.765625 48.578125 C 363.660156 48.835938 363.53125 49.078125 363.375 49.308594 C 363.222656 49.539062 363.046875 49.75 362.851562 49.945312 C 362.65625 50.144531 362.441406 50.316406 362.210938 50.472656 C 361.980469 50.625 361.738281 50.753906 361.480469 50.859375 C 361.226562 50.96875 360.960938 51.046875 360.691406 51.101562 C 360.417969 51.15625 360.144531 51.183594 359.867188 51.183594 C 359.589844 51.183594 359.316406 51.15625 359.042969 51.101562 C 358.773438 51.046875 358.507812 50.96875 358.253906 50.859375 C 357.996094 50.753906 357.753906 50.625 357.523438 50.472656 C 357.292969 50.316406 357.078125 50.144531 356.882812 49.945312 C 356.6875 49.75 356.511719 49.539062 356.359375 49.308594 C 356.207031 49.078125 356.074219 48.835938 355.96875 48.578125 C 355.863281 48.324219 355.785156 48.058594 355.730469 47.789062 C 355.675781 47.515625 355.648438 47.242188 355.648438 46.964844 C 355.648438 46.691406 355.675781 46.414062 355.730469 46.144531 C 355.785156 45.871094 355.863281 45.609375 355.96875 45.351562 C 356.074219 45.097656 356.207031 44.855469 356.359375 44.625 C 356.511719 44.394531 356.6875 44.179688 356.882812 43.984375 C 357.078125 43.789062 357.292969 43.617188 357.523438 43.460938 C 357.753906 43.308594 357.996094 43.179688 358.253906 43.070312 C 358.507812 42.964844 358.773438 42.886719 359.042969 42.832031 C 359.316406 42.777344 359.589844 42.75 359.867188 42.75 C 360.144531 42.75 360.417969 42.777344 360.691406 42.832031 C 360.960938 42.886719 361.226562 42.964844 361.484375 43.070312 C 361.738281 43.175781 361.980469 43.308594 362.210938 43.460938 C 362.441406 43.613281 362.65625 43.789062 362.851562 43.984375 C 363.046875 44.179688 363.222656 44.394531 363.375 44.625 C 363.53125 44.855469 363.660156 45.097656 363.765625 45.351562 C 363.871094 45.609375 363.953125 45.871094 364.007812 46.144531 C 364.058594 46.414062 364.085938 46.691406 364.085938 46.964844 Z M 364.085938 46.964844 " fill-opacity="1" fill-rule="nonzero"/><path fill="#1c1c1c" d="M 362.378906 46.964844 C 362.378906 47.300781 362.316406 47.621094 362.1875 47.925781 C 362.058594 48.234375 361.878906 48.507812 361.644531 48.742188 C 361.40625 48.976562 361.136719 49.15625 360.828125 49.285156 C 360.519531 49.414062 360.199219 49.476562 359.867188 49.476562 C 359.53125 49.476562 359.210938 49.414062 358.90625 49.285156 C 358.597656 49.15625 358.324219 48.976562 358.089844 48.742188 C 357.855469 48.507812 357.671875 48.234375 357.546875 47.925781 C 357.417969 47.621094 357.355469 47.300781 357.355469 46.964844 C 357.355469 46.632812 357.417969 46.3125 357.546875 46.007812 C 357.671875 45.699219 357.855469 45.425781 358.089844 45.191406 C 358.324219 44.957031 358.597656 44.773438 358.90625 44.648438 C 359.210938 44.519531 359.53125 44.457031 359.867188 44.457031 C 360.199219 44.457031 360.519531 44.519531 360.828125 44.648438 C 361.136719 44.773438 361.40625 44.957031 361.644531 45.191406 C 361.878906 45.425781 362.058594 45.699219 362.1875 46.007812 C 362.316406 46.3125 362.378906 46.632812 362.378906 46.964844 Z M 362.378906 46.964844 " fill-opacity="1" fill-rule="nonzero"/><path fill="#282828" d="M 457.734375 55.394531 C 457.734375 55.667969 457.707031 55.945312 457.652344 56.214844 C 457.597656 56.488281 457.519531 56.75 457.414062 57.007812 C 457.304688 57.261719 457.175781 57.503906 457.023438 57.734375 C 456.867188 57.964844 456.695312 58.179688 456.496094 58.375 C 456.300781 58.570312 456.089844 58.746094 455.859375 58.898438 C 455.628906 59.050781 455.382812 59.179688 455.128906 59.289062 C 454.871094 59.394531 454.609375 59.472656 454.335938 59.527344 C 454.066406 59.582031 453.792969 59.609375 453.515625 59.609375 C 453.238281 59.609375 452.960938 59.582031 452.691406 59.527344 C 452.417969 59.472656 452.15625 59.394531 451.898438 59.289062 C 451.644531 59.179688 451.398438 59.050781 451.167969 58.898438 C 450.941406 58.746094 450.726562 58.570312 450.53125 58.375 C 450.335938 58.179688 450.160156 57.964844 450.003906 57.734375 C 449.851562 57.503906 449.722656 57.261719 449.617188 57.007812 C 449.511719 56.75 449.429688 56.488281 449.375 56.214844 C 449.320312 55.945312 449.292969 55.667969 449.292969 55.394531 C 449.292969 55.117188 449.320312 54.84375 449.375 54.570312 C 449.429688 54.300781 449.511719 54.035156 449.617188 53.78125 C 449.722656 53.523438 449.851562 53.28125 450.003906 53.050781 C 450.160156 52.820312 450.335938 52.609375 450.53125 52.414062 C 450.726562 52.214844 450.941406 52.042969 451.171875 51.886719 C 451.398438 51.734375 451.644531 51.605469 451.898438 51.5 C 452.15625 51.394531 452.417969 51.3125 452.691406 51.257812 C 452.960938 51.203125 453.238281 51.175781 453.515625 51.175781 C 453.792969 51.179688 454.066406 51.203125 454.335938 51.257812 C 454.609375 51.3125 454.871094 51.394531 455.128906 51.5 C 455.382812 51.605469 455.628906 51.734375 455.859375 51.886719 C 456.089844 52.042969 456.300781 52.21875 456.496094 52.414062 C 456.691406 52.609375 456.867188 52.820312 457.023438 53.050781 C 457.175781 53.28125 457.304688 53.523438 457.410156 53.78125 C 457.519531 54.035156 457.597656 54.300781 457.652344 54.570312 C 457.707031 54.84375 457.734375 55.117188 457.734375 55.394531 Z M 457.734375 55.394531 " fill-opacity="1" fill-rule="nonzero"/><path fill="#1c1c1c" d="M 456.027344 55.394531 C 456.027344 55.726562 455.964844 56.046875 455.835938 56.355469 C 455.707031 56.660156 455.527344 56.933594 455.289062 57.167969 C 455.054688 57.402344 454.785156 57.585938 454.476562 57.710938 C 454.167969 57.839844 453.847656 57.902344 453.515625 57.902344 C 453.179688 57.902344 452.859375 57.839844 452.550781 57.710938 C 452.246094 57.585938 451.972656 57.402344 451.738281 57.167969 C 451.503906 56.933594 451.320312 56.660156 451.191406 56.355469 C 451.066406 56.046875 451 55.726562 451 55.394531 C 451 55.058594 451.066406 54.738281 451.191406 54.433594 C 451.320312 54.125 451.5 53.851562 451.738281 53.617188 C 451.972656 53.382812 452.246094 53.203125 452.550781 53.074219 C 452.859375 52.945312 453.179688 52.882812 453.515625 52.882812 C 453.847656 52.882812 454.167969 52.945312 454.476562 53.074219 C 454.785156 53.203125 455.054688 53.382812 455.289062 53.617188 C 455.527344 53.851562 455.707031 54.125 455.835938 54.433594 C 455.964844 54.738281 456.027344 55.058594 456.027344 55.394531 Z M 456.027344 55.394531 " fill-opacity="1" fill-rule="nonzero"/><path fill="#282828" d="M 526.179688 51.175781 C 526.179688 51.453125 526.152344 51.730469 526.101562 52 C 526.046875 52.273438 525.964844 52.535156 525.859375 52.792969 C 525.753906 53.046875 525.625 53.289062 525.472656 53.519531 C 525.316406 53.75 525.140625 53.964844 524.945312 54.160156 C 524.75 54.355469 524.539062 54.53125 524.308594 54.683594 C 524.078125 54.839844 523.835938 54.96875 523.578125 55.074219 C 523.324219 55.179688 523.058594 55.261719 522.785156 55.316406 C 522.515625 55.371094 522.242188 55.398438 521.964844 55.398438 C 521.6875 55.398438 521.414062 55.371094 521.140625 55.316406 C 520.867188 55.261719 520.605469 55.183594 520.347656 55.078125 C 520.09375 54.972656 519.847656 54.84375 519.617188 54.6875 C 519.386719 54.535156 519.175781 54.359375 518.980469 54.164062 C 518.78125 53.96875 518.609375 53.757812 518.453125 53.527344 C 518.300781 53.296875 518.167969 53.054688 518.0625 52.796875 C 517.957031 52.542969 517.875 52.277344 517.824219 52.007812 C 517.769531 51.734375 517.742188 51.460938 517.742188 51.183594 C 517.742188 50.90625 517.769531 50.632812 517.820312 50.363281 C 517.875 50.089844 517.957031 49.828125 518.0625 49.570312 C 518.167969 49.316406 518.296875 49.070312 518.453125 48.839844 C 518.605469 48.609375 518.78125 48.398438 518.976562 48.203125 C 519.171875 48.007812 519.382812 47.832031 519.613281 47.679688 C 519.84375 47.523438 520.089844 47.394531 520.34375 47.289062 C 520.601562 47.183594 520.863281 47.101562 521.136719 47.046875 C 521.40625 46.992188 521.683594 46.964844 521.960938 46.964844 C 522.234375 46.964844 522.511719 46.992188 522.78125 47.046875 C 523.054688 47.101562 523.316406 47.179688 523.574219 47.285156 C 523.828125 47.390625 524.074219 47.523438 524.304688 47.675781 C 524.535156 47.828125 524.746094 48.003906 524.941406 48.199219 C 525.136719 48.394531 525.3125 48.605469 525.46875 48.835938 C 525.621094 49.066406 525.75 49.308594 525.859375 49.566406 C 525.964844 49.820312 526.042969 50.085938 526.097656 50.355469 C 526.152344 50.628906 526.179688 50.902344 526.179688 51.175781 Z M 526.179688 51.175781 " fill-opacity="1" fill-rule="nonzero"/><path fill="#1c1c1c" d="M 524.472656 51.175781 C 524.472656 51.511719 524.40625 51.832031 524.28125 52.136719 C 524.152344 52.445312 523.972656 52.71875 523.734375 52.953125 C 523.5 53.1875 523.226562 53.371094 522.921875 53.496094 C 522.613281 53.625 522.292969 53.6875 521.960938 53.6875 C 521.625 53.6875 521.304688 53.625 520.996094 53.496094 C 520.691406 53.371094 520.417969 53.1875 520.183594 52.953125 C 519.945312 52.71875 519.765625 52.445312 519.636719 52.136719 C 519.511719 51.832031 519.445312 51.511719 519.445312 51.175781 C 519.445312 50.84375 519.511719 50.523438 519.636719 50.21875 C 519.765625 49.910156 519.945312 49.636719 520.183594 49.402344 C 520.417969 49.167969 520.691406 48.984375 520.996094 48.859375 C 521.304688 48.730469 521.625 48.667969 521.960938 48.667969 C 522.292969 48.667969 522.613281 48.730469 522.921875 48.859375 C 523.226562 48.984375 523.5 49.167969 523.734375 49.402344 C 523.972656 49.636719 524.152344 49.910156 524.28125 50.21875 C 524.40625 50.523438 524.472656 50.84375 524.472656 51.175781 Z M 524.472656 51.175781 " fill-opacity="1" fill-rule="nonzero"/></svg>