<svg xmlns="http://www.w3.org/2000/svg" xmlns:xlink="http://www.w3.org/1999/xlink" width="1024" zoomAndPan="magnify" viewBox="0 0 768 767.999994" height="1024" preserveAspectRatio="xMidYMid meet" version="1.0"><path fill="#156cdd" d="M 405.035156 667.640625 L 355.035156 473.148438 C 355.097656 472.707031 355.097656 472.269531 355.035156 471.828125 C 354.820312 471.195312 354.554688 470.582031 354.246094 469.988281 C 353.933594 469.394531 353.582031 468.828125 353.183594 468.289062 C 352.785156 467.75 352.347656 467.246094 351.871094 466.777344 C 351.394531 466.308594 350.882812 465.875 350.339844 465.488281 C 349.796875 465.097656 349.226562 464.75 348.632812 464.449219 C 348.035156 464.148438 347.417969 463.894531 346.78125 463.691406 C 346.144531 463.484375 345.5 463.332031 344.839844 463.226562 C 344.179688 463.125 343.515625 463.070312 342.847656 463.070312 C 342.179688 463.070312 341.515625 463.125 340.855469 463.226562 C 340.195312 463.332031 339.546875 463.484375 338.910156 463.691406 C 338.277344 463.894531 337.660156 464.148438 337.0625 464.449219 C 336.464844 464.75 335.894531 465.097656 335.351562 465.488281 C 334.808594 465.875 334.300781 466.308594 333.824219 466.777344 C 333.347656 467.246094 332.910156 467.75 332.511719 468.289062 C 332.113281 468.828125 331.757812 469.394531 331.449219 469.988281 C 331.136719 470.582031 330.875 471.195312 330.660156 471.828125 C 330.632812 472.121094 330.632812 472.414062 330.660156 472.707031 L 280.035156 667.640625 C 279.761719 668.707031 279.625 669.792969 279.628906 670.894531 C 279.632812 671.996094 279.773438 673.078125 280.050781 674.144531 C 280.332031 675.207031 280.738281 676.222656 281.277344 677.179688 C 281.8125 678.140625 282.460938 679.019531 283.222656 679.8125 L 333.222656 731.949219 C 333.820312 732.597656 334.480469 733.175781 335.199219 733.683594 C 335.914062 734.195312 336.679688 734.625 337.484375 734.976562 C 338.292969 735.328125 339.125 735.59375 339.984375 735.773438 C 340.847656 735.953125 341.71875 736.046875 342.597656 736.046875 C 343.476562 736.046875 344.347656 735.953125 345.207031 735.773438 C 346.070312 735.59375 346.902344 735.328125 347.707031 734.976562 C 348.515625 734.625 349.277344 734.195312 349.996094 733.683594 C 350.714844 733.175781 351.371094 732.597656 351.972656 731.949219 L 401.972656 679.8125 C 402.722656 679.011719 403.359375 678.132812 403.882812 677.167969 C 404.410156 676.203125 404.804688 675.191406 405.074219 674.125 C 405.34375 673.0625 405.472656 671.980469 405.464844 670.878906 C 405.460938 669.78125 405.316406 668.703125 405.035156 667.640625 Z M 405.035156 667.640625 " fill-opacity="1" fill-rule="nonzero"/><path fill="#0795ff" d="M 327.222656 725.675781 L 400.535156 649.570312 L 394.410156 625.667969 L 312.660156 710.492188 Z M 327.222656 725.675781 " fill-opacity="1" fill-rule="nonzero"/><path fill="#0795ff" d="M 300.472656 697.945312 L 389.285156 605.78125 L 383.097656 581.875 L 285.910156 682.761719 Z M 300.472656 697.945312 " fill-opacity="1" fill-rule="nonzero"/><path fill="#0795ff" d="M 281.160156 662.433594 L 377.972656 561.988281 L 371.785156 538.082031 L 291.847656 621.023438 Z M 281.160156 662.433594 " fill-opacity="1" fill-rule="nonzero"/><path fill="#0795ff" d="M 300.722656 586.644531 L 366.660156 518.195312 L 360.535156 494.289062 L 311.410156 545.234375 Z M 300.722656 586.644531 " fill-opacity="1" fill-rule="nonzero"/><path fill="#0795ff" d="M 355.410156 474.402344 L 355.035156 472.832031 C 355.070312 472.5 355.070312 472.164062 355.035156 471.828125 C 354.820312 471.195312 354.554688 470.582031 354.246094 469.988281 C 353.933594 469.394531 353.582031 468.828125 353.183594 468.289062 C 352.785156 467.75 352.347656 467.246094 351.871094 466.777344 C 351.394531 466.308594 350.882812 465.875 350.339844 465.488281 C 349.796875 465.097656 349.226562 464.75 348.632812 464.449219 C 348.035156 464.148438 347.417969 463.894531 346.78125 463.691406 C 346.144531 463.484375 345.5 463.332031 344.839844 463.226562 C 344.179688 463.125 343.515625 463.070312 342.847656 463.070312 C 342.179688 463.070312 341.515625 463.125 340.855469 463.226562 C 340.195312 463.332031 339.546875 463.484375 338.910156 463.691406 C 338.277344 463.894531 337.660156 464.148438 337.0625 464.449219 C 336.464844 464.75 335.894531 465.097656 335.351562 465.488281 C 334.808594 465.875 334.300781 466.308594 333.824219 466.777344 C 333.347656 467.246094 332.910156 467.75 332.511719 468.289062 C 332.113281 468.828125 331.757812 469.394531 331.449219 469.988281 C 331.136719 470.582031 330.875 471.195312 330.660156 471.828125 C 330.632812 472.121094 330.632812 472.414062 330.660156 472.707031 L 320.847656 510.726562 Z M 355.410156 474.402344 " fill-opacity="1" fill-rule="nonzero"/><path fill="#156cdd" d="M 312.722656 435 C 312.425781 434.992188 312.128906 435 311.835938 435.023438 C 311.539062 435.050781 311.246094 435.09375 310.957031 435.152344 C 310.664062 435.210938 310.378906 435.285156 310.097656 435.378906 C 309.816406 435.472656 309.542969 435.582031 309.273438 435.703125 C 309.003906 435.828125 308.742188 435.96875 308.488281 436.125 C 308.234375 436.277344 307.992188 436.445312 307.757812 436.628906 C 307.527344 436.8125 307.304688 437.007812 307.09375 437.21875 C 306.882812 437.425781 306.683594 437.648438 306.496094 437.878906 C 306.3125 438.109375 306.140625 438.351562 305.980469 438.605469 C 305.824219 438.855469 305.679688 439.117188 305.554688 439.382812 C 305.425781 439.652344 305.3125 439.925781 305.21875 440.207031 C 305.121094 440.488281 305.042969 440.777344 304.976562 441.066406 C 304.914062 441.355469 304.867188 441.652344 304.839844 441.945312 C 304.808594 442.242188 304.796875 442.539062 304.800781 442.835938 C 304.808594 443.132812 304.828125 443.429688 304.867188 443.726562 C 304.90625 444.019531 304.960938 444.3125 305.035156 444.601562 C 305.273438 445.660156 305.554688 446.707031 305.878906 447.742188 C 306.203125 448.777344 306.570312 449.796875 306.984375 450.800781 C 307.394531 451.804688 307.847656 452.789062 308.339844 453.753906 C 308.835938 454.71875 309.367188 455.664062 309.941406 456.582031 C 310.515625 457.503906 311.125 458.398438 311.773438 459.265625 C 312.421875 460.136719 313.105469 460.976562 313.824219 461.785156 C 314.542969 462.597656 315.292969 463.375 316.078125 464.121094 C 316.863281 464.871094 317.679688 465.582031 318.523438 466.261719 C 319.367188 466.9375 320.238281 467.578125 321.136719 468.183594 C 322.035156 468.789062 322.957031 469.351562 323.902344 469.878906 C 324.847656 470.40625 325.8125 470.890625 326.800781 471.335938 C 327.789062 471.777344 328.789062 472.179688 329.8125 472.539062 C 330.832031 472.898438 331.863281 473.214844 332.910156 473.488281 C 333.957031 473.757812 335.015625 473.984375 336.082031 474.167969 C 337.148438 474.351562 338.21875 474.488281 339.296875 474.578125 C 340.375 474.667969 341.453125 474.714844 342.535156 474.714844 C 343.617188 474.714844 344.695312 474.667969 345.773438 474.578125 C 346.851562 474.488281 347.921875 474.351562 348.988281 474.167969 C 350.054688 473.984375 351.109375 473.757812 352.15625 473.488281 C 353.203125 473.214844 354.238281 472.898438 355.257812 472.539062 C 356.277344 472.179688 357.28125 471.777344 358.269531 471.335938 C 359.253906 470.890625 360.21875 470.40625 361.167969 469.878906 C 362.113281 469.351562 363.035156 468.789062 363.933594 468.183594 C 364.832031 467.578125 365.703125 466.9375 366.546875 466.261719 C 367.390625 465.582031 368.203125 464.871094 368.988281 464.121094 C 369.773438 463.375 370.523438 462.597656 371.246094 461.785156 C 371.964844 460.976562 372.648438 460.136719 373.296875 459.265625 C 373.945312 458.398438 374.554688 457.503906 375.128906 456.582031 C 375.699219 455.664062 376.234375 454.71875 376.726562 453.753906 C 377.222656 452.789062 377.675781 451.804688 378.085938 450.800781 C 378.496094 449.796875 378.863281 448.777344 379.191406 447.742188 C 379.515625 446.707031 379.796875 445.660156 380.035156 444.601562 C 380.175781 444.03125 380.253906 443.453125 380.265625 442.867188 C 380.277344 442.28125 380.222656 441.703125 380.101562 441.128906 C 379.980469 440.554688 379.796875 440.003906 379.554688 439.472656 C 379.308594 438.941406 379.003906 438.441406 378.648438 437.980469 C 378.289062 437.515625 377.882812 437.101562 377.429688 436.730469 C 376.976562 436.359375 376.488281 436.046875 375.964844 435.789062 C 375.441406 435.53125 374.894531 435.335938 374.324219 435.203125 C 373.757812 435.070312 373.179688 435 372.597656 435 Z M 312.722656 435 " fill-opacity="1" fill-rule="nonzero"/></svg>