<svg xmlns="http://www.w3.org/2000/svg" xmlns:xlink="http://www.w3.org/1999/xlink" width="1024" zoomAndPan="magnify" viewBox="0 0 768 767.999994" height="1024" preserveAspectRatio="xMidYMid meet" version="1.0"><path fill="#ffb1f1" d="M 556.804688 157.0625 C 534.917969 154.476562 489.09375 162.164062 470.042969 165.660156 C 471.234375 155.414062 466.242188 146.28125 450.535156 142.417969 C 443.050781 140.574219 437 131.5625 428.882812 135.386719 C 424 118.726562 409.339844 70.957031 396.511719 51.746094 C 380.851562 28.296875 372.726562 17.667969 342.097656 49.402344 C 311.464844 81.136719 290.695312 155.300781 302.949219 164.691406 C 313.386719 172.691406 389.503906 165.933594 411.851562 163.753906 C 410.300781 170.28125 410.34375 176.320312 413.378906 179.75 C 421.457031 188.878906 427.136719 188.230469 433.269531 192.664062 C 436.796875 195.214844 443.152344 196.417969 449.777344 194.015625 C 457.882812 214.714844 486.425781 285.820312 498.324219 291.5 C 512.261719 298.152344 569.085938 246.070312 583.550781 204.433594 C 598.011719 162.796875 584.839844 160.378906 556.804688 157.0625 Z M 556.804688 157.0625 " fill-opacity="1" fill-rule="nonzero"/><path fill="#ea92dd" d="M 538.628906 263.324219 C 531.035156 268.84375 519.492188 273.109375 510.203125 269.902344 C 501.332031 266.84375 496.542969 257.78125 493.007812 249.8125 C 488.246094 239.085938 483.78125 225.753906 478.726562 213.84375 C 476.261719 208.035156 473.957031 202.171875 470.964844 196.617188 C 473.003906 198.234375 475.105469 199.78125 477.226562 201.289062 C 486.363281 207.792969 496.867188 212.523438 502.015625 223.082031 C 502.992188 225.085938 506.269531 223.683594 505.609375 221.570312 C 502.332031 211.085938 494.554688 201.605469 486.425781 194.398438 C 482.964844 191.335938 479.601562 188.183594 476.394531 184.867188 C 482.4375 185.1875 488.460938 185.433594 494.527344 185.558594 C 501.734375 185.710938 508.808594 185.910156 515.957031 186.832031 C 523.332031 187.78125 530.664062 188.664062 538.066406 189.359375 C 539.59375 189.503906 539.820312 187.152344 538.417969 186.75 C 531.222656 184.671875 524.023438 182.910156 516.703125 181.328125 C 509.875 179.855469 503.28125 177.863281 496.578125 175.890625 C 490.890625 174.214844 485.21875 172.738281 479.480469 171.390625 C 480.167969 168.871094 480.734375 166.292969 481.160156 163.703125 C 476.921875 164.421875 473.109375 165.097656 470.042969 165.660156 C 470.886719 158.421875 468.617188 151.746094 461.6875 147.085938 C 461.289062 147.90625 460.839844 148.820312 460.511719 149.96875 C 459.949219 151.964844 459.886719 154.253906 459.707031 156.335938 C 459.632812 157.238281 459.554688 158.136719 459.472656 159.039062 C 459.441406 159.359375 459.425781 159.558594 459.414062 159.71875 C 459.390625 159.859375 459.367188 159.980469 459.328125 160.214844 C 459.039062 161.976562 458.695312 163.722656 458.238281 165.449219 C 458.046875 166.167969 457.839844 166.875 457.613281 167.582031 C 457.515625 167.902344 457.40625 168.21875 457.292969 168.535156 C 457.269531 168.585938 457.253906 168.617188 457.222656 168.6875 C 456.535156 170.105469 455.753906 171.480469 454.878906 172.792969 C 454.78125 172.933594 454.113281 173.824219 453.964844 174.046875 C 453.613281 174.460938 453.265625 174.878906 452.890625 175.273438 C 452.332031 175.855469 451.738281 176.398438 451.132812 176.929688 C 451.0625 176.992188 450.789062 177.226562 450.523438 177.457031 C 450.335938 177.550781 449.175781 178.382812 448.976562 178.496094 C 448.636719 178.695312 448.390625 178.828125 448.238281 178.910156 C 447.699219 179.085938 447.15625 179.25 446.613281 179.421875 C 446.46875 179.464844 446.417969 179.492188 446.324219 179.527344 C 446.25 179.523438 446.222656 179.519531 446.125 179.519531 C 445.34375 179.53125 444.59375 179.523438 443.8125 179.480469 C 443.523438 179.464844 442.753906 179.375 442.4375 179.351562 C 442.222656 179.300781 442.007812 179.257812 441.796875 179.199219 C 442.179688 177.984375 442.382812 176.691406 442.335938 175.308594 C 442.222656 171.785156 440.960938 168.992188 438.769531 166.316406 C 436.65625 163.730469 432.386719 164.132812 430.117188 166.324219 L 430.109375 166.316406 C 430.09375 166.339844 430.070312 166.351562 430.054688 166.375 C 430.019531 166.410156 429.976562 166.4375 429.945312 166.472656 C 429.863281 166.488281 429.816406 166.492188 429.710938 166.519531 C 427.753906 166.964844 426.773438 168.003906 425.453125 168.992188 C 425.378906 168.964844 425.355469 168.949219 425.253906 168.914062 C 424.960938 168.851562 424.671875 168.753906 424.382812 168.667969 C 424.257812 168.597656 424.136719 168.519531 424.015625 168.445312 C 423.972656 168.402344 423.941406 168.367188 423.871094 168.300781 C 423.621094 167.875 421.609375 165.832031 421.480469 165.929688 C 421.464844 165.914062 421.460938 165.90625 421.449219 165.886719 C 420.796875 164.816406 420.144531 163.796875 419.859375 162.773438 C 419.019531 159.757812 418.898438 156.460938 418.460938 153.367188 C 418.394531 152.890625 418.070312 152.546875 417.65625 152.320312 C 421.460938 148.40625 423.203125 142.074219 419.847656 137.261719 C 417.691406 134.164062 415.324219 131.476562 412.59375 128.894531 C 411.871094 128.207031 411.144531 127.585938 410.351562 126.972656 C 409.960938 126.671875 407.328125 125.179688 409.511719 126.339844 C 408.84375 125.824219 408.175781 125.304688 407.503906 124.789062 C 407.441406 124.738281 407.40625 124.714844 407.355469 124.671875 C 407.046875 124.398438 406.480469 123.902344 406.375 123.816406 C 404.601562 122.25 404.070312 121.871094 404.789062 122.675781 C 405.1875 123.113281 405.054688 123.019531 404.398438 122.386719 C 403.875 121.964844 403.382812 121.503906 402.871094 121.066406 C 401.878906 120.21875 399.796875 118.761719 399.285156 118.382812 C 396.894531 116.617188 394.628906 114.808594 392.261719 113 C 390.050781 111.316406 387.890625 109.632812 385.734375 107.890625 C 383.441406 106.035156 381.085938 104.566406 378.625 102.976562 C 373.789062 99.855469 368.839844 96.828125 363.804688 94.03125 C 361.964844 93.011719 360.632812 95.558594 362.203125 96.765625 C 365.488281 99.289062 368.714844 101.910156 371.628906 104.859375 C 374.496094 107.761719 377 110.867188 379.777344 113.839844 C 385.269531 119.714844 388.496094 126.179688 391.832031 132.800781 C 391.929688 133.132812 392.046875 133.476562 392.179688 133.824219 C 388.160156 132.765625 384.101562 131.871094 380.011719 131.109375 C 368.632812 128.988281 356.527344 128.199219 345.78125 123.613281 C 343.773438 122.753906 342.230469 125.261719 344.054688 126.566406 C 353.308594 133.167969 364.113281 136.035156 374.710938 139.699219 C 378.925781 141.160156 383.464844 142.972656 387.097656 145.605469 C 387.921875 146.203125 388.703125 146.914062 389.476562 147.660156 C 374.417969 149.460938 359.367188 151.324219 344.296875 153.007812 C 335.648438 153.976562 326.898438 154.328125 318.6875 151.03125 C 316.757812 150.257812 314.835938 149.464844 312.945312 148.769531 C 311.960938 148.273438 310.941406 147.890625 309.875 147.625 C 311.054688 148.042969 310.875 147.785156 309.339844 146.855469 C 306.210938 143.417969 305 140.503906 305.1875 135.683594 C 305.246094 134.183594 303.207031 133.78125 302.46875 134.949219 C 301.671875 136.214844 301.085938 137.664062 300.601562 139.179688 C 300.015625 142.75 299.636719 146.070312 299.476562 149.078125 C 299.71875 152.867188 300.613281 156.570312 302.164062 159.53125 C 303.65625 162.378906 305.648438 164.714844 307.949219 166.660156 C 328.082031 171.382812 391.738281 165.714844 411.851562 163.753906 C 410.300781 170.28125 410.34375 176.320312 413.378906 179.75 C 418.339844 185.359375 422.398438 187.269531 426.210938 188.945312 C 427.019531 188.941406 427.824219 188.992188 428.632812 188.886719 C 428.980469 189.496094 429.433594 190.054688 429.839844 190.632812 C 430.980469 191.203125 432.117188 191.832031 433.269531 192.664062 C 436.796875 195.214844 443.152344 196.417969 449.777344 194.015625 C 450.511719 195.894531 451.421875 198.195312 452.464844 200.816406 C 453.976562 201.28125 455.609375 201.453125 457.082031 201.347656 C 456.960938 205.421875 457.207031 209.582031 457.679688 213.71875 C 468.65625 240.453125 485.964844 280.042969 495.898438 289.6875 C 498.113281 290.644531 500.441406 291.355469 502.828125 291.929688 C 511.894531 290.648438 527.789062 279.222656 543.355469 263.457031 C 542.023438 262.445312 540.28125 262.125 538.628906 263.324219 Z M 538.628906 263.324219 " fill-opacity="1" fill-rule="nonzero"/><path fill="#201b19" d="M 334.546875 172.554688 C 317.746094 172.554688 304.890625 171.289062 300.480469 167.910156 C 297.535156 165.652344 295.886719 161.648438 295.4375 155.664062 C 293.691406 132.386719 311.6875 75.066406 339.175781 46.589844 C 354.164062 31.0625 364.511719 24.761719 373.753906 25.621094 C 384.59375 26.589844 391.679688 37.203125 399.890625 49.5 C 411.859375 67.417969 424.972656 108.058594 431.722656 130.6875 C 432.191406 132.257812 431.671875 133.953125 430.398438 134.988281 C 429.652344 135.59375 428.929688 136.21875 428.242188 136.886719 C 425.363281 139.671875 423.285156 143.300781 421.078125 147.140625 L 420.867188 147.503906 C 418.878906 150.972656 416.667969 154.996094 415.675781 158.878906 C 415.277344 160.464844 414.988281 162.214844 414.804688 164.230469 C 414.625 166.167969 413.089844 167.707031 411.152344 167.894531 C 385.660156 170.355469 356.683594 172.554688 334.546875 172.554688 Z M 372.175781 33.652344 C 365.878906 33.652344 357.207031 39.585938 345.019531 52.214844 C 319.820312 78.320312 301.886719 133.121094 303.53125 155.058594 C 303.824219 158.953125 304.734375 160.953125 305.417969 161.476562 C 310.234375 165.167969 343.542969 166.140625 407.136719 160.132812 C 407.324219 158.996094 407.546875 157.917969 407.808594 156.882812 C 407.8125 156.882812 407.8125 156.878906 407.8125 156.878906 C 409.054688 152.003906 411.570312 147.402344 413.828125 143.472656 L 414.035156 143.113281 C 416.421875 138.953125 418.890625 134.648438 422.585938 131.074219 C 422.789062 130.878906 422.984375 130.6875 423.191406 130.5 C 417.414062 111.359375 404.417969 70.890625 393.136719 53.996094 C 384.957031 41.75 379.523438 34.273438 373.027344 33.691406 C 372.75 33.667969 372.464844 33.652344 372.175781 33.652344 Z M 410.761719 163.859375 L 410.800781 163.859375 Z M 410.761719 163.859375 " fill-opacity="1" fill-rule="nonzero"/><path fill="#201b19" d="M 501.199219 296.140625 C 499.484375 296.140625 497.945312 295.8125 496.574219 295.15625 C 484.816406 289.542969 462.570312 237.828125 445.972656 195.433594 C 445.578125 194.414062 445.605469 193.277344 446.0625 192.28125 C 446.511719 191.285156 447.355469 190.515625 448.382812 190.144531 C 450.453125 189.402344 452.296875 188.234375 453.871094 186.667969 C 457.429688 183.128906 460.304688 177.898438 462.84375 173.28125 C 464.207031 170.804688 465.246094 168.011719 466.027344 164.734375 C 466.398438 163.171875 467.660156 161.976562 469.242188 161.6875 C 488.21875 158.199219 534.785156 150.378906 557.277344 153.039062 C 571.976562 154.777344 584.671875 156.277344 590.445312 165.484375 C 595.378906 173.34375 594.460938 185.386719 587.382812 205.761719 C 574.402344 243.121094 531.363281 285.105469 509.789062 294.097656 C 506.519531 295.460938 503.671875 296.140625 501.199219 296.140625 Z M 454.921875 196.011719 C 475.414062 247.953125 493.445312 284.679688 500.078125 287.84375 C 500.859375 288.21875 503.054688 288.121094 506.664062 286.617188 C 527 278.140625 567.816406 237.355469 579.714844 203.105469 C 585.734375 185.777344 586.957031 175.191406 583.570312 169.785156 C 580.105469 164.269531 570.964844 162.820312 556.328125 161.089844 C 535.859375 158.667969 493.175781 165.601562 473.238281 169.199219 C 472.375 172.125 471.292969 174.753906 469.960938 177.179688 C 467.160156 182.273438 463.988281 188.046875 459.601562 192.410156 C 458.183594 193.820312 456.617188 195.023438 454.921875 196.011719 Z M 454.921875 196.011719 " fill-opacity="1" fill-rule="nonzero"/><path fill="#201b19" d="M 442.53125 199.382812 C 438.136719 199.382812 433.992188 198.191406 430.886719 195.949219 C 429.039062 194.609375 427.203125 193.808594 425.082031 192.878906 C 420.878906 191.039062 416.109375 188.953125 410.335938 182.433594 C 407.488281 179.21875 406.347656 174.527344 406.929688 168.484375 C 408.195312 155.445312 417.277344 138.765625 423.957031 133.652344 C 432.507812 127.097656 439.699219 131.71875 444.957031 135.09375 C 447.257812 136.574219 449.433594 137.972656 451.507812 138.480469 L 451.507812 138.484375 C 462.4375 141.171875 469.554688 146.414062 472.664062 154.074219 C 476.0625 162.433594 474.152344 173.074219 467.285156 184.039062 C 460.8125 194.378906 452.835938 197.839844 447.28125 198.921875 C 445.6875 199.234375 444.09375 199.382812 442.53125 199.382812 Z M 432.886719 138.457031 C 431.582031 138.457031 430.34375 138.972656 428.902344 140.078125 C 424.183594 143.691406 416.085938 158.203125 415.015625 169.265625 C 414.660156 172.875 415.160156 175.644531 416.421875 177.066406 C 421.003906 182.25 424.566406 183.804688 428.335938 185.457031 C 430.675781 186.480469 433.09375 187.535156 435.652344 189.382812 C 437.425781 190.671875 441.132812 191.851562 445.730469 190.96875 C 449.699219 190.195312 455.472656 187.617188 460.402344 179.742188 C 465.851562 171.042969 467.53125 163.003906 465.140625 157.117188 C 463.0625 152.003906 457.824219 148.382812 449.566406 146.351562 C 446.179688 145.519531 443.328125 143.683594 440.5625 141.910156 C 437.117188 139.699219 434.914062 138.457031 432.886719 138.457031 Z M 432.886719 138.457031 " fill-opacity="1" fill-rule="nonzero"/><path fill="#ffffff" d="M 433.789062 143.691406 C 433.527344 143.761719 433.480469 143.78125 433.648438 143.757812 C 433.960938 143.722656 433.773438 143.746094 433.082031 143.835938 C 432.761719 143.921875 432.453125 144.113281 432.148438 144.25 C 431.972656 144.34375 431.996094 144.324219 432.21875 144.191406 C 431.996094 144.285156 431.773438 144.378906 431.550781 144.472656 C 431.335938 144.582031 431.113281 144.726562 430.914062 144.863281 C 431.546875 144.4375 430.707031 144.871094 430.34375 145.109375 C 430.171875 145.21875 430.015625 145.347656 429.851562 145.46875 C 429.875 145.453125 429.3125 145.835938 428.988281 146.105469 C 429.058594 146.070312 429.050781 146.109375 428.835938 146.253906 C 428.820312 146.269531 428.78125 146.300781 428.773438 146.3125 C 428.78125 146.296875 428.796875 146.289062 428.808594 146.273438 C 426.511719 147.75 425.183594 150.015625 424.246094 152.515625 C 423.519531 154.445312 423.019531 156.664062 423.136719 158.722656 C 423.171875 159.347656 423.253906 159.964844 423.339844 160.582031 C 423.429688 161.265625 423.5625 161.832031 423.890625 162.453125 C 424.03125 162.644531 424.121094 162.769531 424.21875 162.902344 C 424.242188 162.953125 424.25 162.976562 424.277344 163.03125 C 424.808594 164.242188 425.441406 165.210938 426.65625 165.859375 C 428.109375 166.632812 429.867188 166.203125 430.746094 164.789062 C 431.242188 163.988281 431.453125 163.21875 431.554688 162.285156 C 431.554688 162.246094 431.5625 162.203125 431.5625 162.164062 C 431.609375 161.984375 431.632812 161.777344 431.683594 161.617188 C 431.683594 161.621094 431.679688 161.625 431.679688 161.628906 C 431.828125 161.195312 431.964844 160.757812 432.003906 160.257812 C 432.03125 159.875 432.027344 159.492188 432.0625 159.109375 C 432.070312 159.011719 432.074219 158.960938 432.078125 158.914062 C 432.152344 158.386719 432.210938 157.859375 432.265625 157.332031 C 432.285156 157.226562 432.320312 156.972656 432.339844 156.871094 C 432.402344 156.535156 432.476562 156.199219 432.558594 155.867188 C 432.734375 155.164062 432.957031 154.46875 433.222656 153.792969 C 433.46875 153.164062 433.636719 152.515625 433.859375 151.878906 C 433.964844 151.566406 434.113281 151.265625 434.1875 150.945312 C 434.230469 150.765625 434.273438 150.570312 434.304688 150.386719 C 434.285156 150.4375 434.253906 150.488281 434.214844 150.507812 C 434.246094 150.492188 434.28125 150.402344 434.3125 150.351562 C 434.371094 150.019531 434.375 150.175781 434.324219 150.335938 C 434.464844 150.121094 434.613281 149.746094 434.683594 149.613281 C 434.835938 149.324219 434.984375 149.027344 435.09375 148.71875 C 435.101562 148.707031 435.09375 148.71875 435.101562 148.703125 C 435.269531 148.460938 435.402344 148.234375 435.519531 147.960938 C 435.664062 147.585938 435.699219 147.511719 435.625 147.742188 C 435.566406 147.886719 435.578125 147.890625 435.660156 147.757812 C 435.828125 147.640625 435.933594 147.328125 436.003906 147.171875 C 436.066406 147.039062 436.074219 147.019531 436.09375 146.96875 C 436.113281 146.953125 436.128906 146.941406 436.207031 146.835938 C 437.300781 145.316406 435.484375 143.144531 433.789062 143.691406 Z M 433.789062 143.691406 " fill-opacity="1" fill-rule="nonzero"/><path fill="#ffffff" d="M 428.835938 146.253906 C 428.875 146.207031 428.914062 146.164062 428.988281 146.105469 C 428.941406 146.128906 428.875 146.1875 428.808594 146.273438 C 428.808594 146.273438 428.808594 146.273438 428.808594 146.269531 C 428.824219 146.261719 428.824219 146.261719 428.835938 146.253906 Z M 428.835938 146.253906 " fill-opacity="1" fill-rule="nonzero"/><path fill="#ffffff" d="M 434.3125 150.351562 C 434.3125 150.363281 434.308594 150.375 434.304688 150.386719 C 434.3125 150.367188 434.320312 150.355469 434.324219 150.335938 C 434.320312 150.339844 434.316406 150.347656 434.3125 150.351562 Z M 434.3125 150.351562 " fill-opacity="1" fill-rule="nonzero"/><path fill="#ffffff" d="M 566.164062 177.324219 C 562.617188 173.027344 555.996094 171.488281 550.808594 170.195312 C 544.832031 168.699219 538.761719 167.820312 532.613281 167.449219 C 520.488281 166.71875 508.644531 168.730469 497.195312 172.566406 C 496.335938 172.851562 496.410156 174.371094 497.421875 174.246094 C 508.675781 172.851562 520.175781 173.199219 531.417969 174.511719 C 537.023438 175.167969 542.644531 176.296875 548.117188 177.6875 C 553.296875 179.007812 559.136719 181.785156 564.546875 181.214844 C 566.585938 181 567.472656 178.910156 566.164062 177.324219 Z M 566.164062 177.324219 " fill-opacity="1" fill-rule="nonzero"/><path fill="#ffffff" d="M 403.355469 89.835938 C 401.199219 79.132812 394.269531 69.035156 387.578125 60.65625 C 384.183594 56.398438 380.4375 51.707031 376.03125 48.449219 C 371.210938 44.886719 366.964844 46.851562 362.589844 50.011719 C 345.703125 62.21875 330.128906 79.554688 323.84375 99.785156 C 323.699219 100.25 324.363281 100.671875 324.695312 100.277344 C 330.582031 93.257812 335.914062 85.914062 342.339844 79.351562 C 348.84375 72.707031 355.226562 66.050781 362.4375 60.148438 C 364.132812 58.761719 365.832031 57.371094 367.585938 56.058594 C 368.570312 55.320312 369.9375 54.007812 371.347656 54.511719 C 372.105469 54.78125 373.570312 56.707031 374.117188 57.277344 C 377.472656 60.773438 380.699219 64.441406 383.695312 68.253906 C 389.601562 75.765625 394.34375 84.191406 400.335938 91.59375 C 401.566406 93.117188 403.675781 91.421875 403.355469 89.835938 Z M 403.355469 89.835938 " fill-opacity="1" fill-rule="nonzero"/></svg>