<svg xmlns="http://www.w3.org/2000/svg" xmlns:xlink="http://www.w3.org/1999/xlink" width="1024" zoomAndPan="magnify" viewBox="0 0 768 767.999994" height="1024" preserveAspectRatio="xMidYMid meet" version="1.0"><defs><clipPath id="8d146bcf3f"><path d="M 293.414062 348 L 372.144531 348 L 372.144531 382 L 293.414062 382 Z M 293.414062 348 " clip-rule="nonzero"/></clipPath><clipPath id="471e2995ca"><path d="M 307.351562 351.148438 C 316.351562 360.300781 318.824219 362.773438 321.449219 363.898438 C 323.773438 364.949219 325.949219 365.023438 328.875 365.023438 C 333.148438 365.175781 340.5 364.800781 344.550781 363.300781 C 347.550781 362.25 349.5 360.300781 351.601562 358.574219 C 353.625 356.851562 356.851562 352.726562 357 352.875 C 357.148438 352.949219 354.523438 357.074219 354.375 357 C 354.300781 356.925781 354.75 355.199219 355.273438 354.300781 C 356.101562 352.949219 357.75 351.148438 359.398438 350.398438 C 360.976562 349.648438 363.226562 349.351562 365.023438 349.726562 C 366.75 350.101562 368.773438 351.601562 369.824219 352.648438 C 370.648438 353.398438 371.023438 354.074219 371.324219 355.125 C 371.773438 356.550781 372.148438 359.023438 371.625 360.75 C 371.175781 362.476562 369.898438 364.351562 368.476562 365.398438 C 367.050781 366.523438 364.949219 367.199219 363.148438 367.199219 C 361.351562 367.273438 359.101562 366.226562 357.824219 365.476562 C 356.851562 364.875 356.324219 364.273438 355.800781 363.375 C 355.050781 362.023438 354.226562 359.699219 354.300781 357.898438 C 354.375 356.175781 355.199219 354.074219 356.398438 352.648438 C 357.523438 351.300781 359.476562 350.175781 361.199219 349.726562 C 362.925781 349.351562 365.175781 349.574219 366.824219 350.324219 C 368.476562 351.074219 370.125 352.648438 370.949219 354.226562 C 371.773438 355.800781 372.300781 357.898438 371.851562 359.773438 C 371.324219 362.25 369.074219 365.023438 366.675781 367.574219 C 363.601562 370.949219 358.800781 375.226562 354.074219 377.550781 C 349.425781 379.949219 343.800781 381.375 338.699219 381.824219 C 333.601562 382.273438 327.601562 381.226562 323.476562 380.476562 C 320.476562 379.875 318.675781 379.574219 315.976562 378.226562 C 312.074219 376.273438 306.75 371.925781 303.074219 368.625 C 299.925781 365.773438 296.398438 362.175781 294.898438 359.851562 C 294.148438 358.5 293.773438 357.601562 293.625 356.476562 C 293.476562 355.273438 293.625 353.925781 294.074219 352.875 C 294.449219 351.75 295.199219 350.625 296.101562 349.875 C 297 349.050781 298.050781 348.375 299.324219 348.148438 C 300.824219 347.851562 303.226562 348.148438 304.648438 348.824219 C 305.773438 349.273438 307.351562 351.226562 307.351562 351.226562 " clip-rule="nonzero"/></clipPath><clipPath id="5fbabe6d7a"><path d="M 0.414062 0 L 79.144531 0 L 79.144531 34 L 0.414062 34 Z M 0.414062 0 " clip-rule="nonzero"/></clipPath><clipPath id="f991992d30"><path d="M 14.351562 3.148438 C 23.351562 12.300781 25.824219 14.773438 28.449219 15.898438 C 30.773438 16.949219 32.949219 17.023438 35.875 17.023438 C 40.148438 17.175781 47.5 16.800781 51.550781 15.300781 C 54.550781 14.25 56.5 12.300781 58.601562 10.574219 C 60.625 8.851562 63.851562 4.726562 64 4.875 C 64.148438 4.949219 61.523438 9.074219 61.375 9 C 61.300781 8.925781 61.75 7.199219 62.273438 6.300781 C 63.101562 4.949219 64.75 3.148438 66.398438 2.398438 C 67.976562 1.648438 70.226562 1.351562 72.023438 1.726562 C 73.75 2.101562 75.773438 3.601562 76.824219 4.648438 C 77.648438 5.398438 78.023438 6.074219 78.324219 7.125 C 78.773438 8.550781 79.148438 11.023438 78.625 12.75 C 78.175781 14.476562 76.898438 16.351562 75.476562 17.398438 C 74.050781 18.523438 71.949219 19.199219 70.148438 19.199219 C 68.351562 19.273438 66.101562 18.226562 64.824219 17.476562 C 63.851562 16.875 63.324219 16.273438 62.800781 15.375 C 62.050781 14.023438 61.226562 11.699219 61.300781 9.898438 C 61.375 8.175781 62.199219 6.074219 63.398438 4.648438 C 64.523438 3.300781 66.476562 2.175781 68.199219 1.726562 C 69.925781 1.351562 72.175781 1.574219 73.824219 2.324219 C 75.476562 3.074219 77.125 4.648438 77.949219 6.226562 C 78.773438 7.800781 79.300781 9.898438 78.851562 11.773438 C 78.324219 14.25 76.074219 17.023438 73.675781 19.574219 C 70.601562 22.949219 65.800781 27.226562 61.074219 29.550781 C 56.425781 31.949219 50.800781 33.375 45.699219 33.824219 C 40.601562 34.273438 34.601562 33.226562 30.476562 32.476562 C 27.476562 31.875 25.675781 31.574219 22.976562 30.226562 C 19.074219 28.273438 13.75 23.925781 10.074219 20.625 C 6.925781 17.773438 3.398438 14.175781 1.898438 11.851562 C 1.148438 10.5 0.773438 9.601562 0.625 8.476562 C 0.476562 7.273438 0.625 5.925781 1.074219 4.875 C 1.449219 3.75 2.199219 2.625 3.101562 1.875 C 4 1.050781 5.050781 0.375 6.324219 0.148438 C 7.824219 -0.148438 10.226562 0.148438 11.648438 0.824219 C 12.773438 1.273438 14.351562 3.226562 14.351562 3.226562 " clip-rule="nonzero"/></clipPath><clipPath id="381b2dc03e"><rect x="0" width="80" y="0" height="34"/></clipPath></defs><g clip-path="url(#8d146bcf3f)"><g clip-path="url(#471e2995ca)"><g transform="matrix(1, 0, 0, 1, 293, 348)"><g clip-path="url(#381b2dc03e)"><g clip-path="url(#5fbabe6d7a)"><g clip-path="url(#f991992d30)"><rect x="-461.96" width="1105.92" fill="#552012" height="1105.919991" y="-516.959999" fill-opacity="1"/></g></g></g></g></g></g></svg>