<svg xmlns="http://www.w3.org/2000/svg" xmlns:xlink="http://www.w3.org/1999/xlink" width="1024" zoomAndPan="magnify" viewBox="0 0 768 767.999994" height="1024" preserveAspectRatio="xMidYMid meet" version="1.0"><defs><filter x="0%" y="0%" width="100%" height="100%" id="69aaa9f020"><feColorMatrix values="0 0 0 0 1 0 0 0 0 1 0 0 0 0 1 0 0 0 1 0" color-interpolation-filters="sRGB"/></filter><clipPath id="7e3c887985"><path d="M 197 6 L 595 6 L 595 214 L 197 214 Z M 197 6 " clip-rule="nonzero"/></clipPath><clipPath id="e37b48c19d"><path d="M 211.359375 -26.023438 L 616.734375 37.042969 L 586.757812 229.726562 L 181.382812 166.660156 Z M 211.359375 -26.023438 " clip-rule="nonzero"/></clipPath><clipPath id="fea0587366"><path d="M 211.359375 -26.023438 L 616.734375 37.042969 L 586.757812 229.726562 L 181.382812 166.660156 Z M 211.359375 -26.023438 " clip-rule="nonzero"/></clipPath><clipPath id="e1ba293998"><path d="M 211.359375 -26.023438 L 616.734375 37.042969 L 586.757812 229.726562 L 181.382812 166.660156 Z M 211.359375 -26.023438 " clip-rule="nonzero"/></clipPath><clipPath id="5ab674b64e"><path d="M 197 11 L 386 11 L 386 176 L 197 176 Z M 197 11 " clip-rule="nonzero"/></clipPath><clipPath id="f5a88819e2"><path d="M 211.359375 -26.023438 L 616.734375 37.042969 L 586.757812 229.726562 L 181.382812 166.660156 Z M 211.359375 -26.023438 " clip-rule="nonzero"/></clipPath><clipPath id="0156a23cbf"><path d="M 211.359375 -26.023438 L 616.734375 37.042969 L 586.757812 229.726562 L 181.382812 166.660156 Z M 211.359375 -26.023438 " clip-rule="nonzero"/></clipPath><clipPath id="17e8c41d24"><path d="M 211.359375 -26.023438 L 616.734375 37.042969 L 586.757812 229.726562 L 181.382812 166.660156 Z M 211.359375 -26.023438 " clip-rule="nonzero"/></clipPath><clipPath id="b9fbaf9780"><path d="M 471 52 L 542 52 L 542 112 L 471 112 Z M 471 52 " clip-rule="nonzero"/></clipPath><clipPath id="ce09be074a"><path d="M 211.359375 -26.023438 L 616.734375 37.042969 L 586.757812 229.726562 L 181.382812 166.660156 Z M 211.359375 -26.023438 " clip-rule="nonzero"/></clipPath><clipPath id="0e3ef646d0"><path d="M 211.359375 -26.023438 L 616.734375 37.042969 L 586.757812 229.726562 L 181.382812 166.660156 Z M 211.359375 -26.023438 " clip-rule="nonzero"/></clipPath><clipPath id="4e7e5e2bd4"><path d="M 211.359375 -26.023438 L 616.734375 37.042969 L 586.757812 229.726562 L 181.382812 166.660156 Z M 211.359375 -26.023438 " clip-rule="nonzero"/></clipPath><mask id="a0cae90697"><g filter="url(#69aaa9f020)"><rect x="-76.8" width="921.6" fill="#000000" y="-76.799999" height="921.599993" fill-opacity="0.4"/></g></mask><clipPath id="4cda53261a"><path d="M 10 10 L 61 10 L 61 50 L 10 50 Z M 10 10 " clip-rule="nonzero"/></clipPath><clipPath id="1dcc4348f3"><path d="M -259.640625 -78.023438 L 145.734375 -14.957031 L 115.757812 177.726562 L -289.617188 114.660156 Z M -259.640625 -78.023438 " clip-rule="nonzero"/></clipPath><clipPath id="ac303af12e"><path d="M -259.640625 -78.023438 L 145.734375 -14.957031 L 115.757812 177.726562 L -289.617188 114.660156 Z M -259.640625 -78.023438 " clip-rule="nonzero"/></clipPath><clipPath id="ac93d50296"><path d="M -259.640625 -78.023438 L 145.734375 -14.957031 L 115.757812 177.726562 L -289.617188 114.660156 Z M -259.640625 -78.023438 " clip-rule="nonzero"/></clipPath><clipPath id="7953b73e3c"><rect x="0" width="71" y="0" height="60"/></clipPath><clipPath id="4bb76fbb1d"><path d="M 194 1 L 600 1 L 600 193 L 194 193 Z M 194 1 " clip-rule="nonzero"/></clipPath><clipPath id="268d1b74f7"><path d="M 211.359375 -26.023438 L 616.734375 37.042969 L 586.757812 229.726562 L 181.382812 166.660156 Z M 211.359375 -26.023438 " clip-rule="nonzero"/></clipPath><clipPath id="5a7565a9f1"><path d="M 211.359375 -26.023438 L 616.734375 37.042969 L 586.757812 229.726562 L 181.382812 166.660156 Z M 211.359375 -26.023438 " clip-rule="nonzero"/></clipPath><clipPath id="c1052085f7"><path d="M 211.359375 -26.023438 L 616.734375 37.042969 L 586.757812 229.726562 L 181.382812 166.660156 Z M 211.359375 -26.023438 " clip-rule="nonzero"/></clipPath><clipPath id="25052787e5"><path d="M 221 116 L 559 116 L 559 220 L 221 220 Z M 221 116 " clip-rule="nonzero"/></clipPath><clipPath id="9652475d7a"><path d="M 211.359375 -26.023438 L 616.734375 37.042969 L 586.757812 229.726562 L 181.382812 166.660156 Z M 211.359375 -26.023438 " clip-rule="nonzero"/></clipPath><clipPath id="c7db780572"><path d="M 211.359375 -26.023438 L 616.734375 37.042969 L 586.757812 229.726562 L 181.382812 166.660156 Z M 211.359375 -26.023438 " clip-rule="nonzero"/></clipPath><clipPath id="39dc3207b6"><path d="M 211.359375 -26.023438 L 616.734375 37.042969 L 586.757812 229.726562 L 181.382812 166.660156 Z M 211.359375 -26.023438 " clip-rule="nonzero"/></clipPath><clipPath id="b007769810"><path d="M 249 19 L 283 19 L 283 130 L 249 130 Z M 249 19 " clip-rule="nonzero"/></clipPath><clipPath id="8d1f642ea1"><path d="M 211.359375 -26.023438 L 616.734375 37.042969 L 586.757812 229.726562 L 181.382812 166.660156 Z M 211.359375 -26.023438 " clip-rule="nonzero"/></clipPath><clipPath id="de89e49c42"><path d="M 211.359375 -26.023438 L 616.734375 37.042969 L 586.757812 229.726562 L 181.382812 166.660156 Z M 211.359375 -26.023438 " clip-rule="nonzero"/></clipPath><clipPath id="dbbf92d9a6"><path d="M 211.359375 -26.023438 L 616.734375 37.042969 L 586.757812 229.726562 L 181.382812 166.660156 Z M 211.359375 -26.023438 " clip-rule="nonzero"/></clipPath><clipPath id="4e166dc026"><path d="M 515 58 L 548 58 L 548 168 L 515 168 Z M 515 58 " clip-rule="nonzero"/></clipPath><clipPath id="f1ca6b048a"><path d="M 211.359375 -26.023438 L 616.734375 37.042969 L 586.757812 229.726562 L 181.382812 166.660156 Z M 211.359375 -26.023438 " clip-rule="nonzero"/></clipPath><clipPath id="946cee91cb"><path d="M 211.359375 -26.023438 L 616.734375 37.042969 L 586.757812 229.726562 L 181.382812 166.660156 Z M 211.359375 -26.023438 " clip-rule="nonzero"/></clipPath><clipPath id="e43ee85a69"><path d="M 211.359375 -26.023438 L 616.734375 37.042969 L 586.757812 229.726562 L 181.382812 166.660156 Z M 211.359375 -26.023438 " clip-rule="nonzero"/></clipPath></defs><g clip-path="url(#7e3c887985)"><g clip-path="url(#e37b48c19d)"><g clip-path="url(#fea0587366)"><g clip-path="url(#e1ba293998)"><path fill="#a1663c" d="M 228.679688 139.734375 C 228.679688 139.734375 175.535156 98.179688 207.300781 62.964844 C 239.0625 27.75 302.625 3.558594 360.019531 6.929688 C 417.414062 10.300781 472.675781 22.328125 517.128906 47.648438 C 561.578125 72.964844 597.96875 122.152344 594.050781 147.347656 C 590.128906 172.542969 572.226562 181.667969 552.460938 187.722656 C 552.460938 187.722656 543.878906 217.355469 520.257812 213.679688 C 496.636719 210.003906 448.75 188.011719 420.027344 182.207031 C 391.304688 176.402344 344.511719 172.445312 311.796875 174.101562 C 279.082031 175.761719 268.703125 182.402344 253.242188 170.550781 C 237.78125 158.695312 227.941406 152.117188 228.679688 139.734375 Z M 228.679688 139.734375 " fill-opacity="1" fill-rule="nonzero"/></g></g></g></g><g clip-path="url(#5ab674b64e)"><g clip-path="url(#f5a88819e2)"><g clip-path="url(#0156a23cbf)"><g clip-path="url(#17e8c41d24)"><path fill="#7a4a27" d="M 303.90625 11.375 C 303.90625 11.375 231.445312 43.585938 239.617188 75.46875 C 247.789062 107.351562 263.097656 117.09375 301.867188 120.097656 C 301.867188 120.097656 261.902344 142.351562 283.160156 148.894531 C 304.421875 155.4375 357.9375 158.089844 385.351562 175.792969 C 385.351562 175.792969 333.859375 174.253906 301.53125 172.136719 C 269.207031 170.019531 234.386719 183.925781 226.265625 138.425781 C 226.265625 138.425781 180.949219 102.972656 203.777344 68.921875 C 226.601562 34.871094 277.292969 15.636719 303.90625 11.375 Z M 303.90625 11.375 " fill-opacity="1" fill-rule="nonzero"/></g></g></g></g><g clip-path="url(#b9fbaf9780)"><g clip-path="url(#ce09be074a)"><g clip-path="url(#0e3ef646d0)"><g clip-path="url(#4e7e5e2bd4)"><g mask="url(#a0cae90697)"><g transform="matrix(1, 0, 0, 1, 471, 52)"><g clip-path="url(#7953b73e3c)"><g clip-path="url(#4cda53261a)"><g clip-path="url(#1dcc4348f3)"><g clip-path="url(#ac303af12e)"><g clip-path="url(#ac93d50296)"><path fill="#ffffff" d="M 43.242188 16.171875 C 44.03125 16.621094 44.808594 17.089844 45.570312 17.578125 C 46.332031 18.070312 47.074219 18.578125 47.800781 19.105469 C 48.527344 19.632812 49.230469 20.179688 49.910156 20.738281 C 50.59375 21.296875 51.25 21.871094 51.882812 22.460938 C 52.515625 23.046875 53.121094 23.644531 53.695312 24.253906 C 54.273438 24.863281 54.820312 25.480469 55.335938 26.101562 C 55.847656 26.726562 56.332031 27.355469 56.777344 27.992188 C 57.226562 28.625 57.640625 29.257812 58.019531 29.898438 C 58.394531 30.535156 58.738281 31.167969 59.039062 31.804688 C 59.34375 32.4375 59.609375 33.070312 59.835938 33.695312 C 60.058594 34.320312 60.246094 34.9375 60.394531 35.550781 C 60.539062 36.160156 60.644531 36.761719 60.710938 37.351562 C 60.777344 37.941406 60.800781 38.519531 60.785156 39.082031 C 60.769531 39.644531 60.714844 40.191406 60.617188 40.722656 C 60.519531 41.257812 60.382812 41.769531 60.203125 42.265625 C 60.027344 42.757812 59.808594 43.234375 59.550781 43.6875 C 59.296875 44.140625 59 44.570312 58.667969 44.976562 C 58.335938 45.382812 57.964844 45.765625 57.5625 46.121094 C 57.15625 46.480469 56.714844 46.808594 56.238281 47.113281 C 55.765625 47.417969 55.257812 47.691406 54.71875 47.941406 C 54.179688 48.1875 53.609375 48.40625 53.011719 48.59375 C 52.410156 48.78125 51.785156 48.941406 51.132812 49.066406 C 50.480469 49.195312 49.804688 49.292969 49.105469 49.359375 C 48.40625 49.425781 47.683594 49.460938 46.945312 49.464844 C 46.203125 49.46875 45.445312 49.4375 44.671875 49.378906 C 43.898438 49.320312 43.113281 49.230469 42.3125 49.109375 C 41.511719 48.992188 40.703125 48.839844 39.886719 48.65625 C 39.066406 48.476562 38.242188 48.265625 37.414062 48.023438 C 36.585938 47.785156 35.757812 47.515625 34.925781 47.21875 C 34.09375 46.921875 33.265625 46.597656 32.441406 46.246094 C 31.613281 45.894531 30.796875 45.519531 29.984375 45.117188 C 29.171875 44.714844 28.371094 44.292969 27.578125 43.84375 C 26.789062 43.394531 26.011719 42.925781 25.25 42.4375 C 24.488281 41.945312 23.746094 41.4375 23.019531 40.910156 C 22.296875 40.378906 21.589844 39.835938 20.910156 39.277344 C 20.226562 38.714844 19.570312 38.140625 18.9375 37.554688 C 18.304688 36.96875 17.699219 36.371094 17.125 35.761719 C 16.546875 35.152344 16 34.535156 15.488281 33.910156 C 14.972656 33.289062 14.492188 32.660156 14.042969 32.023438 C 13.59375 31.390625 13.179688 30.753906 12.800781 30.117188 C 12.425781 29.480469 12.085938 28.84375 11.78125 28.210938 C 11.476562 27.578125 11.210938 26.945312 10.988281 26.320312 C 10.761719 25.695312 10.574219 25.078125 10.429688 24.464844 C 10.28125 23.855469 10.175781 23.253906 10.109375 22.664062 C 10.042969 22.074219 10.019531 21.496094 10.035156 20.933594 C 10.050781 20.371094 10.109375 19.824219 10.203125 19.289062 C 10.300781 18.757812 10.441406 18.246094 10.617188 17.75 C 10.796875 17.253906 11.011719 16.78125 11.269531 16.328125 C 11.523438 15.875 11.820312 15.445312 12.152344 15.039062 C 12.484375 14.632812 12.855469 14.25 13.261719 13.890625 C 13.664062 13.535156 14.105469 13.203125 14.582031 12.902344 C 15.054688 12.597656 15.5625 12.324219 16.101562 12.074219 C 16.640625 11.828125 17.210938 11.609375 17.8125 11.421875 C 18.410156 11.234375 19.035156 11.074219 19.6875 10.949219 C 20.339844 10.820312 21.015625 10.722656 21.714844 10.65625 C 22.417969 10.589844 23.136719 10.554688 23.875 10.550781 C 24.617188 10.546875 25.375 10.574219 26.148438 10.632812 C 26.921875 10.695312 27.710938 10.785156 28.507812 10.902344 C 29.308594 11.023438 30.117188 11.175781 30.9375 11.359375 C 31.753906 11.539062 32.578125 11.75 33.40625 11.992188 C 34.234375 12.230469 35.066406 12.5 35.894531 12.796875 C 36.726562 13.09375 37.554688 13.417969 38.382812 13.769531 C 39.207031 14.121094 40.023438 14.496094 40.835938 14.898438 C 41.648438 15.300781 42.449219 15.722656 43.242188 16.171875 Z M 43.242188 16.171875 " fill-opacity="1" fill-rule="nonzero"/></g></g></g></g></g></g></g></g></g></g></g><g clip-path="url(#4bb76fbb1d)"><g clip-path="url(#268d1b74f7)"><g clip-path="url(#5a7565a9f1)"><g clip-path="url(#c1052085f7)"><path fill="#3e1d0e" d="M 227.625 142.746094 C 226.710938 142.605469 225.847656 142.230469 225.117188 141.644531 C 213.988281 132.757812 195.175781 114.289062 194.226562 90.433594 C 193.609375 74.996094 200.667969 60.253906 215.203125 46.609375 C 246.671875 17.085938 307.40625 -0.0117188 373.707031 1.992188 C 445.015625 4.136719 510.132812 27.328125 552.375 65.601562 C 588.949219 98.746094 604.496094 127.824219 598.578125 152.03125 C 591.253906 181.996094 554.175781 192.046875 552.605469 192.460938 C 551.65625 192.710938 550.65625 192.691406 549.714844 192.410156 C 549.269531 192.277344 548.832031 192.128906 548.402344 191.933594 C 548.132812 191.8125 547.875 191.667969 547.628906 191.503906 C 410.425781 99.363281 283.984375 130.105469 242.433594 140.203125 C 235.621094 141.859375 232.199219 142.671875 229.898438 142.792969 C 229.621094 142.832031 229.339844 142.84375 229.058594 142.832031 L 228.308594 142.808594 C 228.078125 142.800781 227.851562 142.78125 227.628906 142.746094 Z M 414.734375 16.558594 C 339.101562 4.792969 260.125 19.097656 222.503906 54.398438 C 210.328125 65.824219 204.402344 77.804688 204.886719 90.007812 C 205.648438 109.101562 221.78125 124.992188 230.222656 132.03125 C 232.136719 131.71875 236.082031 130.761719 239.914062 129.828125 C 282.425781 119.492188 411.445312 88.132812 551.902344 181.515625 C 559.085938 179.148438 583.289062 169.753906 588.21875 149.457031 C 593.035156 129.636719 578.160156 103.378906 545.210938 73.515625 C 511.199219 42.699219 463.664062 24.171875 414.734375 16.558594 Z M 414.734375 16.558594 " fill-opacity="1" fill-rule="nonzero"/></g></g></g></g><g clip-path="url(#25052787e5)"><g clip-path="url(#9652475d7a)"><g clip-path="url(#c7db780572)"><g clip-path="url(#39dc3207b6)"><path fill="#3e1d0e" d="M 519.976562 219.332031 C 518.457031 219.09375 516.957031 218.710938 515.496094 218.164062 C 467.445312 200.257812 430.6875 188.5 385 181.394531 C 354.78125 176.691406 326.925781 177.777344 304.542969 178.648438 C 275.851562 179.769531 253.191406 180.652344 240.003906 168.984375 C 226.773438 157.285156 220.8125 147.957031 221.78125 140.460938 C 222.292969 136.484375 224.71875 133.878906 226.703125 132.808594 C 227.503906 132.371094 228.414062 132.128906 229.320312 132.132812 C 230.519531 132.113281 235.296875 130.953125 239.917969 129.828125 C 282.542969 119.460938 412.152344 87.949219 553.0625 182.285156 C 553.859375 182.570312 554.570312 183.027344 555.152344 183.652344 C 559.363281 188.164062 559.078125 195.054688 554.390625 202.089844 C 547.363281 212.632812 532.925781 221.34375 519.976562 219.328125 Z M 386.640625 170.839844 C 433.222656 178.089844 470.527344 190.011719 519.21875 208.15625 L 519.222656 208.15625 C 528.304688 211.542969 540.652344 203.457031 545.515625 196.167969 C 547.054688 193.851562 547.480469 192.171875 547.464844 191.390625 C 410.324219 99.398438 283.96875 130.105469 242.4375 140.203125 C 237.71875 141.351562 234.625 142.09375 232.40625 142.484375 C 232.679688 144.398438 234.660156 150.003906 247.074219 160.980469 C 257.054688 169.804688 277.832031 169 304.132812 167.976562 C 326.976562 167.085938 355.402344 165.980469 386.644531 170.839844 Z M 386.640625 170.839844 " fill-opacity="1" fill-rule="nonzero"/></g></g></g></g><g clip-path="url(#b007769810)"><g clip-path="url(#8d1f642ea1)"><g clip-path="url(#de89e49c42)"><g clip-path="url(#dbbf92d9a6)"><path fill="#3e1d0e" d="M 272.5 129.773438 C 272.070312 129.707031 271.660156 129.511719 271.328125 129.1875 C 256.933594 114.960938 249.710938 98.917969 249.859375 81.507812 C 250.148438 47.761719 277.71875 21.03125 278.894531 19.910156 C 279.746094 19.09375 281.097656 19.128906 281.910156 19.976562 C 282.722656 20.832031 282.691406 22.183594 281.839844 23 C 281.566406 23.261719 254.386719 49.640625 254.128906 81.570312 C 253.996094 97.773438 260.792969 112.769531 274.332031 126.144531 C 275.167969 126.976562 275.175781 128.328125 274.347656 129.167969 C 273.847656 129.675781 273.15625 129.878906 272.5 129.777344 Z M 272.5 129.773438 " fill-opacity="1" fill-rule="nonzero"/></g></g></g></g><g clip-path="url(#4e166dc026)"><g clip-path="url(#f1ca6b048a)"><g clip-path="url(#946cee91cb)"><g clip-path="url(#e43ee85a69)"><path fill="#3e1d0e" d="M 517.738281 167.402344 C 517.105469 167.300781 516.519531 166.917969 516.1875 166.308594 C 515.628906 165.269531 516.015625 163.972656 517.050781 163.414062 C 561.679688 139.25 534.207031 62.191406 533.921875 61.417969 C 533.515625 60.308594 534.085938 59.082031 535.195312 58.675781 C 536.300781 58.277344 537.527344 58.847656 537.929688 59.953125 C 539.136719 63.261719 566.917969 141.269531 519.082031 167.167969 C 518.652344 167.398438 518.183594 167.46875 517.738281 167.402344 Z M 517.738281 167.402344 " fill-opacity="1" fill-rule="nonzero"/></g></g></g></g></svg>