<svg xmlns="http://www.w3.org/2000/svg" xmlns:xlink="http://www.w3.org/1999/xlink" width="1024" zoomAndPan="magnify" viewBox="0 0 768 767.999994" height="1024" preserveAspectRatio="xMidYMid meet" version="1.0"><defs><clipPath id="82a403ed32"><path d="M 13 303 L 333 303 L 333 466 L 13 466 Z M 13 303 " clip-rule="nonzero"/></clipPath><clipPath id="dd93bc99c6"><path d="M 13.980469 382.570312 L 311.007812 303.003906 L 333.128906 385.59375 L 36.101562 465.160156 Z M 13.980469 382.570312 " clip-rule="nonzero"/></clipPath><clipPath id="67520bbafa"><path d="M 11 66 L 186 66 L 186 150 L 11 150 Z M 11 66 " clip-rule="nonzero"/></clipPath><clipPath id="c88c172414"><path d="M 0.980469 79.570312 L 298.007812 0.00390625 L 320.128906 82.59375 L 23.101562 162.160156 Z M 0.980469 79.570312 " clip-rule="nonzero"/></clipPath><clipPath id="fd0792f908"><path d="M 297.710938 0.0820312 L 0.683594 79.648438 L 22.808594 162.238281 L 319.835938 82.671875 Z M 297.710938 0.0820312 " clip-rule="nonzero"/></clipPath><clipPath id="1d06e699cb"><path d="M 297.710938 0.0820312 L 0.683594 79.648438 L 22.808594 162.238281 L 319.835938 82.671875 Z M 297.710938 0.0820312 " clip-rule="nonzero"/></clipPath><clipPath id="3bbf62cfd2"><path d="M 171 82 L 219 82 L 219 120 L 171 120 Z M 171 82 " clip-rule="nonzero"/></clipPath><clipPath id="12d617826e"><path d="M 0.980469 79.570312 L 298.007812 0.00390625 L 320.128906 82.59375 L 23.101562 162.160156 Z M 0.980469 79.570312 " clip-rule="nonzero"/></clipPath><clipPath id="9d496b1e80"><path d="M 297.710938 0.0820312 L 0.683594 79.648438 L 22.808594 162.238281 L 319.835938 82.671875 Z M 297.710938 0.0820312 " clip-rule="nonzero"/></clipPath><clipPath id="9871030625"><path d="M 297.710938 0.0820312 L 0.683594 79.648438 L 22.808594 162.238281 L 319.835938 82.671875 Z M 297.710938 0.0820312 " clip-rule="nonzero"/></clipPath><clipPath id="200c81e026"><path d="M 197 61 L 318 61 L 318 113 L 197 113 Z M 197 61 " clip-rule="nonzero"/></clipPath><clipPath id="4fd5981c05"><path d="M 0.980469 79.570312 L 298.007812 0.00390625 L 320.128906 82.59375 L 23.101562 162.160156 Z M 0.980469 79.570312 " clip-rule="nonzero"/></clipPath><clipPath id="cc96f097a6"><path d="M 297.710938 0.0820312 L 0.683594 79.648438 L 22.808594 162.238281 L 319.835938 82.671875 Z M 297.710938 0.0820312 " clip-rule="nonzero"/></clipPath><clipPath id="8492551c88"><path d="M 297.710938 0.0820312 L 0.683594 79.648438 L 22.808594 162.238281 L 319.835938 82.671875 Z M 297.710938 0.0820312 " clip-rule="nonzero"/></clipPath><clipPath id="74561e4ea3"><path d="M 149 93 L 162 93 L 162 104 L 149 104 Z M 149 93 " clip-rule="nonzero"/></clipPath><clipPath id="baeda3382e"><path d="M 0.980469 79.570312 L 298.007812 0.00390625 L 320.128906 82.59375 L 23.101562 162.160156 Z M 0.980469 79.570312 " clip-rule="nonzero"/></clipPath><clipPath id="45efd1c1eb"><path d="M 297.710938 0.0820312 L 0.683594 79.648438 L 22.808594 162.238281 L 319.835938 82.671875 Z M 297.710938 0.0820312 " clip-rule="nonzero"/></clipPath><clipPath id="81bc3cdeb7"><path d="M 297.710938 0.0820312 L 0.683594 79.648438 L 22.808594 162.238281 L 319.835938 82.671875 Z M 297.710938 0.0820312 " clip-rule="nonzero"/></clipPath><clipPath id="d8ff6400a5"><path d="M 38 117 L 51 117 L 51 129 L 38 129 Z M 38 117 " clip-rule="nonzero"/></clipPath><clipPath id="506992f234"><path d="M 0.980469 79.570312 L 298.007812 0.00390625 L 320.128906 82.59375 L 23.101562 162.160156 Z M 0.980469 79.570312 " clip-rule="nonzero"/></clipPath><clipPath id="5933e13967"><path d="M 297.710938 0.0820312 L 0.683594 79.648438 L 22.808594 162.238281 L 319.835938 82.671875 Z M 297.710938 0.0820312 " clip-rule="nonzero"/></clipPath><clipPath id="b2cdf73146"><path d="M 297.710938 0.0820312 L 0.683594 79.648438 L 22.808594 162.238281 L 319.835938 82.671875 Z M 297.710938 0.0820312 " clip-rule="nonzero"/></clipPath><clipPath id="8b1e886740"><path d="M 27 91 L 36 91 L 36 104 L 27 104 Z M 27 91 " clip-rule="nonzero"/></clipPath><clipPath id="4d0ac8444a"><path d="M 0.980469 79.570312 L 298.007812 0.00390625 L 320.128906 82.59375 L 23.101562 162.160156 Z M 0.980469 79.570312 " clip-rule="nonzero"/></clipPath><clipPath id="318c88e6f7"><path d="M 297.710938 0.0820312 L 0.683594 79.648438 L 22.808594 162.238281 L 319.835938 82.671875 Z M 297.710938 0.0820312 " clip-rule="nonzero"/></clipPath><clipPath id="581618908d"><path d="M 297.710938 0.0820312 L 0.683594 79.648438 L 22.808594 162.238281 L 319.835938 82.671875 Z M 297.710938 0.0820312 " clip-rule="nonzero"/></clipPath><clipPath id="9a9f57878a"><path d="M 114 114 L 123 114 L 123 122 L 114 122 Z M 114 114 " clip-rule="nonzero"/></clipPath><clipPath id="7aee074509"><path d="M 0.980469 79.570312 L 298.007812 0.00390625 L 320.128906 82.59375 L 23.101562 162.160156 Z M 0.980469 79.570312 " clip-rule="nonzero"/></clipPath><clipPath id="dc63cab0c4"><path d="M 297.710938 0.0820312 L 0.683594 79.648438 L 22.808594 162.238281 L 319.835938 82.671875 Z M 297.710938 0.0820312 " clip-rule="nonzero"/></clipPath><clipPath id="b38c87a8ab"><path d="M 297.710938 0.0820312 L 0.683594 79.648438 L 22.808594 162.238281 L 319.835938 82.671875 Z M 297.710938 0.0820312 " clip-rule="nonzero"/></clipPath><clipPath id="5e4113614c"><path d="M 136 110 L 157 110 L 157 130 L 136 130 Z M 136 110 " clip-rule="nonzero"/></clipPath><clipPath id="adb615244c"><path d="M 0.980469 79.570312 L 298.007812 0.00390625 L 320.128906 82.59375 L 23.101562 162.160156 Z M 0.980469 79.570312 " clip-rule="nonzero"/></clipPath><clipPath id="3d3ddc968e"><path d="M 297.710938 0.0820312 L 0.683594 79.648438 L 22.808594 162.238281 L 319.835938 82.671875 Z M 297.710938 0.0820312 " clip-rule="nonzero"/></clipPath><clipPath id="9282758399"><path d="M 297.710938 0.0820312 L 0.683594 79.648438 L 22.808594 162.238281 L 319.835938 82.671875 Z M 297.710938 0.0820312 " clip-rule="nonzero"/></clipPath><clipPath id="7450512fac"><path d="M 94 133 L 107 133 L 107 143 L 94 143 Z M 94 133 " clip-rule="nonzero"/></clipPath><clipPath id="c35fc4bec5"><path d="M 0.980469 79.570312 L 298.007812 0.00390625 L 320.128906 82.59375 L 23.101562 162.160156 Z M 0.980469 79.570312 " clip-rule="nonzero"/></clipPath><clipPath id="34233245fd"><path d="M 297.710938 0.0820312 L 0.683594 79.648438 L 22.808594 162.238281 L 319.835938 82.671875 Z M 297.710938 0.0820312 " clip-rule="nonzero"/></clipPath><clipPath id="1fc793dc9f"><path d="M 297.710938 0.0820312 L 0.683594 79.648438 L 22.808594 162.238281 L 319.835938 82.671875 Z M 297.710938 0.0820312 " clip-rule="nonzero"/></clipPath><clipPath id="fcafda5c53"><path d="M 49 138 L 57 138 L 57 146 L 49 146 Z M 49 138 " clip-rule="nonzero"/></clipPath><clipPath id="0331904fde"><path d="M 0.980469 79.570312 L 298.007812 0.00390625 L 320.128906 82.59375 L 23.101562 162.160156 Z M 0.980469 79.570312 " clip-rule="nonzero"/></clipPath><clipPath id="1b1b1d030d"><path d="M 297.710938 0.0820312 L 0.683594 79.648438 L 22.808594 162.238281 L 319.835938 82.671875 Z M 297.710938 0.0820312 " clip-rule="nonzero"/></clipPath><clipPath id="3001653dcc"><path d="M 297.710938 0.0820312 L 0.683594 79.648438 L 22.808594 162.238281 L 319.835938 82.671875 Z M 297.710938 0.0820312 " clip-rule="nonzero"/></clipPath><clipPath id="4b5db7fbe9"><path d="M 19 110 L 28 110 L 28 118 L 19 118 Z M 19 110 " clip-rule="nonzero"/></clipPath><clipPath id="d5b2953e6a"><path d="M 0.980469 79.570312 L 298.007812 0.00390625 L 320.128906 82.59375 L 23.101562 162.160156 Z M 0.980469 79.570312 " clip-rule="nonzero"/></clipPath><clipPath id="21210f505f"><path d="M 297.710938 0.0820312 L 0.683594 79.648438 L 22.808594 162.238281 L 319.835938 82.671875 Z M 297.710938 0.0820312 " clip-rule="nonzero"/></clipPath><clipPath id="901da27159"><path d="M 297.710938 0.0820312 L 0.683594 79.648438 L 22.808594 162.238281 L 319.835938 82.671875 Z M 297.710938 0.0820312 " clip-rule="nonzero"/></clipPath><clipPath id="1111ce2fc5"><path d="M 61 67 L 70 67 L 70 75 L 61 75 Z M 61 67 " clip-rule="nonzero"/></clipPath><clipPath id="2598eecc00"><path d="M 0.980469 79.570312 L 298.007812 0.00390625 L 320.128906 82.59375 L 23.101562 162.160156 Z M 0.980469 79.570312 " clip-rule="nonzero"/></clipPath><clipPath id="1395b6746d"><path d="M 297.710938 0.0820312 L 0.683594 79.648438 L 22.808594 162.238281 L 319.835938 82.671875 Z M 297.710938 0.0820312 " clip-rule="nonzero"/></clipPath><clipPath id="887ca61062"><path d="M 297.710938 0.0820312 L 0.683594 79.648438 L 22.808594 162.238281 L 319.835938 82.671875 Z M 297.710938 0.0820312 " clip-rule="nonzero"/></clipPath><clipPath id="239f5cbf1f"><path d="M 43 98 L 50 98 L 50 106 L 43 106 Z M 43 98 " clip-rule="nonzero"/></clipPath><clipPath id="2f60066ab2"><path d="M 0.980469 79.570312 L 298.007812 0.00390625 L 320.128906 82.59375 L 23.101562 162.160156 Z M 0.980469 79.570312 " clip-rule="nonzero"/></clipPath><clipPath id="1bf9cc8ae6"><path d="M 297.710938 0.0820312 L 0.683594 79.648438 L 22.808594 162.238281 L 319.835938 82.671875 Z M 297.710938 0.0820312 " clip-rule="nonzero"/></clipPath><clipPath id="637f41f53e"><path d="M 297.710938 0.0820312 L 0.683594 79.648438 L 22.808594 162.238281 L 319.835938 82.671875 Z M 297.710938 0.0820312 " clip-rule="nonzero"/></clipPath><clipPath id="278361b979"><path d="M 15 129 L 32 129 L 32 146 L 15 146 Z M 15 129 " clip-rule="nonzero"/></clipPath><clipPath id="74f5ef0c53"><path d="M 0.980469 79.570312 L 298.007812 0.00390625 L 320.128906 82.59375 L 23.101562 162.160156 Z M 0.980469 79.570312 " clip-rule="nonzero"/></clipPath><clipPath id="5e047f6f39"><path d="M 297.710938 0.0820312 L 0.683594 79.648438 L 22.808594 162.238281 L 319.835938 82.671875 Z M 297.710938 0.0820312 " clip-rule="nonzero"/></clipPath><clipPath id="dff4ea6099"><path d="M 297.710938 0.0820312 L 0.683594 79.648438 L 22.808594 162.238281 L 319.835938 82.671875 Z M 297.710938 0.0820312 " clip-rule="nonzero"/></clipPath><clipPath id="725d0ddb99"><path d="M 27 68 L 45 68 L 45 83 L 27 83 Z M 27 68 " clip-rule="nonzero"/></clipPath><clipPath id="775a416169"><path d="M 0.980469 79.570312 L 298.007812 0.00390625 L 320.128906 82.59375 L 23.101562 162.160156 Z M 0.980469 79.570312 " clip-rule="nonzero"/></clipPath><clipPath id="5e64cf00ca"><path d="M 297.710938 0.0820312 L 0.683594 79.648438 L 22.808594 162.238281 L 319.835938 82.671875 Z M 297.710938 0.0820312 " clip-rule="nonzero"/></clipPath><clipPath id="fba686815d"><path d="M 297.710938 0.0820312 L 0.683594 79.648438 L 22.808594 162.238281 L 319.835938 82.671875 Z M 297.710938 0.0820312 " clip-rule="nonzero"/></clipPath><clipPath id="3276d32d7e"><path d="M 66 124 L 87 124 L 87 140 L 66 140 Z M 66 124 " clip-rule="nonzero"/></clipPath><clipPath id="39d0b4f50d"><path d="M 0.980469 79.570312 L 298.007812 0.00390625 L 320.128906 82.59375 L 23.101562 162.160156 Z M 0.980469 79.570312 " clip-rule="nonzero"/></clipPath><clipPath id="1c29545351"><path d="M 297.710938 0.0820312 L 0.683594 79.648438 L 22.808594 162.238281 L 319.835938 82.671875 Z M 297.710938 0.0820312 " clip-rule="nonzero"/></clipPath><clipPath id="a599339fdf"><path d="M 297.710938 0.0820312 L 0.683594 79.648438 L 22.808594 162.238281 L 319.835938 82.671875 Z M 297.710938 0.0820312 " clip-rule="nonzero"/></clipPath><clipPath id="c0b7be54fa"><path d="M 61 103 L 77 103 L 77 115 L 61 115 Z M 61 103 " clip-rule="nonzero"/></clipPath><clipPath id="8db8f857e4"><path d="M 0.980469 79.570312 L 298.007812 0.00390625 L 320.128906 82.59375 L 23.101562 162.160156 Z M 0.980469 79.570312 " clip-rule="nonzero"/></clipPath><clipPath id="3fc68f9eaf"><path d="M 297.710938 0.0820312 L 0.683594 79.648438 L 22.808594 162.238281 L 319.835938 82.671875 Z M 297.710938 0.0820312 " clip-rule="nonzero"/></clipPath><clipPath id="cdfa47379c"><path d="M 297.710938 0.0820312 L 0.683594 79.648438 L 22.808594 162.238281 L 319.835938 82.671875 Z M 297.710938 0.0820312 " clip-rule="nonzero"/></clipPath><clipPath id="23d40b2ebe"><path d="M 61 79 L 73 79 L 73 92 L 61 92 Z M 61 79 " clip-rule="nonzero"/></clipPath><clipPath id="679b9c117d"><path d="M 0.980469 79.570312 L 298.007812 0.00390625 L 320.128906 82.59375 L 23.101562 162.160156 Z M 0.980469 79.570312 " clip-rule="nonzero"/></clipPath><clipPath id="6a18e8e53b"><path d="M 297.710938 0.0820312 L 0.683594 79.648438 L 22.808594 162.238281 L 319.835938 82.671875 Z M 297.710938 0.0820312 " clip-rule="nonzero"/></clipPath><clipPath id="4dc678a7ed"><path d="M 297.710938 0.0820312 L 0.683594 79.648438 L 22.808594 162.238281 L 319.835938 82.671875 Z M 297.710938 0.0820312 " clip-rule="nonzero"/></clipPath><clipPath id="70547c28f6"><path d="M 45 87 L 63 87 L 63 97 L 45 97 Z M 45 87 " clip-rule="nonzero"/></clipPath><clipPath id="4429470980"><path d="M 0.980469 79.570312 L 298.007812 0.00390625 L 320.128906 82.59375 L 23.101562 162.160156 Z M 0.980469 79.570312 " clip-rule="nonzero"/></clipPath><clipPath id="e70fe9fcb8"><path d="M 297.710938 0.0820312 L 0.683594 79.648438 L 22.808594 162.238281 L 319.835938 82.671875 Z M 297.710938 0.0820312 " clip-rule="nonzero"/></clipPath><clipPath id="1fd1220ddd"><path d="M 297.710938 0.0820312 L 0.683594 79.648438 L 22.808594 162.238281 L 319.835938 82.671875 Z M 297.710938 0.0820312 " clip-rule="nonzero"/></clipPath><clipPath id="e8d06e7e86"><rect x="0" width="320" y="0" height="163"/></clipPath></defs><g clip-path="url(#82a403ed32)"><g clip-path="url(#dd93bc99c6)"><g transform="matrix(1, 0, 0, 1, 13, 303)"><g clip-path="url(#e8d06e7e86)"><g clip-path="url(#67520bbafa)"><g clip-path="url(#c88c172414)"><g clip-path="url(#fd0792f908)"><g clip-path="url(#1d06e699cb)"><path fill="#ff4f5d" d="M 178.464844 89.789062 C 178.464844 89.789062 166.433594 92.351562 166.425781 92.355469 C 154.375 94.921875 141.753906 102.574219 130.171875 106.929688 C 114.871094 112.6875 100.160156 120.601562 84.1875 124.464844 C 73.929688 126.949219 63.003906 127.574219 52.890625 124.53125 C 43.542969 121.714844 34.515625 114.707031 33.183594 105.019531 C 32.269531 98.335938 35.265625 91.523438 39.988281 86.714844 C 44.460938 82.160156 50.875 79.097656 57.183594 80.066406 C 63.492188 81.03125 69.136719 86.859375 68.570312 93.230469 C 68.085938 98.671875 63.472656 102.976562 58.410156 105.011719 C 56.351562 105.835938 54.085938 106.382812 51.921875 105.902344 C 49.410156 105.34375 46.261719 102.972656 46.175781 99.671875 C 46.078125 96.109375 49.648438 93.980469 50.351562 93.558594 C 51.332031 92.972656 52.589844 92.226562 53.847656 92.625 C 55.535156 93.160156 55.433594 95.195312 57.191406 95.792969 C 58.472656 96.226562 60.011719 95.65625 60.914062 94.734375 C 62.300781 93.316406 62.253906 90.988281 61.449219 89.609375 C 59.613281 86.472656 53.398438 87.527344 52.855469 87.644531 C 46.710938 88.976562 41.074219 94.015625 40.621094 100.300781 C 40 108.941406 49.398438 115.65625 58.042969 115.339844 C 65.253906 115.074219 72.15625 111.152344 76.382812 105.300781 C 80.605469 99.445312 82.167969 91.816406 80.953125 84.691406 C 80.335938 81.074219 78.992188 77.507812 76.589844 74.742188 C 74.308594 72.121094 71.199219 70.347656 67.964844 69.089844 C 57.773438 65.132812 45.800781 66.132812 36.414062 71.722656 C 29.703125 75.71875 24.445312 81.808594 20.222656 88.386719 C 15.316406 96.027344 11.605469 104.664062 11.070312 113.734375 C 11.011719 114.730469 11.285156 128.859375 20.246094 138.449219 C 37.210938 156.605469 75.164062 147.351562 97.921875 141.804688 C 113.449219 138.019531 125.785156 132.917969 147.292969 128.003906 C 149.765625 127.4375 156.957031 125.738281 166.648438 123.140625 C 173.132812 121.402344 179.269531 119.078125 185.839844 117.316406 Z M 178.464844 89.789062 " fill-opacity="1" fill-rule="nonzero"/></g></g></g></g><g clip-path="url(#3bbf62cfd2)"><g clip-path="url(#12d617826e)"><g clip-path="url(#9d496b1e80)"><g clip-path="url(#9871030625)"><path fill="#ffc81f" d="M 211.355469 82.785156 L 171.449219 91.285156 C 171.125 94.558594 171.003906 99.789062 172.644531 105.910156 C 173.496094 109.085938 175.230469 114.027344 178.917969 119.171875 L 218.277344 108.628906 Z M 211.355469 82.785156 " fill-opacity="1" fill-rule="nonzero"/></g></g></g></g><g clip-path="url(#200c81e026)"><g clip-path="url(#4fd5981c05)"><g clip-path="url(#cc96f097a6)"><g clip-path="url(#8492551c88)"><path fill="#28b4a9" d="M 311.433594 61.46875 C 312.824219 62.984375 315.402344 66.195312 316.722656 71.054688 C 318.074219 76.015625 317.433594 80.171875 316.984375 82.1875 L 204.570312 112.300781 C 202.742188 109.847656 200.050781 105.597656 198.472656 99.703125 C 197.679688 96.746094 196.746094 91.804688 197.457031 85.746094 Z M 311.433594 61.46875 " fill-opacity="1" fill-rule="nonzero"/></g></g></g></g><g clip-path="url(#74561e4ea3)"><g clip-path="url(#baeda3382e)"><g clip-path="url(#45efd1c1eb)"><g clip-path="url(#81bc3cdeb7)"><path fill="#fff7eb" d="M 149.691406 98.539062 C 150.554688 101.765625 153.867188 103.679688 157.085938 102.816406 C 160.304688 101.953125 162.207031 98.640625 161.34375 95.414062 C 161.199219 94.875 160.980469 94.375 160.714844 93.914062 L 160.710938 93.914062 C 157.035156 95.105469 153.328125 96.644531 149.632812 98.292969 C 149.648438 98.371094 149.667969 98.453125 149.691406 98.539062 Z M 149.691406 98.539062 " fill-opacity="1" fill-rule="nonzero"/></g></g></g></g><g clip-path="url(#d8ff6400a5)"><g clip-path="url(#506992f234)"><g clip-path="url(#5933e13967)"><g clip-path="url(#b2cdf73146)"><path fill="#fff7eb" d="M 38.492188 123.945312 C 39.355469 127.171875 42.667969 129.089844 45.878906 128.226562 C 48.160156 127.617188 49.785156 125.777344 50.222656 123.605469 C 46.671875 122.21875 43.285156 120.234375 40.464844 117.738281 C 38.710938 119.195312 37.863281 121.597656 38.492188 123.945312 Z M 38.492188 123.945312 " fill-opacity="1" fill-rule="nonzero"/></g></g></g></g><g clip-path="url(#8b1e886740)"><g clip-path="url(#4d0ac8444a)"><g clip-path="url(#318c88e6f7)"><g clip-path="url(#581618908d)"><path fill="#fff7eb" d="M 27.246094 99.441406 C 27.96875 102.140625 30.414062 103.917969 33.074219 103.921875 C 32.773438 99.957031 33.8125 95.988281 35.734375 92.460938 C 34.46875 91.832031 32.972656 91.652344 31.507812 92.046875 C 28.292969 92.90625 26.382812 96.214844 27.246094 99.441406 Z M 27.246094 99.441406 " fill-opacity="1" fill-rule="nonzero"/></g></g></g></g><g clip-path="url(#9a9f57878a)"><g clip-path="url(#7aee074509)"><g clip-path="url(#dc63cab0c4)"><g clip-path="url(#b38c87a8ab)"><path fill="#fff7eb" d="M 117.457031 114.523438 C 119.386719 114.007812 121.371094 115.15625 121.890625 117.089844 C 122.40625 119.023438 121.261719 121.011719 119.332031 121.527344 C 117.402344 122.046875 115.417969 120.898438 114.898438 118.964844 C 114.382812 117.03125 115.527344 115.042969 117.457031 114.523438 Z M 117.457031 114.523438 " fill-opacity="1" fill-rule="nonzero"/></g></g></g></g><g clip-path="url(#5e4113614c)"><g clip-path="url(#adb615244c)"><g clip-path="url(#3d3ddc968e)"><g clip-path="url(#9282758399)"><path fill="#fff7eb" d="M 136.992188 123.367188 C 137.695312 125.996094 139.382812 128.09375 141.554688 129.375 C 143.398438 128.914062 145.308594 128.464844 147.292969 128.007812 C 148.613281 127.699219 151.289062 127.074219 154.984375 126.15625 C 156.441406 123.886719 156.96875 121.03125 156.214844 118.21875 C 154.789062 112.898438 149.328125 109.738281 144.019531 111.160156 C 138.710938 112.582031 135.566406 118.046875 136.992188 123.367188 Z M 136.992188 123.367188 " fill-opacity="1" fill-rule="nonzero"/></g></g></g></g><g clip-path="url(#7450512fac)"><g clip-path="url(#c35fc4bec5)"><g clip-path="url(#34233245fd)"><g clip-path="url(#1fc793dc9f)"><path fill="#fff7eb" d="M 94.285156 141.0625 C 94.429688 141.589844 94.636719 142.085938 94.898438 142.539062 C 95.933594 142.289062 96.945312 142.046875 97.921875 141.804688 C 100.738281 141.121094 103.457031 140.382812 106.144531 139.625 C 106.152344 139.070312 106.089844 138.5 105.9375 137.941406 C 105.074219 134.714844 101.765625 132.804688 98.550781 133.664062 C 95.339844 134.527344 93.421875 137.835938 94.285156 141.0625 Z M 94.285156 141.0625 " fill-opacity="1" fill-rule="nonzero"/></g></g></g></g><g clip-path="url(#fcafda5c53)"><g clip-path="url(#0331904fde)"><g clip-path="url(#1b1b1d030d)"><g clip-path="url(#3001653dcc)"><path fill="#fff7eb" d="M 49.730469 142.585938 C 49.855469 143.050781 50.0625 143.476562 50.355469 143.855469 C 50.648438 144.238281 51 144.546875 51.417969 144.789062 C 51.832031 145.03125 52.277344 145.183594 52.753906 145.246094 C 53.230469 145.308594 53.699219 145.277344 54.164062 145.152344 C 54.625 145.027344 55.046875 144.820312 55.429688 144.527344 C 55.808594 144.234375 56.121094 143.882812 56.359375 143.464844 C 56.597656 143.050781 56.75 142.601562 56.8125 142.125 C 56.875 141.648438 56.84375 141.179688 56.71875 140.714844 C 56.59375 140.25 56.386719 139.828125 56.09375 139.445312 C 55.800781 139.066406 55.449219 138.753906 55.03125 138.511719 C 54.617188 138.273438 54.171875 138.121094 53.695312 138.058594 C 53.21875 137.996094 52.75 138.023438 52.285156 138.148438 C 51.824219 138.273438 51.402344 138.480469 51.019531 138.773438 C 50.640625 139.066406 50.328125 139.421875 50.089844 139.835938 C 49.851562 140.253906 49.699219 140.699219 49.636719 141.175781 C 49.574219 141.652344 49.605469 142.121094 49.730469 142.585938 Z M 49.730469 142.585938 " fill-opacity="1" fill-rule="nonzero"/></g></g></g></g><g clip-path="url(#4b5db7fbe9)"><g clip-path="url(#d5b2953e6a)"><g clip-path="url(#21210f505f)"><g clip-path="url(#901da27159)"><path fill="#fff7eb" d="M 19.894531 115.019531 C 20.019531 115.484375 20.226562 115.910156 20.519531 116.289062 C 20.8125 116.671875 21.164062 116.980469 21.582031 117.222656 C 21.996094 117.464844 22.441406 117.617188 22.917969 117.679688 C 23.394531 117.742188 23.863281 117.710938 24.328125 117.585938 C 24.789062 117.460938 25.210938 117.253906 25.59375 116.960938 C 25.972656 116.667969 26.28125 116.316406 26.523438 115.898438 C 26.761719 115.484375 26.914062 115.035156 26.976562 114.558594 C 27.039062 114.082031 27.007812 113.613281 26.882812 113.148438 C 26.757812 112.683594 26.550781 112.261719 26.257812 111.878906 C 25.964844 111.5 25.613281 111.1875 25.195312 110.945312 C 24.78125 110.707031 24.335938 110.554688 23.859375 110.492188 C 23.382812 110.429688 22.914062 110.457031 22.449219 110.582031 C 21.988281 110.707031 21.566406 110.914062 21.183594 111.207031 C 20.804688 111.5 20.492188 111.855469 20.253906 112.269531 C 20.015625 112.6875 19.863281 113.132812 19.800781 113.609375 C 19.738281 114.085938 19.769531 114.554688 19.894531 115.019531 Z M 19.894531 115.019531 " fill-opacity="1" fill-rule="nonzero"/></g></g></g></g><g clip-path="url(#1111ce2fc5)"><g clip-path="url(#2598eecc00)"><g clip-path="url(#1395b6746d)"><g clip-path="url(#887ca61062)"><path fill="#fff7eb" d="M 61.894531 71.390625 C 62.414062 73.324219 64.394531 74.472656 66.324219 73.953125 C 68.257812 73.4375 69.398438 71.453125 68.882812 69.519531 L 68.867188 69.460938 L 68.859375 69.464844 C 68.558594 69.332031 68.269531 69.214844 67.964844 69.097656 C 66.394531 68.488281 64.777344 67.992188 63.136719 67.613281 C 62.042969 68.488281 61.511719 69.953125 61.898438 71.390625 Z M 61.894531 71.390625 " fill-opacity="1" fill-rule="nonzero"/></g></g></g></g><g clip-path="url(#239f5cbf1f)"><g clip-path="url(#2f60066ab2)"><g clip-path="url(#1bf9cc8ae6)"><g clip-path="url(#637f41f53e)"><path fill="#fff7eb" d="M 43.960938 103.09375 C 44.476562 105.027344 46.460938 106.175781 48.390625 105.65625 C 48.886719 105.523438 49.328125 105.296875 49.703125 105 C 47.863281 103.910156 46.234375 102.03125 46.175781 99.667969 C 46.164062 99.351562 46.183594 99.046875 46.226562 98.75 C 44.46875 99.375 43.46875 101.261719 43.960938 103.09375 Z M 43.960938 103.09375 " fill-opacity="1" fill-rule="nonzero"/></g></g></g></g><g clip-path="url(#278361b979)"><g clip-path="url(#74f5ef0c53)"><g clip-path="url(#5e047f6f39)"><g clip-path="url(#dff4ea6099)"><path fill="#fff7eb" d="M 15.359375 131.371094 C 16.601562 133.828125 18.191406 136.257812 20.242188 138.449219 C 22.902344 141.292969 26.074219 143.46875 29.621094 145.085938 C 31.390625 142.714844 32.09375 139.59375 31.269531 136.519531 C 29.84375 131.199219 24.390625 128.039062 19.082031 129.460938 C 17.671875 129.839844 16.417969 130.5 15.359375 131.371094 Z M 15.359375 131.371094 " fill-opacity="1" fill-rule="nonzero"/></g></g></g></g><g clip-path="url(#725d0ddb99)"><g clip-path="url(#775a416169)"><g clip-path="url(#5e64cf00ca)"><g clip-path="url(#fba686815d)"><path fill="#fff7eb" d="M 27.429688 79.035156 C 29.863281 81.566406 33.558594 82.730469 37.183594 81.761719 C 42.484375 80.339844 45.636719 74.878906 44.210938 69.558594 C 44.105469 69.164062 43.976562 68.785156 43.832031 68.414062 C 41.246094 69.230469 38.75 70.332031 36.414062 71.722656 C 33.074219 73.710938 30.097656 76.21875 27.429688 79.035156 Z M 27.429688 79.035156 " fill-opacity="1" fill-rule="nonzero"/></g></g></g></g><g clip-path="url(#3276d32d7e)"><g clip-path="url(#39d0b4f50d)"><g clip-path="url(#1c29545351)"><g clip-path="url(#a599339fdf)"><path fill="#fff7eb" d="M 66.558594 131.910156 C 67.980469 137.230469 73.4375 140.390625 78.746094 138.96875 C 84.054688 137.546875 87.199219 132.082031 85.773438 126.761719 C 85.539062 125.882812 85.195312 125.0625 84.757812 124.320312 L 84.753906 124.320312 C 84.5625 124.371094 84.378906 124.421875 84.1875 124.46875 C 78.453125 125.851562 72.515625 126.660156 66.617188 126.566406 L 66.609375 126.570312 C 66.121094 128.25 66.070312 130.089844 66.558594 131.910156 Z M 66.558594 131.910156 " fill-opacity="1" fill-rule="nonzero"/></g></g></g></g><g clip-path="url(#c0b7be54fa)"><g clip-path="url(#8db8f857e4)"><g clip-path="url(#3fc68f9eaf)"><g clip-path="url(#cdfa47379c)"><path fill="#fff7eb" d="M 76.382812 105.300781 C 76.558594 105.0625 76.722656 104.820312 76.886719 104.570312 C 74.667969 103.246094 71.941406 102.792969 69.246094 103.511719 C 64.238281 104.855469 61.148438 109.792969 62.027344 114.820312 C 67.738281 113.546875 72.949219 110.066406 76.382812 105.296875 Z M 76.382812 105.300781 " fill-opacity="1" fill-rule="nonzero"/></g></g></g></g><g clip-path="url(#23d40b2ebe)"><g clip-path="url(#679b9c117d)"><g clip-path="url(#6a18e8e53b)"><g clip-path="url(#4dc678a7ed)"><path fill="#fff7eb" d="M 61.875 81.734375 C 65.429688 83.777344 68.128906 87.320312 68.550781 91.273438 C 71.484375 90.234375 73.171875 87.082031 72.351562 84.023438 C 71.488281 80.796875 68.175781 78.882812 64.964844 79.742188 C 63.707031 80.078125 62.644531 80.792969 61.875 81.734375 Z M 61.875 81.734375 " fill-opacity="1" fill-rule="nonzero"/></g></g></g></g><g clip-path="url(#70547c28f6)"><g clip-path="url(#4429470980)"><g clip-path="url(#e70fe9fcb8)"><g clip-path="url(#1fd1220ddd)"><path fill="#fff7eb" d="M 45.921875 93.347656 C 46.210938 94.429688 46.667969 95.417969 47.257812 96.296875 C 48.34375 94.757812 49.910156 93.824219 50.351562 93.566406 C 51.335938 92.972656 52.59375 92.226562 53.847656 92.628906 C 55.53125 93.160156 55.429688 95.199219 57.195312 95.796875 C 58.46875 96.230469 60.011719 95.664062 60.914062 94.738281 C 62.296875 93.320312 62.25 90.992188 61.445312 89.609375 C 59.613281 86.472656 53.394531 87.527344 52.855469 87.644531 C 50.21875 88.21875 47.679688 89.472656 45.59375 91.210938 C 45.621094 91.921875 45.730469 92.632812 45.921875 93.347656 Z M 45.921875 93.347656 " fill-opacity="1" fill-rule="nonzero"/></g></g></g></g></g></g></g></g></svg>