<svg xmlns="http://www.w3.org/2000/svg" xmlns:xlink="http://www.w3.org/1999/xlink" width="1024" zoomAndPan="magnify" viewBox="0 0 768 767.999994" height="1024" preserveAspectRatio="xMidYMid meet" version="1.0"><defs><clipPath id="e1356d6af0"><path d="M 480 466 L 501 466 L 501 487 L 480 487 Z M 480 466 " clip-rule="nonzero"/></clipPath><clipPath id="b970e2da31"><path d="M 273.625 448.503906 L 579.007812 412.476562 L 587.53125 484.722656 L 282.148438 520.75 Z M 273.625 448.503906 " clip-rule="nonzero"/></clipPath><clipPath id="bdde2df25c"><path d="M 273.625 448.503906 L 579.007812 412.476562 L 587.53125 484.722656 L 282.148438 520.75 Z M 273.625 448.503906 " clip-rule="nonzero"/></clipPath><clipPath id="27e8caf5b9"><path d="M 273.625 448.503906 L 579.007812 412.476562 L 587.53125 484.722656 L 282.148438 520.75 Z M 273.625 448.503906 " clip-rule="nonzero"/></clipPath><clipPath id="ac03bc832b"><path d="M 481 467 L 499 467 L 499 485 L 481 485 Z M 481 467 " clip-rule="nonzero"/></clipPath><clipPath id="b79e976a74"><path d="M 273.625 448.503906 L 579.007812 412.476562 L 587.53125 484.722656 L 282.148438 520.75 Z M 273.625 448.503906 " clip-rule="nonzero"/></clipPath><clipPath id="f248fbf7a5"><path d="M 273.625 448.503906 L 579.007812 412.476562 L 587.53125 484.722656 L 282.148438 520.75 Z M 273.625 448.503906 " clip-rule="nonzero"/></clipPath><clipPath id="4b14f7a26c"><path d="M 273.625 448.503906 L 579.007812 412.476562 L 587.53125 484.722656 L 282.148438 520.75 Z M 273.625 448.503906 " clip-rule="nonzero"/></clipPath><clipPath id="c449427df6"><path d="M 483 471 L 488 471 L 488 483 L 483 483 Z M 483 471 " clip-rule="nonzero"/></clipPath><clipPath id="061597719e"><path d="M 273.625 448.503906 L 579.007812 412.476562 L 587.53125 484.722656 L 282.148438 520.75 Z M 273.625 448.503906 " clip-rule="nonzero"/></clipPath><clipPath id="3446f81110"><path d="M 273.625 448.503906 L 579.007812 412.476562 L 587.53125 484.722656 L 282.148438 520.75 Z M 273.625 448.503906 " clip-rule="nonzero"/></clipPath><clipPath id="12fcee6834"><path d="M 273.625 448.503906 L 579.007812 412.476562 L 587.53125 484.722656 L 282.148438 520.75 Z M 273.625 448.503906 " clip-rule="nonzero"/></clipPath><clipPath id="dedcc8a377"><path d="M 489 482 L 492 482 L 492 484 L 489 484 Z M 489 482 " clip-rule="nonzero"/></clipPath><clipPath id="952e929d4a"><path d="M 273.625 448.503906 L 579.007812 412.476562 L 587.53125 484.722656 L 282.148438 520.75 Z M 273.625 448.503906 " clip-rule="nonzero"/></clipPath><clipPath id="35bf4ec85d"><path d="M 273.625 448.503906 L 579.007812 412.476562 L 587.53125 484.722656 L 282.148438 520.75 Z M 273.625 448.503906 " clip-rule="nonzero"/></clipPath><clipPath id="fd0ccf480a"><path d="M 273.625 448.503906 L 579.007812 412.476562 L 587.53125 484.722656 L 282.148438 520.75 Z M 273.625 448.503906 " clip-rule="nonzero"/></clipPath><clipPath id="e52222c9eb"><path d="M 366 479 L 387 479 L 387 500 L 366 500 Z M 366 479 " clip-rule="nonzero"/></clipPath><clipPath id="ae4f206724"><path d="M 273.625 448.503906 L 579.007812 412.476562 L 587.53125 484.722656 L 282.148438 520.75 Z M 273.625 448.503906 " clip-rule="nonzero"/></clipPath><clipPath id="68ef7b851b"><path d="M 273.625 448.503906 L 579.007812 412.476562 L 587.53125 484.722656 L 282.148438 520.75 Z M 273.625 448.503906 " clip-rule="nonzero"/></clipPath><clipPath id="58f2e882c8"><path d="M 273.625 448.503906 L 579.007812 412.476562 L 587.53125 484.722656 L 282.148438 520.75 Z M 273.625 448.503906 " clip-rule="nonzero"/></clipPath><clipPath id="280580d749"><path d="M 367 481 L 385 481 L 385 499 L 367 499 Z M 367 481 " clip-rule="nonzero"/></clipPath><clipPath id="bcb60aeed3"><path d="M 273.625 448.503906 L 579.007812 412.476562 L 587.53125 484.722656 L 282.148438 520.75 Z M 273.625 448.503906 " clip-rule="nonzero"/></clipPath><clipPath id="fbe23b22ab"><path d="M 273.625 448.503906 L 579.007812 412.476562 L 587.53125 484.722656 L 282.148438 520.75 Z M 273.625 448.503906 " clip-rule="nonzero"/></clipPath><clipPath id="9b96489271"><path d="M 273.625 448.503906 L 579.007812 412.476562 L 587.53125 484.722656 L 282.148438 520.75 Z M 273.625 448.503906 " clip-rule="nonzero"/></clipPath><clipPath id="751207be44"><path d="M 369 484 L 374 484 L 374 496 L 369 496 Z M 369 484 " clip-rule="nonzero"/></clipPath><clipPath id="dc4f6e2cc4"><path d="M 273.625 448.503906 L 579.007812 412.476562 L 587.53125 484.722656 L 282.148438 520.75 Z M 273.625 448.503906 " clip-rule="nonzero"/></clipPath><clipPath id="4a46bd11ea"><path d="M 273.625 448.503906 L 579.007812 412.476562 L 587.53125 484.722656 L 282.148438 520.75 Z M 273.625 448.503906 " clip-rule="nonzero"/></clipPath><clipPath id="cc1c26e524"><path d="M 273.625 448.503906 L 579.007812 412.476562 L 587.53125 484.722656 L 282.148438 520.75 Z M 273.625 448.503906 " clip-rule="nonzero"/></clipPath><clipPath id="9a9c7971ef"><path d="M 375 495 L 378 495 L 378 497 L 375 497 Z M 375 495 " clip-rule="nonzero"/></clipPath><clipPath id="dffe0fc398"><path d="M 273.625 448.503906 L 579.007812 412.476562 L 587.53125 484.722656 L 282.148438 520.75 Z M 273.625 448.503906 " clip-rule="nonzero"/></clipPath><clipPath id="755996263e"><path d="M 273.625 448.503906 L 579.007812 412.476562 L 587.53125 484.722656 L 282.148438 520.75 Z M 273.625 448.503906 " clip-rule="nonzero"/></clipPath><clipPath id="56db3b8dae"><path d="M 273.625 448.503906 L 579.007812 412.476562 L 587.53125 484.722656 L 282.148438 520.75 Z M 273.625 448.503906 " clip-rule="nonzero"/></clipPath><clipPath id="94c655fe50"><path d="M 497 458 L 519 458 L 519 479 L 497 479 Z M 497 458 " clip-rule="nonzero"/></clipPath><clipPath id="a9a07d85e8"><path d="M 273.625 448.503906 L 579.007812 412.476562 L 587.53125 484.722656 L 282.148438 520.75 Z M 273.625 448.503906 " clip-rule="nonzero"/></clipPath><clipPath id="217fced3e5"><path d="M 273.625 448.503906 L 579.007812 412.476562 L 587.53125 484.722656 L 282.148438 520.75 Z M 273.625 448.503906 " clip-rule="nonzero"/></clipPath><clipPath id="78758b5e3e"><path d="M 273.625 448.503906 L 579.007812 412.476562 L 587.53125 484.722656 L 282.148438 520.75 Z M 273.625 448.503906 " clip-rule="nonzero"/></clipPath><clipPath id="a25fc190ec"><path d="M 499 460 L 517 460 L 517 477 L 499 477 Z M 499 460 " clip-rule="nonzero"/></clipPath><clipPath id="ac5cd88ec0"><path d="M 273.625 448.503906 L 579.007812 412.476562 L 587.53125 484.722656 L 282.148438 520.75 Z M 273.625 448.503906 " clip-rule="nonzero"/></clipPath><clipPath id="da88d85374"><path d="M 273.625 448.503906 L 579.007812 412.476562 L 587.53125 484.722656 L 282.148438 520.75 Z M 273.625 448.503906 " clip-rule="nonzero"/></clipPath><clipPath id="b89e792cc8"><path d="M 273.625 448.503906 L 579.007812 412.476562 L 587.53125 484.722656 L 282.148438 520.75 Z M 273.625 448.503906 " clip-rule="nonzero"/></clipPath><clipPath id="4298b923b9"><path d="M 501 463 L 506 463 L 506 475 L 501 475 Z M 501 463 " clip-rule="nonzero"/></clipPath><clipPath id="f66d98f208"><path d="M 273.625 448.503906 L 579.007812 412.476562 L 587.53125 484.722656 L 282.148438 520.75 Z M 273.625 448.503906 " clip-rule="nonzero"/></clipPath><clipPath id="3618d9b2be"><path d="M 273.625 448.503906 L 579.007812 412.476562 L 587.53125 484.722656 L 282.148438 520.75 Z M 273.625 448.503906 " clip-rule="nonzero"/></clipPath><clipPath id="c5c3f11460"><path d="M 273.625 448.503906 L 579.007812 412.476562 L 587.53125 484.722656 L 282.148438 520.75 Z M 273.625 448.503906 " clip-rule="nonzero"/></clipPath><clipPath id="7a51fb681c"><path d="M 506 474 L 510 474 L 510 476 L 506 476 Z M 506 474 " clip-rule="nonzero"/></clipPath><clipPath id="e0c9cb6ea3"><path d="M 273.625 448.503906 L 579.007812 412.476562 L 587.53125 484.722656 L 282.148438 520.75 Z M 273.625 448.503906 " clip-rule="nonzero"/></clipPath><clipPath id="25c59c98b9"><path d="M 273.625 448.503906 L 579.007812 412.476562 L 587.53125 484.722656 L 282.148438 520.75 Z M 273.625 448.503906 " clip-rule="nonzero"/></clipPath><clipPath id="23ff9d4544"><path d="M 273.625 448.503906 L 579.007812 412.476562 L 587.53125 484.722656 L 282.148438 520.75 Z M 273.625 448.503906 " clip-rule="nonzero"/></clipPath><clipPath id="4458c4bd74"><path d="M 347 476 L 368 476 L 368 496 L 347 496 Z M 347 476 " clip-rule="nonzero"/></clipPath><clipPath id="89fd26cfaa"><path d="M 273.625 448.503906 L 579.007812 412.476562 L 587.53125 484.722656 L 282.148438 520.75 Z M 273.625 448.503906 " clip-rule="nonzero"/></clipPath><clipPath id="554e6218cf"><path d="M 273.625 448.503906 L 579.007812 412.476562 L 587.53125 484.722656 L 282.148438 520.75 Z M 273.625 448.503906 " clip-rule="nonzero"/></clipPath><clipPath id="aceb0c2c64"><path d="M 273.625 448.503906 L 579.007812 412.476562 L 587.53125 484.722656 L 282.148438 520.75 Z M 273.625 448.503906 " clip-rule="nonzero"/></clipPath><clipPath id="dbb7672225"><path d="M 348 477 L 367 477 L 367 495 L 348 495 Z M 348 477 " clip-rule="nonzero"/></clipPath><clipPath id="afa978cc4a"><path d="M 273.625 448.503906 L 579.007812 412.476562 L 587.53125 484.722656 L 282.148438 520.75 Z M 273.625 448.503906 " clip-rule="nonzero"/></clipPath><clipPath id="4b0e7f0713"><path d="M 273.625 448.503906 L 579.007812 412.476562 L 587.53125 484.722656 L 282.148438 520.75 Z M 273.625 448.503906 " clip-rule="nonzero"/></clipPath><clipPath id="5fe9825ca7"><path d="M 273.625 448.503906 L 579.007812 412.476562 L 587.53125 484.722656 L 282.148438 520.75 Z M 273.625 448.503906 " clip-rule="nonzero"/></clipPath><clipPath id="9fc4dd1a33"><path d="M 350 481 L 355 481 L 355 493 L 350 493 Z M 350 481 " clip-rule="nonzero"/></clipPath><clipPath id="1e533b0dbf"><path d="M 273.625 448.503906 L 579.007812 412.476562 L 587.53125 484.722656 L 282.148438 520.75 Z M 273.625 448.503906 " clip-rule="nonzero"/></clipPath><clipPath id="519c63cb65"><path d="M 273.625 448.503906 L 579.007812 412.476562 L 587.53125 484.722656 L 282.148438 520.75 Z M 273.625 448.503906 " clip-rule="nonzero"/></clipPath><clipPath id="57b8ce1e58"><path d="M 273.625 448.503906 L 579.007812 412.476562 L 587.53125 484.722656 L 282.148438 520.75 Z M 273.625 448.503906 " clip-rule="nonzero"/></clipPath><clipPath id="6dbfc2a084"><path d="M 356 492 L 359 492 L 359 493 L 356 493 Z M 356 492 " clip-rule="nonzero"/></clipPath><clipPath id="9b753cab9f"><path d="M 273.625 448.503906 L 579.007812 412.476562 L 587.53125 484.722656 L 282.148438 520.75 Z M 273.625 448.503906 " clip-rule="nonzero"/></clipPath><clipPath id="ae176b580f"><path d="M 273.625 448.503906 L 579.007812 412.476562 L 587.53125 484.722656 L 282.148438 520.75 Z M 273.625 448.503906 " clip-rule="nonzero"/></clipPath><clipPath id="3eaf3d3682"><path d="M 273.625 448.503906 L 579.007812 412.476562 L 587.53125 484.722656 L 282.148438 520.75 Z M 273.625 448.503906 " clip-rule="nonzero"/></clipPath><clipPath id="7ed2dd26cf"><path d="M 514 449 L 535 449 L 535 470 L 514 470 Z M 514 449 " clip-rule="nonzero"/></clipPath><clipPath id="8aea6261cd"><path d="M 273.625 448.503906 L 579.007812 412.476562 L 587.53125 484.722656 L 282.148438 520.75 Z M 273.625 448.503906 " clip-rule="nonzero"/></clipPath><clipPath id="2bf81fc5ca"><path d="M 273.625 448.503906 L 579.007812 412.476562 L 587.53125 484.722656 L 282.148438 520.75 Z M 273.625 448.503906 " clip-rule="nonzero"/></clipPath><clipPath id="6e3aeac5a8"><path d="M 273.625 448.503906 L 579.007812 412.476562 L 587.53125 484.722656 L 282.148438 520.75 Z M 273.625 448.503906 " clip-rule="nonzero"/></clipPath><clipPath id="042363306c"><path d="M 516 450 L 534 450 L 534 468 L 516 468 Z M 516 450 " clip-rule="nonzero"/></clipPath><clipPath id="85d4e6b52a"><path d="M 273.625 448.503906 L 579.007812 412.476562 L 587.53125 484.722656 L 282.148438 520.75 Z M 273.625 448.503906 " clip-rule="nonzero"/></clipPath><clipPath id="aab35a1d27"><path d="M 273.625 448.503906 L 579.007812 412.476562 L 587.53125 484.722656 L 282.148438 520.75 Z M 273.625 448.503906 " clip-rule="nonzero"/></clipPath><clipPath id="fada5e7c90"><path d="M 273.625 448.503906 L 579.007812 412.476562 L 587.53125 484.722656 L 282.148438 520.75 Z M 273.625 448.503906 " clip-rule="nonzero"/></clipPath><clipPath id="fff06d038c"><path d="M 518 454 L 522 454 L 522 466 L 518 466 Z M 518 454 " clip-rule="nonzero"/></clipPath><clipPath id="ed765bae34"><path d="M 273.625 448.503906 L 579.007812 412.476562 L 587.53125 484.722656 L 282.148438 520.75 Z M 273.625 448.503906 " clip-rule="nonzero"/></clipPath><clipPath id="b96f2eb05c"><path d="M 273.625 448.503906 L 579.007812 412.476562 L 587.53125 484.722656 L 282.148438 520.75 Z M 273.625 448.503906 " clip-rule="nonzero"/></clipPath><clipPath id="bc2b5e0135"><path d="M 273.625 448.503906 L 579.007812 412.476562 L 587.53125 484.722656 L 282.148438 520.75 Z M 273.625 448.503906 " clip-rule="nonzero"/></clipPath><clipPath id="7c41dc0de3"><path d="M 523 465 L 527 465 L 527 467 L 523 467 Z M 523 465 " clip-rule="nonzero"/></clipPath><clipPath id="f657d05e2b"><path d="M 273.625 448.503906 L 579.007812 412.476562 L 587.53125 484.722656 L 282.148438 520.75 Z M 273.625 448.503906 " clip-rule="nonzero"/></clipPath><clipPath id="15a78cb0c2"><path d="M 273.625 448.503906 L 579.007812 412.476562 L 587.53125 484.722656 L 282.148438 520.75 Z M 273.625 448.503906 " clip-rule="nonzero"/></clipPath><clipPath id="7d10c547c5"><path d="M 273.625 448.503906 L 579.007812 412.476562 L 587.53125 484.722656 L 282.148438 520.75 Z M 273.625 448.503906 " clip-rule="nonzero"/></clipPath><clipPath id="88c1f0f22a"><path d="M 328 471 L 349 471 L 349 492 L 328 492 Z M 328 471 " clip-rule="nonzero"/></clipPath><clipPath id="3cd265a1ea"><path d="M 273.625 448.503906 L 579.007812 412.476562 L 587.53125 484.722656 L 282.148438 520.75 Z M 273.625 448.503906 " clip-rule="nonzero"/></clipPath><clipPath id="8b41545b34"><path d="M 273.625 448.503906 L 579.007812 412.476562 L 587.53125 484.722656 L 282.148438 520.75 Z M 273.625 448.503906 " clip-rule="nonzero"/></clipPath><clipPath id="9442dbfaef"><path d="M 273.625 448.503906 L 579.007812 412.476562 L 587.53125 484.722656 L 282.148438 520.75 Z M 273.625 448.503906 " clip-rule="nonzero"/></clipPath><clipPath id="152ad1bd07"><path d="M 330 472 L 348 472 L 348 490 L 330 490 Z M 330 472 " clip-rule="nonzero"/></clipPath><clipPath id="55a338843b"><path d="M 273.625 448.503906 L 579.007812 412.476562 L 587.53125 484.722656 L 282.148438 520.75 Z M 273.625 448.503906 " clip-rule="nonzero"/></clipPath><clipPath id="45649a3c0e"><path d="M 273.625 448.503906 L 579.007812 412.476562 L 587.53125 484.722656 L 282.148438 520.75 Z M 273.625 448.503906 " clip-rule="nonzero"/></clipPath><clipPath id="2cfba1d325"><path d="M 273.625 448.503906 L 579.007812 412.476562 L 587.53125 484.722656 L 282.148438 520.75 Z M 273.625 448.503906 " clip-rule="nonzero"/></clipPath><clipPath id="10bfe4360e"><path d="M 332 476 L 336 476 L 336 488 L 332 488 Z M 332 476 " clip-rule="nonzero"/></clipPath><clipPath id="bde09aac11"><path d="M 273.625 448.503906 L 579.007812 412.476562 L 587.53125 484.722656 L 282.148438 520.75 Z M 273.625 448.503906 " clip-rule="nonzero"/></clipPath><clipPath id="d788a952ca"><path d="M 273.625 448.503906 L 579.007812 412.476562 L 587.53125 484.722656 L 282.148438 520.75 Z M 273.625 448.503906 " clip-rule="nonzero"/></clipPath><clipPath id="e7fc5f6505"><path d="M 273.625 448.503906 L 579.007812 412.476562 L 587.53125 484.722656 L 282.148438 520.75 Z M 273.625 448.503906 " clip-rule="nonzero"/></clipPath><clipPath id="1af16e3587"><path d="M 337 487 L 341 487 L 341 489 L 337 489 Z M 337 487 " clip-rule="nonzero"/></clipPath><clipPath id="b08ec59cb8"><path d="M 273.625 448.503906 L 579.007812 412.476562 L 587.53125 484.722656 L 282.148438 520.75 Z M 273.625 448.503906 " clip-rule="nonzero"/></clipPath><clipPath id="e7cb719b97"><path d="M 273.625 448.503906 L 579.007812 412.476562 L 587.53125 484.722656 L 282.148438 520.75 Z M 273.625 448.503906 " clip-rule="nonzero"/></clipPath><clipPath id="204cee9d5e"><path d="M 273.625 448.503906 L 579.007812 412.476562 L 587.53125 484.722656 L 282.148438 520.75 Z M 273.625 448.503906 " clip-rule="nonzero"/></clipPath><clipPath id="00aac18c2b"><path d="M 531 439 L 552 439 L 552 460 L 531 460 Z M 531 439 " clip-rule="nonzero"/></clipPath><clipPath id="106bde9085"><path d="M 273.625 448.503906 L 579.007812 412.476562 L 587.53125 484.722656 L 282.148438 520.75 Z M 273.625 448.503906 " clip-rule="nonzero"/></clipPath><clipPath id="75406e763d"><path d="M 273.625 448.503906 L 579.007812 412.476562 L 587.53125 484.722656 L 282.148438 520.75 Z M 273.625 448.503906 " clip-rule="nonzero"/></clipPath><clipPath id="28c5f58517"><path d="M 273.625 448.503906 L 579.007812 412.476562 L 587.53125 484.722656 L 282.148438 520.75 Z M 273.625 448.503906 " clip-rule="nonzero"/></clipPath><clipPath id="510970e0b3"><path d="M 533 440 L 551 440 L 551 458 L 533 458 Z M 533 440 " clip-rule="nonzero"/></clipPath><clipPath id="f48fad5da5"><path d="M 273.625 448.503906 L 579.007812 412.476562 L 587.53125 484.722656 L 282.148438 520.75 Z M 273.625 448.503906 " clip-rule="nonzero"/></clipPath><clipPath id="7f082dcebd"><path d="M 273.625 448.503906 L 579.007812 412.476562 L 587.53125 484.722656 L 282.148438 520.75 Z M 273.625 448.503906 " clip-rule="nonzero"/></clipPath><clipPath id="cc2a136a9f"><path d="M 273.625 448.503906 L 579.007812 412.476562 L 587.53125 484.722656 L 282.148438 520.75 Z M 273.625 448.503906 " clip-rule="nonzero"/></clipPath><clipPath id="aac2a5dad9"><path d="M 535 444 L 539 444 L 539 456 L 535 456 Z M 535 444 " clip-rule="nonzero"/></clipPath><clipPath id="850e233c37"><path d="M 273.625 448.503906 L 579.007812 412.476562 L 587.53125 484.722656 L 282.148438 520.75 Z M 273.625 448.503906 " clip-rule="nonzero"/></clipPath><clipPath id="e402e5ef79"><path d="M 273.625 448.503906 L 579.007812 412.476562 L 587.53125 484.722656 L 282.148438 520.75 Z M 273.625 448.503906 " clip-rule="nonzero"/></clipPath><clipPath id="dcaa656026"><path d="M 273.625 448.503906 L 579.007812 412.476562 L 587.53125 484.722656 L 282.148438 520.75 Z M 273.625 448.503906 " clip-rule="nonzero"/></clipPath><clipPath id="a7cde72f43"><path d="M 540 455 L 544 455 L 544 457 L 540 457 Z M 540 455 " clip-rule="nonzero"/></clipPath><clipPath id="45c8aa876f"><path d="M 273.625 448.503906 L 579.007812 412.476562 L 587.53125 484.722656 L 282.148438 520.75 Z M 273.625 448.503906 " clip-rule="nonzero"/></clipPath><clipPath id="365fea732f"><path d="M 273.625 448.503906 L 579.007812 412.476562 L 587.53125 484.722656 L 282.148438 520.75 Z M 273.625 448.503906 " clip-rule="nonzero"/></clipPath><clipPath id="acbd9fef8e"><path d="M 273.625 448.503906 L 579.007812 412.476562 L 587.53125 484.722656 L 282.148438 520.75 Z M 273.625 448.503906 " clip-rule="nonzero"/></clipPath><clipPath id="76a0b53260"><path d="M 309 465 L 331 465 L 331 486 L 309 486 Z M 309 465 " clip-rule="nonzero"/></clipPath><clipPath id="1a4a27c368"><path d="M 273.625 448.503906 L 579.007812 412.476562 L 587.53125 484.722656 L 282.148438 520.75 Z M 273.625 448.503906 " clip-rule="nonzero"/></clipPath><clipPath id="e5e8fc2e03"><path d="M 273.625 448.503906 L 579.007812 412.476562 L 587.53125 484.722656 L 282.148438 520.75 Z M 273.625 448.503906 " clip-rule="nonzero"/></clipPath><clipPath id="0596b3abed"><path d="M 273.625 448.503906 L 579.007812 412.476562 L 587.53125 484.722656 L 282.148438 520.75 Z M 273.625 448.503906 " clip-rule="nonzero"/></clipPath><clipPath id="cda50bbc96"><path d="M 311 467 L 329 467 L 329 484 L 311 484 Z M 311 467 " clip-rule="nonzero"/></clipPath><clipPath id="b0bb5285c4"><path d="M 273.625 448.503906 L 579.007812 412.476562 L 587.53125 484.722656 L 282.148438 520.75 Z M 273.625 448.503906 " clip-rule="nonzero"/></clipPath><clipPath id="c55236a020"><path d="M 273.625 448.503906 L 579.007812 412.476562 L 587.53125 484.722656 L 282.148438 520.75 Z M 273.625 448.503906 " clip-rule="nonzero"/></clipPath><clipPath id="faf537d14f"><path d="M 273.625 448.503906 L 579.007812 412.476562 L 587.53125 484.722656 L 282.148438 520.75 Z M 273.625 448.503906 " clip-rule="nonzero"/></clipPath><clipPath id="670f974b42"><path d="M 313 470 L 318 470 L 318 482 L 313 482 Z M 313 470 " clip-rule="nonzero"/></clipPath><clipPath id="68affacd05"><path d="M 273.625 448.503906 L 579.007812 412.476562 L 587.53125 484.722656 L 282.148438 520.75 Z M 273.625 448.503906 " clip-rule="nonzero"/></clipPath><clipPath id="956de2f393"><path d="M 273.625 448.503906 L 579.007812 412.476562 L 587.53125 484.722656 L 282.148438 520.75 Z M 273.625 448.503906 " clip-rule="nonzero"/></clipPath><clipPath id="78dd6cf660"><path d="M 273.625 448.503906 L 579.007812 412.476562 L 587.53125 484.722656 L 282.148438 520.75 Z M 273.625 448.503906 " clip-rule="nonzero"/></clipPath><clipPath id="3b5b932fd7"><path d="M 318 481 L 322 481 L 322 483 L 318 483 Z M 318 481 " clip-rule="nonzero"/></clipPath><clipPath id="71340c71e7"><path d="M 273.625 448.503906 L 579.007812 412.476562 L 587.53125 484.722656 L 282.148438 520.75 Z M 273.625 448.503906 " clip-rule="nonzero"/></clipPath><clipPath id="e64d131052"><path d="M 273.625 448.503906 L 579.007812 412.476562 L 587.53125 484.722656 L 282.148438 520.75 Z M 273.625 448.503906 " clip-rule="nonzero"/></clipPath><clipPath id="acd7cb3d24"><path d="M 273.625 448.503906 L 579.007812 412.476562 L 587.53125 484.722656 L 282.148438 520.75 Z M 273.625 448.503906 " clip-rule="nonzero"/></clipPath><clipPath id="04e33d7dbf"><path d="M 546 427 L 567 427 L 567 448 L 546 448 Z M 546 427 " clip-rule="nonzero"/></clipPath><clipPath id="d44f7cb9b0"><path d="M 273.625 448.503906 L 579.007812 412.476562 L 587.53125 484.722656 L 282.148438 520.75 Z M 273.625 448.503906 " clip-rule="nonzero"/></clipPath><clipPath id="4d928b97a6"><path d="M 273.625 448.503906 L 579.007812 412.476562 L 587.53125 484.722656 L 282.148438 520.75 Z M 273.625 448.503906 " clip-rule="nonzero"/></clipPath><clipPath id="ce85f5a179"><path d="M 273.625 448.503906 L 579.007812 412.476562 L 587.53125 484.722656 L 282.148438 520.75 Z M 273.625 448.503906 " clip-rule="nonzero"/></clipPath><clipPath id="cedaed0c6a"><path d="M 548 429 L 566 429 L 566 446 L 548 446 Z M 548 429 " clip-rule="nonzero"/></clipPath><clipPath id="d9ef489759"><path d="M 273.625 448.503906 L 579.007812 412.476562 L 587.53125 484.722656 L 282.148438 520.75 Z M 273.625 448.503906 " clip-rule="nonzero"/></clipPath><clipPath id="92d54a0ec2"><path d="M 273.625 448.503906 L 579.007812 412.476562 L 587.53125 484.722656 L 282.148438 520.75 Z M 273.625 448.503906 " clip-rule="nonzero"/></clipPath><clipPath id="7e913f53a9"><path d="M 273.625 448.503906 L 579.007812 412.476562 L 587.53125 484.722656 L 282.148438 520.75 Z M 273.625 448.503906 " clip-rule="nonzero"/></clipPath><clipPath id="664e853403"><path d="M 550 432 L 554 432 L 554 444 L 550 444 Z M 550 432 " clip-rule="nonzero"/></clipPath><clipPath id="5d2df7a80b"><path d="M 273.625 448.503906 L 579.007812 412.476562 L 587.53125 484.722656 L 282.148438 520.75 Z M 273.625 448.503906 " clip-rule="nonzero"/></clipPath><clipPath id="741e7cf2bd"><path d="M 273.625 448.503906 L 579.007812 412.476562 L 587.53125 484.722656 L 282.148438 520.75 Z M 273.625 448.503906 " clip-rule="nonzero"/></clipPath><clipPath id="c668ef5fb4"><path d="M 273.625 448.503906 L 579.007812 412.476562 L 587.53125 484.722656 L 282.148438 520.75 Z M 273.625 448.503906 " clip-rule="nonzero"/></clipPath><clipPath id="537046fc7f"><path d="M 555 443 L 559 443 L 559 445 L 555 445 Z M 555 443 " clip-rule="nonzero"/></clipPath><clipPath id="bd45541ad9"><path d="M 273.625 448.503906 L 579.007812 412.476562 L 587.53125 484.722656 L 282.148438 520.75 Z M 273.625 448.503906 " clip-rule="nonzero"/></clipPath><clipPath id="93c20157dd"><path d="M 273.625 448.503906 L 579.007812 412.476562 L 587.53125 484.722656 L 282.148438 520.75 Z M 273.625 448.503906 " clip-rule="nonzero"/></clipPath><clipPath id="85549d5845"><path d="M 273.625 448.503906 L 579.007812 412.476562 L 587.53125 484.722656 L 282.148438 520.75 Z M 273.625 448.503906 " clip-rule="nonzero"/></clipPath><clipPath id="63ab8d8d3e"><path d="M 292 457 L 313 457 L 313 478 L 292 478 Z M 292 457 " clip-rule="nonzero"/></clipPath><clipPath id="0bad9aadf6"><path d="M 273.625 448.503906 L 579.007812 412.476562 L 587.53125 484.722656 L 282.148438 520.75 Z M 273.625 448.503906 " clip-rule="nonzero"/></clipPath><clipPath id="7ec24fd0db"><path d="M 273.625 448.503906 L 579.007812 412.476562 L 587.53125 484.722656 L 282.148438 520.75 Z M 273.625 448.503906 " clip-rule="nonzero"/></clipPath><clipPath id="3e13384be5"><path d="M 273.625 448.503906 L 579.007812 412.476562 L 587.53125 484.722656 L 282.148438 520.75 Z M 273.625 448.503906 " clip-rule="nonzero"/></clipPath><clipPath id="77d0d9c337"><path d="M 293 459 L 312 459 L 312 477 L 293 477 Z M 293 459 " clip-rule="nonzero"/></clipPath><clipPath id="34c2fe2b7e"><path d="M 273.625 448.503906 L 579.007812 412.476562 L 587.53125 484.722656 L 282.148438 520.75 Z M 273.625 448.503906 " clip-rule="nonzero"/></clipPath><clipPath id="6b5b3169a7"><path d="M 273.625 448.503906 L 579.007812 412.476562 L 587.53125 484.722656 L 282.148438 520.75 Z M 273.625 448.503906 " clip-rule="nonzero"/></clipPath><clipPath id="b2abe71105"><path d="M 273.625 448.503906 L 579.007812 412.476562 L 587.53125 484.722656 L 282.148438 520.75 Z M 273.625 448.503906 " clip-rule="nonzero"/></clipPath><clipPath id="d6836c1c9c"><path d="M 295 462 L 300 462 L 300 474 L 295 474 Z M 295 462 " clip-rule="nonzero"/></clipPath><clipPath id="b7f4cd6c93"><path d="M 273.625 448.503906 L 579.007812 412.476562 L 587.53125 484.722656 L 282.148438 520.75 Z M 273.625 448.503906 " clip-rule="nonzero"/></clipPath><clipPath id="43252e85e5"><path d="M 273.625 448.503906 L 579.007812 412.476562 L 587.53125 484.722656 L 282.148438 520.75 Z M 273.625 448.503906 " clip-rule="nonzero"/></clipPath><clipPath id="00e6ce251f"><path d="M 273.625 448.503906 L 579.007812 412.476562 L 587.53125 484.722656 L 282.148438 520.75 Z M 273.625 448.503906 " clip-rule="nonzero"/></clipPath><clipPath id="4b6b9fa9b1"><path d="M 301 473 L 304 473 L 304 475 L 301 475 Z M 301 473 " clip-rule="nonzero"/></clipPath><clipPath id="251c133294"><path d="M 273.625 448.503906 L 579.007812 412.476562 L 587.53125 484.722656 L 282.148438 520.75 Z M 273.625 448.503906 " clip-rule="nonzero"/></clipPath><clipPath id="dc143a19e5"><path d="M 273.625 448.503906 L 579.007812 412.476562 L 587.53125 484.722656 L 282.148438 520.75 Z M 273.625 448.503906 " clip-rule="nonzero"/></clipPath><clipPath id="8678387f30"><path d="M 273.625 448.503906 L 579.007812 412.476562 L 587.53125 484.722656 L 282.148438 520.75 Z M 273.625 448.503906 " clip-rule="nonzero"/></clipPath><clipPath id="f91ed44707"><path d="M 560 414 L 581 414 L 581 434 L 560 434 Z M 560 414 " clip-rule="nonzero"/></clipPath><clipPath id="7e74e3b0db"><path d="M 273.625 448.503906 L 579.007812 412.476562 L 587.53125 484.722656 L 282.148438 520.75 Z M 273.625 448.503906 " clip-rule="nonzero"/></clipPath><clipPath id="eb644c0b8c"><path d="M 273.625 448.503906 L 579.007812 412.476562 L 587.53125 484.722656 L 282.148438 520.75 Z M 273.625 448.503906 " clip-rule="nonzero"/></clipPath><clipPath id="dff382a923"><path d="M 273.625 448.503906 L 579.007812 412.476562 L 587.53125 484.722656 L 282.148438 520.75 Z M 273.625 448.503906 " clip-rule="nonzero"/></clipPath><clipPath id="c97f360f0a"><path d="M 561 415 L 579 415 L 579 433 L 561 433 Z M 561 415 " clip-rule="nonzero"/></clipPath><clipPath id="1a5a6f2a94"><path d="M 273.625 448.503906 L 579.007812 412.476562 L 587.53125 484.722656 L 282.148438 520.75 Z M 273.625 448.503906 " clip-rule="nonzero"/></clipPath><clipPath id="028b255a8d"><path d="M 273.625 448.503906 L 579.007812 412.476562 L 587.53125 484.722656 L 282.148438 520.75 Z M 273.625 448.503906 " clip-rule="nonzero"/></clipPath><clipPath id="1112275353"><path d="M 273.625 448.503906 L 579.007812 412.476562 L 587.53125 484.722656 L 282.148438 520.75 Z M 273.625 448.503906 " clip-rule="nonzero"/></clipPath><clipPath id="bca7ec3cb4"><path d="M 563 419 L 568 419 L 568 430 L 563 430 Z M 563 419 " clip-rule="nonzero"/></clipPath><clipPath id="0b3cb0dfdf"><path d="M 273.625 448.503906 L 579.007812 412.476562 L 587.53125 484.722656 L 282.148438 520.75 Z M 273.625 448.503906 " clip-rule="nonzero"/></clipPath><clipPath id="2c6ffa3fb4"><path d="M 273.625 448.503906 L 579.007812 412.476562 L 587.53125 484.722656 L 282.148438 520.75 Z M 273.625 448.503906 " clip-rule="nonzero"/></clipPath><clipPath id="ac018e9611"><path d="M 273.625 448.503906 L 579.007812 412.476562 L 587.53125 484.722656 L 282.148438 520.75 Z M 273.625 448.503906 " clip-rule="nonzero"/></clipPath><clipPath id="624ae6061e"><path d="M 569 429 L 572 429 L 572 431 L 569 431 Z M 569 429 " clip-rule="nonzero"/></clipPath><clipPath id="590c0f529a"><path d="M 273.625 448.503906 L 579.007812 412.476562 L 587.53125 484.722656 L 282.148438 520.75 Z M 273.625 448.503906 " clip-rule="nonzero"/></clipPath><clipPath id="ae5a466513"><path d="M 273.625 448.503906 L 579.007812 412.476562 L 587.53125 484.722656 L 282.148438 520.75 Z M 273.625 448.503906 " clip-rule="nonzero"/></clipPath><clipPath id="1f19553acb"><path d="M 273.625 448.503906 L 579.007812 412.476562 L 587.53125 484.722656 L 282.148438 520.75 Z M 273.625 448.503906 " clip-rule="nonzero"/></clipPath><clipPath id="a2aa13407a"><path d="M 276 447 L 297 447 L 297 468 L 276 468 Z M 276 447 " clip-rule="nonzero"/></clipPath><clipPath id="916ed3287f"><path d="M 273.625 448.503906 L 579.007812 412.476562 L 587.53125 484.722656 L 282.148438 520.75 Z M 273.625 448.503906 " clip-rule="nonzero"/></clipPath><clipPath id="eca6dd1531"><path d="M 273.625 448.503906 L 579.007812 412.476562 L 587.53125 484.722656 L 282.148438 520.75 Z M 273.625 448.503906 " clip-rule="nonzero"/></clipPath><clipPath id="97b0c72f8d"><path d="M 273.625 448.503906 L 579.007812 412.476562 L 587.53125 484.722656 L 282.148438 520.75 Z M 273.625 448.503906 " clip-rule="nonzero"/></clipPath><clipPath id="7c21b642a4"><path d="M 277 449 L 295 449 L 295 466 L 277 466 Z M 277 449 " clip-rule="nonzero"/></clipPath><clipPath id="337cb3dc52"><path d="M 273.625 448.503906 L 579.007812 412.476562 L 587.53125 484.722656 L 282.148438 520.75 Z M 273.625 448.503906 " clip-rule="nonzero"/></clipPath><clipPath id="c81024e8fe"><path d="M 273.625 448.503906 L 579.007812 412.476562 L 587.53125 484.722656 L 282.148438 520.75 Z M 273.625 448.503906 " clip-rule="nonzero"/></clipPath><clipPath id="425b36de47"><path d="M 273.625 448.503906 L 579.007812 412.476562 L 587.53125 484.722656 L 282.148438 520.75 Z M 273.625 448.503906 " clip-rule="nonzero"/></clipPath><clipPath id="8eca313683"><path d="M 279 452 L 284 452 L 284 464 L 279 464 Z M 279 452 " clip-rule="nonzero"/></clipPath><clipPath id="ed6a402cc4"><path d="M 273.625 448.503906 L 579.007812 412.476562 L 587.53125 484.722656 L 282.148438 520.75 Z M 273.625 448.503906 " clip-rule="nonzero"/></clipPath><clipPath id="7277d03510"><path d="M 273.625 448.503906 L 579.007812 412.476562 L 587.53125 484.722656 L 282.148438 520.75 Z M 273.625 448.503906 " clip-rule="nonzero"/></clipPath><clipPath id="f94932bac9"><path d="M 273.625 448.503906 L 579.007812 412.476562 L 587.53125 484.722656 L 282.148438 520.75 Z M 273.625 448.503906 " clip-rule="nonzero"/></clipPath><clipPath id="7b9fe2d501"><path d="M 285 463 L 288 463 L 288 465 L 285 465 Z M 285 463 " clip-rule="nonzero"/></clipPath><clipPath id="d91a17839c"><path d="M 273.625 448.503906 L 579.007812 412.476562 L 587.53125 484.722656 L 282.148438 520.75 Z M 273.625 448.503906 " clip-rule="nonzero"/></clipPath><clipPath id="4e4c8ba116"><path d="M 273.625 448.503906 L 579.007812 412.476562 L 587.53125 484.722656 L 282.148438 520.75 Z M 273.625 448.503906 " clip-rule="nonzero"/></clipPath><clipPath id="e85aa73292"><path d="M 273.625 448.503906 L 579.007812 412.476562 L 587.53125 484.722656 L 282.148438 520.75 Z M 273.625 448.503906 " clip-rule="nonzero"/></clipPath><clipPath id="c289f33fd9"><path d="M 460 473 L 482 473 L 482 493 L 460 493 Z M 460 473 " clip-rule="nonzero"/></clipPath><clipPath id="dcb5604f8d"><path d="M 273.625 448.503906 L 579.007812 412.476562 L 587.53125 484.722656 L 282.148438 520.75 Z M 273.625 448.503906 " clip-rule="nonzero"/></clipPath><clipPath id="ec78e20cf7"><path d="M 273.625 448.503906 L 579.007812 412.476562 L 587.53125 484.722656 L 282.148438 520.75 Z M 273.625 448.503906 " clip-rule="nonzero"/></clipPath><clipPath id="a3bdb7568a"><path d="M 273.625 448.503906 L 579.007812 412.476562 L 587.53125 484.722656 L 282.148438 520.75 Z M 273.625 448.503906 " clip-rule="nonzero"/></clipPath><clipPath id="4705c89fd5"><path d="M 462 474 L 480 474 L 480 492 L 462 492 Z M 462 474 " clip-rule="nonzero"/></clipPath><clipPath id="62e770ef76"><path d="M 273.625 448.503906 L 579.007812 412.476562 L 587.53125 484.722656 L 282.148438 520.75 Z M 273.625 448.503906 " clip-rule="nonzero"/></clipPath><clipPath id="0c07455967"><path d="M 273.625 448.503906 L 579.007812 412.476562 L 587.53125 484.722656 L 282.148438 520.75 Z M 273.625 448.503906 " clip-rule="nonzero"/></clipPath><clipPath id="e350b89370"><path d="M 273.625 448.503906 L 579.007812 412.476562 L 587.53125 484.722656 L 282.148438 520.75 Z M 273.625 448.503906 " clip-rule="nonzero"/></clipPath><clipPath id="a3f4f62b03"><path d="M 464 478 L 469 478 L 469 490 L 464 490 Z M 464 478 " clip-rule="nonzero"/></clipPath><clipPath id="c07604aaa2"><path d="M 273.625 448.503906 L 579.007812 412.476562 L 587.53125 484.722656 L 282.148438 520.75 Z M 273.625 448.503906 " clip-rule="nonzero"/></clipPath><clipPath id="5c1e6ced3e"><path d="M 273.625 448.503906 L 579.007812 412.476562 L 587.53125 484.722656 L 282.148438 520.75 Z M 273.625 448.503906 " clip-rule="nonzero"/></clipPath><clipPath id="d3e5580050"><path d="M 273.625 448.503906 L 579.007812 412.476562 L 587.53125 484.722656 L 282.148438 520.75 Z M 273.625 448.503906 " clip-rule="nonzero"/></clipPath><clipPath id="6f53239dd8"><path d="M 469 489 L 473 489 L 473 490 L 469 490 Z M 469 489 " clip-rule="nonzero"/></clipPath><clipPath id="cdc55ffc58"><path d="M 273.625 448.503906 L 579.007812 412.476562 L 587.53125 484.722656 L 282.148438 520.75 Z M 273.625 448.503906 " clip-rule="nonzero"/></clipPath><clipPath id="e165a7e4c1"><path d="M 273.625 448.503906 L 579.007812 412.476562 L 587.53125 484.722656 L 282.148438 520.75 Z M 273.625 448.503906 " clip-rule="nonzero"/></clipPath><clipPath id="0311d32dbc"><path d="M 273.625 448.503906 L 579.007812 412.476562 L 587.53125 484.722656 L 282.148438 520.75 Z M 273.625 448.503906 " clip-rule="nonzero"/></clipPath><clipPath id="599b38928c"><path d="M 385 482 L 406 482 L 406 502 L 385 502 Z M 385 482 " clip-rule="nonzero"/></clipPath><clipPath id="60a8d554ad"><path d="M 273.625 448.503906 L 579.007812 412.476562 L 587.53125 484.722656 L 282.148438 520.75 Z M 273.625 448.503906 " clip-rule="nonzero"/></clipPath><clipPath id="5eb3fa5ca2"><path d="M 273.625 448.503906 L 579.007812 412.476562 L 587.53125 484.722656 L 282.148438 520.75 Z M 273.625 448.503906 " clip-rule="nonzero"/></clipPath><clipPath id="a0d8f27517"><path d="M 273.625 448.503906 L 579.007812 412.476562 L 587.53125 484.722656 L 282.148438 520.75 Z M 273.625 448.503906 " clip-rule="nonzero"/></clipPath><clipPath id="84751d8da1"><path d="M 386 483 L 405 483 L 405 501 L 386 501 Z M 386 483 " clip-rule="nonzero"/></clipPath><clipPath id="059d0063e2"><path d="M 273.625 448.503906 L 579.007812 412.476562 L 587.53125 484.722656 L 282.148438 520.75 Z M 273.625 448.503906 " clip-rule="nonzero"/></clipPath><clipPath id="e3533a380d"><path d="M 273.625 448.503906 L 579.007812 412.476562 L 587.53125 484.722656 L 282.148438 520.75 Z M 273.625 448.503906 " clip-rule="nonzero"/></clipPath><clipPath id="5d470495be"><path d="M 273.625 448.503906 L 579.007812 412.476562 L 587.53125 484.722656 L 282.148438 520.75 Z M 273.625 448.503906 " clip-rule="nonzero"/></clipPath><clipPath id="8759355187"><path d="M 388 487 L 393 487 L 393 498 L 388 498 Z M 388 487 " clip-rule="nonzero"/></clipPath><clipPath id="de95ec7f18"><path d="M 273.625 448.503906 L 579.007812 412.476562 L 587.53125 484.722656 L 282.148438 520.75 Z M 273.625 448.503906 " clip-rule="nonzero"/></clipPath><clipPath id="9a492dbdab"><path d="M 273.625 448.503906 L 579.007812 412.476562 L 587.53125 484.722656 L 282.148438 520.75 Z M 273.625 448.503906 " clip-rule="nonzero"/></clipPath><clipPath id="46ab1646fe"><path d="M 273.625 448.503906 L 579.007812 412.476562 L 587.53125 484.722656 L 282.148438 520.75 Z M 273.625 448.503906 " clip-rule="nonzero"/></clipPath><clipPath id="488aac777c"><path d="M 394 497 L 397 497 L 397 499 L 394 499 Z M 394 497 " clip-rule="nonzero"/></clipPath><clipPath id="2d0e6f366b"><path d="M 273.625 448.503906 L 579.007812 412.476562 L 587.53125 484.722656 L 282.148438 520.75 Z M 273.625 448.503906 " clip-rule="nonzero"/></clipPath><clipPath id="1e63c53e40"><path d="M 273.625 448.503906 L 579.007812 412.476562 L 587.53125 484.722656 L 282.148438 520.75 Z M 273.625 448.503906 " clip-rule="nonzero"/></clipPath><clipPath id="d97d990863"><path d="M 273.625 448.503906 L 579.007812 412.476562 L 587.53125 484.722656 L 282.148438 520.75 Z M 273.625 448.503906 " clip-rule="nonzero"/></clipPath><clipPath id="747d1bee29"><path d="M 442 478 L 463 478 L 463 499 L 442 499 Z M 442 478 " clip-rule="nonzero"/></clipPath><clipPath id="368e6d57d6"><path d="M 273.625 448.503906 L 579.007812 412.476562 L 587.53125 484.722656 L 282.148438 520.75 Z M 273.625 448.503906 " clip-rule="nonzero"/></clipPath><clipPath id="3db936b8f1"><path d="M 273.625 448.503906 L 579.007812 412.476562 L 587.53125 484.722656 L 282.148438 520.75 Z M 273.625 448.503906 " clip-rule="nonzero"/></clipPath><clipPath id="e915e33851"><path d="M 273.625 448.503906 L 579.007812 412.476562 L 587.53125 484.722656 L 282.148438 520.75 Z M 273.625 448.503906 " clip-rule="nonzero"/></clipPath><clipPath id="73e8bfc6fc"><path d="M 444 479 L 462 479 L 462 497 L 444 497 Z M 444 479 " clip-rule="nonzero"/></clipPath><clipPath id="7f3539a491"><path d="M 273.625 448.503906 L 579.007812 412.476562 L 587.53125 484.722656 L 282.148438 520.75 Z M 273.625 448.503906 " clip-rule="nonzero"/></clipPath><clipPath id="52498cb11b"><path d="M 273.625 448.503906 L 579.007812 412.476562 L 587.53125 484.722656 L 282.148438 520.75 Z M 273.625 448.503906 " clip-rule="nonzero"/></clipPath><clipPath id="e6a99c91a4"><path d="M 273.625 448.503906 L 579.007812 412.476562 L 587.53125 484.722656 L 282.148438 520.75 Z M 273.625 448.503906 " clip-rule="nonzero"/></clipPath><clipPath id="0749831c72"><path d="M 446 483 L 450 483 L 450 495 L 446 495 Z M 446 483 " clip-rule="nonzero"/></clipPath><clipPath id="d8b906c00a"><path d="M 273.625 448.503906 L 579.007812 412.476562 L 587.53125 484.722656 L 282.148438 520.75 Z M 273.625 448.503906 " clip-rule="nonzero"/></clipPath><clipPath id="8cbd93267d"><path d="M 273.625 448.503906 L 579.007812 412.476562 L 587.53125 484.722656 L 282.148438 520.75 Z M 273.625 448.503906 " clip-rule="nonzero"/></clipPath><clipPath id="ee0df9550a"><path d="M 273.625 448.503906 L 579.007812 412.476562 L 587.53125 484.722656 L 282.148438 520.75 Z M 273.625 448.503906 " clip-rule="nonzero"/></clipPath><clipPath id="3ddec80b2c"><path d="M 451 494 L 455 494 L 455 496 L 451 496 Z M 451 494 " clip-rule="nonzero"/></clipPath><clipPath id="b2511e73d3"><path d="M 273.625 448.503906 L 579.007812 412.476562 L 587.53125 484.722656 L 282.148438 520.75 Z M 273.625 448.503906 " clip-rule="nonzero"/></clipPath><clipPath id="566bf0c85f"><path d="M 273.625 448.503906 L 579.007812 412.476562 L 587.53125 484.722656 L 282.148438 520.75 Z M 273.625 448.503906 " clip-rule="nonzero"/></clipPath><clipPath id="2653f25f7c"><path d="M 273.625 448.503906 L 579.007812 412.476562 L 587.53125 484.722656 L 282.148438 520.75 Z M 273.625 448.503906 " clip-rule="nonzero"/></clipPath><clipPath id="f970e84336"><path d="M 423 482 L 445 482 L 445 503 L 423 503 Z M 423 482 " clip-rule="nonzero"/></clipPath><clipPath id="d944663b5c"><path d="M 273.625 448.503906 L 579.007812 412.476562 L 587.53125 484.722656 L 282.148438 520.75 Z M 273.625 448.503906 " clip-rule="nonzero"/></clipPath><clipPath id="6900ef940e"><path d="M 273.625 448.503906 L 579.007812 412.476562 L 587.53125 484.722656 L 282.148438 520.75 Z M 273.625 448.503906 " clip-rule="nonzero"/></clipPath><clipPath id="367106e981"><path d="M 273.625 448.503906 L 579.007812 412.476562 L 587.53125 484.722656 L 282.148438 520.75 Z M 273.625 448.503906 " clip-rule="nonzero"/></clipPath><clipPath id="fd08dc38a4"><path d="M 425 484 L 443 484 L 443 501 L 425 501 Z M 425 484 " clip-rule="nonzero"/></clipPath><clipPath id="4e4c12afac"><path d="M 273.625 448.503906 L 579.007812 412.476562 L 587.53125 484.722656 L 282.148438 520.75 Z M 273.625 448.503906 " clip-rule="nonzero"/></clipPath><clipPath id="900ba8e178"><path d="M 273.625 448.503906 L 579.007812 412.476562 L 587.53125 484.722656 L 282.148438 520.75 Z M 273.625 448.503906 " clip-rule="nonzero"/></clipPath><clipPath id="dc43544507"><path d="M 273.625 448.503906 L 579.007812 412.476562 L 587.53125 484.722656 L 282.148438 520.75 Z M 273.625 448.503906 " clip-rule="nonzero"/></clipPath><clipPath id="cf36a6afbe"><path d="M 427 487 L 432 487 L 432 499 L 427 499 Z M 427 487 " clip-rule="nonzero"/></clipPath><clipPath id="619bedee35"><path d="M 273.625 448.503906 L 579.007812 412.476562 L 587.53125 484.722656 L 282.148438 520.75 Z M 273.625 448.503906 " clip-rule="nonzero"/></clipPath><clipPath id="a42b9b6308"><path d="M 273.625 448.503906 L 579.007812 412.476562 L 587.53125 484.722656 L 282.148438 520.75 Z M 273.625 448.503906 " clip-rule="nonzero"/></clipPath><clipPath id="dc98b893bf"><path d="M 273.625 448.503906 L 579.007812 412.476562 L 587.53125 484.722656 L 282.148438 520.75 Z M 273.625 448.503906 " clip-rule="nonzero"/></clipPath><clipPath id="52f021c6db"><path d="M 432 498 L 436 498 L 436 500 L 432 500 Z M 432 498 " clip-rule="nonzero"/></clipPath><clipPath id="ebd8feb1e4"><path d="M 273.625 448.503906 L 579.007812 412.476562 L 587.53125 484.722656 L 282.148438 520.75 Z M 273.625 448.503906 " clip-rule="nonzero"/></clipPath><clipPath id="68161f4076"><path d="M 273.625 448.503906 L 579.007812 412.476562 L 587.53125 484.722656 L 282.148438 520.75 Z M 273.625 448.503906 " clip-rule="nonzero"/></clipPath><clipPath id="8c0bf5d7ce"><path d="M 273.625 448.503906 L 579.007812 412.476562 L 587.53125 484.722656 L 282.148438 520.75 Z M 273.625 448.503906 " clip-rule="nonzero"/></clipPath><clipPath id="22fffbdef4"><path d="M 404 482 L 425 482 L 425 503 L 404 503 Z M 404 482 " clip-rule="nonzero"/></clipPath><clipPath id="aa3a534e55"><path d="M 273.625 448.503906 L 579.007812 412.476562 L 587.53125 484.722656 L 282.148438 520.75 Z M 273.625 448.503906 " clip-rule="nonzero"/></clipPath><clipPath id="da181e33f6"><path d="M 273.625 448.503906 L 579.007812 412.476562 L 587.53125 484.722656 L 282.148438 520.75 Z M 273.625 448.503906 " clip-rule="nonzero"/></clipPath><clipPath id="c51b2a2937"><path d="M 273.625 448.503906 L 579.007812 412.476562 L 587.53125 484.722656 L 282.148438 520.75 Z M 273.625 448.503906 " clip-rule="nonzero"/></clipPath><clipPath id="9cb44c8dab"><path d="M 405 484 L 424 484 L 424 502 L 405 502 Z M 405 484 " clip-rule="nonzero"/></clipPath><clipPath id="3ca58baa9d"><path d="M 273.625 448.503906 L 579.007812 412.476562 L 587.53125 484.722656 L 282.148438 520.75 Z M 273.625 448.503906 " clip-rule="nonzero"/></clipPath><clipPath id="e0c1be901b"><path d="M 273.625 448.503906 L 579.007812 412.476562 L 587.53125 484.722656 L 282.148438 520.75 Z M 273.625 448.503906 " clip-rule="nonzero"/></clipPath><clipPath id="fff1432392"><path d="M 273.625 448.503906 L 579.007812 412.476562 L 587.53125 484.722656 L 282.148438 520.75 Z M 273.625 448.503906 " clip-rule="nonzero"/></clipPath><clipPath id="bd80e0c04d"><path d="M 407 487 L 412 487 L 412 499 L 407 499 Z M 407 487 " clip-rule="nonzero"/></clipPath><clipPath id="fc0a6ad808"><path d="M 273.625 448.503906 L 579.007812 412.476562 L 587.53125 484.722656 L 282.148438 520.75 Z M 273.625 448.503906 " clip-rule="nonzero"/></clipPath><clipPath id="ef915c4b21"><path d="M 273.625 448.503906 L 579.007812 412.476562 L 587.53125 484.722656 L 282.148438 520.75 Z M 273.625 448.503906 " clip-rule="nonzero"/></clipPath><clipPath id="41eb8b8cdb"><path d="M 273.625 448.503906 L 579.007812 412.476562 L 587.53125 484.722656 L 282.148438 520.75 Z M 273.625 448.503906 " clip-rule="nonzero"/></clipPath><clipPath id="7f6d50da73"><path d="M 413 498 L 416 498 L 416 500 L 413 500 Z M 413 498 " clip-rule="nonzero"/></clipPath><clipPath id="26c14f459d"><path d="M 273.625 448.503906 L 579.007812 412.476562 L 587.53125 484.722656 L 282.148438 520.75 Z M 273.625 448.503906 " clip-rule="nonzero"/></clipPath><clipPath id="838be2a405"><path d="M 273.625 448.503906 L 579.007812 412.476562 L 587.53125 484.722656 L 282.148438 520.75 Z M 273.625 448.503906 " clip-rule="nonzero"/></clipPath><clipPath id="45365006d3"><path d="M 273.625 448.503906 L 579.007812 412.476562 L 587.53125 484.722656 L 282.148438 520.75 Z M 273.625 448.503906 " clip-rule="nonzero"/></clipPath></defs><g clip-path="url(#e1356d6af0)"><g clip-path="url(#b970e2da31)"><g clip-path="url(#bdde2df25c)"><g clip-path="url(#27e8caf5b9)"><path fill="#e48593" d="M 480.457031 474.144531 C 481.5625 470.667969 484.277344 467.714844 487.867188 466.769531 C 491.589844 465.785156 495.964844 467.261719 498.394531 470.226562 C 499.082031 471.066406 499.511719 472.074219 499.785156 473.121094 C 500.050781 474.132812 500.308594 475.34375 500.253906 476.398438 C 500.207031 477.25 500.070312 478.066406 499.859375 478.839844 C 498.703125 482.976562 494.238281 486.121094 489.984375 486.085938 C 489.007812 486.078125 487.957031 485.949219 487.035156 485.617188 C 482.492188 483.964844 478.878906 479.09375 480.457031 474.144531 Z M 480.457031 474.144531 " fill-opacity="1" fill-rule="nonzero"/></g></g></g></g><g clip-path="url(#ac03bc832b)"><g clip-path="url(#b79e976a74)"><g clip-path="url(#f248fbf7a5)"><g clip-path="url(#4b14f7a26c)"><path fill="#f7d7dc" d="M 490.621094 484.578125 C 494.15625 484.242188 497.605469 481.632812 498.503906 478.144531 C 499.503906 474.285156 497.6875 470.398438 494.082031 468.625 C 491.789062 467.492188 488.792969 467.523438 486.554688 468.824219 C 484.640625 469.941406 483.195312 471.371094 482.351562 473.46875 C 482.03125 474.269531 481.785156 475.105469 481.660156 475.960938 C 481.457031 477.363281 481.589844 478.8125 482.167969 480.117188 C 483.585938 483.308594 487.253906 484.898438 490.621094 484.578125 Z M 490.621094 484.578125 " fill-opacity="1" fill-rule="nonzero"/></g></g></g></g><g clip-path="url(#c449427df6)"><g clip-path="url(#061597719e)"><g clip-path="url(#3446f81110)"><g clip-path="url(#12fcee6834)"><path fill="#ffffff" d="M 485.925781 472.34375 C 486.09375 471.859375 486.144531 471.425781 485.746094 471.460938 C 485.34375 471.492188 485.089844 471.886719 484.875 472.183594 C 484.15625 473.183594 483.667969 474.308594 483.625 475.550781 C 483.363281 478.15625 484.21875 481.058594 486.757812 482.234375 C 486.839844 482.28125 486.90625 482.292969 486.964844 482.289062 C 487.242188 482.253906 487.28125 481.699219 487.109375 481.476562 C 487.074219 481.410156 487.023438 481.359375 486.964844 481.316406 C 486.855469 481.074219 486.597656 480.867188 486.480469 480.605469 C 485.214844 478.535156 484.839844 475.9375 485.402344 473.570312 C 485.433594 473.4375 485.746094 472.859375 485.925781 472.34375 Z M 485.925781 472.34375 " fill-opacity="1" fill-rule="nonzero"/></g></g></g></g><g clip-path="url(#dedcc8a377)"><g clip-path="url(#952e929d4a)"><g clip-path="url(#35bf4ec85d)"><g clip-path="url(#fd0ccf480a)"><path fill="#ffffff" d="M 490.945312 482.421875 C 490.535156 482.316406 490.101562 482.320312 489.679688 482.304688 C 489.464844 482.308594 489.101562 482.300781 489.023438 482.539062 C 488.980469 483.300781 490.238281 483.15625 490.757812 483.207031 C 490.828125 483.195312 490.90625 483.191406 490.984375 483.1875 C 491.058594 483.183594 491.128906 483.179688 491.203125 483.171875 C 491.296875 483.160156 491.390625 483.140625 491.480469 483.101562 C 491.777344 482.796875 491.21875 482.46875 490.945312 482.421875 Z M 490.945312 482.421875 " fill-opacity="1" fill-rule="nonzero"/></g></g></g></g><g clip-path="url(#e52222c9eb)"><g clip-path="url(#ae4f206724)"><g clip-path="url(#68ef7b851b)"><g clip-path="url(#58f2e882c8)"><path fill="#e48593" d="M 366.574219 487.578125 C 367.679688 484.105469 370.394531 481.152344 373.984375 480.203125 C 377.710938 479.21875 382.085938 480.695312 384.511719 483.660156 C 385.203125 484.5 385.628906 485.507812 385.902344 486.554688 C 386.167969 487.566406 386.429688 488.78125 386.371094 489.832031 C 386.328125 490.683594 386.191406 491.503906 385.976562 492.273438 C 384.820312 496.410156 380.355469 499.554688 376.105469 499.519531 C 375.128906 499.511719 374.078125 499.386719 373.15625 499.050781 C 368.609375 497.398438 365 492.527344 366.574219 487.578125 Z M 366.574219 487.578125 " fill-opacity="1" fill-rule="nonzero"/></g></g></g></g><g clip-path="url(#280580d749)"><g clip-path="url(#bcb60aeed3)"><g clip-path="url(#fbe23b22ab)"><g clip-path="url(#9b96489271)"><path fill="#f7d7dc" d="M 376.742188 498.015625 C 380.277344 497.679688 383.722656 495.066406 384.625 491.582031 C 385.625 487.722656 383.804688 483.835938 380.203125 482.058594 C 377.910156 480.929688 374.914062 480.957031 372.675781 482.261719 C 370.757812 483.378906 369.316406 484.808594 368.472656 486.902344 C 368.152344 487.707031 367.90625 488.539062 367.78125 489.394531 C 367.578125 490.796875 367.707031 492.25 368.285156 493.550781 C 369.703125 496.742188 373.375 498.332031 376.738281 498.011719 Z M 376.742188 498.015625 " fill-opacity="1" fill-rule="nonzero"/></g></g></g></g><g clip-path="url(#751207be44)"><g clip-path="url(#dc4f6e2cc4)"><g clip-path="url(#4a46bd11ea)"><g clip-path="url(#cc1c26e524)"><path fill="#ffffff" d="M 372.042969 485.78125 C 372.214844 485.296875 372.265625 484.863281 371.863281 484.894531 C 371.460938 484.925781 371.210938 485.324219 370.992188 485.617188 C 370.273438 486.617188 369.789062 487.742188 369.746094 488.984375 C 369.484375 491.59375 370.339844 494.496094 372.878906 495.667969 C 372.957031 495.714844 373.027344 495.730469 373.082031 495.722656 C 373.363281 495.691406 373.398438 495.136719 373.230469 494.910156 C 373.195312 494.847656 373.144531 494.792969 373.085938 494.753906 C 372.972656 494.511719 372.71875 494.300781 372.597656 494.042969 C 371.332031 491.96875 370.960938 489.375 371.523438 487.003906 C 371.554688 486.871094 371.867188 486.296875 372.042969 485.78125 Z M 372.042969 485.78125 " fill-opacity="1" fill-rule="nonzero"/></g></g></g></g><g clip-path="url(#9a9c7971ef)"><g clip-path="url(#dffe0fc398)"><g clip-path="url(#755996263e)"><g clip-path="url(#56db3b8dae)"><path fill="#ffffff" d="M 377.0625 495.859375 C 376.652344 495.753906 376.21875 495.753906 375.800781 495.742188 C 375.582031 495.742188 375.222656 495.734375 375.140625 495.976562 C 375.097656 496.734375 376.355469 496.59375 376.875 496.640625 C 376.949219 496.628906 377.027344 496.625 377.101562 496.621094 C 377.175781 496.617188 377.25 496.613281 377.320312 496.605469 C 377.414062 496.59375 377.511719 496.574219 377.601562 496.535156 C 377.894531 496.234375 377.339844 495.90625 377.0625 495.859375 Z M 377.0625 495.859375 " fill-opacity="1" fill-rule="nonzero"/></g></g></g></g><g clip-path="url(#94c655fe50)"><g clip-path="url(#a9a07d85e8)"><g clip-path="url(#217fced3e5)"><g clip-path="url(#78758b5e3e)"><path fill="#e48593" d="M 498.300781 466.410156 C 499.410156 462.9375 502.121094 459.984375 505.714844 459.035156 C 509.4375 458.050781 513.8125 459.53125 516.238281 462.496094 C 516.929688 463.335938 517.355469 464.34375 517.628906 465.386719 C 517.894531 466.402344 518.15625 467.613281 518.097656 468.667969 C 518.054688 469.519531 517.917969 470.335938 517.703125 471.109375 C 516.546875 475.246094 512.085938 478.390625 507.832031 478.355469 C 506.855469 478.347656 505.804688 478.21875 504.882812 477.882812 C 500.335938 476.234375 496.726562 471.363281 498.300781 466.414062 Z M 498.300781 466.410156 " fill-opacity="1" fill-rule="nonzero"/></g></g></g></g><g clip-path="url(#a25fc190ec)"><g clip-path="url(#ac5cd88ec0)"><g clip-path="url(#da88d85374)"><g clip-path="url(#b89e792cc8)"><path fill="#f7d7dc" d="M 508.46875 476.847656 C 512.003906 476.511719 515.449219 473.902344 516.351562 470.414062 C 517.351562 466.554688 515.53125 462.667969 511.929688 460.890625 C 509.636719 459.761719 506.640625 459.789062 504.402344 461.09375 C 502.484375 462.210938 501.042969 463.640625 500.199219 465.738281 C 499.878906 466.539062 499.632812 467.375 499.507812 468.230469 C 499.304688 469.632812 499.433594 471.082031 500.011719 472.386719 C 501.429688 475.578125 505.101562 477.167969 508.464844 476.847656 Z M 508.46875 476.847656 " fill-opacity="1" fill-rule="nonzero"/></g></g></g></g><g clip-path="url(#4298b923b9)"><g clip-path="url(#f66d98f208)"><g clip-path="url(#3618d9b2be)"><g clip-path="url(#c5c3f11460)"><path fill="#ffffff" d="M 503.769531 464.613281 C 503.9375 464.128906 503.992188 463.695312 503.589844 463.726562 C 503.1875 463.757812 502.9375 464.15625 502.71875 464.453125 C 502 465.449219 501.515625 466.578125 501.472656 467.816406 C 501.210938 470.425781 502.066406 473.328125 504.605469 474.503906 C 504.683594 474.546875 504.753906 474.5625 504.808594 474.554688 C 505.089844 474.523438 505.125 473.96875 504.957031 473.742188 C 504.921875 473.679688 504.871094 473.625 504.8125 473.585938 C 504.699219 473.34375 504.445312 473.132812 504.324219 472.875 C 503.058594 470.800781 502.6875 468.207031 503.25 465.835938 C 503.28125 465.703125 503.59375 465.128906 503.769531 464.613281 Z M 503.769531 464.613281 " fill-opacity="1" fill-rule="nonzero"/></g></g></g></g><g clip-path="url(#7a51fb681c)"><g clip-path="url(#e0c9cb6ea3)"><g clip-path="url(#25c59c98b9)"><g clip-path="url(#23ff9d4544)"><path fill="#ffffff" d="M 508.789062 474.691406 C 508.378906 474.585938 507.945312 474.589844 507.527344 474.574219 C 507.308594 474.578125 506.949219 474.570312 506.867188 474.808594 C 506.824219 475.570312 508.082031 475.425781 508.601562 475.476562 C 508.675781 475.464844 508.753906 475.460938 508.828125 475.457031 C 508.902344 475.453125 508.976562 475.449219 509.046875 475.441406 C 509.140625 475.429688 509.238281 475.410156 509.328125 475.371094 C 509.621094 475.066406 509.066406 474.738281 508.789062 474.691406 Z M 508.789062 474.691406 " fill-opacity="1" fill-rule="nonzero"/></g></g></g></g><g clip-path="url(#4458c4bd74)"><g clip-path="url(#89fd26cfaa)"><g clip-path="url(#554e6218cf)"><g clip-path="url(#aceb0c2c64)"><path fill="#e48593" d="M 347.703125 483.921875 C 348.8125 480.445312 351.523438 477.496094 355.117188 476.546875 C 358.839844 475.5625 363.214844 477.039062 365.644531 480.003906 C 366.332031 480.84375 366.761719 481.851562 367.035156 482.898438 C 367.300781 483.910156 367.558594 485.125 367.503906 486.175781 C 367.457031 487.027344 367.320312 487.84375 367.105469 488.617188 C 365.949219 492.753906 361.488281 495.898438 357.234375 495.863281 C 356.257812 495.855469 355.207031 495.730469 354.285156 495.394531 C 349.738281 493.742188 346.128906 488.871094 347.703125 483.921875 Z M 347.703125 483.921875 " fill-opacity="1" fill-rule="nonzero"/></g></g></g></g><g clip-path="url(#dbb7672225)"><g clip-path="url(#afa978cc4a)"><g clip-path="url(#4b0e7f0713)"><g clip-path="url(#5fe9825ca7)"><path fill="#f7d7dc" d="M 357.871094 494.355469 C 361.40625 494.019531 364.855469 491.410156 365.753906 487.925781 C 366.753906 484.0625 364.9375 480.175781 361.332031 478.402344 C 359.039062 477.269531 356.042969 477.300781 353.804688 478.605469 C 351.890625 479.71875 350.445312 481.148438 349.601562 483.246094 C 349.28125 484.046875 349.035156 484.882812 348.910156 485.738281 C 348.707031 487.140625 348.839844 488.589844 349.417969 489.894531 C 350.835938 493.085938 354.503906 494.675781 357.871094 494.355469 Z M 357.871094 494.355469 " fill-opacity="1" fill-rule="nonzero"/></g></g></g></g><g clip-path="url(#9fc4dd1a33)"><g clip-path="url(#1e533b0dbf)"><g clip-path="url(#519c63cb65)"><g clip-path="url(#57b8ce1e58)"><path fill="#ffffff" d="M 353.175781 482.121094 C 353.34375 481.636719 353.394531 481.207031 352.992188 481.238281 C 352.59375 481.269531 352.339844 481.664062 352.125 481.960938 C 351.40625 482.960938 350.917969 484.085938 350.875 485.328125 C 350.613281 487.933594 351.46875 490.835938 354.007812 492.011719 C 354.089844 492.058594 354.15625 492.074219 354.214844 492.066406 C 354.492188 492.03125 354.53125 491.480469 354.359375 491.253906 C 354.324219 491.191406 354.273438 491.136719 354.214844 491.09375 C 354.101562 490.855469 353.847656 490.644531 353.730469 490.386719 C 352.464844 488.3125 352.089844 485.714844 352.652344 483.347656 C 352.683594 483.214844 352.996094 482.636719 353.175781 482.121094 Z M 353.175781 482.121094 " fill-opacity="1" fill-rule="nonzero"/></g></g></g></g><g clip-path="url(#6dbfc2a084)"><g clip-path="url(#9b753cab9f)"><g clip-path="url(#ae176b580f)"><g clip-path="url(#3eaf3d3682)"><path fill="#ffffff" d="M 358.195312 492.203125 C 357.78125 492.09375 357.351562 492.097656 356.929688 492.085938 C 356.710938 492.085938 356.351562 492.078125 356.273438 492.320312 C 356.230469 493.078125 357.484375 492.933594 358.003906 492.984375 C 358.078125 492.972656 358.15625 492.96875 358.234375 492.964844 C 358.304688 492.960938 358.378906 492.957031 358.449219 492.949219 C 358.546875 492.9375 358.640625 492.917969 358.730469 492.878906 C 359.027344 492.574219 358.46875 492.246094 358.195312 492.203125 Z M 358.195312 492.203125 " fill-opacity="1" fill-rule="nonzero"/></g></g></g></g><g clip-path="url(#7ed2dd26cf)"><g clip-path="url(#8aea6261cd)"><g clip-path="url(#2bf81fc5ca)"><g clip-path="url(#6e3aeac5a8)"><path fill="#e48593" d="M 515.164062 457.199219 C 516.273438 453.726562 518.984375 450.773438 522.578125 449.824219 C 526.300781 448.839844 530.675781 450.316406 533.105469 453.28125 C 533.792969 454.125 534.222656 455.128906 534.496094 456.175781 C 534.761719 457.1875 535.019531 458.402344 534.964844 459.453125 C 534.917969 460.308594 534.78125 461.125 534.566406 461.894531 C 533.410156 466.035156 528.949219 469.175781 524.695312 469.144531 C 523.71875 469.132812 522.667969 469.007812 521.746094 468.671875 C 517.199219 467.023438 513.589844 462.148438 515.164062 457.199219 Z M 515.164062 457.199219 " fill-opacity="1" fill-rule="nonzero"/></g></g></g></g><g clip-path="url(#042363306c)"><g clip-path="url(#85d4e6b52a)"><g clip-path="url(#aab35a1d27)"><g clip-path="url(#fada5e7c90)"><path fill="#f7d7dc" d="M 525.332031 467.636719 C 528.867188 467.300781 532.316406 464.6875 533.214844 461.203125 C 534.214844 457.34375 532.398438 453.457031 528.792969 451.679688 C 526.5 450.550781 523.503906 450.578125 521.265625 451.882812 C 519.351562 453 517.90625 454.429688 517.0625 456.523438 C 516.742188 457.328125 516.496094 458.160156 516.371094 459.015625 C 516.167969 460.417969 516.300781 461.871094 516.878906 463.171875 C 518.296875 466.363281 521.964844 467.953125 525.332031 467.632812 Z M 525.332031 467.636719 " fill-opacity="1" fill-rule="nonzero"/></g></g></g></g><g clip-path="url(#fff06d038c)"><g clip-path="url(#ed765bae34)"><g clip-path="url(#b96f2eb05c)"><g clip-path="url(#bc2b5e0135)"><path fill="#ffffff" d="M 520.636719 455.402344 C 520.804688 454.917969 520.855469 454.484375 520.453125 454.515625 C 520.054688 454.546875 519.800781 454.945312 519.585938 455.238281 C 518.867188 456.238281 518.378906 457.363281 518.335938 458.605469 C 518.074219 461.214844 518.929688 464.117188 521.46875 465.289062 C 521.546875 465.335938 521.617188 465.351562 521.675781 465.34375 C 521.953125 465.3125 521.992188 464.757812 521.820312 464.53125 C 521.785156 464.46875 521.734375 464.414062 521.675781 464.375 C 521.5625 464.132812 521.308594 463.921875 521.191406 463.664062 C 519.925781 461.589844 519.550781 458.996094 520.113281 456.625 C 520.144531 456.492188 520.457031 455.917969 520.636719 455.402344 Z M 520.636719 455.402344 " fill-opacity="1" fill-rule="nonzero"/></g></g></g></g><g clip-path="url(#7c41dc0de3)"><g clip-path="url(#f657d05e2b)"><g clip-path="url(#15a78cb0c2)"><g clip-path="url(#7d10c547c5)"><path fill="#ffffff" d="M 525.65625 465.480469 C 525.242188 465.375 524.8125 465.375 524.390625 465.363281 C 524.171875 465.367188 523.8125 465.359375 523.734375 465.597656 C 523.691406 466.355469 524.949219 466.214844 525.46875 466.261719 C 525.539062 466.253906 525.617188 466.25 525.695312 466.242188 C 525.765625 466.242188 525.839844 466.234375 525.910156 466.226562 C 526.007812 466.214844 526.101562 466.195312 526.191406 466.160156 C 526.488281 465.855469 525.929688 465.527344 525.65625 465.480469 Z M 525.65625 465.480469 " fill-opacity="1" fill-rule="nonzero"/></g></g></g></g><g clip-path="url(#88c1f0f22a)"><g clip-path="url(#3cd265a1ea)"><g clip-path="url(#8b41545b34)"><g clip-path="url(#9442dbfaef)"><path fill="#e48593" d="M 328.917969 479.324219 C 330.023438 475.851562 332.738281 472.898438 336.328125 471.949219 C 340.050781 470.964844 344.425781 472.445312 346.855469 475.410156 C 347.542969 476.25 347.972656 477.257812 348.246094 478.304688 C 348.511719 479.316406 348.769531 480.527344 348.714844 481.582031 C 348.667969 482.433594 348.535156 483.25 348.320312 484.023438 C 347.164062 488.160156 342.699219 491.304688 338.445312 491.269531 C 337.472656 491.261719 336.417969 491.132812 335.496094 490.800781 C 330.953125 489.148438 327.339844 484.277344 328.917969 479.328125 Z M 328.917969 479.324219 " fill-opacity="1" fill-rule="nonzero"/></g></g></g></g><g clip-path="url(#152ad1bd07)"><g clip-path="url(#55a338843b)"><g clip-path="url(#45649a3c0e)"><g clip-path="url(#2cfba1d325)"><path fill="#f7d7dc" d="M 339.082031 489.761719 C 342.621094 489.425781 346.066406 486.816406 346.96875 483.328125 C 347.964844 479.46875 346.148438 475.582031 342.546875 473.804688 C 340.25 472.675781 337.257812 472.703125 335.019531 474.007812 C 333.101562 475.125 331.65625 476.554688 330.816406 478.648438 C 330.492188 479.453125 330.25 480.289062 330.125 481.144531 C 329.917969 482.546875 330.050781 483.996094 330.628906 485.300781 C 332.046875 488.492188 335.71875 490.078125 339.082031 489.761719 Z M 339.082031 489.761719 " fill-opacity="1" fill-rule="nonzero"/></g></g></g></g><g clip-path="url(#10bfe4360e)"><g clip-path="url(#bde09aac11)"><g clip-path="url(#d788a952ca)"><g clip-path="url(#e7fc5f6505)"><path fill="#ffffff" d="M 334.386719 477.527344 C 334.554688 477.042969 334.609375 476.609375 334.207031 476.640625 C 333.804688 476.671875 333.554688 477.070312 333.335938 477.367188 C 332.617188 478.363281 332.128906 479.492188 332.089844 480.730469 C 331.824219 483.339844 332.679688 486.242188 335.222656 487.417969 C 335.300781 487.460938 335.367188 487.476562 335.425781 487.46875 C 335.703125 487.4375 335.742188 486.882812 335.570312 486.65625 C 335.539062 486.59375 335.488281 486.539062 335.425781 486.5 C 335.316406 486.257812 335.058594 486.046875 334.941406 485.789062 C 333.675781 483.714844 333.300781 481.121094 333.867188 478.75 C 333.898438 478.617188 334.207031 478.042969 334.386719 477.527344 Z M 334.386719 477.527344 " fill-opacity="1" fill-rule="nonzero"/></g></g></g></g><g clip-path="url(#1af16e3587)"><g clip-path="url(#b08ec59cb8)"><g clip-path="url(#e7cb719b97)"><g clip-path="url(#204cee9d5e)"><path fill="#ffffff" d="M 339.40625 487.605469 C 338.996094 487.5 338.5625 487.503906 338.144531 487.488281 C 337.925781 487.492188 337.566406 487.484375 337.484375 487.722656 C 337.441406 488.480469 338.699219 488.339844 339.21875 488.386719 C 339.292969 488.378906 339.371094 488.375 339.445312 488.367188 C 339.519531 488.367188 339.589844 488.359375 339.664062 488.351562 C 339.757812 488.339844 339.851562 488.320312 339.941406 488.285156 C 340.238281 487.980469 339.683594 487.652344 339.40625 487.605469 Z M 339.40625 487.605469 " fill-opacity="1" fill-rule="nonzero"/></g></g></g></g><g clip-path="url(#00aac18c2b)"><g clip-path="url(#106bde9085)"><g clip-path="url(#75406e763d)"><g clip-path="url(#28c5f58517)"><path fill="#e48593" d="M 531.902344 447.214844 C 533.011719 443.742188 535.722656 440.789062 539.316406 439.839844 C 543.039062 438.855469 547.414062 440.332031 549.84375 443.300781 C 550.53125 444.140625 550.960938 445.144531 551.234375 446.191406 C 551.496094 447.203125 551.757812 448.417969 551.699219 449.46875 C 551.65625 450.324219 551.519531 451.140625 551.304688 451.910156 C 550.148438 456.050781 545.6875 459.195312 541.433594 459.160156 C 540.457031 459.148438 539.40625 459.023438 538.484375 458.6875 C 533.9375 457.039062 530.328125 452.164062 531.902344 447.214844 Z M 531.902344 447.214844 " fill-opacity="1" fill-rule="nonzero"/></g></g></g></g><g clip-path="url(#510970e0b3)"><g clip-path="url(#f48fad5da5)"><g clip-path="url(#7f082dcebd)"><g clip-path="url(#cc2a136a9f)"><path fill="#f7d7dc" d="M 542.070312 457.652344 C 545.605469 457.316406 549.050781 454.703125 549.953125 451.21875 C 550.953125 447.359375 549.136719 443.472656 545.53125 441.695312 C 543.238281 440.566406 540.242188 440.59375 538.003906 441.898438 C 536.085938 443.015625 534.644531 444.445312 533.800781 446.539062 C 533.480469 447.34375 533.234375 448.175781 533.109375 449.03125 C 532.90625 450.433594 533.035156 451.886719 533.617188 453.191406 C 535.03125 456.378906 538.703125 457.96875 542.066406 457.648438 Z M 542.070312 457.652344 " fill-opacity="1" fill-rule="nonzero"/></g></g></g></g><g clip-path="url(#aac2a5dad9)"><g clip-path="url(#850e233c37)"><g clip-path="url(#e402e5ef79)"><g clip-path="url(#dcaa656026)"><path fill="#ffffff" d="M 537.375 445.417969 C 537.542969 444.933594 537.59375 444.5 537.191406 444.53125 C 536.789062 444.5625 536.539062 444.960938 536.320312 445.253906 C 535.601562 446.253906 535.117188 447.378906 535.074219 448.621094 C 534.8125 451.230469 535.667969 454.132812 538.207031 455.304688 C 538.285156 455.351562 538.355469 455.367188 538.410156 455.359375 C 538.691406 455.328125 538.730469 454.773438 538.558594 454.546875 C 538.523438 454.484375 538.472656 454.429688 538.414062 454.390625 C 538.300781 454.148438 538.046875 453.9375 537.925781 453.679688 C 536.664062 451.605469 536.289062 449.011719 536.851562 446.640625 C 536.882812 446.507812 537.195312 445.933594 537.375 445.417969 Z M 537.375 445.417969 " fill-opacity="1" fill-rule="nonzero"/></g></g></g></g><g clip-path="url(#a7cde72f43)"><g clip-path="url(#45c8aa876f)"><g clip-path="url(#365fea732f)"><g clip-path="url(#acbd9fef8e)"><path fill="#ffffff" d="M 542.394531 455.496094 C 541.980469 455.390625 541.550781 455.390625 541.128906 455.378906 C 540.910156 455.378906 540.550781 455.371094 540.472656 455.613281 C 540.429688 456.371094 541.683594 456.230469 542.203125 456.277344 C 542.277344 456.265625 542.355469 456.261719 542.433594 456.257812 C 542.503906 456.253906 542.578125 456.25 542.648438 456.242188 C 542.746094 456.230469 542.839844 456.210938 542.929688 456.171875 C 543.226562 455.871094 542.667969 455.542969 542.394531 455.496094 Z M 542.394531 455.496094 " fill-opacity="1" fill-rule="nonzero"/></g></g></g></g><g clip-path="url(#76a0b53260)"><g clip-path="url(#1a4a27c368)"><g clip-path="url(#e5e8fc2e03)"><g clip-path="url(#0596b3abed)"><path fill="#e48593" d="M 310.296875 473.359375 C 311.40625 469.886719 314.117188 466.933594 317.710938 465.984375 C 321.433594 465 325.808594 466.476562 328.234375 469.441406 C 328.925781 470.285156 329.355469 471.289062 329.625 472.335938 C 329.890625 473.347656 330.152344 474.5625 330.09375 475.613281 C 330.050781 476.464844 329.914062 477.285156 329.699219 478.054688 C 328.542969 482.195312 324.082031 485.335938 319.828125 485.300781 C 318.851562 485.292969 317.800781 485.167969 316.878906 484.832031 C 312.332031 483.183594 308.722656 478.308594 310.296875 473.359375 Z M 310.296875 473.359375 " fill-opacity="1" fill-rule="nonzero"/></g></g></g></g><g clip-path="url(#cda50bbc96)"><g clip-path="url(#b0bb5285c4)"><g clip-path="url(#c55236a020)"><g clip-path="url(#faf537d14f)"><path fill="#f7d7dc" d="M 320.464844 483.792969 C 324 483.457031 327.449219 480.847656 328.347656 477.363281 C 329.347656 473.5 327.53125 469.613281 323.925781 467.839844 C 321.632812 466.710938 318.636719 466.738281 316.398438 468.042969 C 314.484375 469.160156 313.039062 470.589844 312.195312 472.683594 C 311.875 473.484375 311.628906 474.320312 311.503906 475.175781 C 311.300781 476.578125 311.433594 478.03125 312.011719 479.332031 C 313.429688 482.523438 317.097656 484.113281 320.464844 483.792969 Z M 320.464844 483.792969 " fill-opacity="1" fill-rule="nonzero"/></g></g></g></g><g clip-path="url(#670f974b42)"><g clip-path="url(#68affacd05)"><g clip-path="url(#956de2f393)"><g clip-path="url(#78dd6cf660)"><path fill="#ffffff" d="M 315.769531 471.558594 C 315.9375 471.074219 315.988281 470.644531 315.585938 470.675781 C 315.1875 470.707031 314.933594 471.101562 314.71875 471.398438 C 314 472.398438 313.511719 473.523438 313.46875 474.765625 C 313.207031 477.371094 314.0625 480.277344 316.601562 481.449219 C 316.683594 481.496094 316.75 481.511719 316.808594 481.503906 C 317.085938 481.46875 317.125 480.917969 316.953125 480.691406 C 316.917969 480.628906 316.867188 480.574219 316.808594 480.53125 C 316.695312 480.292969 316.441406 480.082031 316.324219 479.824219 C 315.058594 477.75 314.683594 475.152344 315.246094 472.785156 C 315.277344 472.652344 315.589844 472.078125 315.769531 471.558594 Z M 315.769531 471.558594 " fill-opacity="1" fill-rule="nonzero"/></g></g></g></g><g clip-path="url(#3b5b932fd7)"><g clip-path="url(#71340c71e7)"><g clip-path="url(#e64d131052)"><g clip-path="url(#acd7cb3d24)"><path fill="#ffffff" d="M 320.789062 481.640625 C 320.375 481.535156 319.945312 481.535156 319.523438 481.523438 C 319.304688 481.523438 318.945312 481.515625 318.867188 481.757812 C 318.824219 482.515625 320.078125 482.371094 320.597656 482.421875 C 320.671875 482.410156 320.75 482.40625 320.828125 482.402344 C 320.898438 482.398438 320.972656 482.394531 321.042969 482.386719 C 321.140625 482.375 321.234375 482.355469 321.324219 482.316406 C 321.621094 482.011719 321.0625 481.683594 320.789062 481.640625 Z M 320.789062 481.640625 " fill-opacity="1" fill-rule="nonzero"/></g></g></g></g><g clip-path="url(#04e33d7dbf)"><g clip-path="url(#d44f7cb9b0)"><g clip-path="url(#4d928b97a6)"><g clip-path="url(#ce85f5a179)"><path fill="#e48593" d="M 547.117188 435.382812 C 548.222656 431.910156 550.9375 428.957031 554.527344 428.007812 C 558.25 427.023438 562.625 428.5 565.054688 431.464844 C 565.742188 432.308594 566.171875 433.3125 566.445312 434.359375 C 566.710938 435.371094 566.96875 436.585938 566.914062 437.636719 C 566.867188 438.492188 566.730469 439.308594 566.519531 440.078125 C 565.363281 444.21875 560.898438 447.359375 556.644531 447.324219 C 555.671875 447.316406 554.617188 447.191406 553.695312 446.855469 C 549.152344 445.207031 545.539062 440.332031 547.117188 435.382812 Z M 547.117188 435.382812 " fill-opacity="1" fill-rule="nonzero"/></g></g></g></g><g clip-path="url(#cedaed0c6a)"><g clip-path="url(#d9ef489759)"><g clip-path="url(#92d54a0ec2)"><g clip-path="url(#7e913f53a9)"><path fill="#f7d7dc" d="M 557.28125 445.820312 C 560.816406 445.484375 564.265625 442.875 565.167969 439.386719 C 566.164062 435.527344 564.347656 431.640625 560.742188 429.863281 C 558.449219 428.734375 555.453125 428.761719 553.21875 430.066406 C 551.300781 431.183594 549.855469 432.613281 549.015625 434.707031 C 548.691406 435.511719 548.445312 436.347656 548.320312 437.199219 C 548.117188 438.605469 548.25 440.054688 548.828125 441.359375 C 550.246094 444.550781 553.914062 446.136719 557.28125 445.820312 Z M 557.28125 445.820312 " fill-opacity="1" fill-rule="nonzero"/></g></g></g></g><g clip-path="url(#664e853403)"><g clip-path="url(#5d2df7a80b)"><g clip-path="url(#741e7cf2bd)"><g clip-path="url(#c668ef5fb4)"><path fill="#ffffff" d="M 552.585938 433.585938 C 552.753906 433.101562 552.808594 432.667969 552.40625 432.699219 C 552.003906 432.730469 551.753906 433.128906 551.535156 433.425781 C 550.816406 434.421875 550.328125 435.550781 550.285156 436.789062 C 550.023438 439.398438 550.878906 442.300781 553.421875 443.476562 C 553.5 443.519531 553.566406 443.535156 553.625 443.527344 C 553.902344 443.496094 553.941406 442.941406 553.769531 442.714844 C 553.734375 442.652344 553.6875 442.597656 553.625 442.558594 C 553.515625 442.316406 553.257812 442.105469 553.140625 441.847656 C 551.875 439.773438 551.5 437.179688 552.066406 434.808594 C 552.097656 434.675781 552.40625 434.101562 552.585938 433.585938 Z M 552.585938 433.585938 " fill-opacity="1" fill-rule="nonzero"/></g></g></g></g><g clip-path="url(#537046fc7f)"><g clip-path="url(#bd45541ad9)"><g clip-path="url(#93c20157dd)"><g clip-path="url(#85549d5845)"><path fill="#ffffff" d="M 557.605469 443.664062 C 557.195312 443.558594 556.761719 443.558594 556.339844 443.546875 C 556.125 443.550781 555.761719 443.542969 555.683594 443.78125 C 555.640625 444.539062 556.898438 444.398438 557.417969 444.445312 C 557.492188 444.4375 557.570312 444.433594 557.644531 444.425781 C 557.71875 444.425781 557.789062 444.417969 557.863281 444.410156 C 557.957031 444.398438 558.050781 444.378906 558.140625 444.34375 C 558.4375 444.039062 557.878906 443.710938 557.605469 443.664062 Z M 557.605469 443.664062 " fill-opacity="1" fill-rule="nonzero"/></g></g></g></g><g clip-path="url(#63ab8d8d3e)"><g clip-path="url(#0bad9aadf6)"><g clip-path="url(#7ec24fd0db)"><g clip-path="url(#3e13384be5)"><path fill="#e48593" d="M 292.746094 465.566406 C 293.851562 462.09375 296.566406 459.140625 300.15625 458.191406 C 303.878906 457.207031 308.253906 458.683594 310.683594 461.652344 C 311.371094 462.492188 311.800781 463.496094 312.074219 464.542969 C 312.339844 465.554688 312.597656 466.769531 312.542969 467.820312 C 312.496094 468.675781 312.359375 469.492188 312.148438 470.261719 C 310.992188 474.402344 306.527344 477.546875 302.273438 477.511719 C 301.300781 477.5 300.246094 477.375 299.324219 477.039062 C 294.78125 475.390625 291.167969 470.515625 292.746094 465.566406 Z M 292.746094 465.566406 " fill-opacity="1" fill-rule="nonzero"/></g></g></g></g><g clip-path="url(#77d0d9c337)"><g clip-path="url(#34c2fe2b7e)"><g clip-path="url(#6b5b3169a7)"><g clip-path="url(#b2abe71105)"><path fill="#f7d7dc" d="M 302.910156 476.003906 C 306.445312 475.667969 309.894531 473.058594 310.796875 469.570312 C 311.792969 465.710938 309.976562 461.824219 306.371094 460.046875 C 304.078125 458.917969 301.082031 458.945312 298.847656 460.25 C 296.929688 461.367188 295.484375 462.796875 294.644531 464.890625 C 294.320312 465.695312 294.074219 466.53125 293.949219 467.386719 C 293.746094 468.789062 293.878906 470.238281 294.457031 471.542969 C 295.875 474.734375 299.542969 476.320312 302.910156 476.003906 Z M 302.910156 476.003906 " fill-opacity="1" fill-rule="nonzero"/></g></g></g></g><g clip-path="url(#d6836c1c9c)"><g clip-path="url(#b7f4cd6c93)"><g clip-path="url(#43252e85e5)"><g clip-path="url(#00e6ce251f)"><path fill="#ffffff" d="M 298.214844 463.769531 C 298.382812 463.285156 298.4375 462.851562 298.035156 462.882812 C 297.632812 462.914062 297.378906 463.3125 297.164062 463.605469 C 296.445312 464.605469 295.957031 465.730469 295.914062 466.972656 C 295.652344 469.582031 296.507812 472.484375 299.050781 473.65625 C 299.128906 473.703125 299.195312 473.71875 299.253906 473.710938 C 299.53125 473.679688 299.570312 473.125 299.398438 472.898438 C 299.363281 472.835938 299.316406 472.78125 299.253906 472.742188 C 299.144531 472.5 298.886719 472.289062 298.769531 472.03125 C 297.503906 469.957031 297.128906 467.363281 297.695312 464.992188 C 297.726562 464.859375 298.035156 464.285156 298.214844 463.769531 Z M 298.214844 463.769531 " fill-opacity="1" fill-rule="nonzero"/></g></g></g></g><g clip-path="url(#4b6b9fa9b1)"><g clip-path="url(#251c133294)"><g clip-path="url(#dc143a19e5)"><g clip-path="url(#8678387f30)"><path fill="#ffffff" d="M 303.234375 473.847656 C 302.824219 473.742188 302.390625 473.742188 301.96875 473.730469 C 301.753906 473.734375 301.390625 473.726562 301.3125 473.964844 C 301.269531 474.722656 302.527344 474.582031 303.046875 474.628906 C 303.121094 474.621094 303.199219 474.617188 303.273438 474.609375 C 303.347656 474.609375 303.417969 474.601562 303.492188 474.59375 C 303.585938 474.582031 303.679688 474.5625 303.769531 474.527344 C 304.066406 474.222656 303.507812 473.894531 303.234375 473.847656 Z M 303.234375 473.847656 " fill-opacity="1" fill-rule="nonzero"/></g></g></g></g><g clip-path="url(#f91ed44707)"><g clip-path="url(#7e74e3b0db)"><g clip-path="url(#eb644c0b8c)"><g clip-path="url(#dff382a923)"><path fill="#e48593" d="M 560.453125 421.695312 C 561.558594 418.222656 564.273438 415.269531 567.863281 414.320312 C 571.589844 413.335938 575.964844 414.816406 578.390625 417.78125 C 579.082031 418.621094 579.507812 419.628906 579.78125 420.675781 C 580.046875 421.6875 580.308594 422.898438 580.25 423.953125 C 580.207031 424.804688 580.070312 425.621094 579.855469 426.394531 C 578.699219 430.53125 574.234375 433.675781 569.984375 433.640625 C 569.007812 433.632812 567.957031 433.503906 567.035156 433.171875 C 562.488281 431.519531 558.878906 426.648438 560.453125 421.699219 Z M 560.453125 421.695312 " fill-opacity="1" fill-rule="nonzero"/></g></g></g></g><g clip-path="url(#c97f360f0a)"><g clip-path="url(#1a5a6f2a94)"><g clip-path="url(#028b255a8d)"><g clip-path="url(#1112275353)"><path fill="#f7d7dc" d="M 570.621094 432.132812 C 574.15625 431.796875 577.601562 429.1875 578.503906 425.699219 C 579.503906 421.839844 577.683594 417.953125 574.082031 416.175781 C 571.785156 415.046875 568.792969 415.078125 566.554688 416.378906 C 564.636719 417.496094 563.195312 418.925781 562.351562 421.023438 C 562.027344 421.824219 561.785156 422.660156 561.660156 423.515625 C 561.453125 424.917969 561.585938 426.367188 562.164062 427.671875 C 563.582031 430.863281 567.253906 432.453125 570.617188 432.132812 Z M 570.621094 432.132812 " fill-opacity="1" fill-rule="nonzero"/></g></g></g></g><g clip-path="url(#bca7ec3cb4)"><g clip-path="url(#0b3cb0dfdf)"><g clip-path="url(#2c6ffa3fb4)"><g clip-path="url(#ac018e9611)"><path fill="#ffffff" d="M 565.921875 419.898438 C 566.089844 419.414062 566.144531 418.980469 565.742188 419.015625 C 565.339844 419.046875 565.089844 419.441406 564.871094 419.738281 C 564.152344 420.738281 563.667969 421.863281 563.625 423.101562 C 563.363281 425.710938 564.21875 428.613281 566.757812 429.789062 C 566.835938 429.835938 566.90625 429.847656 566.960938 429.84375 C 567.242188 429.808594 567.277344 429.253906 567.109375 429.027344 C 567.074219 428.964844 567.023438 428.914062 566.964844 428.871094 C 566.851562 428.628906 566.597656 428.421875 566.476562 428.160156 C 565.210938 426.089844 564.839844 423.492188 565.402344 421.125 C 565.433594 420.992188 565.746094 420.414062 565.921875 419.898438 Z M 565.921875 419.898438 " fill-opacity="1" fill-rule="nonzero"/></g></g></g></g><g clip-path="url(#624ae6061e)"><g clip-path="url(#590c0f529a)"><g clip-path="url(#ae5a466513)"><g clip-path="url(#1f19553acb)"><path fill="#ffffff" d="M 570.941406 429.976562 C 570.53125 429.871094 570.097656 429.875 569.679688 429.859375 C 569.460938 429.863281 569.101562 429.855469 569.019531 430.09375 C 568.976562 430.855469 570.234375 430.710938 570.753906 430.761719 C 570.828125 430.75 570.90625 430.746094 570.980469 430.742188 C 571.054688 430.738281 571.128906 430.734375 571.199219 430.726562 C 571.292969 430.714844 571.390625 430.695312 571.480469 430.65625 C 571.773438 430.351562 571.21875 430.023438 570.941406 429.976562 Z M 570.941406 429.976562 " fill-opacity="1" fill-rule="nonzero"/></g></g></g></g><g clip-path="url(#a2aa13407a)"><g clip-path="url(#916ed3287f)"><g clip-path="url(#eca6dd1531)"><g clip-path="url(#97b0c72f8d)"><path fill="#e48593" d="M 276.613281 455.335938 C 277.71875 451.863281 280.433594 448.910156 284.023438 447.960938 C 287.746094 446.976562 292.121094 448.453125 294.550781 451.421875 C 295.238281 452.261719 295.667969 453.265625 295.941406 454.3125 C 296.207031 455.324219 296.464844 456.539062 296.410156 457.59375 C 296.363281 458.445312 296.226562 459.261719 296.011719 460.03125 C 294.855469 464.171875 290.394531 467.316406 286.140625 467.28125 C 285.164062 467.273438 284.113281 467.144531 283.191406 466.808594 C 278.644531 465.160156 275.035156 460.285156 276.613281 455.335938 Z M 276.613281 455.335938 " fill-opacity="1" fill-rule="nonzero"/></g></g></g></g><g clip-path="url(#7c21b642a4)"><g clip-path="url(#337cb3dc52)"><g clip-path="url(#c81024e8fe)"><g clip-path="url(#425b36de47)"><path fill="#f7d7dc" d="M 286.777344 465.773438 C 290.3125 465.4375 293.761719 462.828125 294.660156 459.339844 C 295.660156 455.480469 293.84375 451.59375 290.238281 449.816406 C 287.945312 448.6875 284.949219 448.714844 282.710938 450.019531 C 280.796875 451.136719 279.351562 452.566406 278.511719 454.660156 C 278.1875 455.464844 277.941406 456.300781 277.816406 457.15625 C 277.613281 458.558594 277.746094 460.007812 278.324219 461.3125 C 279.742188 464.503906 283.410156 466.09375 286.777344 465.773438 Z M 286.777344 465.773438 " fill-opacity="1" fill-rule="nonzero"/></g></g></g></g><g clip-path="url(#8eca313683)"><g clip-path="url(#ed6a402cc4)"><g clip-path="url(#7277d03510)"><g clip-path="url(#f94932bac9)"><path fill="#ffffff" d="M 282.082031 453.539062 C 282.25 453.054688 282.300781 452.621094 281.902344 452.652344 C 281.5 452.683594 281.246094 453.082031 281.03125 453.378906 C 280.3125 454.375 279.824219 455.503906 279.78125 456.742188 C 279.519531 459.351562 280.375 462.253906 282.917969 463.429688 C 282.996094 463.472656 283.0625 463.488281 283.121094 463.480469 C 283.398438 463.449219 283.4375 462.894531 283.265625 462.667969 C 283.230469 462.605469 283.183594 462.550781 283.121094 462.511719 C 283.011719 462.269531 282.753906 462.058594 282.636719 461.800781 C 281.371094 459.726562 280.996094 457.132812 281.5625 454.761719 C 281.59375 454.628906 281.902344 454.054688 282.082031 453.539062 Z M 282.082031 453.539062 " fill-opacity="1" fill-rule="nonzero"/></g></g></g></g><g clip-path="url(#7b9fe2d501)"><g clip-path="url(#d91a17839c)"><g clip-path="url(#4e4c8ba116)"><g clip-path="url(#e85aa73292)"><path fill="#ffffff" d="M 287.101562 463.617188 C 286.6875 463.511719 286.257812 463.515625 285.835938 463.5 C 285.617188 463.503906 285.257812 463.496094 285.179688 463.734375 C 285.136719 464.496094 286.394531 464.351562 286.914062 464.402344 C 286.984375 464.390625 287.0625 464.386719 287.140625 464.382812 C 287.210938 464.378906 287.285156 464.375 287.355469 464.363281 C 287.453125 464.351562 287.546875 464.335938 287.636719 464.296875 C 287.933594 463.992188 287.375 463.664062 287.101562 463.617188 Z M 287.101562 463.617188 " fill-opacity="1" fill-rule="nonzero"/></g></g></g></g><g clip-path="url(#c289f33fd9)"><g clip-path="url(#dcb5604f8d)"><g clip-path="url(#ec78e20cf7)"><g clip-path="url(#a3bdb7568a)"><path fill="#e48593" d="M 461.273438 480.878906 C 462.378906 477.40625 465.09375 474.453125 468.683594 473.503906 C 472.410156 472.519531 476.785156 474 479.210938 476.964844 C 479.902344 477.804688 480.328125 478.8125 480.601562 479.855469 C 480.867188 480.871094 481.128906 482.082031 481.070312 483.136719 C 481.027344 483.988281 480.890625 484.804688 480.675781 485.578125 C 479.519531 489.714844 475.054688 492.859375 470.804688 492.824219 C 469.828125 492.816406 468.777344 492.6875 467.855469 492.351562 C 463.308594 490.703125 459.699219 485.832031 461.273438 480.882812 Z M 461.273438 480.878906 " fill-opacity="1" fill-rule="nonzero"/></g></g></g></g><g clip-path="url(#4705c89fd5)"><g clip-path="url(#62e770ef76)"><g clip-path="url(#0c07455967)"><g clip-path="url(#e350b89370)"><path fill="#f7d7dc" d="M 471.441406 491.316406 C 474.976562 490.980469 478.421875 488.371094 479.324219 484.882812 C 480.324219 481.023438 478.503906 477.136719 474.902344 475.359375 C 472.605469 474.230469 469.613281 474.257812 467.375 475.5625 C 465.457031 476.679688 464.015625 478.109375 463.171875 480.207031 C 462.847656 481.007812 462.605469 481.84375 462.480469 482.699219 C 462.273438 484.101562 462.40625 485.550781 462.984375 486.855469 C 464.402344 490.046875 468.074219 491.636719 471.4375 491.316406 Z M 471.441406 491.316406 " fill-opacity="1" fill-rule="nonzero"/></g></g></g></g><g clip-path="url(#a3f4f62b03)"><g clip-path="url(#c07604aaa2)"><g clip-path="url(#5c1e6ced3e)"><g clip-path="url(#d3e5580050)"><path fill="#ffffff" d="M 466.742188 479.082031 C 466.910156 478.597656 466.964844 478.164062 466.5625 478.195312 C 466.160156 478.230469 465.910156 478.625 465.691406 478.921875 C 464.972656 479.917969 464.488281 481.046875 464.445312 482.285156 C 464.183594 484.894531 465.039062 487.796875 467.578125 488.972656 C 467.65625 489.015625 467.726562 489.03125 467.78125 489.023438 C 468.0625 488.992188 468.097656 488.4375 467.929688 488.210938 C 467.894531 488.148438 467.84375 488.097656 467.785156 488.054688 C 467.671875 487.8125 467.417969 487.601562 467.296875 487.34375 C 466.03125 485.273438 465.660156 482.675781 466.222656 480.308594 C 466.253906 480.171875 466.566406 479.597656 466.742188 479.082031 Z M 466.742188 479.082031 " fill-opacity="1" fill-rule="nonzero"/></g></g></g></g><g clip-path="url(#6f53239dd8)"><g clip-path="url(#cdc55ffc58)"><g clip-path="url(#e165a7e4c1)"><g clip-path="url(#0311d32dbc)"><path fill="#ffffff" d="M 471.765625 489.160156 C 471.351562 489.054688 470.921875 489.058594 470.5 489.042969 C 470.28125 489.046875 469.921875 489.039062 469.84375 489.277344 C 469.800781 490.039062 471.054688 489.894531 471.574219 489.945312 C 471.648438 489.933594 471.726562 489.929688 471.800781 489.925781 C 471.875 489.921875 471.949219 489.917969 472.019531 489.90625 C 472.117188 489.898438 472.210938 489.878906 472.300781 489.839844 C 472.597656 489.535156 472.039062 489.207031 471.765625 489.160156 Z M 471.765625 489.160156 " fill-opacity="1" fill-rule="nonzero"/></g></g></g></g><g clip-path="url(#599b38928c)"><g clip-path="url(#60a8d554ad)"><g clip-path="url(#5eb3fa5ca2)"><g clip-path="url(#a0d8f27517)"><path fill="#e48593" d="M 385.804688 489.785156 C 386.910156 486.3125 389.625 483.359375 393.214844 482.410156 C 396.9375 481.425781 401.3125 482.902344 403.742188 485.867188 C 404.429688 486.707031 404.859375 487.714844 405.132812 488.761719 C 405.398438 489.773438 405.65625 490.988281 405.601562 492.039062 C 405.554688 492.890625 405.417969 493.707031 405.207031 494.480469 C 404.050781 498.617188 399.585938 501.761719 395.332031 501.726562 C 394.355469 501.71875 393.304688 501.59375 392.382812 501.257812 C 387.839844 499.605469 384.226562 494.734375 385.804688 489.785156 Z M 385.804688 489.785156 " fill-opacity="1" fill-rule="nonzero"/></g></g></g></g><g clip-path="url(#84751d8da1)"><g clip-path="url(#059d0063e2)"><g clip-path="url(#e3533a380d)"><g clip-path="url(#5d470495be)"><path fill="#f7d7dc" d="M 395.96875 500.21875 C 399.503906 499.882812 402.953125 497.273438 403.851562 493.789062 C 404.851562 489.925781 403.035156 486.039062 399.429688 484.265625 C 397.136719 483.132812 394.140625 483.164062 391.902344 484.46875 C 389.988281 485.585938 388.542969 487.015625 387.699219 489.109375 C 387.378906 489.910156 387.132812 490.746094 387.007812 491.601562 C 386.804688 493.003906 386.9375 494.453125 387.515625 495.757812 C 388.933594 498.949219 392.601562 500.539062 395.96875 500.21875 Z M 395.96875 500.21875 " fill-opacity="1" fill-rule="nonzero"/></g></g></g></g><g clip-path="url(#8759355187)"><g clip-path="url(#de95ec7f18)"><g clip-path="url(#9a492dbdab)"><g clip-path="url(#46ab1646fe)"><path fill="#ffffff" d="M 391.273438 487.984375 C 391.441406 487.5 391.492188 487.070312 391.09375 487.101562 C 390.691406 487.132812 390.4375 487.527344 390.222656 487.824219 C 389.503906 488.824219 389.015625 489.949219 388.972656 491.191406 C 388.710938 493.796875 389.566406 496.699219 392.105469 497.875 C 392.1875 497.921875 392.253906 497.9375 392.3125 497.929688 C 392.589844 497.894531 392.628906 497.34375 392.457031 497.117188 C 392.421875 497.054688 392.371094 497 392.3125 496.957031 C 392.203125 496.71875 391.945312 496.507812 391.828125 496.25 C 390.5625 494.175781 390.1875 491.578125 390.75 489.210938 C 390.785156 489.078125 391.09375 488.5 391.273438 487.984375 Z M 391.273438 487.984375 " fill-opacity="1" fill-rule="nonzero"/></g></g></g></g><g clip-path="url(#488aac777c)"><g clip-path="url(#2d0e6f366b)"><g clip-path="url(#1e63c53e40)"><g clip-path="url(#d97d990863)"><path fill="#ffffff" d="M 396.292969 498.066406 C 395.878906 497.960938 395.449219 497.960938 395.027344 497.949219 C 394.808594 497.949219 394.449219 497.941406 394.371094 498.183594 C 394.328125 498.941406 395.585938 498.796875 396.101562 498.847656 C 396.175781 498.835938 396.253906 498.832031 396.332031 498.828125 C 396.402344 498.824219 396.476562 498.820312 396.546875 498.8125 C 396.644531 498.800781 396.738281 498.78125 396.828125 498.742188 C 397.125 498.4375 396.566406 498.109375 396.292969 498.066406 Z M 396.292969 498.066406 " fill-opacity="1" fill-rule="nonzero"/></g></g></g></g><g clip-path="url(#747d1bee29)"><g clip-path="url(#368e6d57d6)"><g clip-path="url(#3db936b8f1)"><g clip-path="url(#e915e33851)"><path fill="#e48593" d="M 442.921875 486.101562 C 444.03125 482.628906 446.742188 479.675781 450.335938 478.726562 C 454.058594 477.742188 458.433594 479.21875 460.863281 482.183594 C 461.550781 483.023438 461.980469 484.03125 462.253906 485.078125 C 462.515625 486.089844 462.777344 487.304688 462.71875 488.355469 C 462.675781 489.207031 462.539062 490.023438 462.324219 490.796875 C 461.167969 494.933594 456.707031 498.078125 452.453125 498.042969 C 451.476562 498.035156 450.425781 497.910156 449.503906 497.574219 C 444.957031 495.921875 441.347656 491.050781 442.921875 486.101562 Z M 442.921875 486.101562 " fill-opacity="1" fill-rule="nonzero"/></g></g></g></g><g clip-path="url(#73e8bfc6fc)"><g clip-path="url(#7f3539a491)"><g clip-path="url(#52498cb11b)"><g clip-path="url(#e6a99c91a4)"><path fill="#f7d7dc" d="M 453.089844 496.535156 C 456.625 496.203125 460.070312 493.589844 460.972656 490.105469 C 461.972656 486.242188 460.15625 482.355469 456.550781 480.582031 C 454.257812 479.453125 451.261719 479.480469 449.023438 480.785156 C 447.109375 481.902344 445.664062 483.332031 444.820312 485.425781 C 444.5 486.226562 444.253906 487.0625 444.128906 487.917969 C 443.925781 489.320312 444.058594 490.773438 444.636719 492.074219 C 446.050781 495.265625 449.722656 496.855469 453.085938 496.535156 Z M 453.089844 496.535156 " fill-opacity="1" fill-rule="nonzero"/></g></g></g></g><g clip-path="url(#0749831c72)"><g clip-path="url(#d8b906c00a)"><g clip-path="url(#8cbd93267d)"><g clip-path="url(#ee0df9550a)"><path fill="#ffffff" d="M 448.394531 484.300781 C 448.5625 483.816406 448.613281 483.386719 448.210938 483.417969 C 447.808594 483.449219 447.558594 483.84375 447.339844 484.140625 C 446.621094 485.140625 446.136719 486.265625 446.09375 487.507812 C 445.832031 490.117188 446.6875 493.019531 449.226562 494.191406 C 449.304688 494.238281 449.375 494.253906 449.433594 494.246094 C 449.710938 494.214844 449.75 493.660156 449.578125 493.433594 C 449.542969 493.371094 449.492188 493.316406 449.433594 493.277344 C 449.320312 493.035156 449.066406 492.824219 448.949219 492.566406 C 447.683594 490.492188 447.308594 487.898438 447.871094 485.527344 C 447.902344 485.394531 448.214844 484.820312 448.394531 484.300781 Z M 448.394531 484.300781 " fill-opacity="1" fill-rule="nonzero"/></g></g></g></g><g clip-path="url(#3ddec80b2c)"><g clip-path="url(#b2511e73d3)"><g clip-path="url(#566bf0c85f)"><g clip-path="url(#2653f25f7c)"><path fill="#ffffff" d="M 453.410156 494.382812 C 453 494.277344 452.570312 494.277344 452.148438 494.265625 C 451.929688 494.265625 451.570312 494.257812 451.488281 494.5 C 451.449219 495.257812 452.703125 495.113281 453.222656 495.164062 C 453.296875 495.152344 453.375 495.148438 453.449219 495.144531 C 453.523438 495.140625 453.597656 495.136719 453.667969 495.128906 C 453.765625 495.117188 453.859375 495.097656 453.949219 495.058594 C 454.246094 494.753906 453.6875 494.429688 453.410156 494.382812 Z M 453.410156 494.382812 " fill-opacity="1" fill-rule="nonzero"/></g></g></g></g><g clip-path="url(#f970e84336)"><g clip-path="url(#d944663b5c)"><g clip-path="url(#6900ef940e)"><g clip-path="url(#367106e981)"><path fill="#e48593" d="M 424.304688 490.335938 C 425.410156 486.863281 428.125 483.910156 431.714844 482.960938 C 435.441406 481.976562 439.816406 483.457031 442.242188 486.421875 C 442.933594 487.261719 443.359375 488.269531 443.632812 489.316406 C 443.898438 490.328125 444.160156 491.539062 444.101562 492.59375 C 444.058594 493.445312 443.921875 494.261719 443.707031 495.035156 C 442.550781 499.171875 438.085938 502.316406 433.835938 502.28125 C 432.859375 502.273438 431.808594 502.144531 430.886719 501.8125 C 426.339844 500.160156 422.730469 495.289062 424.304688 490.339844 Z M 424.304688 490.335938 " fill-opacity="1" fill-rule="nonzero"/></g></g></g></g><g clip-path="url(#fd08dc38a4)"><g clip-path="url(#4e4c12afac)"><g clip-path="url(#900ba8e178)"><g clip-path="url(#dc43544507)"><path fill="#f7d7dc" d="M 434.472656 500.773438 C 438.007812 500.4375 441.453125 497.828125 442.355469 494.339844 C 443.355469 490.480469 441.535156 486.59375 437.933594 484.816406 C 435.636719 483.6875 432.644531 483.71875 430.40625 485.019531 C 428.488281 486.136719 427.046875 487.566406 426.203125 489.664062 C 425.878906 490.464844 425.636719 491.300781 425.511719 492.15625 C 425.304688 493.558594 425.4375 495.007812 426.015625 496.3125 C 427.433594 499.503906 431.105469 501.09375 434.46875 500.773438 Z M 434.472656 500.773438 " fill-opacity="1" fill-rule="nonzero"/></g></g></g></g><g clip-path="url(#cf36a6afbe)"><g clip-path="url(#619bedee35)"><g clip-path="url(#a42b9b6308)"><g clip-path="url(#dc98b893bf)"><path fill="#ffffff" d="M 429.773438 488.539062 C 429.941406 488.054688 429.996094 487.621094 429.59375 487.65625 C 429.191406 487.6875 428.941406 488.082031 428.722656 488.378906 C 428.003906 489.378906 427.519531 490.503906 427.476562 491.746094 C 427.214844 494.351562 428.070312 497.253906 430.609375 498.429688 C 430.6875 498.476562 430.757812 498.488281 430.8125 498.484375 C 431.09375 498.449219 431.128906 497.894531 430.960938 497.667969 C 430.925781 497.605469 430.875 497.554688 430.816406 497.511719 C 430.703125 497.269531 430.449219 497.0625 430.328125 496.800781 C 429.0625 494.730469 428.691406 492.132812 429.253906 489.765625 C 429.285156 489.632812 429.597656 489.054688 429.773438 488.539062 Z M 429.773438 488.539062 " fill-opacity="1" fill-rule="nonzero"/></g></g></g></g><g clip-path="url(#52f021c6db)"><g clip-path="url(#ebd8feb1e4)"><g clip-path="url(#68161f4076)"><g clip-path="url(#8c0bf5d7ce)"><path fill="#ffffff" d="M 434.792969 498.617188 C 434.382812 498.511719 433.949219 498.515625 433.53125 498.5 C 433.3125 498.503906 432.953125 498.496094 432.871094 498.734375 C 432.828125 499.496094 434.085938 499.351562 434.605469 499.402344 C 434.679688 499.390625 434.757812 499.386719 434.832031 499.382812 C 434.90625 499.378906 434.980469 499.375 435.050781 499.367188 C 435.144531 499.355469 435.238281 499.335938 435.332031 499.296875 C 435.625 498.992188 435.070312 498.664062 434.792969 498.617188 Z M 434.792969 498.617188 " fill-opacity="1" fill-rule="nonzero"/></g></g></g></g><g clip-path="url(#22fffbdef4)"><g clip-path="url(#aa3a534e55)"><g clip-path="url(#da181e33f6)"><g clip-path="url(#c51b2a2937)"><path fill="#e48593" d="M 404.769531 490.601562 C 405.875 487.128906 408.589844 484.175781 412.179688 483.226562 C 415.902344 482.242188 420.277344 483.71875 422.707031 486.683594 C 423.394531 487.527344 423.824219 488.53125 424.097656 489.578125 C 424.363281 490.589844 424.621094 491.804688 424.566406 492.855469 C 424.519531 493.710938 424.386719 494.527344 424.171875 495.296875 C 423.015625 499.4375 418.550781 502.578125 414.300781 502.542969 C 413.324219 502.535156 412.269531 502.410156 411.347656 502.074219 C 406.804688 500.425781 403.191406 495.550781 404.769531 490.601562 Z M 404.769531 490.601562 " fill-opacity="1" fill-rule="nonzero"/></g></g></g></g><g clip-path="url(#9cb44c8dab)"><g clip-path="url(#3ca58baa9d)"><g clip-path="url(#e0c1be901b)"><g clip-path="url(#fff1432392)"><path fill="#f7d7dc" d="M 414.933594 501.039062 C 418.46875 500.703125 421.917969 498.09375 422.820312 494.605469 C 423.816406 490.746094 422 486.859375 418.394531 485.082031 C 416.101562 483.953125 413.109375 483.980469 410.871094 485.285156 C 408.953125 486.402344 407.507812 487.832031 406.667969 489.925781 C 406.34375 490.730469 406.097656 491.566406 405.976562 492.417969 C 405.769531 493.824219 405.902344 495.273438 406.480469 496.578125 C 407.898438 499.769531 411.566406 501.355469 414.933594 501.039062 Z M 414.933594 501.039062 " fill-opacity="1" fill-rule="nonzero"/></g></g></g></g><g clip-path="url(#bd80e0c04d)"><g clip-path="url(#fc0a6ad808)"><g clip-path="url(#ef915c4b21)"><g clip-path="url(#41eb8b8cdb)"><path fill="#ffffff" d="M 410.238281 488.804688 C 410.40625 488.320312 410.460938 487.886719 410.058594 487.917969 C 409.65625 487.949219 409.40625 488.347656 409.1875 488.644531 C 408.46875 489.640625 407.980469 490.769531 407.941406 492.007812 C 407.675781 494.617188 408.535156 497.519531 411.074219 498.695312 C 411.152344 498.738281 411.21875 498.753906 411.277344 498.746094 C 411.558594 498.714844 411.59375 498.160156 411.425781 497.933594 C 411.390625 497.871094 411.339844 497.816406 411.28125 497.777344 C 411.167969 497.535156 410.910156 497.324219 410.792969 497.066406 C 409.527344 494.992188 409.15625 492.398438 409.71875 490.027344 C 409.75 489.894531 410.058594 489.320312 410.238281 488.804688 Z M 410.238281 488.804688 " fill-opacity="1" fill-rule="nonzero"/></g></g></g></g><g clip-path="url(#7f6d50da73)"><g clip-path="url(#26c14f459d)"><g clip-path="url(#838be2a405)"><g clip-path="url(#45365006d3)"><path fill="#ffffff" d="M 415.257812 498.882812 C 414.847656 498.777344 414.414062 498.777344 413.996094 498.765625 C 413.777344 498.769531 413.417969 498.761719 413.335938 499 C 413.292969 499.757812 414.550781 499.617188 415.070312 499.664062 C 415.144531 499.65625 415.222656 499.652344 415.296875 499.644531 C 415.371094 499.644531 415.445312 499.636719 415.515625 499.628906 C 415.609375 499.617188 415.703125 499.597656 415.792969 499.5625 C 416.089844 499.257812 415.535156 498.929688 415.257812 498.882812 Z M 415.257812 498.882812 " fill-opacity="1" fill-rule="nonzero"/></g></g></g></g></svg>