<svg xmlns="http://www.w3.org/2000/svg" xmlns:xlink="http://www.w3.org/1999/xlink" width="1024" zoomAndPan="magnify" viewBox="0 0 768 767.999994" height="1024" preserveAspectRatio="xMidYMid meet" version="1.0"><defs><clipPath id="532a1810af"><path d="M 209 168 L 519 168 L 519 335 L 209 335 Z M 209 168 " clip-rule="nonzero"/></clipPath><clipPath id="9ae6f31abc"><path d="M 223.378906 143.988281 L 518.59375 256.003906 L 473.363281 375.210938 L 178.148438 263.195312 Z M 223.378906 143.988281 " clip-rule="nonzero"/></clipPath><clipPath id="74f4929a10"><path d="M 247.089844 81.507812 L 571.753906 204.695312 L 502.839844 386.3125 L 178.175781 263.121094 Z M 247.089844 81.507812 " clip-rule="nonzero"/></clipPath><clipPath id="80c9dc234e"><path d="M 247.089844 81.507812 L 571.753906 204.695312 L 502.839844 386.3125 L 178.175781 263.121094 Z M 247.089844 81.507812 " clip-rule="nonzero"/></clipPath><clipPath id="0540817069"><path d="M 348 241 L 416 241 L 416 321 L 348 321 Z M 348 241 " clip-rule="nonzero"/></clipPath><clipPath id="225a18e780"><path d="M 223.378906 143.988281 L 518.59375 256.003906 L 473.363281 375.210938 L 178.148438 263.195312 Z M 223.378906 143.988281 " clip-rule="nonzero"/></clipPath><clipPath id="52cffd7f0d"><path d="M 247.089844 81.507812 L 571.753906 204.695312 L 502.839844 386.3125 L 178.175781 263.121094 Z M 247.089844 81.507812 " clip-rule="nonzero"/></clipPath><clipPath id="165306dbb7"><path d="M 247.089844 81.507812 L 571.753906 204.695312 L 502.839844 386.3125 L 178.175781 263.121094 Z M 247.089844 81.507812 " clip-rule="nonzero"/></clipPath><clipPath id="9aba4734cd"><path d="M 329 229 L 454 229 L 454 331 L 329 331 Z M 329 229 " clip-rule="nonzero"/></clipPath><clipPath id="25b60dd7ad"><path d="M 223.378906 143.988281 L 518.59375 256.003906 L 473.363281 375.210938 L 178.148438 263.195312 Z M 223.378906 143.988281 " clip-rule="nonzero"/></clipPath><clipPath id="da02a734f3"><path d="M 247.089844 81.507812 L 571.753906 204.695312 L 502.839844 386.3125 L 178.175781 263.121094 Z M 247.089844 81.507812 " clip-rule="nonzero"/></clipPath><clipPath id="6b0a1dbdff"><path d="M 247.089844 81.507812 L 571.753906 204.695312 L 502.839844 386.3125 L 178.175781 263.121094 Z M 247.089844 81.507812 " clip-rule="nonzero"/></clipPath></defs><g clip-path="url(#532a1810af)"><g clip-path="url(#9ae6f31abc)"><g clip-path="url(#74f4929a10)"><g clip-path="url(#80c9dc234e)"><path fill="#000000" d="M 326.148438 259.429688 C 277.441406 238.851562 238 208.847656 209.117188 181.726562 L 213.976562 168.917969 C 241.304688 195.1875 279.105469 224.859375 325.996094 245.601562 C 326.183594 239.933594 326.613281 236.441406 326.613281 236.441406 C 334.195312 206.820312 466.417969 240.695312 458.835938 270.320312 C 458.835938 270.320312 458.609375 270.886719 458.160156 271.917969 C 471.71875 270.542969 485.90625 267.019531 500.238281 259.882812 C 531.050781 244.542969 549.503906 219.378906 559.792969 200.15625 L 571.707031 204.679688 C 560.695312 225.726562 540.4375 253.992188 505.882812 271.195312 C 487.011719 280.59375 468.625 284.328125 451.492188 285.148438 C 439.367188 306.574219 412.457031 342.566406 372.515625 332.335938 C 335.863281 322.941406 327.535156 284.691406 326.148438 259.429688 Z M 326.148438 259.429688 " fill-opacity="1" fill-rule="evenodd"/></g></g></g></g><g clip-path="url(#0540817069)"><g clip-path="url(#225a18e780)"><g clip-path="url(#52cffd7f0d)"><g clip-path="url(#165306dbb7)"><path fill="#f6f5f1" d="M 402.589844 313.253906 C 402.410156 313.238281 402.257812 313.386719 402.273438 313.566406 C 402.441406 315.375 402.597656 320.890625 399.003906 320.589844 C 395.480469 320.296875 397.078125 311.484375 397.398438 309.886719 C 397.429688 309.730469 397.378906 309.570312 397.261719 309.464844 L 382.261719 295.703125 C 382.097656 295.550781 381.875 295.476562 381.652344 295.496094 L 359.488281 297.5625 C 359.378906 297.574219 359.292969 297.65625 359.285156 297.765625 C 359.179688 298.957031 358.476562 305.503906 355.632812 305.398438 C 352.589844 305.285156 350.457031 301.734375 352.5625 298.039062 C 352.609375 297.957031 352.59375 297.851562 352.519531 297.789062 C 349.917969 295.636719 346.273438 291.820312 349.511719 290.128906 C 352.535156 288.550781 357.761719 292.1875 358.589844 292.789062 C 358.664062 292.84375 358.753906 292.871094 358.84375 292.863281 L 377.796875 291.609375 L 363.628906 278.605469 C 363.523438 278.507812 363.378906 278.464844 363.234375 278.488281 C 361.550781 278.773438 350.933594 280.429688 351.765625 277.152344 C 352.566406 273.972656 357.183594 273.503906 358.164062 273.441406 C 358.265625 273.4375 358.332031 273.351562 358.320312 273.25 C 358.140625 272.046875 357.253906 265.332031 359.878906 265.457031 C 362.714844 265.59375 365.511719 270.539062 365.804688 274.699219 C 365.8125 274.839844 365.875 274.972656 365.980469 275.070312 L 383.410156 290.988281 C 383.570312 291.136719 383.789062 291.210938 384.007812 291.195312 L 404.222656 289.855469 C 404.339844 289.851562 404.445312 289.800781 404.523438 289.71875 C 405.539062 288.621094 412.828125 280.9375 413.964844 284.40625 C 415.019531 287.632812 411.761719 290.742188 410.863281 291.523438 C 410.746094 291.625 410.746094 291.800781 410.859375 291.90625 C 411.933594 292.875 416.496094 297.164062 414.628906 298.574219 C 411.441406 300.972656 405.832031 294.636719 404.875 293.511719 C 404.785156 293.40625 404.652344 293.351562 404.511719 293.367188 L 387.726562 294.929688 L 400.90625 306.96875 C 401 307.054688 401.121094 307.09375 401.242188 307.085938 C 402.671875 306.976562 411.585938 306.429688 411.828125 309.890625 C 412.078125 313.5 405.527344 313.527344 402.589844 313.253906 Z M 400.0625 269.207031 C 396.273438 268.820312 393.488281 266.507812 394.988281 264.453125 C 396.488281 262.394531 398.65625 258.730469 401.957031 260.09375 C 405.257812 261.457031 406.347656 263.210938 405.992188 265.734375 C 405.636719 268.253906 403.847656 269.589844 400.0625 269.207031 Z M 387.089844 275.460938 C 386.9375 275.441406 386.800781 275.316406 386.917969 275.183594 C 388.476562 273.390625 390.066406 271.394531 390.605469 270.589844 C 390.714844 270.421875 391.003906 270.371094 391.085938 270.695312 C 391.5 272.3125 392.238281 274.335938 392.957031 276.074219 C 393.128906 276.496094 392.964844 276.640625 392.707031 276.574219 C 391.011719 276.136719 388.515625 275.65625 387.089844 275.460938 Z M 387.785156 265.617188 C 386.757812 265.777344 379.816406 265.261719 379.675781 260.089844 C 379.535156 254.917969 385.242188 253.324219 387.375 255.550781 C 387.375 255.550781 390.691406 257.789062 390.480469 260.613281 C 390.214844 264.265625 389.34375 265.375 387.785156 265.617188 Z M 411 252.746094 C 407.917969 245.867188 400.484375 243.582031 400.484375 243.582031 C 400.484375 243.582031 380.742188 237 373.730469 249.53125 C 366.722656 262.0625 379.035156 269.726562 379.035156 269.726562 C 379.035156 269.726562 378.757812 278.773438 378.476562 281.25 C 378.003906 285.375 381.546875 282.960938 382.125 281.292969 C 382.125 281.292969 381.582031 284.550781 382.980469 285.234375 C 384.332031 285.894531 385.238281 285.136719 386.75 283.03125 C 386.253906 286.484375 387.242188 286.839844 388.03125 287.089844 C 389.257812 287.480469 390.101562 285.945312 391.074219 284.335938 C 390.269531 290.382812 393.902344 287.890625 395.300781 285.03125 C 396.640625 282.292969 397.816406 278.484375 398.710938 275.976562 C 402.820312 275.84375 405.417969 274.359375 408.625 271.789062 C 411.835938 269.21875 414.085938 259.628906 411 252.746094 Z M 411 252.746094 " fill-opacity="1" fill-rule="nonzero"/></g></g></g></g><g clip-path="url(#9aba4734cd)"><g clip-path="url(#25b60dd7ad)"><g clip-path="url(#da02a734f3)"><g clip-path="url(#6b0a1dbdff)"><path fill="#464646" d="M 427.058594 247.59375 L 426.984375 247.566406 C 425.308594 246.808594 423.535156 246.054688 421.707031 245.320312 C 421.058594 245.058594 420.742188 244.320312 421.003906 243.675781 C 421.261719 243.035156 421.980469 242.722656 422.625 242.964844 L 422.648438 242.972656 C 424.511719 243.722656 426.320312 244.492188 428.023438 245.261719 C 428.660156 245.550781 428.945312 246.296875 428.65625 246.933594 C 428.378906 247.546875 427.675781 247.828125 427.058594 247.59375 Z M 408.480469 240.621094 C 407.859375 240.386719 407.523438 239.707031 407.722656 239.0625 C 407.929688 238.398438 408.640625 238.027344 409.308594 238.234375 C 411.152344 238.8125 413.015625 239.425781 414.84375 240.0625 L 414.878906 240.074219 C 415.515625 240.316406 415.847656 241.019531 415.621094 241.667969 C 415.394531 242.328125 414.675781 242.675781 414.011719 242.449219 C 412.210938 241.820312 410.371094 241.214844 408.550781 240.648438 Z M 394.917969 236.902344 C 394.332031 236.679688 393.988281 236.054688 394.136719 235.429688 C 394.296875 234.75 394.976562 234.328125 395.65625 234.488281 C 397.539062 234.933594 399.4375 235.414062 401.308594 235.914062 C 401.984375 236.105469 402.386719 236.789062 402.207031 237.460938 C 402.023438 238.136719 401.332031 238.535156 400.65625 238.355469 C 398.8125 237.863281 396.933594 237.390625 395.074219 236.949219 Z M 439.414062 254.269531 C 439.328125 254.234375 439.246094 254.195312 439.164062 254.140625 C 437.671875 253.15625 436.03125 252.167969 434.292969 251.207031 C 433.679688 250.871094 433.460938 250.097656 433.796875 249.488281 C 434.132812 248.878906 434.910156 248.65625 435.515625 248.996094 C 437.3125 249.988281 439.007812 251.007812 440.558594 252.03125 C 441.140625 252.417969 441.300781 253.203125 440.917969 253.785156 C 440.585938 254.285156 439.957031 254.472656 439.414062 254.269531 Z M 381.128906 234.132812 C 380.574219 233.925781 380.230469 233.351562 380.328125 232.746094 C 380.441406 232.058594 381.089844 231.59375 381.78125 231.707031 C 383.671875 232.019531 385.601562 232.363281 387.519531 232.734375 C 388.203125 232.871094 388.652344 233.53125 388.519531 234.21875 C 388.386719 234.902344 387.722656 235.351562 387.039062 235.21875 C 385.144531 234.847656 383.238281 234.507812 381.371094 234.199219 Z M 367.175781 232.363281 C 366.660156 232.167969 366.316406 231.648438 366.363281 231.070312 C 366.425781 230.375 367.039062 229.859375 367.734375 229.921875 C 369.632812 230.089844 371.585938 230.292969 373.535156 230.527344 C 374.234375 230.609375 374.722656 231.242188 374.640625 231.933594 C 374.558594 232.625 373.929688 233.121094 373.234375 233.039062 C 371.3125 232.804688 369.386719 232.605469 367.515625 232.4375 C 367.394531 232.429688 367.28125 232.402344 367.175781 232.363281 Z M 449.679688 263.730469 C 449.441406 263.640625 449.230469 263.476562 449.078125 263.25 C 448.15625 261.875 446.949219 260.472656 445.496094 259.085938 C 444.988281 258.605469 444.96875 257.804688 445.449219 257.300781 C 445.929688 256.796875 446.734375 256.773438 447.238281 257.257812 C 448.828125 258.773438 450.15625 260.316406 451.179688 261.847656 C 451.570312 262.429688 451.414062 263.210938 450.832031 263.601562 C 450.480469 263.835938 450.050781 263.871094 449.679688 263.730469 Z M 353.125 231.777344 C 352.65625 231.597656 352.316406 231.144531 352.3125 230.609375 C 352.300781 229.910156 352.863281 229.339844 353.5625 229.332031 C 355.429688 229.3125 357.394531 229.335938 359.410156 229.40625 C 360.109375 229.429688 360.65625 230.015625 360.628906 230.714844 C 360.605469 231.410156 360.023438 231.957031 359.324219 231.933594 C 357.347656 231.863281 355.417969 231.839844 353.589844 231.859375 C 353.425781 231.859375 353.269531 231.832031 353.125 231.777344 Z M 339.144531 233.089844 C 338.757812 232.945312 338.453125 232.609375 338.355469 232.175781 C 338.207031 231.496094 338.640625 230.824219 339.324219 230.675781 C 341.054688 230.296875 343.027344 229.992188 345.183594 229.773438 C 345.878906 229.699219 346.5 230.207031 346.574219 230.902344 C 346.644531 231.59375 346.140625 232.214844 345.445312 232.285156 C 343.382812 232.496094 341.503906 232.785156 339.863281 233.144531 C 339.613281 233.199219 339.367188 233.175781 339.144531 233.089844 Z M 450.464844 276.976562 L 450.414062 276.953125 C 449.769531 276.675781 449.476562 275.933594 449.753906 275.292969 C 450.003906 274.707031 450.226562 274.164062 450.417969 273.65625 C 451 272.121094 451.195312 271.25 451.257812 270.789062 C 451.285156 270.597656 451.300781 270.402344 451.3125 270.203125 C 451.355469 269.507812 451.953125 268.976562 452.652344 269.019531 C 453.347656 269.058594 453.878906 269.660156 453.839844 270.355469 C 453.824219 270.613281 453.796875 270.867188 453.765625 271.121094 C 453.648438 271.988281 453.320312 273.140625 452.785156 274.554688 C 452.582031 275.09375 452.34375 275.671875 452.074219 276.296875 C 451.804688 276.917969 451.09375 277.214844 450.464844 276.976562 Z M 330.683594 242.765625 C 330.171875 242.570312 329.824219 242.058594 329.871094 241.488281 C 329.941406 240.578125 330.003906 239.894531 330.042969 239.464844 C 330.078125 239.09375 330.222656 238.417969 330.523438 237.632812 C 330.820312 236.851562 331.210938 236.097656 331.6875 235.398438 C 332.078125 234.820312 332.863281 234.667969 333.445312 235.0625 C 334.019531 235.453125 334.171875 236.238281 333.78125 236.816406 C 333.414062 237.355469 333.113281 237.929688 332.886719 238.53125 C 332.65625 239.144531 332.574219 239.589844 332.5625 239.710938 C 332.523438 240.125 332.460938 240.792969 332.390625 241.683594 C 332.339844 242.378906 331.730469 242.898438 331.035156 242.84375 C 330.910156 242.835938 330.792969 242.808594 330.683594 242.765625 Z M 443.714844 289.28125 C 443.636719 289.253906 443.554688 289.214844 443.480469 289.164062 C 442.894531 288.789062 442.71875 288.007812 443.097656 287.417969 C 444.160156 285.761719 445.15625 284.117188 446.066406 282.527344 C 446.414062 281.921875 447.1875 281.710938 447.792969 282.058594 C 448.398438 282.40625 448.609375 283.179688 448.261719 283.785156 C 447.332031 285.410156 446.3125 287.09375 445.226562 288.78125 C 444.898438 289.296875 444.261719 289.492188 443.714844 289.28125 Z M 330.332031 256.847656 C 329.863281 256.671875 329.527344 256.222656 329.515625 255.695312 C 329.46875 253.753906 329.460938 251.785156 329.492188 249.847656 C 329.503906 249.152344 330.078125 248.59375 330.777344 248.605469 C 331.472656 248.617188 332.03125 249.191406 332.019531 249.890625 C 331.992188 251.792969 332 253.726562 332.042969 255.636719 C 332.058594 256.335938 331.507812 256.914062 330.808594 256.929688 C 330.640625 256.933594 330.480469 256.902344 330.332031 256.847656 Z M 435.542969 300.703125 C 435.421875 300.660156 435.308594 300.59375 435.203125 300.515625 C 434.65625 300.082031 434.5625 299.285156 434.996094 298.738281 C 436.1875 297.230469 437.355469 295.691406 438.46875 294.171875 C 438.878906 293.605469 439.671875 293.480469 440.234375 293.894531 C 440.796875 294.308594 440.921875 295.097656 440.511719 295.660156 C 439.382812 297.210938 438.195312 298.773438 436.980469 300.304688 C 436.628906 300.75 436.042969 300.894531 435.542969 300.703125 Z M 331.359375 270.878906 C 330.9375 270.71875 330.613281 270.335938 330.550781 269.855469 C 330.3125 267.953125 330.109375 265.992188 329.949219 264.035156 C 329.890625 263.339844 330.410156 262.730469 331.105469 262.675781 C 331.804688 262.617188 332.414062 263.136719 332.46875 263.832031 C 332.625 265.753906 332.824219 267.671875 333.0625 269.539062 C 333.148438 270.234375 332.660156 270.863281 331.964844 270.953125 C 331.753906 270.976562 331.546875 270.949219 331.359375 270.878906 Z M 426.265625 311.246094 C 426.101562 311.183594 425.953125 311.089844 425.820312 310.960938 C 425.328125 310.464844 425.328125 309.664062 425.820312 309.171875 C 427.125 307.863281 428.445312 306.46875 429.742188 305.019531 C 430.207031 304.5 431.007812 304.449219 431.527344 304.917969 C 432.050781 305.382812 432.09375 306.179688 431.628906 306.703125 C 430.300781 308.1875 428.949219 309.621094 427.609375 310.957031 C 427.246094 311.320312 426.71875 311.417969 426.265625 311.246094 Z M 333.960938 284.695312 C 333.589844 284.554688 333.292969 284.242188 333.183594 283.828125 C 332.710938 281.984375 332.273438 280.0625 331.882812 278.113281 C 331.75 277.425781 332.195312 276.761719 332.878906 276.625 C 333.5625 276.492188 334.226562 276.9375 334.367188 277.621094 C 334.746094 279.523438 335.171875 281.402344 335.632812 283.199219 C 335.808594 283.878906 335.402344 284.566406 334.722656 284.738281 C 334.460938 284.804688 334.199219 284.785156 333.960938 284.695312 Z M 415.554688 320.308594 C 415.324219 320.222656 415.121094 320.066406 414.96875 319.851562 C 414.566406 319.277344 414.707031 318.488281 415.277344 318.089844 C 416.789062 317.035156 418.3125 315.878906 419.804688 314.648438 C 420.339844 314.207031 421.140625 314.285156 421.582031 314.824219 C 422.027344 315.359375 421.949219 316.15625 421.410156 316.601562 C 419.871094 317.871094 418.292969 319.070312 416.730469 320.164062 C 416.375 320.410156 415.933594 320.453125 415.554688 320.308594 Z M 338.53125 297.984375 C 338.230469 297.867188 337.96875 297.636719 337.828125 297.316406 C 337.046875 295.566406 336.308594 293.726562 335.636719 291.847656 C 335.402344 291.191406 335.742188 290.46875 336.402344 290.234375 C 337.054688 290 337.78125 290.339844 338.015625 291 C 338.667969 292.820312 339.382812 294.597656 340.136719 296.289062 C 340.421875 296.925781 340.132812 297.675781 339.496094 297.957031 C 339.179688 298.097656 338.835938 298.097656 338.53125 297.984375 Z M 403.226562 326.96875 C 402.902344 326.847656 402.628906 326.59375 402.496094 326.246094 C 402.242188 325.59375 402.5625 324.863281 403.214844 324.609375 C 404.933594 323.941406 406.664062 323.164062 408.363281 322.285156 C 408.984375 321.964844 409.746094 322.207031 410.066406 322.828125 C 410.386719 323.449219 410.144531 324.210938 409.523438 324.53125 C 407.746094 325.449219 405.933594 326.269531 404.132812 326.964844 C 403.828125 327.085938 403.507812 327.078125 403.226562 326.96875 Z M 345.578125 310.117188 C 345.363281 310.035156 345.164062 309.890625 345.015625 309.695312 C 343.859375 308.148438 342.746094 306.5 341.714844 304.789062 C 341.351562 304.191406 341.542969 303.414062 342.140625 303.054688 C 342.738281 302.695312 343.515625 302.886719 343.878906 303.484375 C 344.867188 305.121094 345.933594 306.703125 347.039062 308.179688 C 347.457031 308.738281 347.34375 309.53125 346.785156 309.949219 C 346.425781 310.21875 345.96875 310.265625 345.578125 310.117188 Z M 389.582031 330.113281 C 389.140625 329.945312 388.808594 329.535156 388.769531 329.03125 C 388.714844 328.335938 389.234375 327.726562 389.929688 327.671875 C 391.789062 327.527344 393.664062 327.261719 395.5 326.886719 C 396.1875 326.746094 396.851562 327.1875 396.996094 327.871094 C 397.132812 328.554688 396.695312 329.222656 396.007812 329.363281 C 394.070312 329.757812 392.09375 330.039062 390.128906 330.191406 C 389.9375 330.207031 389.75 330.175781 389.582031 330.113281 Z M 355.414062 320.082031 C 355.304688 320.039062 355.195312 319.980469 355.097656 319.90625 C 353.539062 318.722656 352.023438 317.421875 350.597656 316.042969 C 350.097656 315.558594 350.082031 314.757812 350.570312 314.257812 C 351.054688 313.753906 351.855469 313.746094 352.359375 314.226562 C 353.710938 315.535156 355.144531 316.769531 356.625 317.894531 C 357.183594 318.316406 357.292969 319.109375 356.867188 319.664062 C 356.519531 320.121094 355.925781 320.273438 355.414062 320.082031 Z M 375.605469 329.152344 C 375.035156 328.9375 374.6875 328.328125 374.820312 327.710938 C 374.960938 327.03125 375.632812 326.59375 376.316406 326.734375 C 378.179688 327.128906 380.058594 327.417969 381.894531 327.59375 C 382.589844 327.660156 383.101562 328.277344 383.03125 328.972656 C 382.96875 329.667969 382.351562 330.175781 381.652344 330.109375 C 379.722656 329.925781 377.753906 329.621094 375.796875 329.210938 Z M 367.675781 326.839844 L 367.664062 326.835938 C 365.796875 326.128906 363.980469 325.316406 362.25 324.421875 C 361.628906 324.101562 361.386719 323.339844 361.707031 322.71875 C 362.027344 322.097656 362.789062 321.851562 363.414062 322.179688 C 365.054688 323.027344 366.785156 323.800781 368.550781 324.46875 C 369.203125 324.714844 369.542969 325.449219 369.296875 326.101562 C 369.050781 326.753906 368.328125 327.085938 367.675781 326.839844 Z M 367.675781 326.839844 " fill-opacity="1" fill-rule="nonzero"/></g></g></g></g></svg>