<svg xmlns="http://www.w3.org/2000/svg" xmlns:xlink="http://www.w3.org/1999/xlink" width="1024" zoomAndPan="magnify" viewBox="0 0 768 767.999994" height="1024" preserveAspectRatio="xMidYMid meet" version="1.0"><defs><clipPath id="910d9627a7"><path d="M 224.625 0 L 635.625 0 L 635.625 523.960938 L 224.625 523.960938 Z M 224.625 0 " clip-rule="nonzero"/></clipPath><clipPath id="7a0ca28ca5"><path d="M 1 0 L 411 0 L 411 523.960938 L 1 523.960938 Z M 1 0 " clip-rule="nonzero"/></clipPath><clipPath id="1ad9bfb9d2"><rect x="0" width="412" y="0" height="524"/></clipPath></defs><g clip-path="url(#910d9627a7)"><g transform="matrix(1, 0, 0, 1, 224, -0.000000000000057351)"><g clip-path="url(#1ad9bfb9d2)"><g clip-path="url(#7a0ca28ca5)"><path fill="#000000" d="M 402.390625 238.335938 L 401.84375 238.949219 L 401.691406 239.085938 L 401.640625 239.171875 L 401.382812 239.441406 L 401.351562 239.441406 L 401.28125 239.496094 L 400.941406 239.785156 L 399.445312 240.925781 C 398.898438 241.417969 398.253906 241.828125 397.605469 242.203125 C 398.457031 243.871094 399.136719 245.59375 399.648438 247.261719 C 400.636719 250.820312 401.25 254.3125 401.589844 257.734375 C 402.253906 264.582031 402.097656 271.175781 401.929688 277.59375 C 401.726562 284.015625 401.402344 290.265625 401.488281 296.246094 C 401.589844 297.691406 401.589844 299.207031 401.726562 300.589844 L 401.929688 302.632812 L 402.21875 304.929688 C 402.59375 308.082031 402.984375 311.183594 403.375 314.265625 C 405.4375 339.386719 400.824219 362.71875 397.878906 384.335938 C 394.609375 406.542969 388.6875 426.898438 384.636719 446.039062 C 383.820312 450.859375 383.003906 455.613281 382.21875 460.28125 C 381.777344 462.785156 381.351562 465.234375 380.910156 467.6875 C 380.296875 470.140625 379.734375 472.644531 378.917969 474.960938 C 375.75 484.398438 371.667969 492.332031 369.453125 500.527344 L 363.085938 523.960938 L 361.554688 499.625 C 361.351562 496.507812 361.164062 493.441406 360.960938 490.375 C 360.585938 487.34375 360.210938 484.363281 359.820312 481.398438 C 359.328125 478.605469 358.832031 475.828125 358.371094 473.085938 C 358.21875 472.558594 358.132812 471.792969 358 471.417969 C 357.878906 471.570312 357.761719 471.691406 357.605469 471.792969 L 357.386719 471.980469 C 357.386719 472.015625 357.0625 472.441406 356.703125 472.765625 L 351.53125 477.890625 L 349.742188 471.914062 C 347.972656 465.882812 345.402344 460.195312 343.410156 453.859375 C 342.050781 449.480469 341.386719 444.96875 341.113281 440.554688 L 337.847656 441.9375 L 336.5 438.71875 C 335.429688 436.128906 334.542969 433.503906 333.863281 430.898438 C 333.351562 430.234375 332.824219 429.503906 332.246094 428.71875 C 331.34375 427.492188 330.035156 425.703125 329.453125 424.769531 C 328.757812 423.730469 327.992188 422.589844 327.140625 421.363281 C 326.800781 420.800781 326.390625 420.21875 325.980469 419.605469 C 325.8125 419.316406 325.609375 419.027344 325.402344 418.703125 L 325.113281 418.261719 C 325.082031 418.210938 324.996094 418.089844 324.960938 418.089844 L 324.960938 418.382812 C 324.84375 419.8125 324.6875 421.191406 324.519531 422.46875 C 324.519531 422.945312 323.683594 427.015625 322.867188 430.132812 C 321.027344 436.707031 318.714844 444.148438 313.386719 451.441406 C 312.023438 453.246094 310.410156 455.015625 308.433594 456.566406 C 307.414062 457.332031 306.339844 458.066406 305.132812 458.679688 C 304.671875 458.882812 303.683594 459.394531 302.75 459.632812 C 301.847656 459.871094 300.875 460.195312 299.972656 460.332031 C 299.074219 460.398438 298.121094 460.570312 297.234375 460.570312 C 296.332031 460.535156 295.429688 460.535156 294.527344 460.519531 L 293.097656 460.449219 L 292.398438 460.433594 L 292.042969 460.433594 C 292.007812 460.332031 292.042969 460.230469 292.042969 460.109375 C 292.144531 459.257812 292.195312 458.390625 292.28125 457.503906 C 292.28125 455.902344 292.894531 453.6875 293.351562 451.609375 C 293.675781 450.214844 294 448.816406 294.324219 447.386719 C 295.480469 442.550781 296.332031 437.558594 297.4375 432.332031 C 297.914062 429.707031 298.222656 427.050781 298.628906 424.308594 C 299.019531 421.601562 299.480469 418.824219 299.515625 415.996094 C 299.652344 413.1875 299.804688 410.308594 299.972656 407.394531 C 299.941406 405.964844 299.839844 404.550781 299.753906 403.101562 C 299.601562 401.605469 299.414062 400.121094 299.242188 398.605469 C 299.039062 397.007812 298.867188 395.371094 298.664062 393.734375 C 298.597656 391.980469 298.375 390.175781 298.460938 388.386719 C 298.664062 384.777344 299.15625 381.25 299.890625 377.777344 C 301.351562 370.828125 303.566406 364.101562 305.164062 357.269531 C 306.648438 350.679688 307.785156 342.878906 309.164062 335.179688 C 312.347656 319.699219 317.269531 303.363281 324.550781 286.960938 C 328.195312 278.652344 332.757812 270.628906 336.910156 262.402344 C 340.945312 254.398438 344.707031 246.085938 346.527344 237.3125 C 341.8125 233.347656 338 227.707031 335.835938 221.234375 C 335.496094 220.179688 335.140625 219.074219 334.851562 217.964844 C 305.539062 214.816406 276.296875 211.203125 247.125 207.082031 C 213.421875 202.296875 179.976562 194.972656 146.277344 190.628906 C 132.984375 188.910156 119.605469 192.179688 106.328125 192.910156 C 90.652344 193.78125 74.703125 190.375 59.214844 188.363281 C 45.871094 186.644531 32.660156 185.519531 19.25 184.652344 C 14.382812 184.363281 9.988281 183.1875 6.570312 180.273438 C 4.507812 180.632812 2.550781 178.707031 2.382812 176.628906 C 0.953125 160.824219 2.976562 145.820312 7.0625 130.539062 C 11.113281 115.449219 15.640625 98.757812 22.773438 84.84375 C 23.078125 84.300781 23.417969 83.890625 23.828125 83.566406 C 55.757812 7.484375 150.890625 -9.460938 224.675781 5.917969 C 267.003906 14.722656 299.921875 37.273438 329.863281 67.402344 C 341.964844 79.5625 358 89.835938 364.671875 106.371094 C 367.988281 114.582031 369.707031 123.097656 368.023438 131.9375 C 365.453125 145.496094 359.273438 158.183594 366.765625 171.382812 C 366.96875 171.722656 367.085938 172.082031 367.171875 172.40625 C 368.925781 172.746094 370.679688 173.15625 372.398438 173.632812 C 375.070312 174.382812 377.675781 175.234375 380.296875 176.1875 C 381.65625 176.679688 382.746094 177.089844 384.210938 177.703125 C 385.539062 178.402344 387.003906 179.015625 388.261719 179.832031 C 393.179688 182.929688 397.148438 186.867188 400.347656 191.207031 C 403.5625 195.570312 406.097656 200.320312 407.871094 205.277344 C 411.460938 215.140625 411.496094 226.804688 404.6875 235.816406 C 403.9375 236.71875 403.15625 237.484375 402.390625 238.335938 " fill-opacity="1" fill-rule="nonzero"/><path fill="#000000" d="M 339.753906 207.40625 C 339.648438 203.386719 339.9375 198.738281 340.738281 194.511719 C 341.148438 192.351562 341.726562 190.253906 342.492188 188.246094 C 342.800781 187.15625 343.308594 186.492188 343.683594 185.554688 C 344.09375 184.703125 344.890625 183.664062 345.523438 182.691406 L 345.539062 182.691406 L 345.660156 182.554688 L 345.898438 182.316406 L 346.390625 181.859375 C 346.664062 181.464844 347.054688 181.246094 347.445312 180.972656 C 348.144531 180.394531 349.078125 180.035156 349.949219 179.628906 C 351.785156 178.910156 353.949219 178.605469 356.195312 178.519531 C 360.703125 178.433594 365.574219 179.335938 370.441406 180.71875 C 372.859375 181.382812 375.308594 182.199219 377.726562 183.101562 C 378.832031 183.511719 380.296875 184.074219 381.316406 184.480469 C 382.339844 185.058594 383.394531 185.46875 384.414062 186.132812 C 392.195312 191.039062 397.964844 199.351562 401.0625 207.695312 C 402.628906 211.917969 403.359375 216.296875 403.085938 220.417969 C 402.917969 224.472656 401.453125 228.492188 399.5625 231.269531 C 398.898438 232.085938 398.117188 232.9375 397.386719 233.773438 L 396.824219 234.386719 L 396.738281 234.46875 L 396.5 234.691406 L 395.375 235.59375 C 394.660156 236.257812 393.878906 236.703125 393.09375 237.109375 C 392.347656 237.65625 391.546875 237.84375 390.765625 238.148438 C 387.664062 239.257812 384.550781 238.234375 381.726562 236.308594 C 378.898438 234.332031 376.535156 231.4375 374.542969 228.492188 C 372.550781 225.527344 370.917969 222.394531 369.503906 219.34375 L 364.910156 209.125 L 364.347656 220.164062 C 364.261719 221.679688 363.769531 222.632812 363.15625 223.074219 C 362.558594 223.605469 361.265625 223.6875 359.921875 223.449219 C 357.214844 222.90625 354.558594 221.234375 352.484375 219.398438 C 348.3125 215.667969 346.339844 210.914062 346.304688 207.03125 C 346.21875 203.082031 347.820312 200.082031 348.859375 198.242188 C 349.980469 196.320312 350.765625 195.296875 350.492188 195.09375 C 350.320312 194.972656 349.285156 195.535156 347.648438 197.289062 C 346.066406 199.027344 343.769531 202.074219 343.328125 206.914062 C 342.832031 211.664062 344.808594 217.710938 349.503906 222.480469 C 351.90625 224.847656 354.78125 227.09375 358.867188 228.203125 C 360.839844 228.644531 363.445312 228.96875 365.949219 227.382812 C 366.304688 227.164062 366.558594 226.855469 366.847656 226.636719 C 367.667969 228.289062 368.601562 229.992188 369.65625 231.675781 C 371.667969 234.894531 374.117188 238.183594 377.589844 240.925781 C 375.496094 241.011719 373.265625 241.078125 370.96875 240.976562 C 369.625 240.839844 368.382812 240.890625 366.882812 240.601562 C 366.117188 240.464844 365.402344 240.3125 364.621094 240.191406 L 363.5625 239.988281 L 362.476562 239.699219 C 359.566406 239 356.621094 237.808594 353.878906 236.089844 C 348.363281 232.699219 343.886719 226.773438 341.675781 219.34375 C 341.351562 218.425781 341.113281 217.472656 340.910156 216.5 C 340.652344 215.546875 340.46875 214.558594 340.332031 213.554688 C 339.972656 211.527344 339.804688 209.738281 339.753906 207.40625 Z M 300.09375 453.074219 L 300.210938 452.667969 L 300.433594 451.898438 C 300.671875 450.945312 300.910156 449.941406 301.164062 448.988281 C 302.425781 444.183594 303.445312 439.007812 304.636719 433.691406 C 305.164062 430.984375 305.574219 428.207031 306.050781 425.382812 C 306.476562 422.519531 307.039062 419.675781 307.125 416.644531 C 307.328125 413.59375 307.53125 410.527344 307.734375 407.394531 C 307.734375 405.777344 307.617188 404.125 307.546875 402.457031 C 307.445312 400.855469 307.242188 399.269531 307.054688 397.636719 C 306.917969 396.121094 306.730469 394.585938 306.59375 393.039062 C 306.5625 391.574219 306.355469 390.109375 306.441406 388.660156 C 306.628906 387.179688 306.679688 385.714844 306.9375 384.164062 C 307.242188 382.613281 307.445312 381.0625 307.820312 379.464844 C 309.214844 373.144531 311.464844 366.519531 313.234375 359.195312 C 315.019531 351.582031 316.042969 344.429688 317.472656 336.847656 C 320.636719 321.878906 325.402344 306.363281 332.519531 290.488281 C 335.957031 282.636719 340.414062 274.820312 344.722656 266.371094 C 348.433594 258.960938 352.160156 251.023438 354.441406 242.117188 C 355.71875 242.679688 357.027344 243.171875 358.339844 243.546875 C 358.902344 245.964844 358.714844 249.40625 358.082031 253.152344 C 357.113281 258.894531 355.191406 265.691406 352.808594 273.183594 C 350.355469 280.78125 347.90625 289.125 345.316406 297.898438 C 342.714844 306.683594 340.296875 315.046875 338.21875 322.730469 C 336.246094 330.429688 334.492188 337.378906 333.132812 343.203125 C 330.324219 354.902344 328.960938 362.191406 329.625 362.378906 C 330.273438 362.515625 332.859375 355.515625 336.484375 344.105469 C 338.289062 338.398438 340.363281 331.570312 342.59375 323.988281 C 344.875 316.375 347.378906 308.03125 350.03125 299.277344 C 352.570312 290.488281 354.953125 282.125 357.148438 274.496094 C 359.328125 266.832031 360.960938 259.746094 361.523438 253.578125 C 361.777344 250.496094 361.84375 247.667969 361.367188 245.132812 C 361.316406 244.808594 361.234375 244.519531 361.148438 244.230469 C 361.265625 244.230469 361.351562 244.246094 361.4375 244.28125 L 362.695312 244.535156 L 363.9375 244.6875 C 364.703125 244.773438 365.453125 244.859375 366.21875 244.945312 C 367.699219 245.148438 369.386719 245.0625 370.882812 245.097656 C 375.191406 244.980469 378.898438 244.449219 382.101562 243.941406 C 380.652344 257.941406 382.050781 270.714844 383.480469 282.175781 C 385.078125 294.335938 386.882812 305.203125 387.769531 314.964844 C 389.300781 334.601562 388.195312 349.996094 386.472656 361.578125 C 384.703125 373.160156 382.746094 381.0625 381.488281 386.121094 C 380.226562 391.128906 379.851562 393.378906 380.160156 393.480469 C 380.449219 393.582031 381.367188 391.523438 383.15625 386.582031 C 384.875 381.675781 387.324219 373.808594 389.539062 362.074219 C 391.664062 350.390625 393.128906 334.652344 391.785156 314.640625 C 391.019531 304.609375 389.25 293.707031 387.734375 281.648438 C 386.390625 270.425781 385.078125 258.078125 386.421875 244.925781 C 387.15625 245.011719 387.902344 245.046875 388.636719 245.097656 C 388.804688 245.0625 388.976562 245.046875 389.164062 245.046875 C 391.324219 248.691406 392.433594 253.613281 392.855469 258.605469 C 393.453125 264.734375 393.351562 271.039062 393.179688 277.339844 C 393.011719 283.640625 392.652344 289.960938 392.773438 296.414062 C 392.824219 298.085938 392.855469 299.652344 393.027344 301.371094 L 393.300781 303.910156 L 393.589844 306.191406 C 393.945312 309.136719 394.320312 312.085938 394.695312 315.03125 C 396.652344 338.570312 392.347656 361.238281 389.367188 383.175781 C 386.304688 404.652344 380.550781 424.664062 376.449219 444.40625 C 375.632812 449.394531 374.816406 454.320312 374 459.171875 C 373.625 461.472656 373.25 463.71875 372.824219 465.96875 C 372.3125 468.164062 371.871094 470.3125 371.121094 472.441406 C 370.152344 475.386719 369.011719 478.367188 367.820312 481.347656 C 367.75 480.957031 367.699219 480.546875 367.648438 480.171875 C 367.378906 478.621094 367.085938 477.074219 366.796875 475.558594 L 366.390625 473.292969 L 366.152344 472.152344 L 366.066406 471.570312 L 365.828125 470.582031 C 364.636719 465.355469 363.445312 460.195312 362.269531 455.050781 L 359.15625 458.816406 C 358.03125 460.125 356.824219 461.625 355.71875 462.785156 L 354.984375 463.550781 C 353.421875 459.375 351.785156 455.375 350.578125 451.644531 C 348.808594 446.109375 348.261719 440.554688 348.347656 434.9375 L 343.207031 433.351562 C 342.800781 432.996094 342.390625 432.585938 342.050781 432.195312 C 342.050781 432.210938 342.015625 432.210938 341.898438 432.277344 L 341.8125 432.296875 C 339.617188 426.027344 338.613281 419.386719 338.203125 412.929688 C 337.691406 405.285156 338.050781 397.839844 338.746094 390.753906 C 340.210938 376.617188 343.039062 363.777344 346.664062 352.636719 C 354.289062 329.867188 359.429688 311.316406 362.269531 296.703125 C 365.128906 282.125 366.21875 271.652344 366.628906 264.855469 C 366.96875 258.058594 366.917969 254.925781 366.542969 254.890625 C 366.152344 254.890625 365.488281 257.941406 364.433594 264.582031 C 363.359375 271.257812 361.640625 281.5625 358.203125 295.800781 C 354.78125 310.09375 349.183594 328.214844 341.078125 350.714844 C 337.0625 362.277344 333.914062 375.359375 332.160156 390.058594 C 331.328125 397.414062 330.851562 405.164062 331.257812 413.339844 C 331.410156 416.253906 331.667969 419.234375 332.109375 422.265625 C 332.007812 422.128906 331.957031 422.027344 331.90625 421.890625 C 330.59375 419.488281 329.164062 416.832031 327.617188 413.988281 C 326.800781 412.488281 325.949219 410.957031 325.046875 409.320312 C 324.585938 408.503906 324.144531 407.652344 323.652344 406.800781 L 322.953125 405.488281 C 322.800781 405.285156 322.699219 404.992188 322.5625 404.839844 L 322.273438 404.621094 C 321.726562 408.46875 321.113281 413.304688 320.246094 417.921875 C 319.15625 423.335938 318.542969 425.328125 317.558594 428.632812 C 315.632812 434.714844 313.03125 441.664062 308.433594 447.558594 C 307.257812 448.988281 305.949219 450.332031 304.484375 451.390625 C 303.769531 451.898438 303.003906 452.375 302.222656 452.75 C 301.695312 452.957031 301.695312 452.988281 301.558594 453.007812 L 301.164062 453.125 C 300.910156 453.160156 300.65625 453.160156 300.382812 453.160156 C 300.296875 453.125 300.09375 453.160156 300.09375 453.074219 Z M 43.042969 179.082031 C 37.324219 178.402344 22.058594 179.320312 14.042969 176.050781 C 41.582031 161.523438 73.101562 171.671875 103.570312 171.84375 C 135.144531 171.996094 166.039062 171.996094 196.980469 179.167969 C 227.210938 186.203125 258.375 184.890625 288.757812 190.664062 C 295.683594 192.007812 305.8125 192.589844 311.140625 197.835938 C 313.964844 200.644531 316.417969 203.898438 319.359375 206.589844 C 320.535156 207.644531 321.660156 208.546875 322.800781 209.363281 C 268.792969 203.320312 214.9375 195.6875 161.492188 185.757812 C 134.703125 180.769531 108.660156 187.683594 81.75 184.039062 C 68.882812 182.316406 55.964844 180.5625 43.042969 179.082031 Z M 12 167.144531 C 12.371094 166.410156 12.746094 165.660156 13.222656 164.960938 C 17.800781 158.011719 24.714844 152.683594 31.011719 147.011719 C 34.175781 144.011719 36.984375 141.730469 40.304688 139.636719 C 43.65625 137.660156 47.09375 135.90625 50.601562 134.269531 C 54.039062 132.636719 57.53125 130.949219 60.832031 129.078125 C 62.398438 128.121094 63.894531 127.269531 65.496094 126.25 C 66.976562 125.3125 68.441406 124.375 69.871094 123.472656 C 72.710938 121.632812 75.640625 120.203125 78.347656 118.667969 C 81.207031 117.410156 83.859375 115.945312 86.550781 115.023438 C 97.203125 110.902344 106.601562 109.796875 112.984375 109.351562 C 119.453125 109.03125 123.09375 108.945312 123.09375 108.570312 C 123.09375 108.28125 119.554688 107.699219 112.984375 107.429688 C 106.394531 107.308594 96.660156 107.90625 85.339844 111.753906 C 82.5 112.625 79.722656 114.019531 76.695312 115.246094 C 73.835938 116.761719 70.738281 118.160156 67.792969 119.980469 C 66.277344 120.851562 64.761719 121.753906 63.25 122.6875 C 61.734375 123.558594 60.183594 124.445312 58.601562 125.347656 C 55.519531 127.015625 52.203125 128.546875 48.679688 130.148438 C 45.136719 131.765625 41.496094 133.503906 37.886719 135.617188 C 34.328125 137.746094 30.722656 140.691406 27.777344 143.433594 C 22.976562 147.726562 17.53125 151.949219 12.832031 157.402344 C 12.816406 157.316406 12.816406 157.265625 12.816406 157.179688 C 12.746094 156.257812 12.371094 155.441406 12.082031 154.539062 C 14.636719 149.378906 18.007812 144.625 21.582031 140.316406 C 27.0625 133.8125 33.054688 128.140625 38.875 122.808594 C 50.738281 112.179688 60.421875 101.808594 69.714844 94.738281 C 78.941406 87.535156 87.65625 83.769531 93.867188 81.933594 C 95.402344 81.523438 96.796875 81.148438 98.003906 80.859375 C 99.214844 80.535156 100.304688 80.382812 101.121094 80.175781 C 102.804688 79.804688 103.691406 79.546875 103.691406 79.394531 C 103.65625 79.222656 102.753906 79.191406 101 79.257812 C 100.148438 79.308594 99.078125 79.308594 97.816406 79.480469 C 96.542969 79.683594 95.078125 79.921875 93.425781 80.175781 C 86.925781 81.523438 77.527344 84.996094 67.777344 92.082031 C 57.851562 99.066406 47.878906 109.234375 35.929688 119.539062 C 30.007812 124.816406 23.742188 130.558594 18.007812 137.269531 C 17.769531 137.574219 17.53125 137.832031 17.292969 138.121094 C 17.886719 136.808594 18.433594 135.53125 19.027344 134.203125 C 19.949219 131.972656 21.003906 129.773438 22.109375 127.613281 C 23.214844 125.464844 24.269531 123.335938 25.34375 121.207031 C 29.886719 112.863281 34.550781 104.890625 39.367188 97.566406 C 41.769531 93.886719 44.117188 90.328125 46.515625 86.921875 C 47.09375 86.070312 47.675781 85.203125 48.269531 84.351562 L 49.136719 83.105469 L 49.460938 82.628906 L 49.953125 82.050781 C 51.265625 80.46875 52.542969 78.953125 53.800781 77.433594 C 54.992188 75.835938 56.421875 74.691406 57.734375 73.449219 C 59.078125 72.222656 60.335938 70.929688 61.664062 69.804688 C 64.558594 67.691406 67.128906 65.429688 69.921875 63.671875 C 80.882812 56.382812 90.652344 51.734375 97.324219 48.445312 C 104.03125 45.144531 107.707031 43.253906 107.570312 42.929688 C 107.453125 42.640625 103.503906 43.917969 96.542969 46.691406 C 89.628906 49.46875 79.539062 53.640625 68.03125 60.761719 C 65.085938 62.445312 62.347656 64.730469 59.28125 66.839844 C 57.820312 68.015625 56.421875 69.363281 54.941406 70.640625 C 53.511719 71.984375 51.878906 73.261719 50.6875 74.777344 C 49.394531 76.277344 48.082031 77.792969 46.738281 79.308594 L 46.246094 79.886719 C 45.871094 80.363281 45.902344 80.363281 45.699219 80.621094 L 44.796875 81.878906 C 44.183594 82.714844 43.605469 83.566406 42.992188 84.433594 C 40.507812 87.824219 38.058594 91.382812 35.589844 95.097656 C 33.121094 98.707031 30.738281 102.472656 28.355469 106.371094 C 28.746094 105.503906 29.136719 104.636719 29.511719 103.699219 C 30.328125 101.738281 31.300781 99.847656 32.320312 97.925781 C 33.324219 96 34.363281 94.007812 35.402344 91.996094 C 37.496094 88.027344 40.183594 84.179688 42.636719 80.058594 C 44.066406 78.152344 45.511719 76.191406 47.011719 74.199219 C 48.492188 72.242188 49.886719 70.179688 51.675781 68.375 C 53.359375 66.5 55.078125 64.609375 56.796875 62.703125 C 57.648438 61.714844 58.585938 60.8125 59.570312 59.976562 C 60.558594 59.09375 61.527344 58.222656 62.515625 57.335938 C 63.503906 56.46875 64.507812 55.582031 65.496094 54.679688 L 66.976562 53.335938 L 68.574219 52.210938 C 70.738281 50.660156 72.933594 49.09375 75.144531 47.511719 L 76.78125 46.351562 L 78.636719 45.332031 C 79.859375 44.613281 81.121094 43.949219 82.347656 43.253906 C 83.605469 42.554688 84.847656 41.871094 86.105469 41.175781 L 87.859375 40.1875 L 89.800781 39.335938 C 92.421875 38.210938 95.027344 37.070312 97.679688 35.929688 C 100.386719 34.976562 103.128906 34.003906 105.902344 33.03125 C 117 29.472656 128.199219 26.800781 139.195312 25.417969 C 140.539062 25.214844 141.902344 25.011719 143.28125 24.804688 C 144.640625 24.6875 145.988281 24.585938 147.347656 24.433594 C 150.039062 24.175781 152.726562 23.9375 155.382812 23.683594 C 160.710938 23.527344 165.917969 23.035156 171.023438 23.121094 C 191.414062 22.984375 209.765625 24.992188 225.015625 27.652344 C 240.230469 30.289062 252.402344 33.476562 260.671875 35.894531 C 269.011719 38.414062 273.625 39.863281 273.726562 39.523438 C 273.726562 39.199219 269.386719 37.121094 261.320312 34.089844 C 253.097656 31.089844 240.996094 27.34375 225.660156 24.226562 C 210.324219 21.109375 191.753906 18.691406 171.007812 18.605469 C 165.816406 18.417969 160.503906 18.863281 155.074219 18.980469 C 152.371094 19.203125 149.628906 19.441406 146.855469 19.714844 C 145.492188 19.832031 144.082031 19.933594 142.71875 20.054688 C 141.324219 20.257812 139.925781 20.464844 138.53125 20.632812 C 127.296875 21.980469 115.808594 24.6875 104.355469 28.332031 C 101.496094 29.371094 98.667969 30.359375 95.859375 31.347656 C 93.152344 32.539062 90.449219 33.730469 87.742188 34.90625 L 85.734375 35.808594 C 84.847656 36.253906 84.421875 36.542969 83.707031 36.917969 C 82.464844 37.613281 81.238281 38.3125 79.980469 38.996094 C 78.71875 39.691406 77.511719 40.390625 76.269531 41.089844 L 74.449219 42.109375 L 72.660156 43.371094 C 70.328125 45.058594 67.996094 46.742188 65.699219 48.414062 L 63.980469 49.671875 L 62.429688 51.070312 C 61.410156 52.007812 60.390625 52.945312 59.367188 53.847656 C 58.347656 54.78125 57.359375 55.703125 56.335938 56.605469 C 55.316406 57.507812 54.363281 58.445312 53.476562 59.464844 C 51.707031 61.476562 49.953125 63.46875 48.203125 65.429688 C 46.398438 67.320312 44.96875 69.5 43.453125 71.542969 C 41.972656 73.621094 40.472656 75.628906 39.042969 77.640625 C 36.578125 81.933594 33.886719 85.933594 31.8125 90.074219 C 30.773438 92.152344 29.785156 94.195312 28.78125 96.203125 C 27.777344 98.179688 26.808594 100.171875 26.039062 102.148438 C 24.476562 106.152344 22.808594 109.933594 21.496094 113.59375 C 20.507812 116.21875 19.574219 118.753906 18.636719 121.207031 C 18.585938 120.320312 18.433594 119.792969 18.144531 119.742188 C 18.125 119.742188 18.023438 119.777344 18.007812 119.777344 C 20.59375 110.953125 23.097656 101.945312 26.722656 93.566406 C 27.46875 93.191406 28.117188 92.527344 28.476562 91.539062 C 57.921875 9.988281 165.425781 -6.105469 239.039062 17.191406 C 257.4375 23 275.277344 30.988281 291.054688 42.230469 C 306.832031 53.488281 319.105469 67.796875 333.4375 80.621094 C 349.046875 94.621094 365.777344 110.851562 360.261719 133.949219 C 359.683594 136.367188 359.105469 138.699219 358.542969 141.015625 C 358.507812 140.316406 358.492188 139.636719 358.425781 138.902344 C 358.253906 136.367188 357.878906 133.574219 357.113281 130.96875 C 356.195312 128.429688 355.34375 125.753906 354.167969 123.183594 C 352.347656 119.691406 350.578125 116.234375 348.363281 113.269531 C 346.390625 110.136719 344.109375 107.429688 341.980469 104.824219 C 337.675781 99.660156 333.472656 95.386719 329.878906 91.878906 C 322.664062 84.945312 317.964844 80.859375 317.472656 81.320312 C 316.976562 81.796875 320.789062 86.71875 327.34375 94.28125 C 333.761719 101.824219 343.15625 112.09375 349.710938 125.277344 C 350.78125 127.613281 351.53125 130.046875 352.449219 132.3125 C 353.148438 134.714844 353.472656 136.945312 353.742188 139.3125 C 354.167969 144.046875 354.203125 148.679688 354.441406 153.007812 C 354.695312 157.28125 355.140625 161.285156 356.042969 164.691406 C 356.585938 166.851562 357.386719 168.691406 358.21875 170.292969 C 358.339844 170.652344 358.507812 170.992188 358.664062 171.347656 C 358.492188 171.347656 358.320312 171.347656 358.132812 171.347656 L 357.523438 170.15625 C 354.289062 163.871094 352.738281 156.972656 351.140625 150.160156 C 349.539062 143.347656 347.53125 136.722656 344.296875 130.914062 C 337.792969 119.25 328.433594 111.890625 320.707031 106.441406 C 312.808594 101.042969 306.101562 97.449219 301.523438 94.976562 C 296.875 92.527344 294.324219 91.265625 294.136719 91.539062 C 293.964844 91.792969 296.28125 93.546875 300.621094 96.460938 C 304.910156 99.40625 311.34375 103.441406 318.78125 109.0625 C 326.101562 114.703125 334.816406 122.128906 340.46875 132.925781 C 341.113281 134.269531 341.863281 135.496094 342.425781 137.0625 L 343.328125 139.347656 L 343.53125 139.925781 L 343.699219 140.417969 L 344.058594 141.527344 C 345.097656 144.574219 345.8125 147.828125 346.59375 151.183594 C 347.972656 157.265625 349.367188 163.820312 352.246094 170.242188 C 351.089844 170.941406 349.949219 172.253906 348.789062 172.253906 C 348.789062 172.253906 348.789062 172.253906 348.757812 172.253906 C 348.28125 172.253906 347.785156 172.660156 347.328125 172.832031 C 346.730469 173.121094 346.1875 173.511719 345.605469 173.769531 C 345.421875 173.1875 345.25 172.574219 345.046875 171.960938 C 342.152344 163.582031 337.488281 155.96875 331.515625 150.109375 C 325.609375 144.167969 318.699219 139.875 311.921875 136.605469 C 298.289062 130.132812 285.285156 126.894531 274.679688 123.660156 C 263.992188 120.558594 255.515625 117.699219 249.746094 115.398438 C 244.027344 113.152344 240.878906 111.636719 240.707031 111.960938 C 240.554688 112.214844 243.328125 114.292969 248.964844 117.152344 C 254.5625 120 263.039062 123.457031 273.625 126.980469 C 284.144531 130.625 296.980469 134.238281 309.914062 140.65625 C 316.332031 143.894531 322.714844 148.015625 328.074219 153.5 C 333.503906 158.917969 337.691406 165.832031 340.382812 173.5625 C 340.757812 174.652344 341.078125 175.726562 341.402344 176.832031 L 340.671875 177.566406 L 340.296875 178.007812 L 340.042969 178.265625 C 340.042969 178.265625 340.007812 178.316406 339.804688 178.554688 L 339.753906 178.671875 C 339.070312 179.746094 338.40625 180.597656 337.726562 181.875 C 337.148438 183.167969 336.332031 184.566406 335.992188 185.828125 C 335.667969 186.695312 335.429688 187.5625 335.171875 188.449219 C 334.882812 187.632812 334.613281 186.78125 334.289062 185.996094 C 331.257812 178.671875 326.355469 172.746094 321.4375 167.753906 C 311.257812 157.84375 300.09375 151.949219 290.851562 147.335938 C 281.558594 142.820312 273.863281 139.722656 268.554688 137.625 C 263.242188 135.546875 260.265625 134.527344 260.128906 134.832031 C 260.007812 135.121094 262.714844 136.691406 267.820312 139.296875 C 272.894531 141.882812 280.347656 145.445312 289.335938 150.28125 C 298.222656 155.21875 308.960938 161.316406 318.324219 170.855469 C 322.867188 175.660156 327.292969 181.175781 329.949219 187.855469 C 331.582031 191.804688 332.65625 196.027344 333.265625 200.40625 C 333.265625 200.730469 333.265625 201.054688 333.25 201.375 C 332.535156 200.355469 331.835938 199.316406 331.121094 198.277344 C 326.273438 191.039062 321.558594 183.59375 314.476562 177.941406 L 313.148438 176.867188 L 311.871094 176.050781 L 309.285156 174.414062 C 307.378906 173.15625 305.660156 172.421875 303.890625 171.433594 C 300.332031 169.5625 296.875 167.703125 293.386719 166.121094 C 279.601562 159.53125 266.441406 154.949219 255.074219 152.613281 C 252.246094 151.917969 249.472656 151.660156 246.921875 151.183594 C 244.351562 150.808594 241.933594 150.347656 239.601562 150.265625 C 237.320312 150.078125 235.175781 149.941406 233.183594 149.789062 C 231.226562 149.652344 229.457031 149.566406 227.855469 149.652344 C 221.40625 149.789062 217.882812 150.027344 217.847656 150.367188 C 217.847656 151.421875 232.332031 150.570312 254.273438 156.039062 C 265.285156 158.710938 277.964844 163.53125 291.394531 170.207031 C 294.816406 171.792969 298.171875 173.71875 301.640625 175.574219 C 303.308594 176.511719 305.285156 177.414062 306.730469 178.433594 L 309.300781 180.105469 L 310.578125 180.921875 L 311.632812 181.859375 C 313.03125 183.136719 314.527344 184.242188 315.835938 185.828125 L 317.878906 188.058594 L 319.734375 190.492188 C 322.273438 193.746094 324.585938 197.390625 327.039062 201.019531 C 327.871094 202.246094 328.6875 203.4375 329.539062 204.628906 C 322.253906 201.308594 317.640625 192.84375 310.613281 188.671875 C 300.65625 182.777344 284.84375 182.402344 273.472656 181.175781 C 257.199219 179.457031 240.792969 178.757812 224.554688 176.679688 C 208.4375 174.652344 192.894531 170.207031 176.863281 167.703125 C 145.203125 162.765625 112.984375 165.660156 81.121094 164.027344 C 68.066406 163.363281 54.617188 159.496094 41.410156 160.089844 C 45.054688 158.863281 48.679688 157.84375 52.234375 157.078125 C 55.726562 156.464844 58.960938 155.800781 62.398438 155.476562 C 64.082031 155.269531 65.75 155.050781 67.382812 154.898438 C 68.984375 154.8125 70.566406 154.726562 72.132812 154.660156 C 78.347656 154.367188 84.269531 154.574219 89.628906 154.8125 C 100.386719 155.355469 109.171875 155.882812 115.195312 155.882812 C 121.253906 155.832031 124.558594 155.542969 124.558594 155.238281 C 124.558594 154.898438 121.253906 154.539062 115.28125 154.046875 C 109.308594 153.5 100.675781 152.445312 89.867188 151.457031 C 84.4375 150.980469 78.5 150.554688 71.964844 150.691406 C 70.328125 150.722656 68.644531 150.773438 66.957031 150.808594 C 65.289062 150.929688 63.65625 151.132812 61.9375 151.285156 C 58.585938 151.507812 54.941406 152.15625 51.316406 152.734375 C 44.117188 154.234375 36.710938 156.53125 29.308594 159.496094 C 23.574219 161.777344 17.820312 164.433594 12 167.144531 Z M 7.0625 130.539062 C 2.976562 145.820312 0.953125 160.824219 2.382812 176.628906 C 2.550781 178.707031 4.507812 180.632812 6.570312 180.273438 C 9.988281 183.1875 14.382812 184.363281 19.25 184.652344 C 32.660156 185.519531 45.871094 186.644531 59.214844 188.363281 C 74.703125 190.375 90.652344 193.78125 106.328125 192.910156 C 119.605469 192.179688 132.984375 188.910156 146.277344 190.628906 C 179.976562 194.972656 213.421875 202.296875 247.125 207.082031 C 276.296875 211.203125 305.539062 214.816406 334.851562 217.964844 C 335.140625 219.074219 335.480469 220.179688 335.835938 221.234375 C 338 227.707031 341.8125 233.347656 346.527344 237.3125 C 344.707031 246.085938 340.945312 254.398438 336.910156 262.402344 C 332.738281 270.628906 328.195312 278.652344 324.550781 286.960938 C 317.269531 303.363281 312.332031 319.699219 309.164062 335.179688 C 307.785156 342.878906 306.648438 350.679688 305.164062 357.269531 C 303.566406 364.101562 301.351562 370.828125 299.890625 377.777344 C 299.15625 381.25 298.664062 384.777344 298.460938 388.386719 C 298.375 390.175781 298.613281 391.980469 298.664062 393.734375 C 298.867188 395.371094 299.039062 397.007812 299.242188 398.605469 C 299.414062 400.121094 299.601562 401.605469 299.753906 403.101562 C 299.839844 404.550781 299.941406 405.964844 299.972656 407.394531 C 299.804688 410.308594 299.652344 413.1875 299.515625 415.996094 C 299.480469 418.824219 299.019531 421.601562 298.628906 424.308594 C 298.222656 427.050781 297.914062 429.707031 297.4375 432.332031 C 296.332031 437.558594 295.480469 442.550781 294.324219 447.386719 C 294 448.816406 293.675781 450.214844 293.351562 451.609375 C 292.894531 453.6875 292.28125 455.902344 292.28125 457.503906 C 292.195312 458.390625 292.144531 459.257812 292.042969 460.109375 C 292.042969 460.230469 292.007812 460.332031 292.042969 460.433594 L 292.398438 460.433594 L 293.097656 460.449219 L 294.527344 460.519531 C 295.429688 460.535156 296.332031 460.535156 297.234375 460.570312 C 298.121094 460.570312 299.074219 460.398438 299.972656 460.332031 C 300.875 460.195312 301.847656 459.871094 302.75 459.632812 C 303.683594 459.394531 304.671875 458.882812 305.132812 458.679688 C 306.339844 458.066406 307.414062 457.332031 308.433594 456.566406 C 310.410156 455.035156 312.023438 453.246094 313.386719 451.441406 C 318.714844 444.148438 321.027344 436.707031 322.867188 430.132812 C 323.683594 427.015625 324.519531 422.945312 324.519531 422.46875 C 324.6875 421.191406 324.84375 419.8125 324.960938 418.382812 L 324.960938 418.089844 C 324.996094 418.089844 325.082031 418.210938 325.113281 418.261719 L 325.402344 418.703125 C 325.609375 419.027344 325.8125 419.316406 325.980469 419.605469 C 326.390625 420.21875 326.800781 420.800781 327.140625 421.363281 C 327.992188 422.589844 328.757812 423.730469 329.453125 424.769531 C 330.035156 425.703125 331.34375 427.492188 332.246094 428.71875 C 332.824219 429.503906 333.351562 430.234375 333.863281 430.898438 C 334.542969 433.503906 335.429688 436.128906 336.5 438.71875 L 337.847656 441.9375 L 341.113281 440.554688 C 341.371094 444.96875 342.050781 449.480469 343.410156 453.859375 C 345.402344 460.195312 347.972656 465.882812 349.742188 471.914062 L 351.53125 477.890625 L 356.703125 472.765625 C 357.0625 472.441406 357.386719 472.015625 357.386719 471.980469 L 357.605469 471.792969 C 357.761719 471.691406 357.878906 471.570312 358 471.417969 C 358.132812 471.792969 358.21875 472.558594 358.371094 473.085938 C 358.832031 475.828125 359.328125 478.605469 359.820312 481.398438 C 360.210938 484.363281 360.585938 487.34375 360.960938 490.375 C 361.164062 493.441406 361.351562 496.507812 361.554688 499.625 L 363.085938 523.960938 L 369.453125 500.527344 C 371.667969 492.332031 375.75 484.398438 378.917969 474.945312 C 379.734375 472.644531 380.296875 470.140625 380.910156 467.6875 C 381.351562 465.234375 381.777344 462.785156 382.21875 460.28125 C 383.003906 455.613281 383.820312 450.859375 384.636719 446.039062 C 388.6875 426.898438 394.609375 406.542969 397.878906 384.335938 C 400.824219 362.71875 405.4375 339.386719 403.375 314.265625 C 402.984375 311.183594 402.59375 308.082031 402.21875 304.929688 L 401.929688 302.632812 L 401.726562 300.589844 C 401.570312 299.207031 401.570312 297.691406 401.488281 296.246094 C 401.402344 290.265625 401.726562 284.015625 401.929688 277.59375 C 402.097656 271.175781 402.253906 264.582031 401.570312 257.734375 C 401.25 254.3125 400.636719 250.820312 399.648438 247.261719 C 399.136719 245.59375 398.457031 243.871094 397.605469 242.203125 C 398.253906 241.828125 398.898438 241.417969 399.445312 240.925781 L 400.941406 239.785156 L 401.28125 239.496094 L 401.351562 239.441406 L 401.382812 239.441406 L 401.640625 239.171875 L 401.691406 239.085938 L 401.84375 238.949219 L 402.390625 238.335938 C 403.15625 237.484375 403.9375 236.71875 404.703125 235.816406 C 411.496094 226.804688 411.460938 215.140625 407.871094 205.277344 C 406.097656 200.320312 403.5625 195.570312 400.347656 191.207031 C 397.148438 186.867188 393.179688 182.929688 388.261719 179.832031 C 387.003906 179.015625 385.539062 178.402344 384.210938 177.703125 C 382.746094 177.089844 381.65625 176.679688 380.296875 176.1875 C 377.675781 175.234375 375.070312 174.382812 372.398438 173.632812 C 370.679688 173.15625 368.925781 172.746094 367.171875 172.40625 C 367.085938 172.082031 366.96875 171.722656 366.765625 171.382812 C 359.273438 158.183594 365.453125 145.496094 368.023438 131.9375 C 369.707031 123.097656 367.988281 114.582031 364.671875 106.371094 C 358 89.835938 341.964844 79.5625 329.863281 67.402344 C 299.921875 37.273438 267.003906 14.722656 224.675781 5.917969 C 150.890625 -9.460938 55.757812 7.484375 23.828125 83.566406 C 23.417969 83.890625 23.078125 84.300781 22.773438 84.84375 C 15.640625 98.757812 11.113281 115.449219 7.0625 130.539062 " fill-opacity="1" fill-rule="nonzero"/></g><path fill="#d60000" d="M 114.667969 50.285156 C 113.015625 46.742188 113.917969 43.832031 116.167969 40.679688 C 118.429688 37.476562 125.136719 37.785156 126.277344 34.667969 C 128.199219 29.542969 137.476562 30.496094 137.238281 36.371094 C 137.066406 40.21875 132.847656 41.617188 136.132812 44.921875 C 138.992188 47.75 143.195312 50.917969 147.128906 52.125 C 147.382812 52.210938 147.585938 52.347656 147.789062 52.5 C 155.773438 44.445312 166.359375 39.8125 178.988281 42.179688 C 190.308594 44.273438 202.054688 50.710938 209.507812 60.0625 C 217.882812 53.726562 230.394531 36.679688 241.285156 48.617188 C 245.335938 53.046875 241.695312 58.800781 237.523438 61.355469 C 234.171875 63.433594 230 64.832031 226.425781 66.535156 C 222.886719 68.1875 219.246094 69.6875 215.398438 70.417969 C 215.636719 71.015625 215.875 71.644531 216.042969 72.273438 C 219.753906 84.878906 210.070312 98.828125 198.429688 103.410156 C 201.679688 106.933594 204.8125 110.496094 208.453125 113.644531 C 212.945312 117.546875 216.503906 116.726562 221.730469 117.578125 C 230.121094 118.960938 227.875 126.742188 223.089844 130.914062 C 221.816406 131.988281 220.4375 132.992188 219.109375 134.015625 C 217.355469 135.328125 218.546875 135.292969 217.609375 136.894531 C 216.199219 139.3125 212.574219 138.324219 210.582031 137.507812 C 207.125 136.078125 205.132812 132.058594 203.414062 128.957031 C 200.335938 123.386719 195.925781 119.164062 191.585938 114.632812 C 190.273438 115.109375 188.640625 115.128906 187.09375 114.921875 C 186.511719 116.761719 186.855469 118.976562 185.832031 120.730469 C 184.964844 122.210938 183.5 122.980469 181.953125 123.507812 C 177.59375 124.9375 171.996094 124.324219 167.535156 123.847656 C 160.265625 123.0625 153.59375 117.816406 153.476562 111.515625 C 152.929688 111.667969 152.300781 111.773438 151.707031 111.71875 C 149.5625 111.550781 148.113281 110.050781 147.382812 108.128906 C 147.058594 107.292969 146.855469 106.371094 146.753906 105.46875 C 142.546875 109.21875 137.273438 114.171875 138.632812 118.023438 C 139.859375 121.582031 138.703125 125.753906 136.269531 128.464844 C 134.207031 130.746094 129.953125 130.59375 127.535156 129.144531 C 125.699219 128.003906 124.421875 126.828125 123.09375 125.109375 C 122.175781 123.914062 122.429688 122.316406 120.589844 122.859375 C 119.980469 123.0625 119.078125 123.132812 118.429688 122.945312 C 115.773438 122.210938 115.316406 118.960938 116.046875 116.710938 C 117.035156 113.816406 120.351562 112.011719 122.839844 110.648438 C 126.550781 108.605469 130.566406 107.191406 134.34375 105.351562 C 137.96875 103.648438 140.507812 99.902344 143.367188 96.816406 C 133.273438 89.050781 130.972656 79.972656 137.9375 66.261719 C 138.226562 65.683594 138.582031 65.105469 138.90625 64.523438 C 138.53125 64.421875 138.175781 64.253906 137.816406 63.929688 C 133.832031 60.164062 129.339844 53.691406 123.417969 53.148438 C 120.589844 52.875 116.25 53.539062 114.667969 50.285156 Z M 13.222656 164.960938 C 12.746094 165.660156 12.371094 166.410156 12 167.144531 C 17.820312 164.433594 23.574219 161.777344 29.308594 159.496094 C 36.710938 156.53125 44.117188 154.234375 51.316406 152.734375 C 54.941406 152.15625 58.585938 151.507812 61.9375 151.285156 C 63.65625 151.132812 65.289062 150.929688 66.957031 150.808594 C 68.644531 150.773438 70.328125 150.722656 71.964844 150.691406 C 78.5 150.554688 84.4375 150.980469 89.867188 151.457031 C 100.675781 152.445312 109.308594 153.5 115.28125 154.046875 C 121.253906 154.539062 124.558594 154.898438 124.558594 155.238281 C 124.558594 155.542969 121.253906 155.832031 115.195312 155.882812 C 109.171875 155.882812 100.386719 155.355469 89.628906 154.8125 C 84.269531 154.574219 78.347656 154.367188 72.132812 154.660156 C 70.566406 154.726562 68.984375 154.8125 67.382812 154.898438 C 65.75 155.050781 64.082031 155.269531 62.398438 155.476562 C 58.960938 155.800781 55.726562 156.464844 52.234375 157.078125 C 48.679688 157.84375 45.054688 158.863281 41.410156 160.089844 C 54.617188 159.496094 68.066406 163.363281 81.121094 164.027344 C 112.984375 165.660156 145.203125 162.765625 176.863281 167.703125 C 192.894531 170.207031 208.4375 174.652344 224.554688 176.679688 C 240.792969 178.757812 257.199219 179.457031 273.472656 181.175781 C 284.84375 182.402344 300.65625 182.777344 310.613281 188.671875 C 317.640625 192.84375 322.253906 201.308594 329.539062 204.628906 C 328.6875 203.4375 327.871094 202.246094 327.039062 201.019531 C 324.585938 197.390625 322.273438 193.746094 319.734375 190.492188 L 317.878906 188.058594 L 315.835938 185.828125 C 314.527344 184.242188 313.03125 183.136719 311.632812 181.859375 L 310.578125 180.921875 L 309.300781 180.105469 L 306.730469 178.433594 C 305.285156 177.414062 303.308594 176.511719 301.640625 175.574219 C 298.171875 173.71875 294.816406 171.792969 291.394531 170.207031 C 277.964844 163.53125 265.285156 158.710938 254.273438 156.039062 C 232.332031 150.570312 217.847656 151.421875 217.847656 150.367188 C 217.882812 150.027344 221.40625 149.789062 227.855469 149.652344 C 229.457031 149.566406 231.226562 149.652344 233.183594 149.789062 C 235.175781 149.941406 237.320312 150.078125 239.601562 150.265625 C 241.933594 150.347656 244.351562 150.808594 246.921875 151.183594 C 249.472656 151.660156 252.246094 151.917969 255.074219 152.613281 C 266.441406 154.949219 279.601562 159.53125 293.386719 166.121094 C 296.875 167.703125 300.332031 169.5625 303.890625 171.433594 C 305.660156 172.421875 307.378906 173.15625 309.285156 174.414062 L 311.871094 176.050781 L 313.148438 176.867188 L 314.476562 177.941406 C 321.558594 183.59375 326.273438 191.039062 331.121094 198.277344 C 331.835938 199.316406 332.535156 200.355469 333.25 201.375 C 333.265625 201.054688 333.265625 200.730469 333.265625 200.40625 C 332.65625 196.027344 331.582031 191.804688 329.949219 187.855469 C 327.292969 181.175781 322.867188 175.660156 318.324219 170.855469 C 308.960938 161.316406 298.222656 155.21875 289.335938 150.28125 C 280.347656 145.445312 272.894531 141.882812 267.820312 139.296875 C 262.714844 136.691406 260.007812 135.121094 260.128906 134.832031 C 260.265625 134.527344 263.242188 135.546875 268.554688 137.625 C 273.863281 139.722656 281.558594 142.820312 290.851562 147.335938 C 300.09375 151.949219 311.257812 157.84375 321.4375 167.753906 C 326.355469 172.746094 331.257812 178.671875 334.289062 185.996094 C 334.613281 186.78125 334.882812 187.632812 335.171875 188.449219 C 335.429688 187.5625 335.667969 186.695312 335.992188 185.828125 C 336.332031 184.566406 337.148438 183.167969 337.726562 181.875 C 338.40625 180.597656 339.070312 179.746094 339.753906 178.671875 L 339.804688 178.554688 C 340.007812 178.316406 340.042969 178.265625 340.042969 178.265625 L 340.296875 178.007812 L 340.671875 177.566406 L 341.402344 176.832031 C 341.078125 175.726562 340.757812 174.652344 340.382812 173.5625 C 337.691406 165.832031 333.503906 158.917969 328.074219 153.5 C 322.714844 148.015625 316.332031 143.894531 309.914062 140.65625 C 296.980469 134.238281 284.144531 130.625 273.625 126.980469 C 263.039062 123.457031 254.5625 120 248.964844 117.152344 C 243.328125 114.292969 240.554688 112.214844 240.707031 111.960938 C 240.878906 111.636719 244.027344 113.152344 249.746094 115.398438 C 255.515625 117.699219 263.992188 120.558594 274.679688 123.660156 C 285.285156 126.894531 298.289062 130.132812 311.921875 136.605469 C 318.699219 139.875 325.609375 144.167969 331.515625 150.109375 C 337.488281 155.96875 342.152344 163.582031 345.046875 171.960938 C 345.25 172.574219 345.421875 173.1875 345.605469 173.769531 C 346.1875 173.511719 346.730469 173.121094 347.328125 172.832031 C 347.785156 172.660156 348.28125 172.253906 348.757812 172.253906 C 348.789062 172.253906 348.789062 172.253906 348.789062 172.253906 C 349.949219 172.253906 351.089844 170.941406 352.246094 170.242188 C 349.367188 163.820312 347.972656 157.265625 346.59375 151.183594 C 345.8125 147.828125 345.097656 144.574219 344.058594 141.527344 L 343.699219 140.417969 L 343.53125 139.925781 L 343.328125 139.347656 L 342.425781 137.0625 C 341.863281 135.496094 341.113281 134.269531 340.46875 132.925781 C 334.816406 122.128906 326.101562 114.703125 318.78125 109.0625 C 311.34375 103.441406 304.910156 99.40625 300.621094 96.460938 C 296.28125 93.546875 293.964844 91.792969 294.136719 91.539062 C 294.324219 91.265625 296.875 92.527344 301.523438 94.976562 C 306.101562 97.449219 312.808594 101.042969 320.707031 106.441406 C 328.433594 111.890625 337.792969 119.25 344.296875 130.914062 C 347.53125 136.722656 349.539062 143.347656 351.140625 150.160156 C 352.738281 156.972656 354.289062 163.871094 357.523438 170.15625 L 358.132812 171.347656 C 358.320312 171.347656 358.492188 171.347656 358.664062 171.347656 C 358.507812 170.992188 358.339844 170.652344 358.21875 170.292969 C 357.386719 168.691406 356.585938 166.851562 356.042969 164.691406 C 355.140625 161.285156 354.695312 157.28125 354.441406 153.007812 C 354.203125 148.679688 354.167969 144.046875 353.742188 139.3125 C 353.472656 136.945312 353.148438 134.714844 352.449219 132.3125 C 351.53125 130.046875 350.78125 127.613281 349.710938 125.277344 C 343.15625 112.09375 333.761719 101.824219 327.34375 94.28125 C 320.789062 86.71875 316.976562 81.796875 317.472656 81.320312 C 317.964844 80.859375 322.664062 84.945312 329.878906 91.878906 C 333.472656 95.386719 337.675781 99.660156 341.980469 104.824219 C 344.109375 107.429688 346.390625 110.136719 348.363281 113.269531 C 350.578125 116.234375 352.347656 119.691406 354.167969 123.183594 C 355.34375 125.753906 356.195312 128.429688 357.113281 130.96875 C 357.878906 133.574219 358.253906 136.367188 358.425781 138.902344 C 358.492188 139.636719 358.507812 140.316406 358.542969 141.015625 C 359.105469 138.699219 359.683594 136.367188 360.261719 133.949219 C 365.777344 110.851562 349.046875 94.621094 333.4375 80.621094 C 319.105469 67.796875 306.832031 53.488281 291.054688 42.230469 C 275.277344 30.988281 257.4375 23 239.039062 17.191406 C 165.425781 -6.105469 57.921875 9.988281 28.476562 91.539062 C 28.117188 92.527344 27.46875 93.191406 26.722656 93.566406 C 23.097656 101.945312 20.59375 110.953125 18.007812 119.777344 C 18.023438 119.777344 18.125 119.742188 18.144531 119.742188 C 18.433594 119.792969 18.585938 120.320312 18.636719 121.207031 C 19.574219 118.753906 20.507812 116.21875 21.496094 113.59375 C 22.808594 109.933594 24.476562 106.152344 26.039062 102.148438 C 26.808594 100.171875 27.777344 98.179688 28.78125 96.203125 C 29.785156 94.195312 30.773438 92.152344 31.8125 90.074219 C 33.886719 85.933594 36.578125 81.933594 39.042969 77.640625 C 40.472656 75.628906 41.972656 73.621094 43.453125 71.542969 C 44.96875 69.5 46.398438 67.320312 48.203125 65.429688 C 49.953125 63.46875 51.707031 61.476562 53.476562 59.464844 C 54.363281 58.445312 55.316406 57.507812 56.335938 56.605469 C 57.359375 55.703125 58.347656 54.78125 59.367188 53.847656 C 60.390625 52.945312 61.410156 52.007812 62.429688 51.070312 L 63.980469 49.671875 L 65.699219 48.414062 C 67.996094 46.742188 70.328125 45.058594 72.660156 43.371094 L 74.449219 42.109375 L 76.269531 41.089844 C 77.511719 40.390625 78.71875 39.691406 79.980469 38.996094 C 81.238281 38.3125 82.464844 37.613281 83.707031 36.917969 C 84.421875 36.542969 84.847656 36.253906 85.734375 35.808594 L 87.742188 34.90625 C 90.449219 33.730469 93.152344 32.539062 95.859375 31.347656 C 98.667969 30.359375 101.496094 29.371094 104.355469 28.332031 C 115.808594 24.6875 127.296875 21.980469 138.53125 20.632812 C 139.925781 20.464844 141.324219 20.257812 142.71875 20.054688 C 144.082031 19.933594 145.492188 19.832031 146.855469 19.714844 C 149.628906 19.441406 152.371094 19.203125 155.074219 18.980469 C 160.503906 18.863281 165.816406 18.417969 171.007812 18.605469 C 191.753906 18.691406 210.324219 21.109375 225.660156 24.226562 C 240.996094 27.34375 253.097656 31.089844 261.320312 34.089844 C 269.386719 37.121094 273.726562 39.199219 273.726562 39.523438 C 273.625 39.863281 269.011719 38.414062 260.671875 35.894531 C 252.402344 33.476562 240.230469 30.289062 225.015625 27.652344 C 209.765625 24.992188 191.414062 22.984375 171.023438 23.121094 C 165.917969 23.035156 160.710938 23.527344 155.382812 23.683594 C 152.726562 23.9375 150.039062 24.175781 147.347656 24.433594 C 145.988281 24.585938 144.640625 24.6875 143.28125 24.804688 C 141.902344 25.011719 140.539062 25.214844 139.195312 25.417969 C 128.199219 26.800781 117 29.472656 105.902344 33.03125 C 103.128906 34.003906 100.386719 34.976562 97.679688 35.929688 C 95.027344 37.070312 92.421875 38.210938 89.800781 39.335938 L 87.859375 40.1875 L 86.105469 41.175781 C 84.847656 41.871094 83.605469 42.554688 82.347656 43.253906 C 81.121094 43.949219 79.859375 44.613281 78.636719 45.332031 L 76.78125 46.351562 L 75.144531 47.511719 C 72.933594 49.09375 70.738281 50.660156 68.574219 52.210938 L 66.976562 53.335938 L 65.496094 54.679688 C 64.507812 55.582031 63.503906 56.46875 62.515625 57.335938 C 61.527344 58.222656 60.558594 59.09375 59.570312 59.976562 C 58.585938 60.8125 57.648438 61.714844 56.796875 62.703125 C 55.078125 64.609375 53.359375 66.5 51.675781 68.375 C 49.886719 70.179688 48.492188 72.242188 47.011719 74.199219 C 45.511719 76.191406 44.066406 78.152344 42.636719 80.058594 C 40.183594 84.179688 37.496094 88.027344 35.402344 91.996094 C 34.363281 94.007812 33.324219 96 32.320312 97.925781 C 31.300781 99.847656 30.328125 101.738281 29.511719 103.699219 C 29.136719 104.636719 28.746094 105.503906 28.355469 106.371094 C 30.738281 102.472656 33.121094 98.707031 35.589844 95.097656 C 38.058594 91.382812 40.507812 87.824219 42.992188 84.433594 C 43.605469 83.566406 44.183594 82.714844 44.796875 81.878906 L 45.699219 80.621094 C 45.902344 80.363281 45.871094 80.363281 46.246094 79.886719 L 46.738281 79.308594 C 48.082031 77.792969 49.394531 76.277344 50.6875 74.777344 C 51.878906 73.261719 53.511719 71.984375 54.941406 70.640625 C 56.421875 69.363281 57.820312 68.015625 59.28125 66.839844 C 62.347656 64.730469 65.085938 62.445312 68.03125 60.761719 C 79.539062 53.640625 89.628906 49.46875 96.542969 46.691406 C 103.503906 43.917969 107.453125 42.640625 107.570312 42.929688 C 107.707031 43.253906 104.03125 45.144531 97.324219 48.445312 C 90.652344 51.734375 80.882812 56.382812 69.921875 63.671875 C 67.128906 65.429688 64.558594 67.691406 61.664062 69.804688 C 60.335938 70.929688 59.078125 72.222656 57.734375 73.449219 C 56.421875 74.691406 54.992188 75.835938 53.800781 77.433594 C 52.542969 78.953125 51.265625 80.46875 49.953125 82.050781 L 49.460938 82.628906 L 49.136719 83.105469 L 48.269531 84.351562 C 47.675781 85.203125 47.09375 86.070312 46.515625 86.921875 C 44.117188 90.328125 41.769531 93.886719 39.367188 97.566406 C 34.550781 104.890625 29.886719 112.863281 25.34375 121.207031 C 24.269531 123.335938 23.214844 125.464844 22.109375 127.613281 C 21.003906 129.773438 19.949219 131.972656 19.027344 134.203125 C 18.433594 135.53125 17.886719 136.808594 17.292969 138.121094 C 17.53125 137.832031 17.769531 137.574219 18.007812 137.269531 C 23.742188 130.558594 30.007812 124.816406 35.929688 119.539062 C 47.878906 109.234375 57.851562 99.066406 67.777344 92.082031 C 77.527344 84.996094 86.925781 81.523438 93.425781 80.175781 C 95.078125 79.921875 96.542969 79.683594 97.816406 79.480469 C 99.078125 79.308594 100.148438 79.308594 101 79.257812 C 102.753906 79.191406 103.65625 79.222656 103.691406 79.394531 C 103.691406 79.546875 102.804688 79.804688 101.121094 80.175781 C 100.304688 80.382812 99.214844 80.535156 98.003906 80.859375 C 96.796875 81.148438 95.402344 81.523438 93.867188 81.933594 C 87.65625 83.769531 78.941406 87.535156 69.714844 94.738281 C 60.421875 101.808594 50.738281 112.179688 38.875 122.808594 C 33.054688 128.140625 27.0625 133.8125 21.582031 140.316406 C 18.007812 144.625 14.636719 149.378906 12.082031 154.539062 C 12.371094 155.441406 12.746094 156.257812 12.816406 157.179688 C 12.816406 157.265625 12.816406 157.316406 12.832031 157.402344 C 17.53125 151.949219 22.976562 147.726562 27.777344 143.433594 C 30.722656 140.691406 34.328125 137.746094 37.886719 135.617188 C 41.496094 133.503906 45.136719 131.765625 48.679688 130.148438 C 52.203125 128.546875 55.519531 127.015625 58.601562 125.347656 C 60.183594 124.445312 61.734375 123.558594 63.25 122.6875 C 64.761719 121.753906 66.277344 120.851562 67.792969 119.980469 C 70.738281 118.160156 73.835938 116.761719 76.695312 115.246094 C 79.722656 114.019531 82.5 112.625 85.339844 111.753906 C 96.660156 107.90625 106.394531 107.308594 112.984375 107.429688 C 119.554688 107.699219 123.09375 108.28125 123.09375 108.570312 C 123.09375 108.945312 119.453125 109.03125 112.984375 109.351562 C 106.601562 109.796875 97.203125 110.902344 86.550781 115.023438 C 83.859375 115.945312 81.207031 117.410156 78.347656 118.667969 C 75.640625 120.203125 72.710938 121.632812 69.871094 123.472656 C 68.441406 124.375 66.976562 125.3125 65.496094 126.25 C 63.894531 127.269531 62.398438 128.121094 60.832031 129.078125 C 57.53125 130.949219 54.039062 132.636719 50.601562 134.269531 C 47.09375 135.90625 43.65625 137.660156 40.304688 139.636719 C 36.984375 141.730469 34.175781 144.011719 31.011719 147.011719 C 24.714844 152.683594 17.800781 158.011719 13.222656 164.960938 " fill-opacity="1" fill-rule="nonzero"/><path fill="#a5000c" d="M 14.042969 176.050781 C 22.058594 179.320312 37.324219 178.402344 43.042969 179.082031 C 55.964844 180.5625 68.882812 182.316406 81.75 184.039062 C 108.660156 187.683594 134.703125 180.769531 161.492188 185.757812 C 214.9375 195.6875 268.792969 203.320312 322.800781 209.363281 C 321.660156 208.546875 320.535156 207.644531 319.359375 206.589844 C 316.417969 203.898438 313.964844 200.644531 311.140625 197.835938 C 305.8125 192.589844 295.683594 192.007812 288.757812 190.664062 C 258.375 184.890625 227.210938 186.203125 196.980469 179.167969 C 166.039062 171.996094 135.144531 171.996094 103.570312 171.84375 C 73.101562 171.671875 41.582031 161.523438 14.042969 176.050781 " fill-opacity="1" fill-rule="nonzero"/><path fill="#000000" d="M 213.234375 65.648438 C 212.980469 65.15625 212.707031 64.660156 212.417969 64.167969 C 218.054688 59.550781 227.007812 47.152344 234.496094 50.046875 C 243.773438 53.609375 231.5 58.445312 228.25 60.027344 C 223.414062 62.363281 218.613281 64.746094 213.234375 65.648438 Z M 194.75 110.375 C 194.75 110.339844 194.972656 110.324219 194.972656 110.289062 C 194.988281 109.011719 195.023438 107.785156 195.023438 106.492188 C 195.023438 106.476562 195.023438 106.441406 195.023438 106.40625 C 200.863281 112.011719 204.726562 118.160156 211.753906 121.429688 C 214.136719 122.535156 216.042969 122.519531 218.613281 122.519531 C 224.726562 122.535156 220.25 126.792969 217.609375 128.785156 C 216.25 129.84375 213.710938 131.207031 213.152344 133.042969 C 211.007812 132.140625 209.660156 129.6875 208.605469 127.765625 C 204.8125 120.96875 200.011719 115.945312 194.75 110.375 Z M 121.886719 117.410156 C 121.78125 117.410156 121.730469 117.410156 121.679688 117.410156 C 121.78125 117.339844 121.886719 117.289062 121.988281 117.171875 C 123.078125 116.351562 124.234375 115.65625 125.410156 115.042969 C 128.183594 113.609375 131.027344 112.417969 133.886719 111.160156 C 134.34375 110.953125 134.785156 110.699219 135.261719 110.425781 C 133.953125 112.488281 133.101562 114.632812 133.066406 116.949219 C 133.050781 118.550781 134.125 119.742188 133.917969 121.429688 C 133.152344 128.515625 128.148438 123.558594 126.855469 121.292969 C 125.78125 119.367188 124.285156 117.410156 121.886719 117.410156 Z M 122.226562 48.039062 C 118.617188 48.039062 117.917969 44.121094 121.238281 42.691406 C 123.078125 41.90625 125.339844 42.382812 127.160156 41.464844 C 129.390625 40.304688 130.039062 39.199219 130.890625 36.882812 C 131.996094 36.59375 132.132812 36.917969 131.296875 37.820312 C 130.921875 38.414062 130.566406 39.011719 130.207031 39.640625 C 129.714844 40.511719 129.289062 41.34375 129.136719 42.382812 C 128.863281 44.394531 130.328125 46.316406 131.671875 47.679688 C 135.144531 51.121094 139.535156 54.664062 144.234375 56.484375 C 143.246094 57.710938 142.308594 59.007812 141.441406 60.316406 C 135.875 55.089844 130.566406 48.003906 122.226562 48.039062 Z M 116.167969 40.679688 C 113.917969 43.832031 113.015625 46.742188 114.667969 50.285156 C 116.25 53.539062 120.589844 52.875 123.417969 53.148438 C 129.339844 53.691406 133.832031 60.164062 137.816406 63.929688 C 138.175781 64.253906 138.53125 64.421875 138.90625 64.523438 C 138.582031 65.105469 138.226562 65.683594 137.9375 66.261719 C 130.972656 79.972656 133.273438 89.050781 143.367188 96.816406 C 140.507812 99.902344 137.96875 103.648438 134.34375 105.351562 C 130.566406 107.191406 126.550781 108.605469 122.839844 110.648438 C 120.351562 112.011719 117.035156 113.816406 116.046875 116.710938 C 115.316406 118.960938 115.773438 122.210938 118.429688 122.945312 C 119.078125 123.132812 119.980469 123.0625 120.589844 122.859375 C 122.429688 122.316406 122.175781 123.914062 123.09375 125.109375 C 124.421875 126.828125 125.699219 128.003906 127.535156 129.144531 C 129.953125 130.59375 134.207031 130.746094 136.269531 128.464844 C 138.703125 125.753906 139.859375 121.582031 138.632812 118.023438 C 137.273438 114.171875 142.546875 109.21875 146.753906 105.46875 C 146.855469 106.371094 147.058594 107.292969 147.382812 108.128906 C 148.113281 110.050781 149.5625 111.550781 151.707031 111.71875 C 152.300781 111.773438 152.929688 111.667969 153.476562 111.515625 C 153.59375 117.816406 160.265625 123.0625 167.535156 123.847656 C 171.996094 124.324219 177.59375 124.9375 181.953125 123.507812 C 183.5 122.980469 184.964844 122.210938 185.832031 120.730469 C 186.855469 118.976562 186.511719 116.761719 187.09375 114.921875 C 188.640625 115.128906 190.273438 115.109375 191.585938 114.632812 C 195.925781 119.164062 200.335938 123.386719 203.414062 128.957031 C 205.132812 132.058594 207.125 136.078125 210.582031 137.507812 C 212.574219 138.324219 216.199219 139.3125 217.609375 136.894531 C 218.546875 135.292969 217.355469 135.328125 219.109375 134.015625 C 220.4375 132.992188 221.816406 131.988281 223.089844 130.914062 C 227.875 126.742188 230.121094 118.960938 221.730469 117.578125 C 216.503906 116.726562 212.945312 117.546875 208.453125 113.644531 C 204.8125 110.496094 201.679688 106.933594 198.429688 103.410156 C 210.070312 98.828125 219.753906 84.878906 216.042969 72.273438 C 215.875 71.644531 215.636719 71.015625 215.398438 70.417969 C 219.246094 69.6875 222.886719 68.1875 226.425781 66.535156 C 230 64.832031 234.171875 63.433594 237.523438 61.355469 C 241.695312 58.800781 245.335938 53.046875 241.285156 48.617188 C 230.394531 36.679688 217.882812 53.726562 209.507812 60.0625 C 202.054688 50.710938 190.308594 44.273438 178.988281 42.179688 C 166.359375 39.8125 155.773438 44.445312 147.789062 52.5 C 147.585938 52.347656 147.382812 52.210938 147.128906 52.125 C 143.195312 50.917969 138.992188 47.75 136.132812 44.921875 C 132.847656 41.617188 137.066406 40.21875 137.238281 36.371094 C 137.476562 30.496094 128.199219 29.542969 126.277344 34.667969 C 125.136719 37.785156 118.429688 37.476562 116.167969 40.679688 Z M 152.199219 106.441406 C 152.164062 106.40625 152.164062 106.40625 152.164062 106.40625 C 152.046875 106.03125 151.910156 105.386719 151.875 105.25 C 151.671875 102.933594 151.808594 100.835938 152.285156 98.792969 C 152.660156 97.242188 151.707031 96.136719 150.53125 95.761719 C 150.359375 95.558594 150.175781 95.351562 149.882812 95.183594 C 149.628906 94.996094 149.355469 94.789062 149.101562 94.585938 C 148.777344 94.195312 148.386719 93.871094 147.875 93.753906 C 124.320312 76.039062 156.625 40.015625 181.695312 47.832031 C 191.125 50.78125 204.027344 57.832031 208.605469 67.078125 C 215.226562 80.46875 207.703125 97.160156 192.625 99.78125 C 191.382812 99.984375 190.820312 100.90625 190.820312 101.894531 C 189.390625 103.289062 188.980469 105.46875 189.269531 107.71875 C 189.371094 108.332031 189.457031 108.980469 189.492188 109.625 C 189.492188 109.761719 189.492188 109.914062 189.492188 110.050781 C 188.84375 110.050781 188.25 110 187.636719 109.882812 C 186.75 108.945312 185.304688 108.621094 184.234375 109.914062 C 182.257812 112.25 182.140625 113.984375 181.746094 116.949219 C 181.375 119.742188 176.164062 119.128906 174.277344 119.09375 C 169.304688 119.042969 152.929688 116.710938 159.65625 108.195312 C 161.679688 105.625 158.089844 101.976562 156.046875 104.566406 C 155.960938 104.6875 155.859375 104.824219 155.773438 104.941406 C 155.144531 104.890625 154.464844 105.042969 153.867188 105.539062 C 153.425781 105.914062 152.777344 106.40625 152.285156 106.558594 C 152.285156 106.558594 152.285156 106.558594 152.25 106.558594 C 152.234375 106.492188 152.234375 106.441406 152.199219 106.441406 " fill-opacity="1" fill-rule="nonzero"/><path fill="#ffffff" d="M 121.238281 42.691406 C 117.917969 44.121094 118.617188 48.039062 122.226562 48.039062 C 130.566406 48.003906 135.875 55.089844 141.441406 60.316406 C 142.308594 59.007812 143.246094 57.710938 144.234375 56.484375 C 139.535156 54.664062 135.144531 51.121094 131.671875 47.679688 C 130.328125 46.316406 128.863281 44.394531 129.136719 42.382812 C 129.289062 41.34375 129.714844 40.511719 130.207031 39.640625 C 130.566406 39.011719 130.921875 38.414062 131.296875 37.820312 C 132.132812 36.917969 131.996094 36.59375 130.890625 36.882812 C 130.039062 39.199219 129.390625 40.304688 127.160156 41.464844 C 125.339844 42.382812 123.078125 41.90625 121.238281 42.691406 " fill-opacity="1" fill-rule="nonzero"/><path fill="#ffffff" d="M 121.679688 117.410156 C 121.730469 117.410156 121.78125 117.410156 121.886719 117.410156 C 124.285156 117.410156 125.78125 119.367188 126.855469 121.292969 C 128.148438 123.558594 133.152344 128.515625 133.917969 121.429688 C 134.125 119.742188 133.050781 118.550781 133.066406 116.949219 C 133.101562 114.632812 133.953125 112.488281 135.261719 110.425781 C 134.785156 110.699219 134.34375 110.953125 133.886719 111.160156 C 131.027344 112.417969 128.183594 113.609375 125.410156 115.042969 C 124.234375 115.65625 123.078125 116.351562 121.988281 117.171875 C 121.886719 117.289062 121.78125 117.339844 121.679688 117.410156 " fill-opacity="1" fill-rule="nonzero"/><path fill="#ffffff" d="M 188.554688 94.945312 C 182.378906 94.007812 176.164062 84.675781 183.09375 80.332031 C 188.402344 77.007812 195.515625 84.214844 196.503906 89.171875 C 196.828125 90.738281 195.808594 91.84375 194.617188 92.234375 C 193.425781 94.28125 191.195312 95.351562 188.554688 94.945312 Z M 168.554688 106.269531 C 166.855469 106.03125 165.695312 104.773438 166.070312 103.035156 C 167.058594 98.539062 169.167969 87.738281 176.214844 91.265625 C 182.054688 94.195312 183.652344 104.824219 177.59375 108.332031 C 175.550781 109.539062 173.679688 107.582031 173.832031 105.777344 C 173.832031 105.777344 173.796875 105.777344 173.765625 105.742188 C 173.476562 105.453125 173.21875 105.144531 172.980469 104.824219 C 171.839844 105.878906 170.410156 106.492188 168.554688 106.269531 Z M 153.714844 88.027344 C 151.144531 85.542969 151.84375 81.199219 155.042969 78.730469 C 159.808594 75.050781 169.953125 72.308594 172.214844 80.160156 C 173.765625 85.527344 167.945312 90.277344 162.667969 92.203125 C 162.257812 92.609375 161.730469 92.898438 161.085938 93.105469 C 156.574219 94.398438 154.328125 91.589844 153.714844 88.027344 Z M 181.695312 47.832031 C 156.625 40.015625 124.320312 76.039062 147.875 93.753906 C 148.386719 93.871094 148.777344 94.195312 149.101562 94.585938 C 149.355469 94.789062 149.628906 94.996094 149.882812 95.183594 C 150.175781 95.351562 150.359375 95.558594 150.53125 95.761719 C 151.707031 96.136719 152.660156 97.242188 152.285156 98.792969 C 151.808594 100.835938 151.671875 102.933594 151.875 105.25 C 151.910156 105.386719 152.046875 106.03125 152.164062 106.40625 C 152.164062 106.40625 152.164062 106.40625 152.199219 106.441406 C 152.234375 106.441406 152.234375 106.492188 152.25 106.558594 C 152.285156 106.558594 152.285156 106.558594 152.285156 106.558594 C 152.777344 106.40625 153.425781 105.914062 153.867188 105.539062 C 154.464844 105.042969 155.144531 104.890625 155.773438 104.941406 C 155.859375 104.824219 155.960938 104.6875 156.046875 104.566406 C 158.089844 101.976562 161.679688 105.625 159.65625 108.195312 C 152.929688 116.710938 169.304688 119.042969 174.277344 119.09375 C 176.164062 119.128906 181.375 119.742188 181.746094 116.949219 C 182.140625 113.984375 182.257812 112.25 184.234375 109.914062 C 185.304688 108.621094 186.75 108.945312 187.636719 109.882812 C 188.25 110 188.84375 110.050781 189.492188 110.050781 C 189.492188 109.914062 189.492188 109.761719 189.492188 109.625 C 189.457031 108.980469 189.371094 108.332031 189.269531 107.71875 C 188.980469 105.46875 189.390625 103.289062 190.820312 101.894531 C 190.820312 100.90625 191.382812 99.984375 192.625 99.78125 C 207.703125 97.160156 215.226562 80.46875 208.605469 67.078125 C 204.027344 57.832031 191.125 50.78125 181.695312 47.832031 " fill-opacity="1" fill-rule="nonzero"/><path fill="#000000" d="M 155.042969 78.730469 C 151.84375 81.199219 151.144531 85.542969 153.714844 88.027344 C 154.328125 91.589844 156.574219 94.398438 161.085938 93.105469 C 161.730469 92.898438 162.257812 92.609375 162.667969 92.203125 C 167.945312 90.277344 173.765625 85.527344 172.214844 80.160156 C 169.953125 72.308594 159.808594 75.050781 155.042969 78.730469 " fill-opacity="1" fill-rule="nonzero"/><path fill="#000000" d="M 166.070312 103.035156 C 165.695312 104.773438 166.855469 106.03125 168.554688 106.269531 C 170.410156 106.492188 171.839844 105.878906 172.980469 104.824219 C 173.21875 105.144531 173.476562 105.453125 173.765625 105.742188 C 173.796875 105.777344 173.832031 105.777344 173.832031 105.777344 C 173.679688 107.582031 175.550781 109.539062 177.59375 108.332031 C 183.652344 104.824219 182.054688 94.195312 176.214844 91.265625 C 169.167969 87.738281 167.058594 98.539062 166.070312 103.035156 " fill-opacity="1" fill-rule="nonzero"/><path fill="#000000" d="M 183.09375 80.332031 C 176.164062 84.675781 182.378906 94.007812 188.554688 94.945312 C 191.195312 95.351562 193.425781 94.28125 194.617188 92.234375 C 195.808594 91.84375 196.828125 90.738281 196.503906 89.171875 C 195.515625 84.214844 188.402344 77.007812 183.09375 80.332031 " fill-opacity="1" fill-rule="nonzero"/><path fill="#ffffff" d="M 194.972656 110.289062 C 194.972656 110.324219 194.75 110.339844 194.75 110.375 C 200.011719 115.945312 204.8125 120.96875 208.605469 127.765625 C 209.660156 129.6875 211.007812 132.140625 213.152344 133.042969 C 213.710938 131.207031 216.25 129.84375 217.609375 128.785156 C 220.25 126.792969 224.726562 122.535156 218.613281 122.519531 C 216.042969 122.519531 214.136719 122.535156 211.753906 121.429688 C 204.726562 118.160156 200.863281 112.011719 195.023438 106.40625 C 195.023438 106.441406 195.023438 106.476562 195.023438 106.492188 C 195.023438 107.785156 194.988281 109.011719 194.972656 110.289062 " fill-opacity="1" fill-rule="nonzero"/><path fill="#ffffff" d="M 212.417969 64.167969 C 212.707031 64.660156 212.980469 65.15625 213.234375 65.648438 C 218.613281 64.746094 223.414062 62.363281 228.25 60.027344 C 231.5 58.445312 243.773438 53.609375 234.496094 50.046875 C 227.007812 47.152344 218.054688 59.550781 212.417969 64.167969 " fill-opacity="1" fill-rule="nonzero"/><path fill="#d60000" d="M 350.714844 390.296875 C 349.335938 386.703125 348.398438 382.527344 348.757812 378.1875 C 349.128906 373.875 350.269531 369.5 351.957031 365.222656 C 355.394531 356.707031 360.636719 348.515625 365.402344 339.914062 C 368.109375 335.007812 370.558594 330.019531 371.699219 325.265625 C 372.246094 322.644531 372.925781 320.023438 373.300781 317.5 C 373.640625 315.03125 373.964844 312.578125 374.289062 310.175781 C 375.273438 300.46875 375.34375 291.578125 375.496094 284.101562 C 375.546875 269.128906 376.074219 259.761719 376.738281 259.761719 C 377.417969 259.796875 378.101562 269.027344 378.953125 284.015625 C 379.242188 291.542969 379.5625 300.554688 378.816406 310.621094 C 378.527344 313.15625 378.238281 315.746094 377.914062 318.402344 C 377.554688 321.042969 376.910156 323.597656 376.414062 326.253906 C 375.070312 332.027344 372.515625 337.171875 369.707031 342.28125 C 364.824219 351.105469 359.632812 359.074219 356.246094 366.980469 C 354.578125 370.929688 353.472656 374.796875 353.011719 378.542969 C 352.652344 381.710938 353.0625 384.65625 353.792969 387.367188 C 354.289062 387.230469 354.78125 387.058594 355.292969 386.90625 L 357.148438 386.292969 L 357.589844 388.097656 C 358.664062 392.390625 358.78125 396.1875 359.070312 399.457031 C 359.273438 402.730469 359.597656 405.4375 360.058594 407.617188 C 360.941406 411.875 362.628906 414.191406 362.167969 414.394531 C 362.015625 414.480469 361.523438 414.039062 360.738281 413.085938 C 359.886719 412.234375 358.984375 410.445312 358.117188 408.179688 C 357.316406 405.929688 356.6875 403.035156 356.210938 399.78125 C 355.75 397.089844 355.378906 394.058594 354.613281 391.027344 C 354.03125 391.199219 353.183594 391.367188 352.449219 391.488281 L 351.222656 391.691406 Z M 300.210938 452.667969 L 300.09375 453.074219 C 300.09375 453.160156 300.296875 453.125 300.382812 453.160156 C 300.65625 453.160156 300.910156 453.160156 301.164062 453.125 L 301.558594 453.007812 C 301.695312 452.988281 301.695312 452.957031 302.222656 452.75 C 303.003906 452.375 303.769531 451.898438 304.484375 451.390625 C 305.949219 450.332031 307.257812 448.988281 308.433594 447.558594 C 313.03125 441.664062 315.632812 434.714844 317.558594 428.632812 C 318.542969 425.328125 319.15625 423.335938 320.246094 417.921875 C 321.113281 413.304688 321.726562 408.46875 322.273438 404.621094 L 322.5625 404.839844 C 322.699219 404.992188 322.800781 405.285156 322.953125 405.488281 L 323.652344 406.800781 C 324.144531 407.652344 324.585938 408.503906 325.046875 409.320312 C 325.949219 410.957031 326.800781 412.488281 327.617188 413.988281 C 329.164062 416.832031 330.59375 419.488281 331.90625 421.890625 C 331.957031 422.027344 332.007812 422.128906 332.109375 422.265625 C 331.667969 419.234375 331.410156 416.253906 331.257812 413.339844 C 330.851562 405.164062 331.328125 397.414062 332.160156 390.058594 C 333.914062 375.359375 337.0625 362.277344 341.078125 350.714844 C 349.183594 328.214844 354.78125 310.09375 358.203125 295.800781 C 361.640625 281.5625 363.359375 271.257812 364.433594 264.582031 C 365.488281 257.941406 366.152344 254.890625 366.542969 254.890625 C 366.917969 254.925781 366.96875 258.058594 366.628906 264.855469 C 366.21875 271.652344 365.128906 282.125 362.269531 296.703125 C 359.429688 311.316406 354.289062 329.867188 346.664062 352.636719 C 343.039062 363.777344 340.210938 376.617188 338.746094 390.753906 C 338.050781 397.839844 337.691406 405.285156 338.203125 412.929688 C 338.613281 419.386719 339.617188 426.027344 341.8125 432.296875 L 341.898438 432.277344 C 342.015625 432.210938 342.050781 432.210938 342.050781 432.195312 C 342.390625 432.585938 342.800781 432.996094 343.207031 433.351562 L 348.347656 434.9375 C 348.261719 440.554688 348.808594 446.109375 350.578125 451.644531 C 351.785156 455.375 353.421875 459.375 354.984375 463.550781 L 355.71875 462.785156 C 356.824219 461.625 358.03125 460.125 359.15625 458.816406 L 362.269531 455.050781 C 363.445312 460.195312 364.636719 465.355469 365.828125 470.582031 L 366.066406 471.570312 L 366.152344 472.152344 L 366.390625 473.292969 L 366.796875 475.558594 C 367.085938 477.074219 367.378906 478.621094 367.648438 480.171875 C 367.699219 480.546875 367.75 480.957031 367.820312 481.347656 C 369.011719 478.367188 370.152344 475.386719 371.121094 472.441406 C 371.871094 470.3125 372.3125 468.164062 372.824219 465.96875 C 373.25 463.71875 373.625 461.472656 374 459.171875 C 374.816406 454.320312 375.632812 449.394531 376.449219 444.40625 C 380.550781 424.664062 386.304688 404.652344 389.367188 383.175781 C 392.347656 361.238281 396.652344 338.570312 394.695312 315.03125 C 394.320312 312.085938 393.945312 309.136719 393.589844 306.191406 L 393.300781 303.910156 L 393.027344 301.371094 C 392.855469 299.652344 392.824219 298.085938 392.773438 296.414062 C 392.652344 289.960938 393.011719 283.640625 393.179688 277.339844 C 393.351562 271.039062 393.453125 264.734375 392.855469 258.605469 C 392.433594 253.613281 391.324219 248.691406 389.164062 245.046875 C 388.976562 245.046875 388.804688 245.0625 388.636719 245.097656 C 387.902344 245.046875 387.15625 245.011719 386.421875 244.925781 C 385.078125 258.078125 386.390625 270.425781 387.734375 281.648438 C 389.25 293.707031 391.019531 304.609375 391.785156 314.640625 C 393.128906 334.652344 391.664062 350.390625 389.539062 362.074219 C 387.324219 373.808594 384.875 381.675781 383.15625 386.582031 C 381.367188 391.523438 380.449219 393.582031 380.160156 393.480469 C 379.851562 393.378906 380.226562 391.128906 381.488281 386.121094 C 382.746094 381.0625 384.703125 373.160156 386.472656 361.578125 C 388.195312 349.996094 389.300781 334.601562 387.769531 314.964844 C 386.882812 305.203125 385.078125 294.335938 383.480469 282.175781 C 382.050781 270.714844 380.652344 257.941406 382.101562 243.941406 C 378.898438 244.449219 375.191406 244.980469 370.882812 245.097656 C 369.386719 245.0625 367.699219 245.148438 366.21875 244.945312 C 365.453125 244.859375 364.703125 244.773438 363.9375 244.6875 L 362.695312 244.535156 L 361.4375 244.28125 C 361.351562 244.246094 361.265625 244.230469 361.148438 244.230469 C 361.234375 244.519531 361.316406 244.808594 361.367188 245.132812 C 361.84375 247.667969 361.777344 250.496094 361.523438 253.578125 C 360.960938 259.746094 359.328125 266.832031 357.148438 274.496094 C 354.953125 282.125 352.570312 290.488281 350.03125 299.277344 C 347.378906 308.03125 344.875 316.375 342.59375 323.988281 C 340.363281 331.570312 338.289062 338.398438 336.484375 344.105469 C 332.859375 355.515625 330.273438 362.515625 329.625 362.378906 C 328.960938 362.191406 330.324219 354.902344 333.132812 343.203125 C 334.492188 337.378906 336.246094 330.429688 338.21875 322.730469 C 340.296875 315.046875 342.714844 306.683594 345.316406 297.898438 C 347.90625 289.125 350.355469 280.78125 352.808594 273.183594 C 355.191406 265.691406 357.113281 258.894531 358.082031 253.152344 C 358.714844 249.40625 358.902344 245.964844 358.339844 243.546875 C 357.027344 243.171875 355.71875 242.679688 354.441406 242.117188 C 352.160156 251.023438 348.433594 258.960938 344.722656 266.371094 C 340.414062 274.820312 335.957031 282.636719 332.519531 290.488281 C 325.402344 306.363281 320.636719 321.878906 317.472656 336.847656 C 316.042969 344.429688 315.019531 351.582031 313.234375 359.195312 C 311.464844 366.519531 309.214844 373.144531 307.820312 379.464844 C 307.445312 381.0625 307.242188 382.613281 306.9375 384.164062 C 306.679688 385.714844 306.628906 387.179688 306.441406 388.660156 C 306.355469 390.109375 306.5625 391.574219 306.59375 393.039062 C 306.730469 394.585938 306.917969 396.121094 307.054688 397.636719 C 307.242188 399.269531 307.445312 400.855469 307.546875 402.457031 C 307.617188 404.125 307.734375 405.777344 307.734375 407.394531 C 307.53125 410.527344 307.328125 413.59375 307.125 416.644531 C 307.039062 419.675781 306.476562 422.519531 306.050781 425.382812 C 305.574219 428.207031 305.164062 430.984375 304.636719 433.691406 C 303.445312 439.007812 302.425781 444.183594 301.164062 448.988281 C 300.910156 449.941406 300.671875 450.945312 300.433594 451.898438 L 300.210938 452.667969 " fill-opacity="1" fill-rule="nonzero"/><path fill="#d60000" d="M 340.738281 194.511719 C 339.9375 198.738281 339.648438 203.386719 339.753906 207.40625 C 339.804688 209.738281 339.972656 211.527344 340.332031 213.554688 C 340.46875 214.558594 340.652344 215.546875 340.910156 216.5 C 341.113281 217.472656 341.351562 218.425781 341.675781 219.34375 C 343.886719 226.773438 348.363281 232.699219 353.878906 236.089844 C 356.621094 237.808594 359.566406 239 362.476562 239.699219 L 363.5625 239.988281 L 364.621094 240.191406 C 365.402344 240.3125 366.117188 240.464844 366.882812 240.601562 C 368.382812 240.890625 369.625 240.839844 370.96875 240.976562 C 373.265625 241.078125 375.496094 241.011719 377.589844 240.925781 C 374.117188 238.183594 371.667969 234.894531 369.65625 231.675781 C 368.601562 229.992188 367.667969 228.289062 366.847656 226.636719 C 366.558594 226.855469 366.304688 227.164062 365.949219 227.382812 C 363.445312 228.96875 360.839844 228.644531 358.867188 228.203125 C 354.78125 227.09375 351.90625 224.847656 349.503906 222.480469 C 344.808594 217.710938 342.832031 211.664062 343.328125 206.914062 C 343.769531 202.074219 346.066406 199.027344 347.648438 197.289062 C 349.285156 195.535156 350.320312 194.972656 350.492188 195.09375 C 350.765625 195.296875 349.980469 196.320312 348.859375 198.242188 C 347.820312 200.082031 346.21875 203.082031 346.304688 207.03125 C 346.339844 210.914062 348.3125 215.667969 352.484375 219.398438 C 354.558594 221.234375 357.214844 222.90625 359.921875 223.449219 C 361.265625 223.6875 362.558594 223.605469 363.15625 223.074219 C 363.769531 222.632812 364.261719 221.679688 364.347656 220.164062 L 364.910156 209.125 L 369.503906 219.34375 C 370.917969 222.394531 372.550781 225.527344 374.542969 228.492188 C 376.535156 231.4375 378.898438 234.332031 381.726562 236.308594 C 384.550781 238.234375 387.664062 239.257812 390.765625 238.148438 C 391.546875 237.84375 392.347656 237.65625 393.09375 237.109375 C 393.878906 236.703125 394.660156 236.257812 395.375 235.59375 L 396.5 234.691406 L 396.738281 234.46875 L 396.824219 234.386719 L 397.386719 233.773438 C 398.117188 232.9375 398.898438 232.085938 399.5625 231.269531 C 401.453125 228.492188 402.917969 224.472656 403.085938 220.417969 C 403.359375 216.296875 402.628906 211.917969 401.0625 207.695312 C 397.964844 199.351562 392.195312 191.039062 384.414062 186.132812 C 383.394531 185.46875 382.339844 185.058594 381.316406 184.480469 C 380.296875 184.074219 378.832031 183.511719 377.726562 183.101562 C 375.308594 182.199219 372.859375 181.382812 370.441406 180.71875 C 365.574219 179.335938 360.703125 178.433594 356.195312 178.519531 C 353.949219 178.605469 351.785156 178.910156 349.949219 179.628906 C 349.078125 180.035156 348.144531 180.394531 347.445312 180.972656 C 347.054688 181.246094 346.664062 181.464844 346.390625 181.859375 L 345.898438 182.316406 L 345.660156 182.554688 L 345.539062 182.691406 L 345.523438 182.691406 C 344.890625 183.664062 344.09375 184.703125 343.683594 185.554688 C 343.308594 186.492188 342.800781 187.15625 342.492188 188.246094 C 341.726562 190.253906 341.148438 192.351562 340.738281 194.511719 " fill-opacity="1" fill-rule="nonzero"/><path fill="#000000" d="M 348.757812 378.1875 C 348.398438 382.527344 349.335938 386.703125 350.714844 390.296875 L 351.222656 391.691406 L 352.449219 391.488281 C 353.183594 391.367188 354.03125 391.199219 354.613281 391.027344 C 355.378906 394.058594 355.75 397.089844 356.210938 399.78125 C 356.6875 403.035156 357.316406 405.929688 358.117188 408.179688 C 358.984375 410.445312 359.886719 412.234375 360.738281 413.085938 C 361.523438 414.039062 362.015625 414.480469 362.167969 414.394531 C 362.628906 414.191406 360.941406 411.875 360.058594 407.617188 C 359.597656 405.4375 359.273438 402.730469 359.070312 399.457031 C 358.78125 396.1875 358.664062 392.390625 357.589844 388.097656 L 357.148438 386.292969 L 355.292969 386.90625 C 354.78125 387.058594 354.289062 387.230469 353.792969 387.367188 C 353.0625 384.65625 352.652344 381.710938 353.011719 378.542969 C 353.472656 374.796875 354.578125 370.929688 356.246094 366.980469 C 359.632812 359.074219 364.824219 351.105469 369.707031 342.28125 C 372.515625 337.171875 375.070312 332.027344 376.414062 326.253906 C 376.910156 323.597656 377.554688 321.042969 377.914062 318.402344 C 378.238281 315.746094 378.527344 313.15625 378.816406 310.621094 C 379.5625 300.554688 379.242188 291.542969 378.953125 284.015625 C 378.101562 269.027344 377.417969 259.796875 376.738281 259.761719 C 376.074219 259.761719 375.546875 269.128906 375.496094 284.101562 C 375.34375 291.578125 375.273438 300.46875 374.289062 310.175781 C 373.964844 312.578125 373.640625 315.03125 373.300781 317.5 C 372.925781 320.023438 372.246094 322.644531 371.699219 325.265625 C 370.558594 330.019531 368.109375 335.007812 365.402344 339.914062 C 360.636719 348.515625 355.394531 356.707031 351.957031 365.222656 C 350.269531 369.5 349.128906 373.875 348.757812 378.1875 " fill-opacity="1" fill-rule="nonzero"/></g></g></g></svg>