<svg xmlns="http://www.w3.org/2000/svg" xmlns:xlink="http://www.w3.org/1999/xlink" width="1024" zoomAndPan="magnify" viewBox="0 0 768 767.999994" height="1024" preserveAspectRatio="xMidYMid meet" version="1.0"><defs><clipPath id="7f28bdc716"><path d="M 342 666 L 356 666 L 356 730.882812 L 342 730.882812 Z M 342 666 " clip-rule="nonzero"/></clipPath><clipPath id="a305d43c38"><path d="M 272.085938 423.382812 L 551.835938 423.382812 L 551.835938 536 L 272.085938 536 Z M 272.085938 423.382812 " clip-rule="nonzero"/></clipPath><clipPath id="48bca341ce"><path d="M 272.085938 423.382812 L 473 423.382812 L 473 536 L 272.085938 536 Z M 272.085938 423.382812 " clip-rule="nonzero"/></clipPath></defs><path fill="#c65b02" d="M 480.730469 690.78125 L 468.300781 648.03125 C 467.6875 645.933594 468.542969 643.84375 470.203125 643.359375 C 471.863281 642.875 473.703125 644.183594 474.3125 646.28125 L 487.222656 690.675781 C 488.9375 691.75 490.367188 693.625 491.050781 695.980469 C 492.320312 700.347656 490.546875 704.707031 487.089844 705.71875 C 483.628906 706.726562 479.796875 703.996094 478.527344 699.625 C 477.488281 696.070312 478.472656 692.523438 480.730469 690.78125 Z M 480.730469 690.78125 " fill-opacity="1" fill-rule="nonzero"/><path fill="#c65b02" d="M 467.425781 703.320312 L 455.210938 661.304688 C 454.597656 659.207031 455.453125 657.117188 457.113281 656.632812 C 458.773438 656.148438 460.609375 657.457031 461.222656 659.554688 L 473.3125 701.15625 C 475.789062 701.820312 478.027344 704.113281 478.941406 707.257812 C 480.210938 711.628906 478.4375 715.984375 474.980469 716.996094 C 471.519531 718.003906 467.6875 715.273438 466.417969 710.90625 C 465.59375 708.0625 466.054688 705.230469 467.425781 703.320312 Z M 467.425781 703.320312 " fill-opacity="1" fill-rule="nonzero"/><path fill="#c65b02" d="M 453.144531 713.792969 L 440.753906 671.171875 C 440.136719 669.070312 440.992188 666.980469 442.652344 666.5 C 444.3125 666.015625 446.152344 667.320312 446.761719 669.421875 L 459.625 713.65625 C 461.347656 714.726562 462.789062 716.609375 463.476562 718.976562 C 464.746094 723.347656 462.972656 727.703125 459.515625 728.714844 C 456.058594 729.722656 452.226562 726.992188 450.953125 722.625 C 449.925781 719.074219 450.894531 715.539062 453.144531 713.792969 Z M 453.144531 713.792969 " fill-opacity="1" fill-rule="nonzero"/><path fill="#c65b02" d="M 429.089844 707.734375 L 416.621094 664.851562 C 416.007812 662.753906 416.863281 660.664062 418.523438 660.179688 C 420.183594 659.699219 422.023438 661.007812 422.632812 663.105469 L 435.023438 705.71875 C 437.449219 706.425781 439.628906 708.691406 440.527344 711.785156 C 441.796875 716.15625 440.023438 720.511719 436.566406 721.523438 C 433.109375 722.53125 429.273438 719.800781 428.003906 715.433594 C 427.164062 712.535156 427.65625 709.648438 429.089844 707.734375 Z M 429.089844 707.734375 " fill-opacity="1" fill-rule="nonzero"/><path fill="#c65b02" d="M 410.71875 714.476562 L 398.039062 670.863281 C 397.421875 668.765625 398.28125 666.675781 399.941406 666.191406 C 401.601562 665.710938 403.4375 667.019531 404.050781 669.117188 L 416.667969 712.515625 C 419.074219 713.230469 421.230469 715.496094 422.125 718.5625 C 423.394531 722.933594 421.621094 727.289062 418.164062 728.300781 C 414.703125 729.308594 410.871094 726.578125 409.601562 722.210938 C 408.753906 719.300781 409.261719 716.386719 410.71875 714.476562 Z M 410.71875 714.476562 " fill-opacity="1" fill-rule="nonzero"/><path fill="#ef7100" d="M 464.554688 597.414062 C 464.769531 598.144531 464.980469 598.878906 465.191406 599.609375 C 465.566406 600.914062 465.933594 602.21875 466.300781 603.519531 C 466.4375 604.023438 466.578125 604.519531 466.710938 605.023438 C 467.066406 606.320312 467.421875 607.617188 467.769531 608.917969 C 468.050781 609.964844 468.328125 611.015625 468.601562 612.066406 C 468.902344 613.21875 469.199219 614.375 469.496094 615.527344 C 471.074219 621.738281 472.542969 627.976562 473.902344 634.234375 C 474.421875 636.648438 474.929688 639.0625 475.417969 641.484375 C 475.753906 643.132812 476.078125 644.785156 476.398438 646.441406 C 476.546875 647.210938 476.691406 647.980469 476.835938 648.746094 C 476.976562 649.484375 477.109375 650.222656 477.246094 650.957031 C 477.910156 654.59375 478.523438 658.515625 477.316406 661.65625 C 476.925781 662.695312 476.34375 663.613281 475.574219 664.410156 C 474.925781 665.078125 474.195312 665.640625 473.386719 666.101562 C 472.546875 666.582031 471.667969 666.980469 470.753906 667.304688 C 469.910156 667.609375 469.050781 667.863281 468.210938 668.097656 L 468.027344 668.148438 C 467.414062 668.316406 466.792969 668.484375 466.171875 668.652344 C 465.308594 668.886719 464.445312 669.121094 463.582031 669.351562 C 462.164062 669.730469 460.746094 670.101562 459.324219 670.46875 C 458.457031 670.695312 457.589844 670.917969 456.71875 671.140625 C 455.449219 671.464844 454.179688 671.78125 452.910156 672.09375 C 452.03125 672.3125 451.152344 672.527344 450.273438 672.738281 C 448.203125 673.242188 446.128906 673.734375 444.050781 674.210938 C 443.167969 674.414062 442.285156 674.617188 441.402344 674.820312 C 439.96875 675.144531 438.53125 675.464844 437.097656 675.777344 C 436.210938 675.972656 435.320312 676.164062 434.433594 676.351562 C 432.347656 676.800781 430.253906 677.238281 428.164062 677.660156 C 427.273438 677.839844 426.386719 678.019531 425.5 678.195312 C 424.472656 678.402344 423.449219 678.601562 422.425781 678.792969 C 421.527344 678.96875 420.632812 679.136719 419.738281 679.308594 C 417.371094 679.753906 415.003906 680.183594 412.632812 680.597656 C 411.730469 680.757812 410.824219 680.917969 409.921875 681.070312 C 408.800781 681.261719 407.683594 681.449219 406.5625 681.632812 C 404.773438 681.929688 402.863281 682.195312 401.109375 681.230469 C 398.699219 679.910156 397.316406 676.722656 396.191406 673.8125 C 395.71875 672.605469 395.253906 671.398438 394.789062 670.1875 C 393.804688 667.628906 392.832031 665.066406 391.875 662.492188 C 391.382812 661.175781 390.894531 659.851562 390.410156 658.527344 C 388.210938 652.519531 386.089844 646.476562 384.046875 640.390625 C 383.859375 639.839844 383.675781 639.285156 383.496094 638.734375 C 382.539062 635.847656 381.601562 632.953125 380.683594 630.054688 C 380.527344 629.5625 380.375 629.066406 380.21875 628.570312 C 379.8125 627.277344 379.410156 625.980469 379.015625 624.6875 C 378.792969 623.957031 378.570312 623.226562 378.351562 622.496094 C 378.101562 621.671875 377.855469 620.847656 377.613281 620.019531 C 377.542969 619.792969 377.476562 619.566406 377.40625 619.335938 C 376.902344 617.628906 376.40625 615.914062 375.917969 614.191406 C 375.535156 612.847656 375.160156 611.507812 374.789062 610.164062 C 374.597656 609.464844 374.410156 608.769531 374.21875 608.074219 C 373.984375 607.210938 373.753906 606.34375 373.523438 605.480469 C 372.871094 603.039062 372.242188 600.59375 371.632812 598.144531 C 371.050781 595.816406 370.488281 593.488281 369.941406 591.15625 C 369.027344 587.242188 368.164062 583.324219 367.355469 579.402344 C 366.515625 575.320312 365.734375 571.234375 365.023438 567.144531 C 361.28125 545.742188 359.3125 524.261719 359.753906 502.988281 C 359.792969 501.210938 359.84375 499.441406 359.917969 497.667969 C 372.445312 502.398438 385.316406 502.378906 398.042969 503.457031 C 407.867188 504.292969 420.453125 505.257812 429.59375 511.992188 C 429.949219 512.253906 430.292969 512.53125 430.625 512.832031 C 436.285156 517.890625 439.207031 528.183594 442.269531 535.308594 C 443.460938 538.078125 444.628906 540.863281 445.773438 543.65625 C 447.351562 547.5 448.886719 551.367188 450.371094 555.253906 C 451.804688 558.996094 453.199219 562.761719 454.550781 566.539062 C 455.359375 568.796875 456.152344 571.058594 456.929688 573.332031 C 457.75 575.71875 458.554688 578.113281 459.339844 580.515625 C 459.617188 581.367188 459.894531 582.21875 460.167969 583.070312 C 460.390625 583.753906 460.609375 584.441406 460.828125 585.132812 C 461.25 586.460938 461.664062 587.796875 462.078125 589.128906 C 462.675781 591.0625 463.261719 593 463.835938 594.941406 C 464.074219 595.761719 464.316406 596.585938 464.554688 597.414062 Z M 464.554688 597.414062 " fill-opacity="1" fill-rule="nonzero"/><path fill="#c65b02" d="M 465.238281 629.660156 L 465.574219 630.050781 L 475.421875 641.476562 C 474.933594 639.058594 474.429688 636.644531 473.902344 634.230469 C 472.546875 627.976562 471.078125 621.738281 469.496094 615.523438 C 469.203125 614.367188 468.90625 613.214844 468.605469 612.0625 L 467.976562 611.332031 L 467.925781 611.277344 L 467.914062 611.347656 L 465.308594 629.148438 Z M 465.238281 629.660156 " fill-opacity="1" fill-rule="nonzero"/><path fill="#c65b02" d="M 453.511719 615.539062 L 453.523438 615.46875 L 453.570312 615.523438 L 465.648438 629.539062 L 462.988281 647.714844 L 462.957031 647.921875 L 450.832031 633.851562 Z M 453.511719 615.539062 " fill-opacity="1" fill-rule="nonzero"/><path fill="#c65b02" d="M 439.105469 619.730469 L 439.117188 619.65625 L 439.164062 619.714844 L 451.246094 633.730469 L 448.582031 651.90625 L 448.554688 652.113281 L 436.425781 638.039062 Z M 439.105469 619.730469 " fill-opacity="1" fill-rule="nonzero"/><path fill="#c65b02" d="M 424.699219 623.921875 L 424.710938 623.847656 L 424.757812 623.90625 L 436.839844 637.921875 L 434.175781 656.097656 L 434.148438 656.304688 L 422.019531 642.230469 Z M 424.699219 623.921875 " fill-opacity="1" fill-rule="nonzero"/><path fill="#c65b02" d="M 410.292969 628.113281 L 410.304688 628.039062 L 410.355469 628.09375 L 422.433594 642.109375 L 419.773438 660.289062 L 419.742188 660.492188 L 407.613281 646.421875 Z M 410.292969 628.113281 " fill-opacity="1" fill-rule="nonzero"/><path fill="#c65b02" d="M 395.890625 632.300781 L 395.902344 632.230469 L 395.949219 632.285156 L 408.027344 646.300781 L 405.367188 664.480469 L 405.335938 664.683594 L 393.210938 650.613281 Z M 395.890625 632.300781 " fill-opacity="1" fill-rule="nonzero"/><path fill="#c65b02" d="M 383.484375 638.734375 C 383.667969 639.289062 383.851562 639.839844 384.039062 640.390625 C 386.074219 646.472656 388.195312 652.519531 390.402344 658.527344 C 390.886719 659.851562 391.375 661.175781 391.863281 662.492188 L 393.546875 651.015625 L 393.621094 650.5 L 393.285156 650.109375 Z M 383.484375 638.734375 " fill-opacity="1" fill-rule="nonzero"/><path fill="#c65b02" d="M 459.332031 580.515625 L 373.511719 605.480469 C 372.863281 603.039062 372.234375 600.59375 371.625 598.144531 C 371.042969 595.816406 370.476562 593.488281 369.929688 591.152344 L 454.542969 566.539062 C 455.351562 568.792969 456.144531 571.058594 456.921875 573.332031 C 457.738281 575.71875 458.542969 578.113281 459.332031 580.515625 Z M 459.332031 580.515625 " fill-opacity="1" fill-rule="nonzero"/><path fill="#c65b02" d="M 464.554688 597.414062 L 378.34375 622.492188 C 378.09375 621.667969 377.847656 620.84375 377.605469 620.015625 C 377.535156 619.789062 377.46875 619.5625 377.398438 619.332031 C 376.894531 617.625 376.394531 615.910156 375.910156 614.1875 L 462.070312 589.125 C 462.664062 591.058594 463.25 592.996094 463.824219 594.933594 C 464.070312 595.757812 464.316406 596.585938 464.554688 597.414062 Z M 464.554688 597.414062 " fill-opacity="1" fill-rule="nonzero"/><path fill="#c65b02" d="M 464.554688 597.414062 C 464.769531 598.144531 464.980469 598.878906 465.191406 599.609375 C 465.566406 600.914062 465.933594 602.21875 466.300781 603.519531 C 466.4375 604.023438 466.578125 604.519531 466.710938 605.023438 C 467.066406 606.320312 467.421875 607.617188 467.769531 608.917969 C 468.050781 609.964844 468.328125 611.015625 468.601562 612.066406 C 468.902344 613.21875 469.199219 614.375 469.496094 615.527344 C 471.074219 621.738281 472.542969 627.976562 473.902344 634.234375 C 474.421875 636.648438 474.929688 639.0625 475.417969 641.484375 C 475.753906 643.132812 476.078125 644.785156 476.398438 646.441406 C 476.546875 647.210938 476.691406 647.980469 476.835938 648.746094 C 470.960938 645.25 467.605469 636.953125 464.957031 629.511719 C 460.585938 617.230469 456.160156 604.722656 454.773438 591.863281 C 453.695312 581.832031 453.957031 570.339844 447.589844 563.046875 C 443.804688 558.714844 438.492188 557.050781 434.671875 552.765625 C 430.152344 547.703125 428.363281 539.695312 423.484375 535.179688 C 419.566406 531.550781 414.5625 531.011719 410.078125 528.824219 C 402.882812 525.320312 397.3125 517.761719 390.863281 512.230469 C 383.691406 506.078125 375.242188 502.578125 366.976562 501.960938 C 364.679688 501.792969 362.175781 502.480469 359.742188 502.988281 C 359.777344 501.210938 359.832031 499.4375 359.902344 497.667969 C 372.429688 502.394531 385.304688 502.378906 398.03125 503.457031 C 407.855469 504.292969 420.441406 505.257812 429.582031 511.992188 C 429.933594 512.25 430.277344 512.53125 430.613281 512.832031 C 436.269531 517.886719 439.195312 528.183594 442.253906 535.308594 C 443.449219 538.078125 444.617188 540.859375 445.757812 543.652344 C 447.339844 547.5 448.871094 551.363281 450.359375 555.25 C 451.792969 558.996094 453.1875 562.757812 454.539062 566.539062 C 455.347656 568.792969 456.140625 571.058594 456.917969 573.332031 C 457.738281 575.71875 458.539062 578.113281 459.324219 580.515625 C 459.605469 581.363281 459.878906 582.214844 460.152344 583.066406 C 460.375 583.75 460.59375 584.4375 460.8125 585.132812 C 461.234375 586.460938 461.652344 587.792969 462.066406 589.128906 C 462.660156 591.0625 463.246094 593 463.820312 594.9375 C 464.070312 595.761719 464.316406 596.585938 464.554688 597.414062 Z M 464.554688 597.414062 " fill-opacity="0.3" fill-rule="nonzero"/><path fill="#c65b02" d="M 379.714844 696.324219 L 379.714844 651.804688 C 379.714844 649.617188 381.117188 647.847656 382.84375 647.847656 C 384.574219 647.847656 385.972656 649.617188 385.972656 651.804688 L 385.972656 698.035156 C 387.320312 699.546875 388.167969 701.746094 388.167969 704.195312 C 388.167969 708.746094 385.246094 712.4375 381.644531 712.4375 C 378.042969 712.4375 375.125 708.746094 375.125 704.195312 C 375.125 700.496094 377.054688 697.367188 379.714844 696.324219 Z M 379.714844 696.324219 " fill-opacity="1" fill-rule="nonzero"/><path fill="#c65b02" d="M 363.4375 704.644531 L 363.4375 660.890625 C 363.4375 658.707031 364.839844 656.933594 366.566406 656.933594 C 368.296875 656.933594 369.699219 658.707031 369.699219 660.890625 L 369.699219 704.214844 C 371.886719 705.546875 373.398438 708.371094 373.398438 711.644531 C 373.398438 716.195312 370.476562 719.882812 366.875 719.882812 C 363.277344 719.882812 360.355469 716.195312 360.355469 711.644531 C 360.355469 708.691406 361.585938 706.101562 363.4375 704.644531 Z M 363.4375 704.644531 " fill-opacity="1" fill-rule="nonzero"/><path fill="#c65b02" d="M 346.796875 710.714844 L 346.796875 666.324219 C 346.796875 664.140625 348.199219 662.371094 349.925781 662.371094 C 351.65625 662.371094 353.058594 664.140625 353.058594 666.324219 L 353.058594 712.394531 C 354.414062 713.902344 355.269531 716.113281 355.269531 718.578125 C 355.269531 723.128906 352.351562 726.816406 348.75 726.816406 C 345.148438 726.816406 342.230469 723.128906 342.230469 718.578125 C 342.234375 714.894531 344.152344 711.765625 346.796875 710.714844 Z M 346.796875 710.714844 " fill-opacity="1" fill-rule="nonzero"/><path fill="#c65b02" d="M 325.394531 698.179688 L 325.394531 653.519531 C 325.394531 651.332031 326.792969 649.5625 328.523438 649.5625 C 330.253906 649.5625 331.652344 651.332031 331.652344 653.519531 L 331.652344 697.898438 C 333.785156 699.257812 335.238281 702.042969 335.238281 705.261719 C 335.238281 709.8125 332.320312 713.5 328.71875 713.5 C 325.117188 713.5 322.203125 709.8125 322.203125 705.257812 C 322.203125 702.25 323.484375 699.621094 325.394531 698.179688 Z M 325.394531 698.179688 " fill-opacity="1" fill-rule="nonzero"/><path fill="#c65b02" d="M 305.871094 699.519531 L 305.871094 654.101562 C 305.871094 651.914062 307.273438 650.144531 309 650.144531 C 310.730469 650.144531 312.132812 651.914062 312.132812 654.101562 L 312.132812 699.296875 C 314.238281 700.664062 315.683594 703.433594 315.683594 706.632812 C 315.683594 711.183594 312.761719 714.871094 309.160156 714.871094 C 305.5625 714.871094 302.640625 711.179688 302.640625 706.632812 C 302.640625 703.597656 303.941406 700.953125 305.871094 699.519531 Z M 305.871094 699.519531 " fill-opacity="1" fill-rule="nonzero"/><path fill="#ef7100" d="M 390.25 602.152344 C 390.25 602.914062 390.25 603.675781 390.25 604.4375 C 390.246094 605.796875 390.234375 607.148438 390.222656 608.503906 C 390.214844 609.023438 390.210938 609.542969 390.199219 610.0625 C 390.183594 611.40625 390.160156 612.75 390.128906 614.09375 C 390.105469 615.179688 390.082031 616.265625 390.050781 617.351562 C 390.015625 618.542969 389.980469 619.734375 389.941406 620.925781 C 389.726562 627.328125 389.394531 633.726562 388.949219 640.117188 C 388.777344 642.578125 388.589844 645.035156 388.382812 647.496094 C 388.246094 649.175781 388.097656 650.855469 387.9375 652.535156 C 387.867188 653.3125 387.792969 654.089844 387.71875 654.867188 C 387.644531 655.613281 387.570312 656.359375 387.496094 657.105469 C 387.117188 660.785156 386.613281 664.71875 384.578125 667.398438 C 383.910156 668.285156 383.09375 669.003906 382.132812 669.558594 C 381.320312 670.015625 380.464844 670.351562 379.558594 670.566406 C 378.613281 670.792969 377.65625 670.933594 376.6875 670.984375 C 375.796875 671.042969 374.898438 671.050781 374.023438 671.039062 L 373.835938 671.039062 C 373.195312 671.027344 372.554688 671.019531 371.914062 671.003906 C 371.019531 670.988281 370.128906 670.972656 369.234375 670.953125 C 367.765625 670.917969 366.300781 670.882812 364.832031 670.835938 C 363.9375 670.8125 363.039062 670.78125 362.144531 670.753906 C 360.835938 670.707031 359.527344 670.660156 358.21875 670.605469 C 357.3125 670.570312 356.410156 670.527344 355.507812 670.488281 C 353.378906 670.390625 351.25 670.285156 349.121094 670.164062 C 348.21875 670.113281 347.3125 670.0625 346.40625 670.007812 C 344.941406 669.917969 343.472656 669.824219 342.007812 669.722656 C 341.101562 669.664062 340.191406 669.597656 339.285156 669.53125 C 337.15625 669.378906 335.027344 669.214844 332.898438 669.035156 C 331.992188 668.960938 331.089844 668.882812 330.183594 668.804688 C 329.148438 668.710938 328.109375 668.617188 327.070312 668.523438 C 326.164062 668.4375 325.257812 668.351562 324.347656 668.261719 C 321.953125 668.03125 319.558594 667.78125 317.164062 667.519531 C 316.253906 667.417969 315.34375 667.316406 314.429688 667.210938 C 313.304688 667.082031 312.175781 666.949219 311.050781 666.8125 C 309.25 666.597656 307.34375 666.320312 305.925781 664.902344 C 303.980469 662.960938 303.546875 659.515625 303.269531 656.40625 C 303.15625 655.117188 303.042969 653.824219 302.933594 652.53125 C 302.707031 649.800781 302.488281 647.066406 302.285156 644.332031 C 302.183594 642.929688 302.082031 641.523438 301.988281 640.117188 C 301.550781 633.738281 301.203125 627.339844 300.941406 620.925781 C 300.917969 620.34375 300.894531 619.761719 300.875 619.179688 C 300.757812 616.140625 300.667969 613.101562 300.597656 610.058594 C 300.585938 609.539062 300.574219 609.019531 300.5625 608.5 C 300.535156 607.144531 300.511719 605.789062 300.496094 604.4375 C 300.484375 603.675781 300.476562 602.910156 300.46875 602.148438 C 300.460938 601.289062 300.453125 600.425781 300.449219 599.5625 C 300.449219 599.324219 300.449219 599.089844 300.445312 598.847656 C 300.4375 597.0625 300.441406 595.273438 300.453125 593.488281 C 300.460938 592.09375 300.472656 590.699219 300.492188 589.304688 C 300.503906 588.585938 300.511719 587.863281 300.527344 587.140625 C 300.542969 586.246094 300.558594 585.351562 300.582031 584.457031 C 300.640625 581.929688 300.714844 579.40625 300.8125 576.886719 C 300.90625 574.488281 301.015625 572.09375 301.140625 569.699219 C 301.355469 565.6875 301.621094 561.683594 301.941406 557.691406 C 302.273438 553.539062 302.667969 549.398438 303.121094 545.273438 C 305.5 523.679688 309.605469 502.503906 315.96875 482.203125 C 316.5 480.511719 317.046875 478.824219 317.609375 477.140625 C 328.320312 485.179688 340.6875 488.757812 352.605469 493.351562 C 361.804688 496.894531 373.621094 501.339844 380.519531 510.359375 C 380.785156 510.707031 381.035156 511.074219 381.273438 511.453125 C 385.292969 517.890625 385.230469 528.589844 386.179688 536.285156 C 386.550781 539.28125 386.894531 542.277344 387.214844 545.28125 C 387.65625 549.414062 388.050781 553.554688 388.390625 557.699219 C 388.722656 561.695312 389.011719 565.699219 389.253906 569.707031 C 389.402344 572.097656 389.53125 574.492188 389.640625 576.894531 C 389.761719 579.414062 389.863281 581.9375 389.949219 584.464844 C 389.980469 585.359375 390.007812 586.253906 390.03125 587.148438 C 390.050781 587.867188 390.070312 588.589844 390.089844 589.3125 C 390.121094 590.707031 390.152344 592.101562 390.175781 593.496094 C 390.207031 595.519531 390.230469 597.542969 390.238281 599.566406 C 390.242188 600.429688 390.25 601.292969 390.25 602.152344 Z M 390.25 602.152344 " fill-opacity="1" fill-rule="nonzero"/><path fill="#c65b02" d="M 381.902344 633.304688 L 382.113281 633.773438 L 388.382812 647.496094 C 388.585938 645.035156 388.773438 642.578125 388.945312 640.117188 C 389.390625 633.730469 389.722656 627.332031 389.9375 620.925781 C 389.980469 619.730469 390.015625 618.539062 390.046875 617.351562 L 389.648438 616.472656 L 389.617188 616.40625 L 389.585938 616.472656 L 382.113281 632.835938 Z M 381.902344 633.304688 " fill-opacity="1" fill-rule="nonzero"/><path fill="#c65b02" d="M 374.582031 616.472656 L 374.613281 616.40625 L 374.644531 616.472656 L 382.332031 633.304688 L 374.699219 650.015625 L 374.613281 650.207031 L 366.898438 633.304688 Z M 374.582031 616.472656 " fill-opacity="1" fill-rule="nonzero"/><path fill="#c65b02" d="M 359.582031 616.472656 L 359.609375 616.40625 L 359.640625 616.472656 L 367.328125 633.304688 L 359.699219 650.015625 L 359.609375 650.207031 L 351.894531 633.304688 Z M 359.582031 616.472656 " fill-opacity="1" fill-rule="nonzero"/><path fill="#c65b02" d="M 344.578125 616.472656 L 344.609375 616.40625 L 344.640625 616.472656 L 352.324219 633.304688 L 344.695312 650.015625 L 344.609375 650.207031 L 336.894531 633.304688 Z M 344.578125 616.472656 " fill-opacity="1" fill-rule="nonzero"/><path fill="#c65b02" d="M 329.574219 616.472656 L 329.605469 616.40625 L 329.636719 616.472656 L 337.324219 633.304688 L 329.691406 650.015625 L 329.605469 650.207031 L 321.890625 633.304688 Z M 329.574219 616.472656 " fill-opacity="1" fill-rule="nonzero"/><path fill="#c65b02" d="M 314.574219 616.472656 L 314.605469 616.40625 L 314.636719 616.472656 L 322.320312 633.304688 L 314.691406 650.015625 L 314.605469 650.207031 L 306.886719 633.304688 Z M 314.574219 616.472656 " fill-opacity="1" fill-rule="nonzero"/><path fill="#c65b02" d="M 300.871094 619.179688 C 300.890625 619.761719 300.914062 620.34375 300.9375 620.921875 C 301.195312 627.332031 301.542969 633.730469 301.984375 640.113281 C 302.078125 641.523438 302.179688 642.925781 302.28125 644.332031 L 307.097656 633.773438 L 307.316406 633.304688 L 307.097656 632.832031 Z M 300.871094 619.179688 " fill-opacity="1" fill-rule="nonzero"/><path fill="#c65b02" d="M 389.949219 584.464844 L 300.582031 584.464844 C 300.640625 581.933594 300.714844 579.410156 300.8125 576.894531 C 300.90625 574.496094 301.015625 572.097656 301.140625 569.707031 L 389.257812 569.707031 C 389.40625 572.097656 389.535156 574.492188 389.648438 576.894531 C 389.761719 579.414062 389.863281 581.9375 389.949219 584.464844 Z M 389.949219 584.464844 " fill-opacity="1" fill-rule="nonzero"/><path fill="#c65b02" d="M 390.25 602.152344 L 300.464844 602.152344 C 300.457031 601.289062 300.449219 600.429688 300.445312 599.566406 C 300.445312 599.328125 300.445312 599.09375 300.441406 598.847656 C 300.433594 597.0625 300.4375 595.277344 300.449219 593.492188 L 390.175781 593.492188 C 390.207031 595.515625 390.230469 597.539062 390.238281 599.5625 C 390.242188 600.429688 390.25 601.292969 390.25 602.152344 Z M 390.25 602.152344 " fill-opacity="1" fill-rule="nonzero"/><path fill="#c65b02" d="M 390.25 602.152344 C 390.25 602.914062 390.25 603.675781 390.25 604.4375 C 390.246094 605.796875 390.234375 607.148438 390.222656 608.503906 C 390.214844 609.023438 390.210938 609.542969 390.199219 610.0625 C 390.183594 611.40625 390.160156 612.75 390.128906 614.09375 C 390.105469 615.179688 390.082031 616.265625 390.050781 617.351562 C 390.015625 618.542969 389.980469 619.734375 389.941406 620.925781 C 389.726562 627.328125 389.394531 633.726562 388.949219 640.117188 C 388.777344 642.578125 388.589844 645.035156 388.382812 647.496094 C 388.246094 649.175781 388.097656 650.855469 387.9375 652.535156 C 387.867188 653.3125 387.792969 654.089844 387.71875 654.867188 C 383.050781 649.867188 382.148438 640.964844 381.679688 633.082031 C 380.914062 620.0625 380.15625 606.820312 382.414062 594.085938 C 384.175781 584.148438 387.640625 573.1875 383.5625 564.410156 C 381.136719 559.191406 376.496094 556.105469 374.023438 550.929688 C 371.101562 544.804688 371.617188 536.617188 368.195312 530.917969 C 365.445312 526.339844 360.792969 524.421875 357.09375 521.070312 C 351.160156 515.703125 347.921875 506.886719 343.273438 499.773438 C 338.109375 491.859375 330.96875 486.140625 323.203125 483.242188 C 321.050781 482.4375 318.449219 482.398438 315.96875 482.203125 C 316.5 480.511719 317.046875 478.824219 317.609375 477.140625 C 328.320312 485.179688 340.6875 488.757812 352.605469 493.351562 C 361.804688 496.894531 373.621094 501.339844 380.519531 510.359375 C 380.785156 510.707031 381.035156 511.074219 381.273438 511.453125 C 385.292969 517.890625 385.230469 528.589844 386.179688 536.285156 C 386.550781 539.28125 386.894531 542.277344 387.214844 545.28125 C 387.65625 549.414062 388.050781 553.554688 388.390625 557.699219 C 388.722656 561.695312 389.011719 565.699219 389.253906 569.707031 C 389.402344 572.097656 389.53125 574.492188 389.640625 576.894531 C 389.761719 579.414062 389.863281 581.9375 389.949219 584.464844 C 389.980469 585.359375 390.007812 586.253906 390.03125 587.148438 C 390.050781 587.867188 390.070312 588.589844 390.089844 589.3125 C 390.121094 590.707031 390.152344 592.101562 390.175781 593.496094 C 390.207031 595.519531 390.230469 597.542969 390.238281 599.566406 C 390.242188 600.429688 390.25 601.292969 390.25 602.152344 Z M 390.25 602.152344 " fill-opacity="0.3" fill-rule="nonzero"/><path fill="#c65b02" d="M 379.691406 700.390625 L 379.691406 655.867188 C 379.691406 653.683594 381.089844 651.914062 382.820312 651.914062 C 384.546875 651.914062 385.949219 653.683594 385.949219 655.867188 L 385.949219 702.101562 C 387.292969 703.609375 388.140625 705.808594 388.140625 708.261719 C 388.140625 712.8125 385.222656 716.5 381.621094 716.5 C 378.019531 716.5 375.101562 712.8125 375.101562 708.261719 C 375.097656 704.5625 377.023438 701.429688 379.691406 700.390625 Z M 379.691406 700.390625 " fill-opacity="1" fill-rule="nonzero"/><path fill="#c65b02" d="M 363.410156 708.710938 L 363.410156 664.957031 C 363.410156 662.773438 364.808594 661 366.539062 661 C 368.265625 661 369.667969 662.773438 369.667969 664.957031 L 369.667969 708.28125 C 371.859375 709.613281 373.367188 712.4375 373.367188 715.710938 C 373.367188 720.261719 370.449219 723.949219 366.847656 723.949219 C 363.246094 723.949219 360.328125 720.261719 360.328125 715.710938 C 360.328125 712.753906 361.558594 710.164062 363.410156 708.710938 Z M 363.410156 708.710938 " fill-opacity="1" fill-rule="nonzero"/><g clip-path="url(#7f28bdc716)"><path fill="#c65b02" d="M 346.773438 714.78125 L 346.773438 670.390625 C 346.773438 668.207031 348.171875 666.4375 349.902344 666.4375 C 351.628906 666.4375 353.03125 668.207031 353.03125 670.390625 L 353.03125 716.460938 C 354.390625 717.96875 355.246094 720.179688 355.246094 722.644531 C 355.246094 727.195312 352.328125 730.882812 348.726562 730.882812 C 345.125 730.882812 342.207031 727.191406 342.207031 722.644531 C 342.207031 718.953125 344.125 715.828125 346.773438 714.78125 Z M 346.773438 714.78125 " fill-opacity="1" fill-rule="nonzero"/></g><path fill="#c65b02" d="M 325.367188 702.242188 L 325.367188 657.585938 C 325.367188 655.398438 326.765625 653.628906 328.496094 653.628906 C 330.222656 653.628906 331.628906 655.398438 331.628906 657.585938 L 331.628906 701.964844 C 333.757812 703.324219 335.21875 706.109375 335.21875 709.328125 C 335.21875 713.878906 332.296875 717.566406 328.695312 717.566406 C 325.09375 717.566406 322.175781 713.878906 322.175781 709.328125 C 322.175781 706.316406 323.457031 703.679688 325.367188 702.242188 Z M 325.367188 702.242188 " fill-opacity="1" fill-rule="nonzero"/><path fill="#c65b02" d="M 305.84375 703.585938 L 305.84375 658.164062 C 305.84375 655.980469 307.246094 654.210938 308.972656 654.210938 C 310.699219 654.210938 312.101562 655.980469 312.101562 658.164062 L 312.101562 703.367188 C 314.210938 704.734375 315.652344 707.503906 315.652344 710.703125 C 315.652344 715.253906 312.734375 718.941406 309.132812 718.941406 C 305.53125 718.941406 302.613281 715.25 302.613281 710.703125 C 302.613281 707.664062 303.910156 705.015625 305.84375 703.585938 Z M 305.84375 703.585938 " fill-opacity="1" fill-rule="nonzero"/><path fill="#ef7100" d="M 390.21875 606.21875 C 390.21875 606.980469 390.21875 607.742188 390.21875 608.503906 C 390.214844 609.859375 390.207031 611.214844 390.191406 612.570312 C 390.1875 613.089844 390.179688 613.609375 390.171875 614.128906 C 390.152344 615.472656 390.128906 616.816406 390.101562 618.160156 C 390.078125 619.242188 390.050781 620.328125 390.023438 621.414062 C 389.988281 622.605469 389.953125 623.796875 389.910156 624.988281 C 389.695312 631.394531 389.367188 637.789062 388.921875 644.183594 C 388.75 646.640625 388.5625 649.101562 388.355469 651.5625 C 388.214844 653.242188 388.066406 654.917969 387.910156 656.597656 C 387.839844 657.378906 387.765625 658.15625 387.6875 658.933594 C 387.617188 659.679688 387.542969 660.425781 387.464844 661.167969 C 387.089844 664.847656 386.582031 668.785156 384.546875 671.460938 C 383.878906 672.351562 383.066406 673.070312 382.101562 673.621094 C 381.292969 674.078125 380.433594 674.417969 379.53125 674.632812 C 378.585938 674.859375 377.628906 674.996094 376.660156 675.050781 C 375.765625 675.109375 374.871094 675.113281 373.996094 675.101562 L 373.804688 675.101562 C 373.167969 675.089844 372.527344 675.082031 371.886719 675.070312 C 370.992188 675.054688 370.097656 675.035156 369.203125 675.015625 C 367.734375 674.984375 366.269531 674.945312 364.804688 674.902344 C 363.90625 674.875 363.011719 674.84375 362.113281 674.816406 C 360.804688 674.773438 359.496094 674.722656 358.1875 674.667969 C 357.285156 674.632812 356.382812 674.59375 355.476562 674.550781 C 353.347656 674.457031 351.222656 674.347656 349.09375 674.226562 C 348.1875 674.175781 347.285156 674.125 346.378906 674.070312 C 344.910156 673.980469 343.441406 673.886719 341.972656 673.789062 C 341.0625 673.726562 340.15625 673.664062 339.25 673.59375 C 337.121094 673.441406 334.992188 673.277344 332.863281 673.097656 C 331.957031 673.023438 331.054688 672.945312 330.148438 672.867188 C 329.113281 672.777344 328.074219 672.683594 327.035156 672.585938 C 326.128906 672.5 325.21875 672.414062 324.3125 672.324219 C 321.917969 672.09375 319.523438 671.84375 317.128906 671.582031 C 316.21875 671.480469 315.308594 671.378906 314.394531 671.273438 C 313.269531 671.144531 312.140625 671.011719 311.015625 670.878906 C 309.214844 670.660156 307.308594 670.382812 305.890625 668.964844 C 303.945312 667.027344 303.511719 663.582031 303.234375 660.46875 C 303.121094 659.179688 303.007812 657.886719 302.902344 656.597656 C 302.671875 653.863281 302.453125 651.128906 302.25 648.394531 C 302.148438 646.992188 302.046875 645.585938 301.953125 644.179688 C 301.515625 637.800781 301.167969 631.402344 300.90625 624.984375 C 300.878906 624.40625 300.859375 623.824219 300.835938 623.242188 C 300.722656 620.203125 300.632812 617.164062 300.5625 614.121094 C 300.550781 613.601562 300.539062 613.082031 300.527344 612.5625 C 300.5 611.207031 300.476562 609.851562 300.460938 608.496094 C 300.449219 607.738281 300.441406 606.976562 300.433594 606.210938 C 300.425781 605.347656 300.417969 604.488281 300.414062 603.625 C 300.414062 603.386719 300.414062 603.152344 300.414062 602.910156 C 300.40625 601.121094 300.410156 599.335938 300.421875 597.554688 C 300.429688 596.15625 300.441406 594.761719 300.460938 593.367188 C 300.472656 592.644531 300.484375 591.921875 300.496094 591.203125 C 300.511719 590.308594 300.53125 589.414062 300.550781 588.519531 C 300.609375 585.992188 300.6875 583.46875 300.785156 580.949219 C 300.875 578.550781 300.984375 576.15625 301.109375 573.761719 C 301.324219 569.75 301.589844 565.75 301.910156 561.753906 C 302.242188 557.601562 302.636719 553.460938 303.089844 549.335938 C 305.472656 527.734375 309.582031 506.5625 315.945312 486.257812 C 316.476562 484.566406 317.023438 482.878906 317.585938 481.195312 C 328.292969 489.234375 340.660156 492.8125 352.578125 497.40625 C 361.777344 500.953125 373.597656 505.394531 380.492188 514.414062 C 380.757812 514.761719 381.011719 515.128906 381.25 515.507812 C 385.269531 521.945312 385.203125 532.648438 386.152344 540.339844 C 386.523438 543.335938 386.867188 546.332031 387.1875 549.335938 C 387.628906 553.46875 388.023438 557.609375 388.367188 561.753906 C 388.695312 565.75 388.984375 569.753906 389.230469 573.761719 C 389.375 576.152344 389.503906 578.546875 389.617188 580.949219 C 389.734375 583.472656 389.839844 585.996094 389.921875 588.519531 C 389.953125 589.414062 389.980469 590.308594 390.003906 591.203125 C 390.027344 591.921875 390.046875 592.644531 390.0625 593.367188 C 390.097656 594.761719 390.125 596.15625 390.148438 597.554688 C 390.183594 599.574219 390.203125 601.597656 390.214844 603.621094 C 390.21875 604.492188 390.21875 605.355469 390.21875 606.21875 Z M 390.21875 606.21875 " fill-opacity="1" fill-rule="nonzero"/><path fill="#c65b02" d="M 381.871094 637.371094 L 382.085938 637.839844 L 388.351562 651.566406 C 388.558594 649.105469 388.746094 646.644531 388.917969 644.183594 C 389.363281 637.796875 389.695312 631.402344 389.910156 624.992188 C 389.949219 623.800781 389.988281 622.609375 390.019531 621.417969 L 389.617188 620.539062 L 389.589844 620.472656 L 389.554688 620.539062 L 382.085938 636.902344 Z M 381.871094 637.371094 " fill-opacity="1" fill-rule="nonzero"/><path fill="#c65b02" d="M 374.554688 620.539062 L 374.585938 620.472656 L 374.617188 620.539062 L 382.300781 637.371094 L 374.671875 654.082031 L 374.585938 654.269531 L 366.871094 637.371094 Z M 374.554688 620.539062 " fill-opacity="1" fill-rule="nonzero"/><path fill="#c65b02" d="M 359.554688 620.539062 L 359.582031 620.472656 L 359.613281 620.539062 L 367.300781 637.371094 L 359.667969 654.082031 L 359.582031 654.269531 L 351.867188 637.371094 Z M 359.554688 620.539062 " fill-opacity="1" fill-rule="nonzero"/><path fill="#c65b02" d="M 344.550781 620.539062 L 344.582031 620.472656 L 344.613281 620.539062 L 352.296875 637.371094 L 344.667969 654.082031 L 344.582031 654.269531 L 336.863281 637.371094 Z M 344.550781 620.539062 " fill-opacity="1" fill-rule="nonzero"/><path fill="#c65b02" d="M 329.546875 620.539062 L 329.578125 620.472656 L 329.609375 620.539062 L 337.296875 637.371094 L 329.664062 654.082031 L 329.578125 654.269531 L 321.863281 637.371094 Z M 329.546875 620.539062 " fill-opacity="1" fill-rule="nonzero"/><path fill="#c65b02" d="M 314.546875 620.539062 L 314.574219 620.472656 L 314.605469 620.539062 L 322.292969 637.371094 L 314.664062 654.082031 L 314.574219 654.269531 L 306.859375 637.371094 Z M 314.546875 620.539062 " fill-opacity="1" fill-rule="nonzero"/><path fill="#c65b02" d="M 300.839844 623.246094 C 300.863281 623.824219 300.886719 624.410156 300.910156 624.988281 C 301.167969 631.398438 301.515625 637.796875 301.957031 644.179688 C 302.050781 645.589844 302.148438 646.992188 302.253906 648.398438 L 307.070312 637.839844 L 307.285156 637.371094 L 307.070312 636.898438 Z M 300.839844 623.246094 " fill-opacity="1" fill-rule="nonzero"/><path fill="#c65b02" d="M 389.921875 588.527344 L 300.546875 588.527344 C 300.605469 586.003906 300.683594 583.480469 300.78125 580.957031 C 300.871094 578.5625 300.980469 576.164062 301.109375 573.773438 L 389.226562 573.773438 C 389.371094 576.164062 389.5 578.558594 389.613281 580.957031 C 389.734375 583.480469 389.835938 586.003906 389.921875 588.527344 Z M 389.921875 588.527344 " fill-opacity="1" fill-rule="nonzero"/><path fill="#c65b02" d="M 390.21875 606.21875 L 300.4375 606.21875 C 300.425781 605.355469 300.421875 604.492188 300.417969 603.632812 C 300.417969 603.394531 300.417969 603.15625 300.417969 602.914062 C 300.410156 601.128906 300.414062 599.34375 300.421875 597.558594 L 390.152344 597.558594 C 390.1875 599.582031 390.207031 601.605469 390.21875 603.628906 C 390.21875 604.492188 390.21875 605.355469 390.21875 606.21875 Z M 390.21875 606.21875 " fill-opacity="1" fill-rule="nonzero"/><path fill="#c65b02" d="M 390.21875 606.21875 C 390.21875 606.980469 390.21875 607.742188 390.21875 608.503906 C 390.214844 609.859375 390.207031 611.214844 390.191406 612.570312 C 390.1875 613.089844 390.179688 613.609375 390.171875 614.128906 C 390.152344 615.472656 390.128906 616.816406 390.101562 618.160156 C 390.078125 619.242188 390.050781 620.328125 390.023438 621.414062 C 389.988281 622.605469 389.953125 623.796875 389.910156 624.988281 C 389.695312 631.394531 389.367188 637.789062 388.921875 644.183594 C 388.75 646.640625 388.5625 649.101562 388.355469 651.5625 C 388.214844 653.242188 388.066406 654.917969 387.910156 656.597656 C 387.839844 657.378906 387.765625 658.15625 387.6875 658.933594 C 383.023438 653.933594 382.117188 645.027344 381.652344 637.144531 C 380.882812 624.128906 380.125 610.886719 382.386719 598.148438 C 384.148438 588.214844 387.613281 577.253906 383.53125 568.472656 C 381.105469 563.257812 376.46875 560.171875 373.996094 554.992188 C 371.070312 548.867188 371.589844 540.679688 368.164062 534.980469 C 365.417969 530.402344 360.761719 528.484375 357.066406 525.140625 C 351.132812 519.769531 347.894531 510.953125 343.25 503.839844 C 338.082031 495.925781 330.941406 490.207031 323.175781 487.308594 C 321.023438 486.503906 318.421875 486.464844 315.945312 486.269531 C 316.476562 484.578125 317.023438 482.890625 317.585938 481.207031 C 328.292969 489.246094 340.660156 492.824219 352.578125 497.417969 C 361.777344 500.964844 373.597656 505.40625 380.492188 514.425781 C 380.757812 514.773438 381.011719 515.140625 381.246094 515.519531 C 385.269531 521.953125 385.203125 532.65625 386.152344 540.351562 C 386.523438 543.347656 386.867188 546.34375 387.1875 549.347656 C 387.628906 553.480469 388.023438 557.621094 388.367188 561.765625 C 388.695312 565.761719 388.984375 569.765625 389.226562 573.773438 C 389.375 576.164062 389.503906 578.558594 389.617188 580.960938 C 389.734375 583.480469 389.839844 586.003906 389.921875 588.53125 C 389.953125 589.425781 389.980469 590.320312 390.003906 591.214844 C 390.027344 591.933594 390.046875 592.65625 390.0625 593.378906 C 390.097656 594.773438 390.125 596.167969 390.148438 597.5625 C 390.183594 599.585938 390.203125 601.609375 390.214844 603.632812 C 390.21875 604.492188 390.21875 605.355469 390.21875 606.21875 Z M 390.21875 606.21875 " fill-opacity="0.3" fill-rule="nonzero"/><g clip-path="url(#a305d43c38)"><path fill="#ef7100" d="M 274.085938 466.101562 C 275.074219 467.972656 276.332031 469.753906 277.601562 471.371094 C 305.285156 506.640625 348.4375 528.203125 392.929688 533.648438 C 411.988281 535.984375 431.242188 535.515625 450.21875 532.707031 C 459.976562 531.253906 469.613281 529.21875 479.125 526.601562 C 494.375 522.425781 509.261719 516.832031 523.519531 510.082031 C 530.386719 506.832031 537.234375 503.238281 542.675781 497.9375 C 543.296875 497.332031 543.898438 496.703125 544.476562 496.050781 C 548.171875 491.867188 550.898438 486.722656 551.597656 481.289062 C 551.75 480.117188 551.804688 478.941406 551.761719 477.761719 C 551.472656 470.164062 546.183594 462.589844 538.722656 461.15625 C 540.910156 455.808594 543.148438 450.152344 542.402344 444.417969 C 540.703125 431.261719 529.921875 432.960938 521.40625 437.21875 C 514.96875 440.441406 508.402344 443.378906 501.703125 446.035156 C 497.535156 447.683594 493.324219 449.214844 489.066406 450.628906 C 483.601562 452.441406 478.074219 454.0625 472.488281 455.484375 C 455.582031 459.796875 438.414062 462.273438 420.980469 462.914062 C 408.15625 463.390625 395.378906 462.835938 382.648438 461.25 C 357.019531 458.042969 331.308594 450.382812 310.886719 434.578125 C 305.492188 430.402344 300.246094 425.550781 293.640625 423.851562 C 287.03125 422.148438 278.566406 425.148438 277.167969 431.832031 C 276.46875 435.1875 277.65625 438.675781 278.125 442.082031 C 278.382812 443.925781 278.429688 445.753906 277.84375 447.519531 C 276.792969 450.695312 273.898438 452.972656 272.734375 456.109375 C 271.5 459.425781 272.394531 462.890625 274.085938 466.101562 Z M 274.085938 466.101562 " fill-opacity="1" fill-rule="nonzero"/></g><g clip-path="url(#48bca341ce)"><path fill="#c65b02" d="M 274.085938 466.101562 C 275.074219 467.972656 276.332031 469.753906 277.601562 471.371094 C 305.285156 506.636719 348.4375 528.203125 392.929688 533.648438 C 411.988281 535.984375 431.242188 535.515625 450.21875 532.707031 C 430.167969 531.054688 409.976562 530.023438 390.113281 527.078125 C 349.273438 521.023438 306.144531 503.8125 286.945312 467.246094 C 291.660156 470.730469 298.535156 470.9375 303.449219 467.75 C 300.648438 458.84375 297.851562 449.941406 295.054688 441.035156 C 297.257812 448.039062 323.820312 456.316406 330.316406 458.703125 C 343.058594 463.375 356.320312 466.59375 369.769531 468.390625 C 381.898438 470.007812 394.070312 470.480469 406.289062 469.8125 C 418.507812 469.144531 430.554688 467.34375 442.4375 464.410156 C 448.859375 462.820312 460.855469 459.863281 472.484375 455.484375 C 455.582031 459.796875 438.417969 462.273438 420.984375 462.914062 C 408.164062 463.390625 395.386719 462.832031 382.652344 461.246094 C 357.023438 458.042969 331.316406 450.382812 310.894531 434.578125 C 305.492188 430.398438 300.246094 425.550781 293.636719 423.851562 C 287.027344 422.152344 278.566406 425.148438 277.167969 431.832031 C 276.46875 435.1875 277.65625 438.675781 278.125 442.085938 C 278.382812 443.929688 278.429688 445.757812 277.84375 447.523438 C 276.796875 450.699219 273.898438 452.980469 272.734375 456.113281 C 271.5 459.425781 272.394531 462.890625 274.085938 466.101562 Z M 274.085938 466.101562 " fill-opacity="1" fill-rule="nonzero"/></g></svg>