<svg xmlns="http://www.w3.org/2000/svg" xmlns:xlink="http://www.w3.org/1999/xlink" width="1024" zoomAndPan="magnify" viewBox="0 0 768 767.999994" height="1024" preserveAspectRatio="xMidYMid meet" version="1.0"><defs><clipPath id="6a5fa79a5a"><path d="M 254.136719 425.878906 L 540.636719 425.878906 L 540.636719 543 L 254.136719 543 Z M 254.136719 425.878906 " clip-rule="nonzero"/></clipPath><clipPath id="61f48e0e96"><path d="M 288 458 L 385 458 L 385 676.378906 L 288 676.378906 Z M 288 458 " clip-rule="nonzero"/></clipPath></defs><g clip-path="url(#6a5fa79a5a)"><path fill="#df1f26" d="M 532.65625 521.066406 C 525.21875 524.589844 445.792969 554.90625 331.078125 537.714844 C 295.070312 532.753906 267.144531 522.863281 257.15625 515.5625 C 247.164062 508.261719 264.664062 481.003906 269.375 466.617188 C 274.082031 452.230469 282.097656 431.265625 291.761719 433.78125 C 358.933594 462.625 443.675781 449.175781 509.980469 430.726562 C 514.902344 429.394531 515.515625 426.625 515.515625 426.625 C 521.191406 424.828125 527.519531 425.296875 530 442.808594 C 532.476562 460.324219 532.730469 467.984375 538.011719 488.699219 C 543.296875 509.414062 540.0625 517.539062 532.621094 521.066406 Z M 532.65625 521.066406 " fill-opacity="1" fill-rule="nonzero"/></g><path fill="#f6891f" d="M 477.707031 536.207031 C 455.28125 540.304688 426.785156 543.433594 393.613281 542.929688 C 388.652344 518.152344 388.042969 470.464844 396.019531 450.289062 C 419.199219 449.355469 442.453125 446.152344 464.664062 441.695312 C 472.496094 462.660156 476.882812 508.875 477.742188 536.207031 Z M 264.808594 520.023438 C 273.289062 524.15625 286.050781 528.582031 301.71875 532.285156 C 306.894531 514.160156 321.304688 464.925781 327.125 444.96875 C 317.242188 442.808594 307.539062 440.003906 298.195312 436.40625 C 288.3125 448.636719 270.847656 485.460938 264.808594 520.023438 Z M 264.808594 520.023438 " fill-opacity="1" fill-rule="nonzero"/><path fill="#ed2224" d="M 398.070312 450.183594 C 397.207031 450.21875 396.34375 450.253906 395.445312 450.289062 C 394.582031 450.324219 393.648438 450.363281 392.785156 450.398438 C 388.078125 452.269531 383.550781 458.5625 380.316406 468.847656 C 375.859375 482.945312 370.972656 511.101562 378.339844 547.605469 C 385.707031 584.109375 384.664062 622.695312 381.824219 642.585938 C 380.207031 655.421875 350.847656 655.496094 334.746094 654.054688 C 318.644531 652.652344 293.777344 645.785156 293.273438 636.9375 C 292.734375 628.125 295.355469 598.027344 294.242188 576.015625 C 293.164062 554.007812 285.871094 527.503906 291.800781 494.238281 C 297.730469 461.007812 305.957031 443.566406 315.445312 441.191406 C 324.933594 438.816406 331.332031 442.054688 341.179688 443.851562 C 351.027344 445.652344 365.761719 445.757812 372.804688 445.652344 C 379.847656 445.542969 397.207031 446.476562 398.03125 450.144531 Z M 398.070312 450.183594 " fill-opacity="1" fill-rule="nonzero"/><g clip-path="url(#61f48e0e96)"><path fill="#fbaa19" d="M 384.269531 669.554688 L 379.738281 671.175781 C 378.339844 667.253906 376.398438 657.003906 375.464844 650.316406 C 373.882812 651.105469 372.085938 651.789062 370.144531 652.328125 C 370.214844 656.898438 370.574219 665.023438 371.976562 673.441406 L 367.234375 674.230469 C 365.867188 666.03125 365.472656 658.226562 365.328125 653.410156 C 363.605469 653.695312 361.84375 653.949219 360.011719 654.128906 C 359.578125 658.660156 359.148438 666.679688 360.117188 675.597656 L 355.339844 676.101562 C 354.367188 667.21875 354.726562 659.308594 355.121094 654.488281 C 353.722656 654.558594 352.320312 654.59375 350.882812 654.632812 C 350.269531 659.164062 349.300781 667.613281 349.445312 676.28125 L 344.628906 676.351562 C 344.484375 667.722656 345.347656 659.449219 345.992188 654.632812 C 344.414062 654.632812 342.867188 654.558594 341.394531 654.488281 C 340.855469 658.40625 340.027344 665.816406 339.417969 675.886719 L 334.636719 675.597656 C 335.210938 665.601562 336.074219 658.300781 336.613281 654.199219 C 335.96875 654.164062 335.320312 654.09375 334.710938 654.054688 C 334.0625 653.984375 333.414062 653.949219 332.769531 653.875 C 332.050781 658.40625 330.757812 667.21875 329.929688 674.878906 L 325.148438 674.375 C 325.976562 666.679688 327.304688 657.867188 328.023438 653.230469 C 326.765625 653.050781 325.472656 652.796875 324.179688 652.582031 C 323.675781 656.464844 322.453125 664.339844 320.15625 672.503906 L 315.554688 671.175781 C 317.855469 663.117188 319.039062 655.136719 319.507812 651.574219 C 318.140625 651.25 316.742188 650.925781 315.375 650.53125 C 314.691406 654.558594 313.289062 661.753906 311.277344 668.910156 L 306.640625 667.613281 C 308.652344 660.386719 310.054688 652.941406 310.703125 649.128906 C 309.265625 648.660156 307.863281 648.160156 306.535156 647.65625 C 305.671875 651.863281 303.910156 659.59375 301.609375 664.59375 L 297.226562 662.578125 C 299.488281 657.617188 301.285156 649.273438 302.003906 645.640625 C 300.28125 644.777344 298.734375 643.878906 297.476562 642.945312 C 296.472656 647.546875 294.746094 654.777344 292.589844 659.988281 L 288.132812 658.15625 C 290.863281 651.503906 292.984375 640.929688 293.488281 638.304688 C 293.308594 637.835938 293.199219 637.371094 293.199219 636.867188 C 292.804688 630.175781 294.207031 611.261719 294.421875 592.917969 C 314.261719 602.59375 366.226562 601.371094 383.765625 598.347656 C 384.234375 616.257812 383.261719 632.011719 381.753906 642.511719 C 381.535156 644.203125 380.855469 645.675781 379.777344 646.9375 C 380.386719 652.617188 382.652344 665.277344 384.160156 669.449219 Z M 375.285156 526.460938 C 372.949219 500.242188 376.792969 480.03125 380.316406 468.8125 C 380.601562 467.949219 380.855469 467.121094 381.140625 466.292969 C 381.035156 466.292969 380.925781 466.222656 380.816406 466.183594 C 360.621094 460.96875 323.820312 458.632812 301.214844 458.632812 C 297.65625 467.300781 294.496094 479.132812 291.800781 494.273438 C 290.074219 503.910156 289.5 513.007812 289.5 521.570312 C 315.375 529.371094 358.035156 530.414062 375.246094 526.460938 Z M 375.285156 526.460938 " fill-opacity="1" fill-rule="nonzero"/></g></svg>