<svg xmlns="http://www.w3.org/2000/svg" xmlns:xlink="http://www.w3.org/1999/xlink" width="1024" zoomAndPan="magnify" viewBox="0 0 768 767.999994" height="1024" preserveAspectRatio="xMidYMid meet" version="1.0"><defs><clipPath id="ab34a18e55"><path d="M 189.121094 345.148438 L 496.621094 345.148438 L 496.621094 452 L 189.121094 452 Z M 189.121094 345.148438 " clip-rule="nonzero"/></clipPath><clipPath id="c8bf9408f9"><path d="M 189.121094 377 L 496.621094 377 L 496.621094 452 L 189.121094 452 Z M 189.121094 377 " clip-rule="nonzero"/></clipPath><clipPath id="0812cf751e"><path d="M 215 345.148438 L 465 345.148438 L 465 394 L 215 394 Z M 215 345.148438 " clip-rule="nonzero"/></clipPath></defs><g clip-path="url(#ab34a18e55)"><path fill="#1e1e1e" d="M 457.113281 355.714844 C 457.113281 355.714844 479.515625 375.1875 467.371094 385.695312 C 446.558594 403.644531 417.039062 345.933594 377.714844 345.980469 C 352.582031 346.027344 342.871094 357.761719 342.871094 357.761719 C 342.871094 357.761719 333.160156 346.027344 308.027344 345.980469 C 268.703125 345.914062 239.179688 403.644531 218.367188 385.695312 C 206.199219 375.1875 228.605469 355.714844 228.605469 355.714844 C 228.605469 355.714844 188.824219 359.039062 189.164062 395.679688 C 189.550781 437.945312 250.257812 455.960938 280.347656 451.023438 C 319.808594 444.539062 342.847656 413.105469 342.847656 413.105469 C 342.847656 413.105469 365.886719 444.539062 405.347656 451.023438 C 435.4375 455.960938 496.140625 437.945312 496.527344 395.679688 C 496.871094 359.039062 457.089844 355.714844 457.089844 355.714844 Z M 457.113281 355.714844 " fill-opacity="1" fill-rule="nonzero"/></g><g clip-path="url(#c8bf9408f9)"><path fill="#000000" d="M 280.371094 451 C 319.832031 444.519531 342.871094 413.082031 342.871094 413.082031 C 342.871094 413.082031 365.910156 444.519531 405.371094 451 C 435.460938 455.9375 496.164062 437.921875 496.550781 395.660156 C 496.597656 391.5625 496.097656 387.925781 495.253906 384.625 C 491.140625 396.046875 481.972656 408.828125 463.117188 420.246094 C 413.671875 450.226562 342.847656 398.867188 342.847656 398.867188 C 342.847656 398.867188 290.285156 435.167969 241.363281 426.707031 C 192.691406 418.292969 193.078125 377.804688 193.167969 377.371094 C 190.644531 382.285156 189.074219 388.289062 189.144531 395.636719 C 189.53125 437.898438 250.234375 455.914062 280.324219 450.976562 Z M 280.371094 451 " fill-opacity="1" fill-rule="nonzero"/></g><g clip-path="url(#0812cf751e)"><path fill="#353535" d="M 341.460938 366.976562 C 341.460938 366.976562 359.132812 356.078125 378.851562 356.351562 C 398.570312 356.601562 423.863281 389.378906 440.351562 391.835938 C 459.296875 394.65625 464.117188 387.855469 464.117188 387.855469 L 464.097656 387.855469 C 443.511719 397.84375 415.015625 345.933594 377.714844 345.980469 C 352.582031 346.027344 342.871094 357.761719 342.871094 357.761719 C 342.871094 357.761719 333.160156 346.027344 308.027344 345.980469 C 268.703125 345.914062 239.179688 403.644531 218.371094 385.695312 C 217.164062 384.648438 216.300781 383.511719 215.707031 382.304688 C 215.707031 382.304688 220.804688 397.730469 242.570312 391.585938 C 264.335938 385.445312 287.648438 358.035156 309.414062 358.035156 C 331.179688 358.035156 341.4375 367 341.4375 367 Z M 341.460938 366.976562 " fill-opacity="1" fill-rule="nonzero"/></g></svg>