<svg xmlns="http://www.w3.org/2000/svg" xmlns:xlink="http://www.w3.org/1999/xlink" width="1024" zoomAndPan="magnify" viewBox="0 0 768 767.999994" height="1024" preserveAspectRatio="xMidYMid meet" version="1.0"><path fill="#f4c8e8" d="M 197.714844 290.832031 C 197.714844 290.832031 184.304688 299.632812 180.960938 305.957031 C 178.105469 311.363281 180.199219 316.296875 183.417969 319.101562 C 187.6875 322.835938 191.964844 322.460938 197.71875 317.761719 C 203.472656 313.0625 208.269531 308.332031 208.269531 308.332031 Z M 197.714844 290.832031 " fill-opacity="1" fill-rule="nonzero"/><path fill="#3f2b19" d="M 196.328125 290.765625 C 193.972656 292.316406 191.699219 294 189.476562 295.734375 C 185.992188 298.460938 182.347656 301.4375 179.859375 305.144531 C 176.566406 310.050781 177.488281 316.246094 182.035156 319.996094 C 186.449219 323.632812 192.082031 322.527344 196.609375 319.65625 C 199.847656 317.601562 202.71875 314.855469 205.550781 312.289062 C 207.027344 310.953125 208.484375 309.601562 209.902344 308.207031 C 210.023438 308.113281 210.078125 307.992188 210.074219 307.851562 C 206.554688 302.019531 203.035156 296.179688 199.519531 290.34375 C 198.976562 289.441406 195.597656 290.792969 195.90625 291.308594 C 197.808594 294.464844 199.714844 297.625 201.617188 300.78125 C 202.84375 302.816406 204.066406 304.847656 205.292969 306.882812 C 205.585938 307.363281 205.871094 308.113281 206.273438 308.507812 C 206.351562 308.585938 206.367188 308.734375 206.449219 308.796875 C 206.328125 308.695312 206.761719 308.339844 206.542969 308.53125 C 206.421875 308.632812 206.320312 308.75 206.203125 308.863281 C 203.484375 311.496094 200.664062 314.035156 197.769531 316.480469 C 195.972656 317.996094 194.109375 319.675781 191.890625 320.550781 C 190.3125 321.175781 188.640625 320.769531 187.191406 319.972656 C 183.714844 318.058594 181.285156 314.3125 181.417969 310.296875 C 181.539062 306.621094 183.789062 303.671875 186.257812 301.160156 C 190.074219 297.269531 194.53125 293.890625 199.085938 290.898438 C 199.710938 290.488281 199.492188 290.1875 198.867188 290.082031 C 198.113281 289.945312 196.96875 290.34375 196.328125 290.765625 Z M 196.328125 290.765625 " fill-opacity="1" fill-rule="nonzero"/><path fill="#f4c8e8" d="M 473.644531 296.304688 C 473.644531 296.304688 485.640625 306.949219 488.023438 313.695312 C 490.0625 319.457031 487.277344 324.03125 483.6875 326.347656 C 478.921875 329.421875 474.738281 328.4375 469.730469 322.953125 C 464.722656 317.472656 460.660156 312.097656 460.660156 312.097656 Z M 473.644531 296.304688 " fill-opacity="1" fill-rule="nonzero"/><path fill="#3f2b19" d="M 471.945312 296.921875 C 475.414062 300.007812 478.707031 303.363281 481.65625 306.949219 C 483.65625 309.378906 485.714844 312.085938 486.53125 315.179688 C 487.585938 319.164062 486.226562 323.332031 482.929688 325.84375 C 481.507812 326.933594 480.070312 327.574219 478.285156 327.148438 C 476.332031 326.6875 474.632812 325.417969 473.175781 324.085938 C 469.800781 321 466.90625 317.238281 464.070312 313.664062 C 463.683594 313.179688 463.308594 312.699219 462.933594 312.21875 C 462.890625 312.164062 462.246094 311.4375 462.390625 311.796875 C 462.457031 311.949219 462.210938 312.003906 462.472656 311.765625 C 462.65625 311.601562 462.804688 311.363281 462.957031 311.179688 C 464.277344 309.570312 465.605469 307.960938 466.925781 306.347656 C 469.707031 302.960938 472.492188 299.566406 475.28125 296.179688 C 476.011719 295.292969 472.574219 295.742188 472.007812 296.429688 C 467.6875 301.695312 463.355469 306.960938 459.03125 312.222656 C 458.914062 312.316406 458.859375 312.4375 458.863281 312.578125 C 461.851562 316.523438 465.015625 320.410156 468.429688 323.996094 C 470.402344 326.070312 472.789062 328.082031 475.6875 328.644531 C 478.234375 329.136719 480.9375 328.542969 483.253906 327.4375 C 488.136719 325.109375 491.476562 320.230469 490.265625 314.707031 C 489.28125 310.222656 485.742188 306.351562 482.746094 303.046875 C 480.410156 300.476562 477.9375 297.996094 475.339844 295.6875 C 474.617188 295.035156 471.367188 296.410156 471.945312 296.921875 Z M 471.945312 296.921875 " fill-opacity="1" fill-rule="nonzero"/><path fill="#f4c8e8" d="M 443.300781 215.25 C 415.40625 226.398438 419.550781 231.054688 413.21875 230.347656 C 406.890625 229.648438 387.902344 217.707031 366.140625 228.589844 C 359.519531 231.902344 354.582031 239.109375 351.796875 247.804688 C 349.058594 247.09375 343.605469 245.960938 337.183594 246.0625 C 330.761719 245.960938 325.308594 247.09375 322.566406 247.804688 C 319.785156 239.109375 314.851562 231.90625 308.226562 228.589844 C 286.464844 217.707031 267.476562 229.648438 261.148438 230.347656 C 254.816406 231.046875 261.261719 223.582031 233.367188 212.4375 C 213.871094 204.648438 182.730469 214.195312 182.730469 228.242188 C 182.730469 306.542969 237.589844 342.007812 262.554688 342.007812 C 287.523438 342.007812 311.78125 308.300781 320.929688 284.070312 C 323.132812 278.230469 324.34375 272.445312 324.730469 266.917969 C 328.707031 266.324219 332.519531 266.195312 336.046875 266.324219 L 336.046875 266.425781 C 336.414062 266.398438 336.804688 266.394531 337.183594 266.371094 C 337.554688 266.394531 337.949219 266.398438 338.316406 266.425781 L 338.316406 266.324219 C 341.847656 266.195312 345.660156 266.324219 349.632812 266.917969 C 350.023438 272.445312 351.234375 278.230469 353.4375 284.070312 C 362.578125 308.300781 386.84375 342.007812 411.8125 342.007812 C 436.777344 342.007812 501.324219 293.550781 491.632812 231.402344 C 489.476562 217.527344 462.804688 207.457031 443.300781 215.25 Z M 443.300781 215.25 " fill-opacity="1" fill-rule="nonzero"/><path fill="#3f2b19" d="M 442.515625 214.238281 C 434.949219 217.273438 427.285156 220.597656 420.585938 225.296875 C 419.273438 226.214844 418.042969 227.234375 416.765625 228.207031 C 416.558594 228.367188 416.34375 228.519531 416.132812 228.671875 C 416.042969 228.738281 415.949219 228.800781 415.855469 228.859375 C 415.472656 229.117188 416.15625 228.699219 415.828125 228.875 C 415.601562 228.996094 415.050781 229.199219 415.625 228.996094 C 415.382812 229.078125 414.730469 229.160156 415.351562 229.09375 C 415.089844 229.121094 414.835938 229.144531 414.574219 229.148438 C 415.125 229.132812 414.195312 229.121094 413.992188 229.101562 C 413.054688 229 412.199219 228.726562 411.214844 228.410156 C 408.003906 227.382812 404.851562 226.160156 401.613281 225.21875 C 392.296875 222.515625 382.460938 221.789062 373.054688 224.550781 C 367.539062 226.171875 362.324219 228.65625 358.347656 232.886719 C 354.449219 237.035156 351.835938 242.25 350.089844 247.625 C 351.007812 247.289062 351.933594 246.957031 352.855469 246.628906 C 342.941406 244.082031 332.175781 244.078125 322.261719 246.621094 C 322.96875 246.855469 323.675781 247.085938 324.382812 247.324219 C 321.5 238.46875 316.363281 230.570312 307.660156 226.644531 C 298.691406 222.59375 288.804688 221.941406 279.214844 223.820312 C 275.539062 224.542969 271.953125 225.636719 268.414062 226.855469 C 267.070312 227.320312 265.734375 227.804688 264.386719 228.25 C 263.855469 228.425781 263.324219 228.597656 262.785156 228.75 C 262.550781 228.816406 262.3125 228.882812 262.074219 228.941406 C 261.945312 228.972656 261.320312 229.09375 261.65625 229.039062 C 261.34375 229.089844 261.03125 229.117188 260.71875 229.128906 C 260.390625 229.136719 261.09375 229.132812 260.703125 229.121094 C 260.570312 229.117188 260.40625 229.105469 260.277344 229.066406 C 260.9375 229.265625 259.761719 228.765625 260.320312 229.074219 C 260.144531 228.972656 259.964844 228.875 259.820312 228.738281 C 260.011719 228.917969 259.734375 228.65625 259.597656 228.488281 C 259.441406 228.300781 259.292969 228.109375 259.148438 227.917969 C 258.789062 227.4375 258.457031 226.9375 258.105469 226.457031 C 255.199219 222.488281 251.15625 219.5625 246.921875 217.144531 C 239.378906 212.847656 231.175781 209.3125 222.472656 208.566406 C 214.535156 207.882812 206.296875 208.890625 198.773438 211.511719 C 192.75 213.609375 186.316406 216.824219 182.789062 222.367188 C 181.066406 225.070312 180.878906 227.792969 180.929688 230.917969 C 181 235.566406 181.261719 240.21875 181.742188 244.847656 C 182.628906 253.515625 184.277344 262.113281 186.789062 270.464844 C 191 284.496094 197.664062 297.84375 206.703125 309.40625 C 214.050781 318.808594 222.984375 327.125 233.160156 333.40625 C 240.699219 338.0625 249.199219 341.910156 258.074219 343.023438 C 272.605469 344.84375 285.742188 336.199219 295.59375 326.390625 C 301.914062 320.105469 307.34375 312.925781 312.058594 305.367188 C 316.578125 298.117188 320.605469 290.378906 323.363281 282.273438 C 325.070312 277.25 326.167969 272.0625 326.5625 266.769531 C 325.894531 267.246094 325.230469 267.71875 324.5625 268.195312 C 328.164062 267.675781 331.785156 267.476562 335.417969 267.59375 C 335.023438 267.21875 334.625 266.847656 334.230469 266.476562 C 334.230469 266.507812 334.230469 266.546875 334.230469 266.578125 C 334.230469 267.476562 335.113281 267.734375 335.878906 267.695312 C 336.488281 267.664062 337.078125 267.664062 337.683594 267.691406 C 338.4375 267.730469 340.140625 267.34375 340.140625 266.273438 C 340.140625 266.238281 340.140625 266.203125 340.140625 266.167969 C 339.472656 266.644531 338.8125 267.117188 338.140625 267.59375 C 341.78125 267.472656 345.398438 267.664062 349 268.183594 C 348.609375 267.921875 348.21875 267.664062 347.832031 267.398438 C 348.796875 280.335938 354.296875 292.410156 360.839844 303.441406 C 367.0625 313.921875 374.695312 323.824219 384.085938 331.671875 C 391.957031 338.25 401.792969 343.625 412.34375 343.261719 C 418.667969 343.042969 424.9375 340.609375 430.5625 337.898438 C 447.089844 329.9375 461.625 317.160156 472.753906 302.691406 C 485.785156 285.753906 494.523438 265.164062 494.441406 243.5625 C 494.429688 240.773438 494.273438 237.980469 493.992188 235.203125 C 493.734375 232.71875 493.53125 230.140625 492.53125 227.820312 C 490.769531 223.714844 487.371094 220.535156 483.660156 218.15625 C 474.25 212.113281 461.964844 210.019531 451 211.867188 C 448.089844 212.371094 445.273438 213.152344 442.515625 214.238281 C 441.847656 214.5 441.15625 215.332031 441.644531 216.03125 C 442.171875 216.78125 443.398438 216.535156 444.089844 216.261719 C 454.292969 212.261719 466.414062 213.28125 476.304688 217.71875 C 480.453125 219.578125 484.492188 222.230469 487.234375 225.921875 C 490.082031 229.761719 490.347656 234.535156 490.640625 239.15625 C 491.980469 259.875 484.882812 280.171875 473.15625 297.070312 C 462.949219 311.78125 449.265625 324.753906 433.578125 333.5 C 428.179688 336.507812 421.925781 339.367188 416.097656 340.375 C 407.5625 341.851562 399.101562 338.347656 392.148438 333.636719 C 382.535156 327.121094 374.769531 318.007812 368.316406 308.453125 C 361.839844 298.867188 355.980469 288.128906 353.125 276.851562 C 352.257812 273.4375 351.707031 269.957031 351.449219 266.449219 C 351.410156 265.933594 350.667969 265.71875 350.28125 265.664062 C 346.375 265.097656 342.445312 264.9375 338.5 265.0625 C 337.820312 265.085938 336.5 265.644531 336.5 266.488281 C 336.5 266.519531 336.5 266.558594 336.5 266.589844 C 337.320312 266.121094 338.136719 265.644531 338.957031 265.171875 C 338.039062 265.128906 337.144531 265.125 336.230469 265.167969 C 336.777344 265.539062 337.332031 265.910156 337.878906 266.285156 C 337.878906 266.25 337.878906 266.210938 337.878906 266.179688 C 337.878906 265.527344 337.335938 265.085938 336.691406 265.0625 C 332.746094 264.9375 328.816406 265.089844 324.90625 265.65625 C 324.179688 265.757812 322.980469 266.167969 322.90625 267.078125 C 322.199219 276.527344 319.058594 285.332031 314.890625 293.769531 C 311.109375 301.421875 306.578125 308.726562 301.332031 315.46875 C 296.1875 322.085938 290.332031 328.289062 283.46875 333.15625 C 277.59375 337.320312 270.78125 340.542969 263.464844 340.734375 C 262.1875 340.765625 260.1875 340.628906 258.523438 340.382812 C 256.730469 340.121094 255.125 339.753906 253.359375 339.261719 C 249.214844 338.097656 245.210938 336.449219 241.398438 334.472656 C 231.722656 329.46875 223.070312 322.550781 215.707031 314.558594 C 206.574219 304.660156 199.371094 293.066406 194.304688 280.609375 C 187.992188 265.085938 184.957031 248.351562 184.59375 231.628906 C 184.53125 228.507812 184.398438 225.703125 186.082031 222.964844 C 187.511719 220.640625 189.71875 218.851562 192 217.398438 C 197.945312 213.589844 205.25 211.769531 212.21875 211.140625 C 216.019531 210.800781 219.839844 210.84375 223.621094 211.363281 C 227.742188 211.929688 231.539062 213.234375 235.347656 214.867188 C 241.441406 217.476562 247.96875 220.585938 252.628906 225.4375 C 253.644531 226.496094 254.527344 227.648438 255.371094 228.84375 C 255.925781 229.625 256.488281 230.445312 257.304688 230.976562 C 260.214844 232.863281 264.578125 230.773438 267.40625 229.789062 C 274.546875 227.292969 281.855469 225.144531 289.5 225.3125 C 298.8125 225.519531 308.757812 228.660156 314.628906 236.226562 C 317.421875 239.824219 319.355469 243.972656 320.757812 248.285156 C 321.035156 249.128906 322.179688 249.167969 322.878906 248.984375 C 331.878906 246.671875 341.742188 246.664062 350.742188 248.980469 C 351.5625 249.1875 353.183594 248.980469 353.507812 247.984375 C 355.066406 243.203125 357.269531 238.539062 360.582031 234.707031 C 363.929688 230.839844 368.300781 228.574219 373.148438 227.082031 C 382.34375 224.246094 391.867188 225.203125 400.9375 228.011719 C 403.910156 228.929688 406.808594 230.085938 409.785156 230.980469 C 411.421875 231.476562 413.136719 231.835938 414.859375 231.648438 C 417.628906 231.347656 419.578125 229.351562 421.695312 227.757812 C 428.414062 222.730469 436.339844 219.363281 444.082031 216.261719 C 444.746094 215.992188 445.441406 215.171875 444.953125 214.46875 C 444.433594 213.722656 443.199219 213.964844 442.515625 214.238281 Z M 442.515625 214.238281 " fill-opacity="1" fill-rule="nonzero"/><path fill="#da5e9d" d="M 273.839844 241.96875 C 259.835938 245.648438 257.523438 252.203125 253.703125 249.03125 C 249.886719 245.855469 227.691406 228.914062 212.390625 241.238281 C 197.089844 253.5625 206.328125 280.578125 218.636719 295.242188 C 230.945312 309.910156 248.433594 327.699219 260.503906 327.421875 C 277.121094 327.03125 296.390625 303.929688 301.957031 287.003906 C 308.894531 265.929688 302.203125 234.515625 273.839844 241.96875 Z M 273.839844 241.96875 " fill-opacity="1" fill-rule="nonzero"/><path fill="#3f2b19" d="M 273.703125 241.460938 C 268.144531 242.957031 263.15625 245.308594 258.253906 248.253906 C 257.78125 248.539062 256.851562 248.832031 256.484375 249.230469 C 256.144531 249.605469 256.707031 248.96875 256.867188 249.171875 C 256.898438 249.214844 256.660156 249.15625 256.449219 249.074219 C 255.421875 248.65625 254.539062 247.710938 253.65625 247.042969 C 246.378906 241.53125 237.582031 236.828125 228.328125 236.171875 C 217.3125 235.382812 206.464844 241.652344 203.539062 252.601562 C 200.648438 263.421875 204.464844 275.367188 209.578125 284.917969 C 212.367188 290.125 215.898438 294.707031 219.761719 299.160156 C 224.398438 304.507812 229.242188 309.691406 234.464844 314.46875 C 242.214844 321.554688 252.015625 329.761719 263.257812 327.714844 C 274.738281 325.625 284.234375 317.070312 291.347656 308.3125 C 298.269531 299.789062 303.820312 289.863281 305.597656 278.9375 C 307.039062 270.058594 306.511719 260.1875 302.335938 252.066406 C 300.488281 248.472656 297.8125 245.230469 294.339844 243.109375 C 290.582031 240.808594 286.152344 239.996094 281.789062 240.179688 C 279.054688 240.296875 276.355469 240.78125 273.703125 241.460938 C 273.394531 241.539062 271.898438 241.941406 272.035156 242.453125 C 272.171875 242.957031 273.738281 242.539062 273.976562 242.480469 C 282.550781 240.273438 291.378906 242.328125 296.710938 249.71875 C 301.675781 256.605469 303.03125 265.703125 302.621094 273.996094 C 302.117188 284.042969 298.527344 293.261719 293.101562 301.667969 C 289.878906 306.664062 286.121094 311.34375 281.851562 315.484375 C 277.894531 319.328125 273.429688 322.878906 268.34375 325.09375 C 264.066406 326.957031 259.855469 327.152344 255.496094 325.445312 C 250.273438 323.398438 245.632812 319.921875 241.375 316.339844 C 236.304688 312.070312 231.632812 307.34375 227.175781 302.457031 C 223.1875 298.082031 219.179688 293.640625 215.96875 288.65625 C 210.164062 279.652344 205.757812 268.613281 206.246094 257.746094 C 206.703125 247.640625 213.394531 237.367188 224.453125 237.515625 C 233.554688 237.632812 242.398438 242.472656 249.5625 247.738281 C 251.628906 249.257812 253.101562 250.941406 255.886719 250.464844 C 259.402344 249.863281 262.324219 247.34375 265.414062 245.746094 C 268.144531 244.335938 271.023438 243.285156 273.980469 242.484375 C 274.289062 242.402344 275.789062 242.007812 275.648438 241.496094 C 275.511719 240.984375 273.9375 241.402344 273.703125 241.460938 Z M 273.703125 241.460938 " fill-opacity="1" fill-rule="nonzero"/><path fill="#da5e9d" d="M 400.527344 241.96875 C 414.527344 245.648438 416.839844 252.203125 420.660156 249.03125 C 424.480469 245.855469 446.675781 228.914062 461.976562 241.238281 C 477.277344 253.5625 468.035156 280.578125 455.726562 295.242188 C 443.414062 309.910156 425.933594 327.699219 413.859375 327.421875 C 397.246094 327.03125 377.976562 303.929688 372.410156 287.003906 C 365.472656 265.929688 372.167969 234.515625 400.527344 241.96875 Z M 400.527344 241.96875 " fill-opacity="1" fill-rule="nonzero"/><path fill="#3f2b19" d="M 399.042969 242.648438 C 404.285156 244.054688 408.828125 246.398438 413.464844 249.128906 C 416.113281 250.6875 418.816406 251.132812 421.585938 249.390625 C 424.035156 247.851562 426.203125 245.863281 428.667969 244.3125 C 432.601562 241.84375 436.828125 239.683594 441.320312 238.453125 C 446.175781 237.128906 451.410156 237.101562 456.050781 239.21875 C 460.832031 241.402344 464.558594 245.445312 466.453125 250.320312 C 470.320312 260.257812 467.296875 271.855469 463.011719 281.140625 C 457.941406 292.128906 449.613281 301.195312 441.125 309.671875 C 436.628906 314.160156 431.875 318.523438 426.578125 322.050781 C 422.878906 324.515625 418.632812 327.066406 414.019531 326.671875 C 408.894531 326.234375 404.085938 323.730469 399.929688 320.835938 C 395.140625 317.492188 390.910156 313.34375 387.183594 308.871094 C 380.4375 300.765625 374.792969 291.199219 372.714844 280.769531 C 371.015625 272.242188 371.191406 262.878906 374.46875 254.742188 C 377.40625 247.441406 383.210938 241.5 391.496094 241.558594 C 394.042969 241.570312 396.566406 242.007812 399.042969 242.648438 C 399.808594 242.847656 400.871094 242.5 401.558594 242.171875 C 401.871094 242.023438 402.789062 241.5 402.019531 241.304688 C 392.964844 238.976562 382.492188 240.179688 375.882812 247.367188 C 369.953125 253.808594 368.035156 263.109375 368.078125 271.621094 C 368.128906 282.105469 371.464844 291.851562 376.980469 300.703125 C 383.132812 310.59375 391.703125 320.441406 402.421875 325.5 C 406.847656 327.585938 411.75 328.710938 416.613281 327.753906 C 422.035156 326.6875 426.945312 323.847656 431.386719 320.65625 C 436.941406 316.65625 441.957031 311.910156 446.695312 306.992188 C 451.140625 302.382812 455.597656 297.601562 459.445312 292.472656 C 466.25 283.394531 471.359375 271.9375 471.753906 260.476562 C 471.933594 255.261719 470.964844 249.898438 468.070312 245.476562 C 465.152344 241.023438 460.5625 237.8125 455.359375 236.652344 C 445.195312 234.386719 434.242188 239.03125 425.789062 244.363281 C 424.195312 245.367188 422.640625 246.4375 421.132812 247.5625 C 420.632812 247.933594 420.140625 248.3125 419.660156 248.703125 C 419.484375 248.84375 419.300781 248.980469 419.132812 249.128906 C 419.066406 249.183594 418.941406 249.253906 418.890625 249.324219 C 418.695312 249.617188 418.65625 249.308594 418.875 249.378906 C 418.96875 249.414062 419.730469 249.089844 419.785156 249.183594 C 419.8125 249.226562 419.457031 249.128906 419.488281 249.144531 C 419.296875 249.023438 418.957031 248.996094 418.738281 248.910156 C 418.054688 248.636719 417.40625 248.242188 416.777344 247.871094 C 414.875 246.742188 413.011719 245.582031 411.023438 244.609375 C 408.144531 243.195312 405.121094 242.136719 402.027344 241.304688 C 401.265625 241.101562 400.191406 241.457031 399.511719 241.777344 C 399.179688 241.925781 398.273438 242.441406 399.042969 242.648438 Z M 399.042969 242.648438 " fill-opacity="1" fill-rule="nonzero"/></svg>